<?xml version="1.0" standalone="no"?>
<!DOCTYPE svg PUBLIC "-//W3C//DTD SVG 1.1//EN" "http://www.w3.org/Graphics/SVG/1.1/DTD/svg11.dtd" >
<svg>
<metadata>
Created by FontForge 20090914 at Sat Oct 17 09:09:44 2020
 By www-data
Copyright 2019 IBM Corp. All rights reserved.
</metadata>
<defs>
<font id="IBMPlexSansThai-Text" horiz-adv-x="600" >
  <font-face 
    font-family="IBM Plex Sans Thai Text"
    font-weight="450"
    font-stretch="normal"
    units-per-em="1000"
    panose-1="2 11 5 3 5 2 3 0 2 3"
    ascent="780"
    descent="-220"
    x-height="518"
    cap-height="698"
    bbox="-438.001 -533 1630 1084"
    underline-thickness="68"
    underline-position="-55"
    unicode-range="U+000D-U+FB02"
  />
<missing-glyph horiz-adv-x="472" 
d="M32 0v780h408v-780h-408zM100 68h272v644h-272v-644z" />
    <glyph glyph-name="fi" unicode="fi" horiz-adv-x="582" 
d="M110 439h-83v79h83v96c0 38 10 68.5 30 91.5s50.333 34.5 91 34.5h81v-79h-109v-143h297v-518h-93v439h-204v-439h-93v439zM454 626c-19.333 0 -33.5 4.66699 -42.5 14s-13.5 21.666 -13.5 36.999v14c0 15.333 4.5 27.666 13.5 36.999s23.167 14 42.5 14
s33.5 -4.66699 42.5 -14s13.5 -21.666 13.5 -36.999v-14c0 -15.333 -4.5 -27.666 -13.5 -36.999s-23.167 -14 -42.5 -14z" />
    <glyph glyph-name="uni0E260E45" unicode="&#xe26;&#xe45;" horiz-adv-x="931" 
d="M441 328c0 50 -12.9951 87.999 -38.9951 113.999s-61.333 39 -106 39c-40 0 -74 -8.83301 -102 -26.5s-47 -41.5 -57 -71.5l48 -19c16 -6.66699 27.333 -14.334 34 -23.001s10 -21.334 10 -38.001v-208c0 -30 -7.83301 -53.333 -23.5 -70s-39.834 -25 -72.501 -25h-58v79
h61v229l-86 36c2 32 9.66699 61.167 23 87.5s30.666 49 51.999 68s46.5 33.833 75.5 44.5s60.5 16 94.5 16c43.333 0 81 -6.66699 113 -20s58 -31.666 78 -54.999c17.333 22 39.666 40 66.999 54s61.666 21 102.999 21c64.667 0 114 -15.667 148 -47s51 -75.666 51 -132.999
v-564h-93v557c0 72.667 -37.333 109 -112 109c-30.667 0 -55.834 -6.66699 -75.501 -20s-36.167 -30.666 -49.5 -51.999c6 -22 9 -45.667 9 -71v-523h-93v512z" />
    <glyph glyph-name="uni0E240E45" unicode="&#xe24;&#xe45;" horiz-adv-x="935" 
d="M445 328c0 50 -13.834 87.999 -41.501 113.999s-64.5 39 -110.5 39c-39.333 0 -73.666 -8.83301 -102.999 -26.5s-48.666 -41.5 -57.999 -71.5l48 -19c16 -6.66699 27.333 -14.334 34 -23.001s10 -21.334 10 -38.001v-224h61v-79h-57c-32.667 0 -57 8.33301 -73 25
s-24 40 -24 70v213l-86 36c2 32 9.66699 61.167 23 87.5s31 49 53 68s47.667 33.833 77 44.5s61 16 95 16c44.667 0 83.167 -6.66699 115.5 -20s58.833 -31.666 79.5 -54.999c17.333 22 40 40 68 54s62.667 21 104 21c64.667 0 114 -15.667 148 -47s51 -75.666 51 -132.999
v-564h-93v557c0 72.667 -37.333 109 -112 109c-30.667 0 -55.834 -6.66699 -75.501 -20s-36.167 -31 -49.5 -53c6 -21.333 9 -44.666 9 -69.999v-523h-93v512z" />
    <glyph glyph-name=".notdef" horiz-adv-x="472" 
d="M32 0v780h408v-780h-408zM100 68h272v644h-272v-644z" />
    <glyph glyph-name=".null" horiz-adv-x="0" 
 />
    <glyph glyph-name=".null" horiz-adv-x="0" 
 />
    <glyph glyph-name="uni000D" unicode="&#xd;" horiz-adv-x="236" 
 />
    <glyph glyph-name="space" unicode=" " horiz-adv-x="236" 
 />
    <glyph glyph-name="exclam" unicode="!" horiz-adv-x="290" 
d="M123 192l-28 305v201h100v-201l-28 -305h-44zM145 -12c-23.333 0 -40.166 5.83301 -50.499 17.5s-15.5 26.5 -15.5 44.5v15c0 18 5.16699 32.833 15.5 44.5s27.166 17.5 50.499 17.5s40.166 -5.83301 50.499 -17.5s15.5 -26.5 15.5 -44.5v-15
c0 -18 -5.16699 -32.833 -15.5 -44.5s-27.166 -17.5 -50.499 -17.5z" />
    <glyph glyph-name="quotedbl" unicode="&#x22;" horiz-adv-x="432" 
d="M82 451v289h83v-289h-83zM267 451v289h83v-289h-83z" />
    <glyph glyph-name="numbersign" unicode="#" horiz-adv-x="698" 
d="M400 199h-154l-34 -199h-70l34 199h-123v66h135l28 168h-123v66h135l34 199h70l-34 -199h154l34 199h70l-34 -199h123v-66h-135l-28 -168h123v-66h-135l-34 -199h-70zM412 265l28 168h-154l-28 -168h154z" />
    <glyph glyph-name="dollar" unicode="$" horiz-adv-x="599" 
d="M266 -82v84.001c-50.667 3.33301 -93.5 15.5 -128.5 36.5s-64.833 47.5 -89.5 79.5l65 59c21.333 -27.333 44.666 -49 69.999 -65s54 -26.333 86 -31v242c-70 15.333 -120.833 38.166 -152.5 68.499s-47.5 71.166 -47.5 122.499c0 53.333 18 95.5 54 126.5
s83.667 49.5 143 55.5v84h72v-83c44 -4.66699 82.333 -16 115 -34s60.667 -43 84 -75l-66 -53c-16 21.333 -35 39 -57 53s-48.333 23.667 -79 29v-221c38.667 -8.66699 70.834 -18.667 96.501 -30s46.667 -24.666 63 -39.999s28.5 -33 36.5 -53s12 -43.333 12 -70
c0 -56 -18 -101.5 -54 -136.5s-86.333 -56.167 -151 -63.5v-85h-72zM453 197.001c0 30 -8.83301 53.6689 -26.5 71.002s-48.167 31.333 -91.5 42v-229c36.667 5.33301 65.5 18.166 86.5 38.499s31.5 46.166 31.5 77.499zM159 519.003c0 -31.333 9 -54.667 27 -70
s45.667 -28.333 83 -39v207c-34 -4.66699 -60.833 -15.167 -80.5 -31.5s-29.5 -38.5 -29.5 -66.5z" />
    <glyph glyph-name="percent" unicode="%" horiz-adv-x="938" 
d="M183 0l484 698h88l-484 -698h-88zM225 314c-52 0 -92.167 16.833 -120.5 50.5s-42.5 82.834 -42.5 147.501s14.167 113.834 42.5 147.501s68.5 50.5 120.5 50.5s92.167 -16.833 120.5 -50.5s42.5 -82.834 42.5 -147.501s-14.167 -113.834 -42.5 -147.501
s-68.5 -50.5 -120.5 -50.5zM225 373c53.333 0 80 36.667 80 110v58c0 73.333 -26.667 110 -80 110s-80 -36.667 -80 -110v-58c0 -73.333 26.667 -110 80 -110zM713 -12c-52 0 -92.167 16.833 -120.5 50.5s-42.5 82.834 -42.5 147.501s14.167 113.834 42.5 147.501
s68.5 50.5 120.5 50.5s92.167 -16.833 120.5 -50.5s42.5 -82.834 42.5 -147.501s-14.167 -113.834 -42.5 -147.501s-68.5 -50.5 -120.5 -50.5zM713 47c53.333 0 80 36.667 80 110v58c0 73.333 -26.667 110 -80 110s-80 -36.667 -80 -110v-58c0 -73.333 26.667 -110 80 -110z
" />
    <glyph glyph-name="ampersand" unicode="&#x26;" horiz-adv-x="699" 
d="M489 77c-8 -8.66699 -17.8281 -18.168 -29.4951 -28.501s-25.834 -20 -42.501 -29s-35.834 -16.5 -57.501 -22.5s-46.167 -9 -73.5 -9c-35.333 0 -66.5 5 -93.5 15s-49.833 23.667 -68.5 41s-32.667 37.666 -42 60.999s-14 48.666 -14 75.999c0 26 4 48.833 12 68.5
s18.5 37.334 31.5 53.001s28.167 29.667 45.5 42s35 23.5 53 33.5c-23.333 24.667 -42.166 50.334 -56.499 77.001s-21.5 55.667 -21.5 87c0 23.333 4.33301 45.333 13 66s21.167 38.5 37.5 53.5s36 26.833 59 35.5s48.5 13 76.5 13c25.333 0 48.666 -3.66699 69.999 -11
s39.666 -17.5 54.999 -30.5s27.333 -29 36 -48s13 -39.833 13 -62.5s-4.16699 -43.167 -12.5 -61.5s-19.5 -35.166 -33.5 -50.499s-30.5 -29.5 -49.5 -42.5s-39.167 -25.5 -60.5 -37.5l148 -159c9.33301 25.333 16.666 51.833 21.999 79.5s8.66602 55.5 9.99902 83.5h142
v-78h-69c-10 -55.333 -26 -104 -48 -146l137 -146h-119zM314.005 633.999c-26.667 0 -48.668 -8.16602 -66.001 -24.499s-26 -37.166 -26 -62.499v-10c0 -19.333 5.83301 -38.333 17.5 -57s27.834 -39.334 48.501 -62.001c14.667 8 29 16.667 43 26s26.333 19.333 37 30
s19.167 21.667 25.5 33s9.5 23.666 9.5 36.999v11c0 25.333 -8.83301 44.833 -26.5 58.5s-38.5 20.5 -62.5 20.5zM296.004 68c31.333 0 58.4971 5.83203 81.4971 17.499s43.167 27.167 60.5 46.5l-180 193c-13.333 -7.33301 -25.666 -14.833 -36.999 -22.5
s-21.166 -16.5 -29.499 -26.5s-15 -21.667 -20 -35s-7.5 -28.666 -7.5 -45.999v-14c0 -34.667 11.833 -62.167 35.5 -82.5s55.834 -30.5 96.501 -30.5z" />
    <glyph glyph-name="quotesingle" unicode="'" horiz-adv-x="247" 
d="M82 451v289h83v-289h-83z" />
    <glyph glyph-name="parenleft" unicode="(" horiz-adv-x="338" 
d="M74 312c0 48.667 4.66699 95.332 14 139.999s22.166 86.334 38.499 125.001s35.5 73.5 57.5 104.5s45.333 57.167 70 78.5h90c-27.333 -24 -52.166 -51.833 -74.499 -83.5s-41.5 -65.334 -57.5 -101.001s-28.5 -72.5 -37.5 -110.5s-13.5 -75.333 -13.5 -112v-82
c0 -36.667 4.5 -74 13.5 -112s21.5 -74.833 37.5 -110.5s35.167 -69.334 57.5 -101.001s47.166 -59.5 74.499 -83.5h-90c-24.667 20.667 -48 46.667 -70 78s-41.167 66.333 -57.5 105s-29.166 80.334 -38.499 125.001s-14 91.334 -14 140.001z" />
    <glyph glyph-name="parenright" unicode=")" horiz-adv-x="338" 
d="M264 312c0 -48.667 -4.66699 -95.332 -14 -139.999s-22.166 -86.334 -38.499 -125.001s-35.5 -73.667 -57.5 -105s-45.333 -57.333 -70 -78h-90c27.333 24 52.166 51.833 74.499 83.5s41.5 65.334 57.5 101.001s28.5 72.5 37.5 110.5s13.5 75.333 13.5 112v82
c0 36.667 -4.5 74 -13.5 112s-21.5 74.833 -37.5 110.5s-35.167 69.334 -57.5 101.001s-47.166 59.5 -74.499 83.5h90c24.667 -21.333 48 -47.5 70 -78.5s41.167 -65.833 57.5 -104.5s29.166 -80.334 38.499 -125.001s14 -91.334 14 -140.001z" />
    <glyph glyph-name="asterisk" unicode="*" horiz-adv-x="479" 
d="M153 359l-66 47l98 123l-150 42l26 76l145 -55l-7 155h81l-6 -155l145 55l25 -76l-150 -42l98 -123l-65 -46l-87 130z" />
    <glyph glyph-name="plus" unicode="+" 
d="M257 62v204h-190v78h190v204h86v-204h190v-78h-190v-204h-86z" />
    <glyph glyph-name="comma" unicode="," horiz-adv-x="279" 
d="M140 127c23.333 0 40.168 -5.83008 50.501 -17.4971s15.5 -26.834 15.5 -45.501v-15c0 -30 -8.16699 -61.833 -24.5 -95.5s-39.5 -62.834 -69.5 -87.501h-73c20.667 21.333 37.5 41.666 50.5 60.999s22.5 40.666 28.5 63.999c-15.333 3.33301 -26.5 10 -33.5 20
s-10.5 22.667 -10.5 38v15c0 18.667 5.16699 33.834 15.5 45.501s27.166 17.5 50.499 17.5z" />
    <glyph glyph-name="hyphen" unicode="-" horiz-adv-x="400" 
d="M66 256v97h268v-97h-268z" />
    <glyph glyph-name="period" unicode="." horiz-adv-x="278" 
d="M139 -12c-23.333 0 -40.166 5.83301 -50.499 17.5s-15.5 26.5 -15.5 44.5v15c0 18 5.16699 32.833 15.5 44.5s27.166 17.5 50.499 17.5s40.166 -5.83301 50.499 -17.5s15.5 -26.5 15.5 -44.5v-15c0 -18 -5.16699 -32.833 -15.5 -44.5s-27.166 -17.5 -50.499 -17.5z" />
    <glyph glyph-name="slash" unicode="/" horiz-adv-x="399" 
d="M9 -151l269 891h82l-269 -891h-82z" />
    <glyph glyph-name="zero" unicode="0" 
d="M300 -12c-42.667 0 -79.5 8.16602 -110.5 24.499s-56.5 39.833 -76.5 70.5s-34.833 68.334 -44.5 113.001s-14.5 95.667 -14.5 153c0 56.667 4.83301 107.5 14.5 152.5s24.5 82.833 44.5 113.5s45.5 54.167 76.5 70.5s67.833 24.5 110.5 24.5
c84.667 0 146.834 -31.667 186.501 -95s59.5 -152 59.5 -266s-19.833 -202.667 -59.5 -266s-101.834 -95 -186.501 -95zM300 72.999c26 0 48.167 5.33301 66.5 16s33.166 25.5 44.499 44.5s19.666 41.833 24.999 68.5s8 56 8 88v118c0 32 -2.66699 61.333 -8 88
s-13.666 49.5 -24.999 68.5s-26.166 33.833 -44.499 44.5s-40.5 16 -66.5 16s-48.167 -5.33301 -66.5 -16s-33.166 -25.5 -44.499 -44.5s-19.666 -41.833 -24.999 -68.5s-8 -56 -8 -88v-118c0 -32 2.66699 -61.333 8 -88s13.666 -49.5 24.999 -68.5
s26.166 -33.833 44.499 -44.5s40.5 -16 66.5 -16z" />
    <glyph glyph-name="one" unicode="1" 
d="M86 0v86h191v541h-7l-169 -168l-58 57l181 182h150v-612h175v-86h-463z" />
    <glyph glyph-name="two" unicode="2" 
d="M536 0l-463.999 -0.000976562v96l225 205c34 30.667 61.333 61.834 82 93.501s31 64.167 31 97.5v12c0 36 -10.5 64.833 -31.5 86.5s-51.167 32.5 -90.5 32.5c-20.667 0 -38.667 -2.83301 -54 -8.5s-28.5 -13.667 -39.5 -24s-20 -22.333 -27 -36
s-12.833 -28.5 -17.5 -44.5l-86 33c6.66699 21.333 16 42 28 62s27.333 37.833 46 53.5s40.834 28.167 66.501 37.5s55.5 14 89.5 14c34.667 0 65.667 -5 93 -15s50.333 -24 69 -42s33 -39.5 43 -64.5s15 -52.5 15 -82.5c0 -28 -4 -53.833 -12 -77.5
s-19.333 -46.167 -34 -67.5s-31.834 -41.833 -51.501 -61.5s-40.834 -39.5 -63.501 -59.5l-173 -154h356v-86z" />
    <glyph glyph-name="three" unicode="3" 
d="M262 406c45.333 0 79.166 10.168 101.499 30.501s33.5 46.166 33.5 77.499v7c0 34.667 -10.833 60.834 -32.5 78.501s-50.5 26.5 -86.5 26.5c-34.667 0 -63.5 -7.66699 -86.5 -23s-42.167 -36.333 -57.5 -63l-68 55c10 14.667 21.333 29 34 43s27.667 26.333 45 37
s37.166 19.167 59.499 25.5s47.5 9.5 75.5 9.5c31.333 0 60.333 -4 87 -12s49.834 -19.5 69.501 -34.5s35 -33.667 46 -56s16.5 -47.5 16.5 -75.5c0 -22.667 -3.5 -43 -10.5 -61s-16.5 -33.667 -28.5 -47s-26.167 -24.5 -42.5 -33.5s-33.833 -15.833 -52.5 -20.5v-4
c19.333 -4 37.833 -10.333 55.5 -19s33.334 -20.334 47.001 -35.001s24.5 -31.834 32.5 -51.501s12 -42.5 12 -68.5c0 -30 -5.83301 -57.5 -17.5 -82.5s-28 -46.5 -49 -64.5s-46.5 -32 -76.5 -42s-63 -15 -99 -15c-31.333 0 -59 3.5 -83 10.5s-45.333 16.167 -64 27.5
s-35 24.333 -49 39s-26.333 29.667 -37 45l73 55c16.667 -27.333 37 -49.666 61 -66.999s56.667 -26 98 -26c46 0 81.167 10.5 105.5 31.5s36.5 50.833 36.5 89.5v9c0 38.667 -12.167 68.5 -36.5 89.5s-59.5 31.5 -105.5 31.5h-81v83h74z" />
    <glyph glyph-name="four" unicode="4" 
d="M368 0v136h-332v85l289 477h135v-483h98v-79h-98v-136h-92zM123 215h245v401h-6z" />
    <glyph glyph-name="five" unicode="5" 
d="M503 613l-308.998 0.000976562l-19 -257h8c16 25.333 34.5 45.5 55.5 60.5s50.5 22.5 88.5 22.5c30 0 57.833 -5 83.5 -15s47.667 -24.167 66 -42.5s32.833 -41 43.5 -68s16 -57.5 16 -91.5s-5.5 -65.333 -16.5 -94s-26.667 -53.334 -47 -74.001
s-45.5 -36.834 -75.5 -48.501s-64 -17.5 -102 -17.5c-30 0 -56.5 3.5 -79.5 10.5s-43.5 16.167 -61.5 27.5s-33.667 24.333 -47 39s-25.333 29.667 -36 45l72 55c8.66699 -14 17.667 -26.667 27 -38s19.833 -21 31.5 -29s25 -14.333 40 -19s32.833 -7 53.5 -7
c45.333 0 79.833 12 103.5 36s35.5 58 35.5 102v10c0 44 -11.833 78 -35.5 102s-58.167 36 -103.5 36c-15.333 0 -29 -1.66699 -41 -5s-22.833 -7.66602 -32.5 -12.999s-18.334 -11.333 -26.001 -18s-14.834 -13.667 -21.501 -21l-81 11l25 386h385v-85z" />
    <glyph glyph-name="six" unicode="6" 
d="M301 -12c-37.333 0 -70.8301 6.17285 -100.497 18.5059s-54.834 30.166 -75.501 53.499s-36.5 51.666 -47.5 84.999s-16.5 71 -16.5 113c0 51.333 7.66699 99.5 23 144.5s35 86.333 59 124s50.833 71 80.5 100s58.5 52.833 86.5 71.5h127c-38 -28 -72.167 -55 -102.5 -81
s-56.666 -53.167 -78.999 -81.5s-41.333 -58.5 -57 -90.5s-27.834 -67.667 -36.501 -107l5 -2c8 14 17.167 27.167 27.5 39.5s22.166 23 35.499 32s28.5 16.167 45.5 21.5s36.167 8 57.5 8c30 0 57.5 -5 82.5 -15s46.667 -24.333 65 -43s32.666 -41.334 42.999 -68.001
s15.5 -56.334 15.5 -89.001c0 -34.667 -5.66699 -66.334 -17 -95.001s-27.5 -53.334 -48.5 -74.001s-46 -36.667 -75 -48s-61.5 -17 -97.5 -17zM300.003 69.0059c44 0 78.167 12 102.5 36s36.5 58.667 36.5 104v9c0 45.333 -12.167 80 -36.5 104s-58.5 36 -102.5 36
s-78.167 -12 -102.5 -36s-36.5 -58.667 -36.5 -104v-9c0 -45.333 12.167 -80 36.5 -104s58.5 -36 102.5 -36z" />
    <glyph glyph-name="seven" unicode="7" 
d="M173 0l261 616h-283v-129h-85v211h465v-85l-255 -613h-103z" />
    <glyph glyph-name="eight" unicode="8" 
d="M300 -12c-40 0 -75.333 5.16699 -106 15.5s-56.167 24.5 -76.5 42.5s-35.833 39.333 -46.5 64s-16 51.334 -16 80.001c0 47.333 12.833 85 38.5 113s59.5 47.667 101.5 59v8c-36 12.667 -64.833 33 -86.5 61s-32.5 62 -32.5 102c0 53.333 19.5 96.166 58.5 128.499
s94.167 48.5 165.5 48.5s126.5 -16.167 165.5 -48.5s58.5 -75.166 58.5 -128.499c0 -40 -10.833 -74 -32.5 -102s-50.5 -48.333 -86.5 -61v-8c42 -11.333 75.833 -31 101.5 -59s38.5 -65.667 38.5 -113c0 -28.667 -5.33301 -55.334 -16 -80.001s-26.167 -46 -46.5 -64
s-45.833 -32.167 -76.5 -42.5s-66 -15.5 -106 -15.5zM300 69c46 0 81.333 10.333 106 31s37 49.667 37 87v21c0 37.333 -12.333 66.333 -37 87s-60 31 -106 31s-81.333 -10.333 -106 -31s-37 -49.667 -37 -87v-21c0 -37.333 12.333 -66.333 37 -87s60 -31 106 -31zM300 404
c41.333 0 72.833 9 94.5 27s32.5 44 32.5 78v15c0 34 -10.833 60 -32.5 78s-53.167 27 -94.5 27s-72.833 -9 -94.5 -27s-32.5 -44 -32.5 -78v-15c0 -34 10.833 -60 32.5 -78s53.167 -27 94.5 -27z" />
    <glyph glyph-name="nine" unicode="9" 
d="M539 440c0 -51.333 -7.66602 -99.6709 -22.999 -145.004s-35 -86.666 -59 -123.999s-50.833 -70.5 -80.5 -99.5s-58.5 -52.833 -86.5 -71.5h-127c38 28 72.167 55 102.5 81s56.666 53.167 78.999 81.5s41.166 58.5 56.499 90.5s27.666 67.667 36.999 107l-5 2
c-16 -28 -37 -51.833 -63 -71.5s-60.333 -29.5 -103 -29.5c-30 0 -57.5 5 -82.5 15s-46.667 24.333 -65 43s-32.666 41.167 -42.999 67.5s-15.5 56.166 -15.5 89.499c0 34.667 5.66699 66.334 17 95.001s27.5 53.334 48.5 74.001s46 36.667 75 48s61.5 17 97.5 17
c37.333 0 70.833 -6.16699 100.5 -18.5s54.834 -30.166 75.501 -53.499s36.5 -51.666 47.5 -84.999s16.5 -71 16.5 -113zM300.001 339.995c44 0 78.167 12 102.5 36s36.5 58.667 36.5 104v9c0 45.333 -12.167 80 -36.5 104s-58.5 36 -102.5 36s-78.167 -12 -102.5 -36
s-36.5 -58.667 -36.5 -104v-9c0 -45.333 12.167 -80 36.5 -104s58.5 -36 102.5 -36z" />
    <glyph glyph-name="colon" unicode=":" horiz-adv-x="298" 
d="M149 -12c-23.333 0 -40.166 5.83301 -50.499 17.5s-15.5 26.5 -15.5 44.5v15c0 18 5.16699 32.833 15.5 44.5s27.166 17.5 50.499 17.5s40.166 -5.83301 50.499 -17.5s15.5 -26.5 15.5 -44.5v-15c0 -18 -5.16699 -32.833 -15.5 -44.5s-27.166 -17.5 -50.499 -17.5z
M149 391c-23.333 0 -40.166 5.83301 -50.499 17.5s-15.5 26.5 -15.5 44.5v15c0 18 5.16699 32.833 15.5 44.5s27.166 17.5 50.499 17.5s40.166 -5.83301 50.499 -17.5s15.5 -26.5 15.5 -44.5v-15c0 -18 -5.16699 -32.833 -15.5 -44.5s-27.166 -17.5 -50.499 -17.5z" />
    <glyph glyph-name="semicolon" unicode=";" horiz-adv-x="298" 
d="M149 127c23.333 0 40.168 -5.83008 50.501 -17.4971s15.5 -26.834 15.5 -45.501v-15c0 -30 -8.16699 -61.833 -24.5 -95.5s-39.5 -62.834 -69.5 -87.501h-73c20.667 21.333 37.5 41.666 50.5 60.999s22.5 40.666 28.5 63.999c-15.333 3.33301 -26.5 10 -33.5 20
s-10.5 22.667 -10.5 38v15c0 18.667 5.16699 33.834 15.5 45.501s27.166 17.5 50.499 17.5zM149.002 391.003c-23.333 0 -40.166 5.83301 -50.499 17.5s-15.5 26.5 -15.5 44.5v15c0 18 5.16699 32.833 15.5 44.5s27.166 17.5 50.499 17.5s40.166 -5.83301 50.499 -17.5
s15.5 -26.5 15.5 -44.5v-15c0 -18 -5.16699 -32.833 -15.5 -44.5s-27.166 -17.5 -50.499 -17.5z" />
    <glyph glyph-name="less" unicode="&#x3c;" 
d="M92 240v82l416 251v-96l-325 -192v-8l325 -190v-96z" />
    <glyph glyph-name="equal" unicode="=" 
d="M67 370v78h466v-78h-466zM67 164v78h466v-78h-466z" />
    <glyph glyph-name="greater" unicode="&#x3e;" 
d="M92 87l325 190v8l-325 192v96l416 -251v-82l-416 -249v96z" />
    <glyph glyph-name="question" unicode="?" horiz-adv-x="481" 
d="M175 213l-0.00195312 162.002c54 2 96.167 14.167 126.5 36.5s45.5 54.166 45.5 95.499v14c0 32.667 -10.167 58.5 -30.5 77.5s-47.166 28.5 -80.499 28.5c-36 0 -65 -10.5 -87 -31.5s-37 -47.5 -45 -79.5l-83 32c6 21.333 14.833 41.666 26.5 60.999
s26.334 36.5 44.001 51.5s38.667 27 63 36s52.5 13.5 84.5 13.5c31.333 0 59.833 -4.5 85.5 -13.5s47.5 -22 65.5 -39s31.833 -37.333 41.5 -61s14.5 -49.834 14.5 -78.501c0 -31.333 -5.33301 -58.833 -16 -82.5s-24.5 -43.667 -41.5 -60s-36.5 -29.666 -58.5 -39.999
s-44 -17.5 -66 -21.5v-101h-89zM217.998 -11.998c-23.333 0 -40.166 5.83301 -50.499 17.5s-15.5 26.5 -15.5 44.5v15c0 18 5.16699 32.833 15.5 44.5s27.166 17.5 50.499 17.5s40.166 -5.83301 50.499 -17.5s15.5 -26.5 15.5 -44.5v-15c0 -18 -5.16699 -32.833 -15.5 -44.5
s-27.166 -17.5 -50.499 -17.5z" />
    <glyph glyph-name="at" unicode="@" horiz-adv-x="893" 
d="M678 -121h-228c-58.667 0 -111.834 9.83301 -159.501 29.5s-88.167 47.334 -121.5 83.001s-59.166 78.667 -77.499 129s-27.5 106.5 -27.5 168.5s9.33301 118.667 28 170s45.167 95.5 79.5 132.5s75.666 65.667 123.999 86s102.166 30.5 161.499 30.5
c48.667 0 95.5 -7.5 140.5 -22.5s84.833 -38 119.5 -69s62.167 -70.667 82.5 -119s30.5 -105.833 30.5 -172.5c0 -35.333 -3.33301 -68.5 -10 -99.5s-17.334 -58 -32.001 -81s-33.167 -41.167 -55.5 -54.5s-48.833 -20 -79.5 -20c-32 0 -56.833 8.16699 -74.5 24.5
s-27.834 37.5 -30.501 63.5h-4c-12 -27.333 -27.833 -48.833 -47.5 -64.5s-44.834 -23.5 -75.501 -23.5c-23.333 0 -45.166 4.5 -65.499 13.5s-38.333 22.5 -54 40.5s-28 40.667 -37 68s-13.5 59.666 -13.5 96.999c0 36.667 4.5 68.834 13.5 96.501s21.333 50.667 37 69
s33.667 32 54 41s42.166 13.5 65.499 13.5c30.667 0 54.834 -7.66699 72.501 -23s30.834 -34 39.501 -56h4v70h77v-300c0 -24.667 4.5 -41.334 13.5 -50.001s22.167 -13 39.5 -13c30 0 52.833 15.5 68.5 46.5s23.5 73.833 23.5 128.5v42c0 44 -7.66699 83.833 -23 119.5
s-36.666 66 -63.999 91s-59.5 44.333 -96.5 58s-76.833 20.5 -119.5 20.5c-47.333 0 -90.666 -8.33301 -129.999 -25s-73 -39.5 -101 -68.5s-49.833 -63.167 -65.5 -102.5s-23.5 -82 -23.5 -128v-55c0 -46.667 7.5 -89.5 22.5 -128.5s36.333 -72.667 64 -101
s60.834 -50.333 99.501 -66s81.667 -23.5 129 -23.5h227v-66zM440 141c32 0 56.167 8 72.5 24s24.5 38 24.5 66v122c0 24 -8 44.167 -24 60.5s-40.333 24.5 -73 24.5c-33.333 0 -58.166 -10 -74.499 -30s-24.5 -46.667 -24.5 -80v-78c0 -33.333 8.16699 -59.833 24.5 -79.5
s41.166 -29.5 74.499 -29.5z" />
    <glyph glyph-name="A" unicode="A" horiz-adv-x="649" 
d="M525 0l-66 197h-272l-67 -197h-98l242 698h122l241 -698h-102zM325 609h-5l-110 -326h225z" />
    <glyph glyph-name="B" unicode="B" horiz-adv-x="657" 
d="M90 698h297c58 0 103.667 -16.333 137 -49s50 -76.334 50 -131.001c0 -26 -3.83301 -48 -11.5 -66s-17.167 -32.833 -28.5 -44.5s-24 -20.5 -38 -26.5s-27.333 -9.66699 -40 -11v-6c13.333 -0.666992 28.166 -4 44.499 -10s31.833 -15.5 46.5 -28.5
s26.834 -29.667 36.501 -50s14.5 -45.166 14.5 -74.499c0 -28.667 -4.66699 -55.167 -14 -79.5s-22 -45.5 -38 -63.5s-35 -32.167 -57 -42.5s-46 -15.5 -72 -15.5h-327v698zM187 84l201 -0.00195312c33.333 0 59.333 8.33301 78 25s28 41.334 28 74.001v35
c0 32.667 -9.33301 57.334 -28 74.001s-44.667 25 -78 25h-201v-233zM187 398.998h185c30.667 0 54.667 7.83301 72 23.5s26 38.167 26 67.5v33c0 29.333 -8.66699 51.833 -26 67.5s-41.333 23.5 -72 23.5h-185v-215z" />
    <glyph glyph-name="C" unicode="C" horiz-adv-x="627" 
d="M343 -12c-89.333 0 -159.496 30.832 -210.496 92.499s-76.5 151.167 -76.5 268.5s25.5 206.833 76.5 268.5s121.167 92.5 210.5 92.5c59.333 0 109.166 -13.333 149.499 -40s71.833 -65 94.5 -115l-80 -46c-13.333 34.667 -33.5 62.334 -60.5 83.001s-61.5 31 -103.5 31
c-57.333 0 -102.166 -19.667 -134.499 -59s-48.5 -93.333 -48.5 -162v-106c0 -68.667 16.167 -122.667 48.5 -162s77.166 -59 134.499 -59c43.333 0 79.166 11.167 107.499 33.5s49.166 51.5 62.499 87.5l78 -47c-22.667 -50 -54.834 -89.333 -96.501 -118
s-92.167 -43 -151.5 -43z" />
    <glyph glyph-name="D" unicode="D" horiz-adv-x="676" 
d="M90 698h239c44 0 84 -7.33301 120 -22s66.667 -36.5 92 -65.5s44.833 -65.333 58.5 -109s20.5 -94.5 20.5 -152.5s-6.83301 -108.833 -20.5 -152.5s-33.167 -80 -58.5 -109s-56 -50.833 -92 -65.5s-76 -22 -120 -22h-239v698zM329 86c28 0 53.333 4.49805 76 13.498
s42.334 22.333 59.001 40s29.5 39.334 38.5 65.001s13.5 55.167 13.5 88.5v112c0 33.333 -4.5 62.833 -13.5 88.5s-21.833 47.334 -38.5 65.001s-36.334 31 -59.001 40s-48 13.5 -76 13.5h-142v-526h142z" />
    <glyph glyph-name="E" unicode="E" horiz-adv-x="588" 
d="M90 0v698h435v-86h-338v-216h313v-86h-313v-224h338v-86h-435z" />
    <glyph glyph-name="F" unicode="F" horiz-adv-x="564" 
d="M90 0v698h425v-86h-328v-216h296v-86h-296v-310h-97z" />
    <glyph glyph-name="G" unicode="G" horiz-adv-x="699" 
d="M540 104l-4.00586 -0.000976562c-7.33301 -33.333 -27.666 -61 -60.999 -83s-76.666 -33 -129.999 -33c-42 0 -80.833 7.83301 -116.5 23.5s-66.167 38.667 -91.5 69s-45.166 67.833 -59.499 112.5s-21.5 96.334 -21.5 155.001c0 58 7.16699 109.5 21.5 154.5
s34.666 82.833 60.999 113.5s58 54 95 70s78.167 24 123.5 24c62.667 0 115.334 -14 158.001 -42s75.667 -65.667 99 -113l-80 -47c-15.333 35.333 -37.833 63.333 -67.5 84s-66.167 31 -109.5 31c-29.333 0 -56.166 -5 -80.499 -15s-45.166 -24.333 -62.499 -43
s-30.666 -41.5 -39.999 -68.5s-14 -57.167 -14 -90.5v-113c0 -33.333 4.66699 -63.5 14 -90.5s22.833 -50 40.5 -69s39 -33.5 64 -43.5s53.167 -15 84.5 -15c23.333 0 45.333 3 66 9s38.667 14.833 54 26.5s27.5 26.5 36.5 44.5s13.5 39 13.5 63v63h-149v84h243v-365h-87
v104z" />
    <glyph glyph-name="H" unicode="H" horiz-adv-x="710" 
d="M523 310h-336v-310h-97v698h97v-302h336v302h97v-698h-97v310z" />
    <glyph glyph-name="I" unicode="I" horiz-adv-x="407" 
d="M58 0v82h97v534h-97v82h291v-82h-97v-534h97v-82h-291z" />
    <glyph glyph-name="J" unicode="J" horiz-adv-x="519" 
d="M434 698l-0.000976562 -513c0 -30 -5 -57.167 -15 -81.5s-24 -45 -42 -62s-39.5 -30.167 -64.5 -39.5s-52.833 -14 -83.5 -14c-57.333 0 -102.833 15.167 -136.5 45.5s-55.5 70.5 -65.5 120.5l89 20c6.66699 -30 18.834 -54 36.501 -72s43.5 -27 77.5 -27
c33.333 0 59.5 10 78.5 30s28.5 51 28.5 93v414h-234v86h331z" />
    <glyph glyph-name="K" unicode="K" horiz-adv-x="646" 
d="M284 336l-97 -110v-226h-97v698h97v-364h4l99 124l201 240h116l-255 -297l274 -401h-119z" />
    <glyph glyph-name="L" unicode="L" horiz-adv-x="507" 
d="M90 0v698h97v-612h291v-86h-388z" />
    <glyph glyph-name="M" unicode="M" horiz-adv-x="812" 
d="M628 564h-5l-57 -115l-160 -293l-160 293l-57 115h-5v-564h-94v698h122l194 -367h4l194 367h118v-698h-94v564z" />
    <glyph glyph-name="N" unicode="N" horiz-adv-x="710" 
d="M283 382l-96 175h-3v-557h-94v698h108l229 -382l96 -175h3v557h94v-698h-108z" />
    <glyph glyph-name="O" unicode="O" horiz-adv-x="708" 
d="M354 -12c-45.333 0 -86.333 7.83301 -123 23.5s-68 38.667 -94 69s-46 68 -60 113s-21 96.833 -21 155.5s7 110.5 21 155.5s34 82.667 60 113s57.333 53.333 94 69s77.667 23.5 123 23.5s86.333 -7.83301 123 -23.5s68 -38.667 94 -69s46 -68 60 -113
s21 -96.833 21 -155.5s-7 -110.5 -21 -155.5s-34 -82.667 -60 -113s-57.333 -53.333 -94 -69s-77.667 -23.5 -123 -23.5zM354 75c28.667 0 55 5 79 15s44.5 24.5 61.5 43.5s30.167 41.833 39.5 68.5s14 56.667 14 90v114c0 33.333 -4.66699 63.333 -14 90
s-22.5 49.5 -39.5 68.5s-37.5 33.5 -61.5 43.5s-50.333 15 -79 15c-29.333 0 -55.833 -5 -79.5 -15s-44 -24.5 -61 -43.5s-30.167 -41.833 -39.5 -68.5s-14 -56.667 -14 -90v-114c0 -33.333 4.66699 -63.333 14 -90s22.5 -49.5 39.5 -68.5s37.333 -33.5 61 -43.5
s50.167 -15 79.5 -15z" />
    <glyph glyph-name="P" unicode="P" horiz-adv-x="616" 
d="M90 0v698h288c31.333 0 59.333 -4.83301 84 -14.5s45.5 -23.5 62.5 -41.5s29.833 -39.667 38.5 -65s13 -53.333 13 -84c0 -31.333 -4.33301 -59.5 -13 -84.5s-21.5 -46.5 -38.5 -64.5s-37.833 -31.833 -62.5 -41.5s-52.667 -14.5 -84 -14.5h-191v-288h-97zM187 374h187
c31.333 0 55.666 8.16699 72.999 24.5s26 39.5 26 69.5v50c0 30 -8.66699 53.167 -26 69.5s-41.666 24.5 -72.999 24.5h-187v-238z" />
    <glyph glyph-name="Q" unicode="Q" horiz-adv-x="708" 
d="M514 -168h-100.999c-32.667 0 -57.167 8.66699 -73.5 26s-24.5 40.333 -24.5 69v63c-40 4 -75.833 14.833 -107.5 32.5s-58.834 41.5 -81.501 71.5s-40 66.333 -52 109s-18 91.334 -18 146.001c0 58.667 7 110.5 21 155.5s34 82.667 60 113s57.333 53.333 94 69
s77.667 23.5 123 23.5s86.333 -7.83301 123 -23.5s68 -38.667 94 -69s46 -68 60 -113s21 -96.833 21 -155.5c0 -106 -22.167 -189.333 -66.5 -250s-104.5 -96.334 -180.5 -107.001v-80h109v-80zM354.001 75c28.667 0 55 5 79 15s44.5 24.5 61.5 43.5
s30.167 41.833 39.5 68.5s14 56.667 14 90v114c0 33.333 -4.66699 63.333 -14 90s-22.5 49.5 -39.5 68.5s-37.5 33.5 -61.5 43.5s-50.333 15 -79 15c-29.333 0 -55.833 -5 -79.5 -15s-44 -24.5 -61 -43.5s-30.167 -41.833 -39.5 -68.5s-14 -56.667 -14 -90v-114
c0 -33.333 4.66699 -63.333 14 -90s22.5 -49.5 39.5 -68.5s37.333 -33.5 61 -43.5s50.167 -15 79.5 -15z" />
    <glyph glyph-name="R" unicode="R" horiz-adv-x="647" 
d="M187 0l-97 -0.000976562v698h288c62 0 110.5 -18 145.5 -54s52.5 -86.333 52.5 -151c0 -50.667 -11.5 -92.667 -34.5 -126s-57.167 -55.666 -102.5 -66.999l155 -300h-109l-145 290h-153v-290zM374 373.999c31.333 0 55.666 8.16699 72.999 24.5s26 39.5 26 69.5v50
c0 30 -8.66699 53.167 -26 69.5s-41.666 24.5 -72.999 24.5h-187v-238h187z" />
    <glyph glyph-name="S" unicode="S" horiz-adv-x="588" 
d="M291 -12c-57.333 0 -106.334 10.668 -147.001 32.001s-75 50.666 -103 87.999l69 62c24.667 -32 51.834 -56.167 81.501 -72.5s64.167 -24.5 103.5 -24.5c48 0 84.333 11.167 109 33.5s37 52.166 37 89.499c0 30.667 -9 54.667 -27 72s-49 30.666 -93 39.999l-59 12
c-66 13.333 -115.833 35.5 -149.5 66.5s-50.5 73.833 -50.5 128.5c0 30.667 5.66699 58.167 17 82.5s27.333 44.833 48 61.5s45.5 29.334 74.5 38.001s61.5 13 97.5 13c52.667 0 98 -9.5 136 -28.5s70.333 -46.5 97 -82.5l-71 -57c-18.667 25.333 -41.167 45.5 -67.5 60.5
s-59.5 22.5 -99.5 22.5c-42.667 0 -76 -9 -100 -27s-36 -44.333 -36 -79c0 -31.333 9.83301 -54.833 29.5 -70.5s50.5 -28.167 92.5 -37.5l59 -12c68.667 -15.333 118.834 -38.666 150.501 -69.999s47.5 -74 47.5 -128c0 -32 -5.5 -61.167 -16.5 -87.5
s-27 -48.833 -48 -67.5s-46.833 -33 -77.5 -43s-65.334 -15 -104.001 -15z" />
    <glyph glyph-name="T" unicode="T" horiz-adv-x="575" 
d="M336 612v-612h-97v612h-216v86h529v-86h-216z" />
    <glyph glyph-name="U" unicode="U" horiz-adv-x="682" 
d="M182 698l-0.000976562 -430.999c0 -32 2.66699 -60 8 -84s14.333 -44 27 -60s29.167 -28 49.5 -36s45.166 -12 74.499 -12c58.667 0 99.834 16.167 123.501 48.5s35.5 80.166 35.5 143.499v431h97v-412c0 -51.333 -4.66699 -95.666 -14 -132.999
s-24.166 -68.166 -44.499 -92.499s-47 -42.5 -80 -54.5s-73.167 -18 -120.5 -18s-87.166 6 -119.499 18s-58.333 30.167 -78 54.5s-33.834 55.166 -42.501 92.499s-13 81.666 -13 132.999v412h97z" />
    <glyph glyph-name="V" unicode="V" horiz-adv-x="617" 
d="M250 0l-231 698h102l113 -349l73 -254h5l74 254l113 349h99l-233 -698h-115z" />
    <glyph glyph-name="W" unicode="W" horiz-adv-x="907" 
d="M189 0l-167 698h100l74 -336l54 -248h2l61 248l86 336h109l84 -336l61 -247h3l55 247l77 336h97l-176 -698h-108l-91 354l-58 236h-2l-60 -236l-92 -354h-109z" />
    <glyph glyph-name="X" unicode="X" horiz-adv-x="624" 
d="M602 0h-116l-176 286h-3l-176 -286h-109l228 357l-221 341h116l167 -270h3l171 270h109l-222 -340z" />
    <glyph glyph-name="Y" unicode="Y" horiz-adv-x="603" 
d="M252 0v275l-240 423h111l179 -325h3l178 325h108l-242 -420v-278h-97z" />
    <glyph glyph-name="Z" unicode="Z" horiz-adv-x="586" 
d="M549 0h-512v87l390 525h-370v86h479v-87l-392 -525h405v-86z" />
    <glyph glyph-name="bracketleft" unicode="[" horiz-adv-x="320" 
d="M90 -138v898h172v-71h-90v-756h90v-71h-172z" />
    <glyph glyph-name="backslash" unicode="\" horiz-adv-x="399" 
d="M308 -151l-269 891h82l269 -891h-82z" />
    <glyph glyph-name="bracketright" unicode="]" horiz-adv-x="320" 
d="M230 760v-898h-172v71h90v756h-90v71h172z" />
    <glyph glyph-name="asciicircum" unicode="^" 
d="M481 292l-179 315h-4l-179 -315l-71 37l206 369h92l206 -369z" />
    <glyph glyph-name="underscore" unicode="_" horiz-adv-x="563" 
d="M30 -170v80h503v-80h-503z" />
    <glyph glyph-name="grave" unicode="`" 
d="M180 746l82 40l88 -175l-59 -27z" />
    <glyph glyph-name="a" unicode="a" horiz-adv-x="541" 
d="M459 0c-28.667 0 -50.1689 7.99902 -64.502 23.999s-23.166 36.667 -26.499 62h-5c-10.667 -32 -29 -56.333 -55 -73s-57.667 -25 -95 -25c-54 0 -96 13.833 -126 41.5s-45 65.5 -45 113.5c0 50 18.167 88.167 54.5 114.5s91.833 39.5 166.5 39.5h98v47
c0 34.667 -9.33301 61.334 -28 80.001s-47.667 28 -87 28c-30.667 0 -56.167 -6.83301 -76.5 -20.5s-37.166 -31.5 -50.499 -53.5l-56 51c15.333 28 38.5 51.833 69.5 71.5s70.5 29.5 118.5 29.5c64.667 0 114.667 -15.5 150 -46.5s53 -74.833 53 -131.5v-273h58v-79h-53z
M233.998 62.999c36.667 0 67.001 8.33301 91.001 25s36 38 36 64v80h-99c-42.667 0 -73.834 -6.33301 -93.501 -19s-29.5 -31 -29.5 -55v-20c0 -24 8.5 -42.5 25.5 -55.5s40.167 -19.5 69.5 -19.5z" />
    <glyph glyph-name="b" unicode="b" horiz-adv-x="585" 
d="M82 740h93v-307h4c12 32 30.833 56.167 56.5 72.5s56.5 24.5 92.5 24.5c32.667 0 61.834 -6.16699 87.501 -18.5s47.5 -30.333 65.5 -54s31.667 -52.167 41 -85.5s14 -71 14 -113s-4.66699 -79.667 -14 -113s-23 -61.833 -41 -85.5s-39.833 -41.667 -65.5 -54
s-54.834 -18.5 -87.501 -18.5c-36 0 -66.833 8.16699 -92.5 24.5s-44.5 40.5 -56.5 72.5h-4v-85h-93v740zM301 69c42 0 75.167 13.335 99.5 40.002s36.5 62 36.5 106v88c0 44 -12.167 79.333 -36.5 106s-57.5 40 -99.5 40c-17.333 0 -33.666 -2.33301 -48.999 -7
s-28.666 -11.334 -39.999 -20.001s-20.333 -18.667 -27 -30s-10 -24 -10 -38v-190c0 -14 3.33301 -26.667 10 -38s15.667 -21.333 27 -30s24.666 -15.334 39.999 -20.001s31.666 -7 48.999 -7z" />
    <glyph glyph-name="c" unicode="c" horiz-adv-x="505" 
d="M278 -12c-37.333 0 -70.332 6.33203 -98.999 18.999s-53 30.667 -73 54s-35.167 51.833 -45.5 85.5s-15.5 71.167 -15.5 112.5s5.16699 78.666 15.5 111.999s25.5 61.833 45.5 85.5s44.333 41.834 73 54.501s61.667 19 99 19c51.333 0 93 -11.333 125 -34
s55.667 -52.667 71 -90l-77 -38c-8.66699 25.333 -23.167 45.333 -43.5 60s-45.5 22 -75.5 22c-44.667 0 -78.167 -13.667 -100.5 -41s-33.5 -62.333 -33.5 -105v-90c0 -42.667 11.167 -77.667 33.5 -105s55.833 -41 100.5 -41c32 0 58.667 7.66699 80 23
s38.666 37 51.999 65l68 -42c-16.667 -39.333 -41.667 -70.166 -75 -92.499s-75 -33.5 -125 -33.5z" />
    <glyph glyph-name="d" unicode="d" horiz-adv-x="585" 
d="M410 85h-4c-12 -32 -30.833 -56.167 -56.5 -72.5s-56.5 -24.5 -92.5 -24.5c-32.667 0 -61.834 6.16699 -87.501 18.5s-47.5 30.333 -65.5 54s-31.667 52.167 -41 85.5s-14 71 -14 113s4.66699 79.667 14 113s23 61.833 41 85.5s39.833 41.667 65.5 54
s54.834 18.5 87.501 18.5c36 0 66.833 -8.16699 92.5 -24.5s44.5 -40.5 56.5 -72.5h4v307h93v-740h-93v85zM284 69c17.333 0 33.666 2.33105 48.999 6.99805s28.666 11.334 39.999 20.001s20.333 18.667 27 30s10 24 10 38v190c0 14 -3.33301 26.667 -10 38
s-15.667 21.333 -27 30s-24.666 15.334 -39.999 20.001s-31.666 7 -48.999 7c-42 0 -75.167 -13.333 -99.5 -40s-36.5 -62 -36.5 -106v-88c0 -44 12.167 -79.333 36.5 -106s57.5 -40 99.5 -40z" />
    <glyph glyph-name="e" unicode="e" horiz-adv-x="552" 
d="M280 -12c-36 0 -68.499 6.5 -97.499 19.5s-53.667 31.167 -74 54.5s-36 51.666 -47 84.999s-16.5 70.666 -16.5 111.999c0 40.667 5.5 77.834 16.5 111.501s26.667 62.167 47 85.5s45 41.5 74 54.5s61.5 19.5 97.5 19.5s68.167 -6.5 96.5 -19.5
s52.166 -30.833 71.499 -53.5s34 -49.667 44 -81s15 -65 15 -101v-39h-365v-21c0 -43.333 12.667 -78.833 38 -106.5s61.333 -41.5 108 -41.5c32.667 0 60.667 7.33301 84 22s42 35.334 56 62.001l60 -51c-18 -34 -45 -61.167 -81 -81.5s-78.333 -30.5 -127 -30.5z
M280.001 455c-20 0 -38.5 -3.66602 -55.5 -10.999s-31.667 -17.5 -44 -30.5s-21.833 -28.5 -28.5 -46.5s-10 -37.667 -10 -59v-7h266v10c0 43.333 -11.5 78.166 -34.5 104.499s-54.167 39.5 -93.5 39.5z" />
    <glyph glyph-name="f" unicode="f" horiz-adv-x="331" 
d="M110 439h-83v79h83v96c0 38 10 68.5 30 91.5s50.333 34.5 91 34.5h81v-79h-109v-143h109v-79h-109v-439h-93v439z" />
    <glyph glyph-name="g" unicode="g" horiz-adv-x="533" 
d="M527 -53c0 -54 -20.8311 -94 -62.498 -120s-106.5 -39 -194.5 -39c-82.667 0 -141.834 11 -177.501 33s-53.5 53 -53.5 93c0 28 7.5 50 22.5 66s35.833 27.333 62.5 34v11c-34 13.333 -51 38.666 -51 75.999c0 26 8.66699 46 26 60s38.666 24 63.999 30v4
c-30.667 14.667 -54.334 35.5 -71.001 62.5s-25 58.5 -25 94.5c0 26 4.66699 50 14 72s22.5 40.833 39.5 56.5s37.833 27.834 62.5 36.501s52.667 13 84 13c18 0 35 -1.66699 51 -5s31 -7.66602 45 -12.999v11c0 21.333 5 38.5 15 51.5s26 19.5 48 19.5h79v-78h-102v-28
c43.333 -32 65 -77.333 65 -136c0 -26 -4.66699 -50 -14 -72s-22.666 -40.667 -39.999 -56s-38.333 -27.333 -63 -36s-52.667 -13 -84 -13c-10 0 -20 0.5 -30 1.5s-19.333 2.5 -28 4.5c-15.333 -4.66699 -29 -11.334 -41 -20.001s-18 -20.334 -18 -35.001
c0 -15.333 6.83301 -25.666 20.5 -30.999s32.167 -8 55.5 -8h118c64 0 110.5 -12.5 139.5 -37.5s43.5 -59.167 43.5 -102.5zM440.002 -62c0 19.333 -7.5 34.833 -22.5 46.5s-41.5 17.5 -79.5 17.5h-174c-28 -14.667 -42 -36.667 -42 -66c0 -21.333 8.5 -39.5 25.5 -54.5
s45.833 -22.5 86.5 -22.5h70c44 0 77.667 6.5 101 19.5s35 32.833 35 59.5zM268.002 245c33.333 0 59.5 7.66699 78.5 23s28.5 39 28.5 71v26c0 32 -9.5 55.667 -28.5 71s-45.167 23 -78.5 23s-59.5 -7.66699 -78.5 -23s-28.5 -39 -28.5 -71v-26c0 -32 9.5 -55.667 28.5 -71
s45.167 -23 78.5 -23z" />
    <glyph glyph-name="h" unicode="h" horiz-adv-x="573" 
d="M82 740l92.999 0.000976562v-307h5c12 28.667 29.5 52 52.5 70s54.167 27 93.5 27c53.333 0 95.166 -17.333 125.499 -52s45.5 -83.667 45.5 -147v-331h-93v317c0 88 -36.333 132 -109 132c-15.333 0 -30.166 -2 -44.499 -6s-27.166 -9.83301 -38.499 -17.5
s-20.333 -17.334 -27 -29.001s-10 -25.5 -10 -41.5v-355h-93v740z" />
    <glyph glyph-name="i" unicode="i" horiz-adv-x="257" 
d="M129 626c-19.333 0 -33.5 4.66699 -42.5 14s-13.5 21.666 -13.5 36.999v14c0 15.333 4.5 27.666 13.5 36.999s23.167 14 42.5 14s33.5 -4.66699 42.5 -14s13.5 -21.666 13.5 -36.999v-14c0 -15.333 -4.5 -27.666 -13.5 -36.999s-23.167 -14 -42.5 -14zM82 518h93v-518
h-93v518z" />
    <glyph glyph-name="j" unicode="j" horiz-adv-x="257" 
d="M82 518h93v-593c0 -38 -9.5 -68.333 -28.5 -91s-49.167 -34 -90.5 -34h-57v79h83v639zM129 626c-19.333 0 -33.5 4.66699 -42.5 14s-13.5 21.666 -13.5 36.999v14c0 15.333 4.5 27.666 13.5 36.999s23.167 14 42.5 14s33.5 -4.66699 42.5 -14s13.5 -21.666 13.5 -36.999
v-14c0 -15.333 -4.5 -27.666 -13.5 -36.999s-23.167 -14 -42.5 -14z" />
    <glyph glyph-name="k" unicode="k" horiz-adv-x="537" 
d="M82 740h93v-461h5l74 91l135 148h110l-184 -200l208 -318h-112l-162 258l-74 -79v-179h-93v740z" />
    <glyph glyph-name="l" unicode="l" horiz-adv-x="278" 
d="M179 0c-32 0 -56.167 8.66699 -72.5 26s-24.5 40.333 -24.5 69v645h93v-661h74v-79h-70z" />
    <glyph glyph-name="m" unicode="m" horiz-adv-x="877" 
d="M82 0l0.00488281 518.003h93v-85h5c11.333 26.667 28.5 49.5 51.5 68.5s51.833 28.5 86.5 28.5s66.167 -8.33301 94.5 -25s49.166 -43.334 62.499 -80.001h2c9.33301 28 27.166 52.5 53.499 73.5s61.166 31.5 104.499 31.5c52 0 92.667 -17.333 122 -52
s44 -83.667 44 -147v-331h-93v317c0 44 -8.5 77 -25.5 99s-43.5 33 -79.5 33c-15.333 0 -29.833 -2 -43.5 -6s-25.834 -9.83301 -36.501 -17.5s-19.167 -17.334 -25.5 -29.001s-9.5 -25.5 -9.5 -41.5v-355h-93v317c0 88 -34.667 132 -104 132c-14.667 0 -29 -2 -43 -6
s-26.333 -9.83301 -37 -17.5s-19.334 -17.334 -26.001 -29.001s-10 -25.5 -10 -41.5v-355h-93z" />
    <glyph glyph-name="n" unicode="n" horiz-adv-x="573" 
d="M82 0l-0.000976562 518.001h93v-85h5c12 28.667 29.5 52 52.5 70s54.167 27 93.5 27c53.333 0 95.166 -17.333 125.499 -52s45.5 -83.667 45.5 -147v-331h-93v317c0 88 -36.333 132 -109 132c-15.333 0 -30.166 -2 -44.499 -6s-27.166 -9.83301 -38.499 -17.5
s-20.333 -17.334 -27 -29.001s-10 -25.5 -10 -41.5v-355h-93z" />
    <glyph glyph-name="o" unicode="o" horiz-adv-x="562" 
d="M281 -12c-35.333 0 -67.5 6.33301 -96.5 19s-53.833 30.834 -74.5 54.501s-36.667 52.167 -48 85.5s-17 70.666 -17 111.999s5.66699 78.666 17 111.999s27.333 61.833 48 85.5s45.5 41.834 74.5 54.501s61.167 19 96.5 19s67.5 -6.33301 96.5 -19
s53.833 -30.834 74.5 -54.501s36.667 -52.167 48 -85.5s17 -70.666 17 -111.999s-5.66699 -78.666 -17 -111.999s-27.333 -61.833 -48 -85.5s-45.5 -41.834 -74.5 -54.501s-61.167 -19 -96.5 -19zM281 68c40.667 0 73.667 12.667 99 38s38 63.333 38 114v78
c0 50.667 -12.667 88.667 -38 114s-58.333 38 -99 38s-73.667 -12.667 -99 -38s-38 -63.333 -38 -114v-78c0 -50.667 12.667 -88.667 38 -114s58.333 -38 99 -38z" />
    <glyph glyph-name="p" unicode="p" horiz-adv-x="585" 
d="M82 518h93v-85h4c12 32 30.833 56.167 56.5 72.5s56.5 24.5 92.5 24.5c32.667 0 61.834 -6.16699 87.501 -18.5s47.5 -30.333 65.5 -54s31.667 -52.167 41 -85.5s14 -71 14 -113s-4.66699 -79.667 -14 -113s-23 -61.833 -41 -85.5s-39.833 -41.667 -65.5 -54
s-54.834 -18.5 -87.501 -18.5c-36 0 -66.833 8.16699 -92.5 24.5s-44.5 40.5 -56.5 72.5h-4v-285h-93v718zM301 69c42 0 75.167 13.335 99.5 40.002s36.5 62 36.5 106v88c0 44 -12.167 79.333 -36.5 106s-57.5 40 -99.5 40c-17.333 0 -33.666 -2.33301 -48.999 -7
s-28.666 -11.334 -39.999 -20.001s-20.333 -18.667 -27 -30s-10 -24 -10 -38v-190c0 -14 3.33301 -26.667 10 -38s15.667 -21.333 27 -30s24.666 -15.334 39.999 -20.001s31.666 -7 48.999 -7z" />
    <glyph glyph-name="q" unicode="q" horiz-adv-x="585" 
d="M410 85h-4c-12 -32 -30.833 -56.167 -56.5 -72.5s-56.5 -24.5 -92.5 -24.5c-32.667 0 -61.834 6.16699 -87.501 18.5s-47.5 30.333 -65.5 54s-31.667 52.167 -41 85.5s-14 71 -14 113s4.66699 79.667 14 113s23 61.833 41 85.5s39.833 41.667 65.5 54
s54.834 18.5 87.501 18.5c36 0 66.833 -8.16699 92.5 -24.5s44.5 -40.5 56.5 -72.5h4v85h93v-718h-93v285zM284 69c17.333 0 33.666 2.33105 48.999 6.99805s28.666 11.334 39.999 20.001s20.333 18.667 27 30s10 24 10 38v190c0 14 -3.33301 26.667 -10 38
s-15.667 21.333 -27 30s-24.666 15.334 -39.999 20.001s-31.666 7 -48.999 7c-42 0 -75.167 -13.333 -99.5 -40s-36.5 -62 -36.5 -106v-88c0 -44 12.167 -79.333 36.5 -106s57.5 -40 99.5 -40z" />
    <glyph glyph-name="r" unicode="r" horiz-adv-x="375" 
d="M82 0v518h93v-99h5c4 12.667 10 25 18 37s18 22.5 30 31.5s26.167 16.333 42.5 22s34.833 8.5 55.5 8.5h31v-93h-46c-43.333 0 -76.833 -7.83301 -100.5 -23.5s-35.5 -36.167 -35.5 -61.5v-340h-93z" />
    <glyph glyph-name="s" unicode="s" horiz-adv-x="490" 
d="M241 -12c-48 0 -88.4961 9.00195 -121.496 27.002s-61.5 42.333 -85.5 73l63 54c19.333 -24.667 41.166 -43.667 65.499 -57s52.5 -20 84.5 -20c33.333 0 58.666 6.83301 75.999 20.5s26 32.5 26 56.5c0 19.333 -5.83301 35.333 -17.5 48s-33.5 21.334 -65.5 26.001
l-44 7c-24.667 3.33301 -47.334 8.66602 -68.001 15.999s-38.334 17 -53.001 29s-26.167 26.667 -34.5 44s-12.5 38 -12.5 62c0 25.333 4.66699 47.833 14 67.5s22.333 36 39 49s36.5 22.833 59.5 29.5s48.167 10 75.5 10c44 0 80.667 -7.33301 110 -22s55 -35 77 -61
l-59 -56c-12.667 16.667 -29.834 31.167 -51.501 43.5s-48.167 18.5 -79.5 18.5c-32 0 -55.833 -6.66699 -71.5 -20s-23.5 -31 -23.5 -53c0 -23.333 7.5 -40.333 22.5 -51s37.5 -18.334 67.5 -23.001l44 -7c57.333 -8.66699 98.5 -25.334 123.5 -50.001s37.5 -57 37.5 -97
c0 -50.667 -17.667 -90.667 -53 -120s-83.666 -44 -144.999 -44z" />
    <glyph glyph-name="t" unicode="t" horiz-adv-x="357" 
d="M209 0c-32 0 -56.333 8.83398 -73 26.501s-25 41.5 -25 71.5v341h-83v79h46c17.333 0 29.333 3.66699 36 11s10 19.666 10 36.999v95h84v-143h111v-79h-111v-360h103v-79h-98z" />
    <glyph glyph-name="u" unicode="u" horiz-adv-x="574" 
d="M399 85l-4.99805 0.000976562c-4.66699 -12.667 -10.834 -24.834 -18.501 -36.501s-17.334 -22 -29.001 -31s-25.5 -16.167 -41.5 -21.5s-34.667 -8 -56 -8c-53.333 0 -95.333 17.333 -126 52s-46 83.667 -46 147v331h93v-317c0 -88 36.667 -132 110 -132
c14.667 0 29.167 1.83301 43.5 5.5s27 9.5 38 17.5s20 18 27 30s10.5 26 10.5 42v354h93v-518h-93v85z" />
    <glyph glyph-name="v" unicode="v" horiz-adv-x="500" 
d="M195 0l-179 518h93l85 -248l54 -179h6l55 179l86 248h89l-180 -518h-109z" />
    <glyph glyph-name="w" unicode="w" horiz-adv-x="782" 
d="M29 518h90l54 -221l52 -213h2l59 213l64 221h83l66 -221l60 -213h3l49 213l55 221h87l-138 -518h-110l-70 243l-44 152h-2l-43 -152l-70 -243h-108z" />
    <glyph glyph-name="x" unicode="x" horiz-adv-x="518" 
d="M21 0l188 261l-181 257h108l125 -187h3l128 187h102l-181 -253l184 -265h-108l-128 196h-3l-135 -196h-102z" />
    <glyph glyph-name="y" unicode="y" horiz-adv-x="506" 
d="M401 518h90.001l-225 -631c-6 -16 -12.333 -29.667 -19 -41s-14.834 -20.333 -24.501 -27s-21.167 -11.5 -34.5 -14.5s-30 -4.5 -50 -4.5h-51v79h85l35 100l-192 539h93l115 -331l27 -97h5l30 97z" />
    <glyph glyph-name="z" unicode="z" horiz-adv-x="474" 
d="M34 0v77l287 362h-278v79h389v-71l-292 -368h300v-79h-406z" />
    <glyph glyph-name="braceleft" unicode="{" horiz-adv-x="349" 
d="M205 -138c-27.333 0 -48.5 8.00391 -63.5 24.0039s-22.5 36.667 -22.5 62v232c0 29.333 -9.16699 51.5 -27.5 66.5s-41.5 22.5 -69.5 22.5v84c28 0 51.167 7.5 69.5 22.5s27.5 36.833 27.5 65.5v233c0 25.333 7.5 46 22.5 62s36.167 24 63.5 24h86v-71h-90v-243
c0 -16 -2.33301 -31 -7 -45s-11.167 -26.833 -19.5 -38.5s-18.333 -21.334 -30 -29.001s-24.834 -12.834 -39.501 -15.501v-14c14.667 -2.66699 27.834 -7.83398 39.501 -15.501s21.667 -17.334 30 -29.001s14.833 -24.5 19.5 -38.5s7 -29 7 -45v-243h90v-71h-86z" />
    <glyph glyph-name="bar" unicode="|" horiz-adv-x="332" 
d="M126 -138v898h80v-898h-80z" />
    <glyph glyph-name="braceright" unicode="}" horiz-adv-x="349" 
d="M144 760c27.333 0 48.5 -7.99609 63.5 -23.9961s22.5 -36.667 22.5 -62v-232c0 -29.333 9.16699 -51.5 27.5 -66.5s41.5 -22.5 69.5 -22.5v-84c-28 0 -51.167 -7.5 -69.5 -22.5s-27.5 -36.833 -27.5 -65.5v-233c0 -25.333 -7.5 -46 -22.5 -62s-36.167 -24 -63.5 -24h-86
v71h90v243c0 31.333 8.66699 59.166 26 83.499s40.666 39.166 69.999 44.499v14c-29.333 5.33301 -52.666 20.166 -69.999 44.499s-26 52.166 -26 83.499v243h-90v71h86z" />
    <glyph glyph-name="asciitilde" unicode="~" 
d="M418 231c-24.667 0 -46.334 3.33301 -65.001 10s-39.667 15.667 -63 27c-18.667 9.33301 -36.834 17.333 -54.501 24s-36.834 10 -57.501 10c-16.667 0 -30.834 -2.5 -42.501 -7.5s-24.834 -12.833 -39.501 -23.5l-37 52c13.333 16.667 29.5 30.167 48.5 40.5
s43.833 15.5 74.5 15.5c24.667 0 46.334 -3.33301 65.001 -10s39.667 -15.667 63 -27c18.667 -9.33301 36.834 -17.333 54.501 -24s36.834 -10 57.501 -10c16.667 0 30.834 2.5 42.501 7.5s24.834 12.833 39.501 23.5l37 -52c-13.333 -16.667 -29.5 -30.167 -48.5 -40.5
s-43.833 -15.5 -74.5 -15.5z" />
    <glyph glyph-name="uni00A0" unicode="&#xa0;" horiz-adv-x="236" 
 />
    <glyph glyph-name="exclamdown" unicode="&#xa1;" horiz-adv-x="290" 
d="M95 -180v201l28 305h44l28 -305v-201h-100zM145 391c-23.333 0 -40.166 5.83301 -50.499 17.5s-15.5 26.5 -15.5 44.5v15c0 18 5.16699 32.833 15.5 44.5s27.166 17.5 50.499 17.5s40.166 -5.83301 50.499 -17.5s15.5 -26.5 15.5 -44.5v-15
c0 -18 -5.16699 -32.833 -15.5 -44.5s-27.166 -17.5 -50.499 -17.5z" />
    <glyph glyph-name="cent" unicode="&#xa2;" horiz-adv-x="521" 
d="M236 -114v104.999c-60.667 9.33301 -107.5 37.5 -140.5 84.5s-49.5 107.833 -49.5 182.5s16.5 135.5 49.5 182.5s79.833 75.167 140.5 84.5v105h77v-104c42 -4 76.333 -16.667 103 -38s47 -48 61 -80l-72 -40c-17.333 44.667 -48.666 71 -93.999 79v-379
c48.667 8 84 36.333 106 85l67 -43c-14.667 -33.333 -36.334 -60.666 -65.001 -81.999s-64 -34 -106 -38v-104h-77zM143 213.999c0 -36 7.83301 -66.833 23.5 -92.5s39.5 -42.5 71.5 -50.5v374c-31.333 -7.33301 -55 -24 -71 -50s-24 -57 -24 -93v-88z" />
    <glyph glyph-name="sterling" unicode="&#xa3;" horiz-adv-x="592" 
d="M79 0l-0.00195312 107.001c28 12 47.333 30.333 58 55s16 51 16 79c0 8 -0.333008 15.833 -1 23.5s-1.66699 15.167 -3 22.5h-94v80h70c-7.33301 20.667 -14 41.667 -20 63s-9 44.666 -9 69.999c0 30.667 5.33301 59 16 85s26 48.167 46 66.5s44.5 32.666 73.5 42.999
s61.833 15.5 98.5 15.5c52 0 95.5 -10.167 130.5 -30.5s64.167 -48.5 87.5 -84.5l-72 -52c-17.333 26 -37.666 46.167 -60.999 60.5s-52 21.5 -86 21.5c-41.333 0 -73.833 -11.333 -97.5 -34s-35.5 -56.667 -35.5 -102c0 -23.333 2.66699 -44.666 8 -63.999
s11 -38.666 17 -57.999h212v-80h-188c0.666992 -6 1.16699 -12.167 1.5 -18.5s0.5 -12.833 0.5 -19.5c0 -37.333 -7.66699 -69.833 -23 -97.5s-32.666 -47.834 -51.999 -60.501v-6h358v-85h-451z" />
    <glyph glyph-name="currency" unicode="&#xa4;" horiz-adv-x="616" 
d="M308 117c-55.333 0 -101 14 -137 42l-100 -100l-55 53l104 103c-21.333 37.333 -32 82 -32 134s10.667 96.667 32 134l-104 103l55 53l100 -100c36 28 81.667 42 137 42s101 -14 137 -42l100 100l55 -53l-104 -103c21.333 -37.333 32 -82 32 -134
s-10.667 -96.667 -32 -134l104 -103l-55 -53l-100 100c-36 -28 -81.667 -42 -137 -42zM308 191c37.333 0 67.166 10.667 89.499 32s33.5 53 33.5 95v62c0 42 -11.167 73.667 -33.5 95s-52.166 32 -89.499 32s-67.166 -10.667 -89.499 -32s-33.5 -53 -33.5 -95v-62
c0 -42 11.167 -73.667 33.5 -95s52.166 -32 89.499 -32z" />
    <glyph glyph-name="yen" unicode="&#xa5;" horiz-adv-x="614" 
d="M354 143v-143h-96v143h-175v71h175v91h-175v71h131l-183 322h109l168 -307h5l163 307h106l-185 -322h131v-71h-174v-91h174v-71h-174z" />
    <glyph glyph-name="brokenbar" unicode="&#xa6;" horiz-adv-x="332" 
d="M126 405v355h80v-355h-80zM126 -138v355h80v-355h-80z" />
    <glyph glyph-name="section" unicode="&#xa7;" horiz-adv-x="576" 
d="M474 6c0 -25.333 -4.83301 -48.0029 -14.5 -68.0029s-23.334 -37 -41.001 -51s-38.834 -24.667 -63.501 -32s-52 -11 -82 -11c-31.333 0 -62.166 4.5 -92.499 13.5s-57.5 24.167 -81.5 45.5l51 62c16.667 -14 35.167 -25 55.5 -33s43.166 -12 68.499 -12
c35.333 0 63 7.33301 83 22s30 35 30 61c0 23.333 -8.83301 42.166 -26.5 56.499s-42.5 26.166 -74.5 35.499l-66 19c-54 16 -92.833 37.167 -116.5 63.5s-35.5 55.833 -35.5 88.5c0 32 9.33301 60.167 28 84.5s45.334 43.5 80.001 57.5v9
c-22 15.333 -39.833 33.833 -53.5 55.5s-20.5 47.5 -20.5 77.5c0 24.667 4.83301 46.834 14.5 66.501s23.334 36.5 41.001 50.5s38.667 24.667 63 32s51.5 11 81.5 11c31.333 0 62.166 -4.5 92.499 -13.5s57.833 -24.167 82.5 -45.5l-52 -62c-16.667 14 -35 25 -55 33
s-43 12 -69 12c-35.333 0 -62.833 -7.33301 -82.5 -22s-29.5 -34.667 -29.5 -60c0 -23.333 8.66699 -42.166 26 -56.499s42 -26.166 74 -35.499l66 -19c54.667 -16 93.834 -37.167 117.501 -63.5s35.5 -56.166 35.5 -89.499c0 -31.333 -9.16699 -59.166 -27.5 -83.499
s-45.5 -43.833 -81.5 -58.5v-8c24 -15.333 42.5 -33.833 55.5 -55.5s19.5 -47.167 19.5 -76.5zM421 262.997c0 26 -8.66699 47.5 -26 64.5s-45.333 30.833 -84 41.5l-65 18c-5.33301 1.33301 -10.666 3 -15.999 5l-16 6c-18 -14 -32.333 -29.667 -43 -47s-16 -37 -16 -59
c0 -26 8.5 -47.5 25.5 -64.5s44.833 -30.833 83.5 -41.5l65 -18c5.33301 -1.33301 10.666 -3 15.999 -5l16 -6c18 14.667 32.5 30.5 43.5 47.5s16.5 36.5 16.5 58.5z" />
    <glyph glyph-name="dieresis" unicode="&#xa8;" 
d="M204 615c-19.333 0 -33.333 4.33301 -42 13s-13 20.667 -13 36v14c0 15.333 4.33301 27.333 13 36s22.667 13 42 13s33.333 -4.33301 42 -13s13 -20.667 13 -36v-14c0 -15.333 -4.33301 -27.333 -13 -36s-22.667 -13 -42 -13zM396 615c-19.333 0 -33.333 4.33301 -42 13
s-13 20.667 -13 36v14c0 15.333 4.33301 27.333 13 36s22.667 13 42 13s33.333 -4.33301 42 -13s13 -20.667 13 -36v-14c0 -15.333 -4.33301 -27.333 -13 -36s-22.667 -13 -42 -13z" />
    <glyph glyph-name="copyright" unicode="&#xa9;" horiz-adv-x="777" 
d="M389 -12c-48 0 -92.5 8.33301 -133.5 25s-76.5 40.5 -106.5 71.5s-53.667 68.833 -71 113.5s-26 94.667 -26 150s8.66699 105.333 26 150s41 82.5 71 113.5s65.5 54.833 106.5 71.5s85.5 25 133.5 25c47.333 0 91.5 -8.33301 132.5 -25s76.5 -40.5 106.5 -71.5
s53.667 -68.833 71 -113.5s26 -94.667 26 -150s-8.66699 -105.333 -26 -150s-41 -82.5 -71 -113.5s-65.5 -54.833 -106.5 -71.5s-85.167 -25 -132.5 -25zM389 49c38.667 0 74.5 6.83301 107.5 20.5s61.167 32.5 84.5 56.5s41.666 52.333 54.999 85s20 68 20 106v62
c0 38 -6.66699 73.333 -20 106s-31.666 61 -54.999 85s-51.5 42.833 -84.5 56.5s-68.833 20.5 -107.5 20.5c-39.333 0 -75.333 -6.83301 -108 -20.5s-60.834 -32.5 -84.501 -56.5s-42.167 -52.333 -55.5 -85s-20 -68 -20 -106v-62c0 -38 6.66699 -73.333 20 -106
s31.833 -61 55.5 -85s51.834 -42.833 84.501 -56.5s68.667 -20.5 108 -20.5zM396 150c-54.667 0 -97.166 18.001 -127.499 54.001s-45.5 84 -45.5 144c0 60.667 15.167 108.834 45.5 144.501s72.833 53.5 127.5 53.5c36.667 0 66.667 -8.33301 90 -25s40.666 -39 51.999 -67
l-65 -35c-7.33301 17.333 -17 31.166 -29 41.499s-28 15.5 -48 15.5c-28 0 -49.167 -8.66699 -63.5 -26s-21.5 -40 -21.5 -68v-68c0 -28 7.16699 -50.667 21.5 -68s35.5 -26 63.5 -26c21.333 0 38.5 5.5 51.5 16.5s24.5 25.5 34.5 43.5l63 -37
c-12 -26.667 -30.167 -48.834 -54.5 -66.501s-55.833 -26.5 -94.5 -26.5z" />
    <glyph glyph-name="ordfeminine" unicode="&#xaa;" horiz-adv-x="409" 
d="M369 346h-39.002c-19.333 0 -34.666 4.33301 -45.999 13s-17.333 22.667 -18 42h-4c-7.33301 -17.333 -20.166 -31.833 -38.499 -43.5s-42.5 -17.5 -72.5 -17.5c-35.333 0 -62.5 9.16699 -81.5 27.5s-28.5 42.5 -28.5 72.5c0 36 13.167 62.667 39.5 80s63.5 26 111.5 26
h68v26c0 50 -24 75 -72 75c-22.667 0 -41.667 -4.66699 -57 -14s-26.666 -21.333 -33.999 -36l-44 37c10.667 17.333 27.167 33.333 49.5 48s52.166 22 89.499 22c43.333 0 77.333 -11 102 -33s37 -54 37 -96v-169h38v-60zM190.998 498c-25.333 0 -45 -4 -59 -12
s-21 -19.667 -21 -35v-10c0 -31.333 19.667 -47 59 -47c24 0 45 5.5 63 16.5s27 26.167 27 45.5v42h-69z" />
    <glyph glyph-name="guillemotleft" unicode="&#xab;" horiz-adv-x="521" 
d="M227 75l-191 165v84l191 165l28 -61l-134 -146l134 -146zM441 75l-191 165v84l191 165l28 -61l-134 -146l134 -146z" />
    <glyph glyph-name="logicalnot" unicode="&#xac;" horiz-adv-x="616" 
d="M469 78v188h-405v78h485v-266h-80z" />
    <glyph glyph-name="uni00AD" unicode="&#xad;" horiz-adv-x="400" 
d="M66 256v97h268v-97h-268z" />
    <glyph glyph-name="registered" unicode="&#xae;" horiz-adv-x="474" 
d="M237 298c-27.333 0 -53 5.16699 -77 15.5s-45 24.833 -63 43.5s-32.333 40.5 -43 65.5s-16 52.167 -16 81.5s5.33301 56.5 16 81.5s25 46.833 43 65.5s39 33.167 63 43.5s49.667 15.5 77 15.5s53 -5.16699 77 -15.5s45 -24.833 63 -43.5s32.333 -40.5 43 -65.5
s16 -52.167 16 -81.5s-5.33301 -56.5 -16 -81.5s-25 -46.833 -43 -65.5s-39 -33.167 -63 -43.5s-49.667 -15.5 -77 -15.5zM237 339c22 0 42.5 4.16699 61.5 12.5s35.333 19.5 49 33.5s24.334 30.167 32.001 48.5s11.5 37.833 11.5 58.5v24
c0 20.667 -3.83301 40.167 -11.5 58.5s-18.334 34.5 -32.001 48.5s-30 25.167 -49 33.5s-39.5 12.5 -61.5 12.5s-42.5 -4.16699 -61.5 -12.5s-35.333 -19.5 -49 -33.5s-24.334 -30.167 -32.001 -48.5s-11.5 -37.833 -11.5 -58.5v-24c0 -20.667 3.83301 -40.167 11.5 -58.5
s18.334 -34.5 32.001 -48.5s30 -25.167 49 -33.5s39.5 -12.5 61.5 -12.5zM204 397h-44.001v209h92c21.333 0 37.833 -6 49.5 -18s17.5 -27.667 17.5 -47c0 -16 -3.66699 -29 -11 -39s-16.666 -17.667 -27.999 -23l48 -82h-49l-42 76h-33v-76zM247.999 508c16 0 24 7 24 21
v20c0 14 -8 21 -24 21h-44v-62h44z" />
    <glyph glyph-name="macron" unicode="&#xaf;" 
d="M158 709h284v-74h-284v74z" />
    <glyph glyph-name="degree" unicode="&#xb0;" horiz-adv-x="468" 
d="M234 360c-24 0 -46.5 4.5 -67.5 13.5s-39.167 21.167 -54.5 36.5s-27.333 33.666 -36 54.999s-13 44.666 -13 69.999c0 24.667 4.33301 47.834 13 69.501s20.667 40.167 36 55.5s33.5 27.5 54.5 36.5s43.5 13.5 67.5 13.5s46.5 -4.5 67.5 -13.5
s39.167 -21.167 54.5 -36.5s27.333 -33.833 36 -55.5s13 -44.834 13 -69.501c0 -25.333 -4.33301 -48.666 -13 -69.999s-20.667 -39.666 -36 -54.999s-33.5 -27.5 -54.5 -36.5s-43.5 -13.5 -67.5 -13.5zM234 430c29.333 0 52.5 10 69.5 30s25.5 45 25.5 75s-8.5 55 -25.5 75
s-40.167 30 -69.5 30s-52.5 -10 -69.5 -30s-25.5 -45 -25.5 -75s8.5 -55 25.5 -75s40.167 -30 69.5 -30z" />
    <glyph glyph-name="plusminus" unicode="&#xb1;" 
d="M257 159v192h-190v78h190v192h86v-192h190v-78h-190v-192h-86zM67 0v78h466v-78h-466z" />
    <glyph glyph-name="twosuperior" unicode="&#xb2;" horiz-adv-x="346" 
d="M313 329l-275.003 0.000976562v63l128 102c20 16.667 35.167 32.167 45.5 46.5s15.5 30.166 15.5 47.499v6c0 16 -5.5 28.5 -16.5 37.5s-25.833 13.5 -44.5 13.5c-21.333 0 -37.666 -5.33301 -48.999 -16s-19.666 -23.667 -24.999 -39l-60 22c8 24.667 23 46.167 45 64.5
s53.333 27.5 94 27.5c42 0 74.333 -10.333 97 -31s34 -47 34 -79c0 -30 -9.16699 -55.833 -27.5 -77.5s-42.166 -43.167 -71.499 -64.5l-89 -67h199v-56z" />
    <glyph glyph-name="threesuperior" unicode="&#xb3;" horiz-adv-x="347" 
d="M154 548c24.667 0 42.668 4.50195 54.001 13.502s17 20.5 17 34.5v4c0 15.333 -5.33301 27.166 -16 35.499s-25.667 12.5 -45 12.5c-35.333 0 -63 -14.667 -83 -44l-46 39c12.667 17.333 29.167 31.833 49.5 43.5s47.5 17.5 81.5 17.5c39.333 0 71.5 -8.5 96.5 -25.5
s37.5 -40.5 37.5 -70.5c0 -24 -7.66699 -43 -23 -57s-33.666 -23 -54.999 -27v-4c23.333 -4 43.166 -13.333 59.499 -28s24.5 -35 24.5 -61c0 -32.667 -13.333 -58.834 -40 -78.501s-62 -29.5 -106 -29.5c-38 0 -67.667 6.83301 -89 20.5s-38.333 29.5 -51 47.5l53 38
c9.33301 -14.667 20.5 -26.667 33.5 -36s30.833 -14 53.5 -14c23.333 0 41.166 5 53.499 15s18.5 24 18.5 42v5c0 17.333 -6.5 30 -19.5 38s-31.167 12 -54.5 12h-42v57h38z" />
    <glyph glyph-name="acute" unicode="&#xb4;" 
d="M309 584l-59 27l88 175l82 -40z" />
    <glyph glyph-name="mu" unicode="&#xb5;" horiz-adv-x="579" 
d="M82 -200v718.001h93v-318c0 -87.333 36.333 -131 109 -131c15.333 0 30.166 2 44.499 6s27.166 10 38.499 18s20.333 18 27 30s10 26 10 42v353h93v-518h-93v85h-5c-5.33301 -12.667 -11.666 -24.834 -18.999 -36.501s-16.5 -22 -27.5 -31s-23.833 -16.167 -38.5 -21.5
s-31.667 -8 -51 -8c-24 0 -43.667 4.16699 -59 12.5s-27.666 20.833 -36.999 37.5h-3l11 -95v-143h-93z" />
    <glyph glyph-name="paragraph" unicode="&#xb6;" horiz-adv-x="657" 
d="M245 292c-27.333 0 -53 5.33105 -77 15.998s-44.833 25.334 -62.5 44.001s-31.667 40.334 -42 65.001s-15.5 50.667 -15.5 78s5.16699 53.333 15.5 78s24.333 46.167 42 64.5s38.5 33 62.5 44s49.667 16.5 77 16.5h335v-76h-66v-771h-80v771h-109v-771h-80v441z" />
    <glyph glyph-name="periodcentered" unicode="&#xb7;" horiz-adv-x="338" 
d="M169 235c-23.333 0 -40.166 5.83301 -50.499 17.5s-15.5 26.5 -15.5 44.5v15c0 18 5.16699 32.833 15.5 44.5s27.166 17.5 50.499 17.5s40.166 -5.83301 50.499 -17.5s15.5 -26.5 15.5 -44.5v-15c0 -18 -5.16699 -32.833 -15.5 -44.5s-27.166 -17.5 -50.499 -17.5z" />
    <glyph glyph-name="cedilla" unicode="&#xb8;" 
d="M312 -208c-28 0 -50.333 4.50098 -67 13.501s-28.667 18.5 -36 28.5l39 43c6 -7.33301 14.167 -13.833 24.5 -19.5s22.833 -8.5 37.5 -8.5c12.667 0 23.167 2.5 31.5 7.5s12.5 12.5 12.5 22.5c0 9.33301 -4.33301 17.5 -13 24.5s-27.334 12.5 -56.001 16.5l-27 4l20 98
h53l-16 -82l3 -3c6.66699 2 13.5 3.5 20.5 4.5s13.5 1.5 19.5 1.5c20 0 36.5 -5.5 49.5 -16.5s19.5 -27.5 19.5 -49.5c0 -15.333 -3.16699 -28.333 -9.5 -39s-14.666 -19.334 -24.999 -26.001s-22.5 -11.667 -36.5 -15s-28.667 -5 -44 -5z" />
    <glyph glyph-name="onesuperior" unicode="&#xb9;" horiz-adv-x="355" 
d="M53 329v56h106v256h-6l-84 -87l-42 39l99 105h104v-313h94v-56h-271z" />
    <glyph glyph-name="ordmasculine" unicode="&#xba;" horiz-adv-x="406" 
d="M119 491c0 -28 7 -50.667 21 -68s35 -26 63 -26s49 8.66699 63 26s21 40 21 68v62c0 28 -7 50.667 -21 68s-35 26 -63 26s-49 -8.66699 -63 -26s-21 -40 -21 -68v-62zM203 340c-50 0 -89 16.167 -117 48.5s-42 76.833 -42 133.5s14 101.167 42 133.5s67 48.5 117 48.5
s89 -16.167 117 -48.5s42 -76.833 42 -133.5s-14 -101.167 -42 -133.5s-67 -48.5 -117 -48.5z" />
    <glyph glyph-name="guillemotright" unicode="&#xbb;" horiz-adv-x="521" 
d="M52 136l134 146l-134 146l28 61l191 -165v-84l-191 -165zM266 136l134 146l-134 146l28 61l191 -165v-84l-191 -165z" />
    <glyph glyph-name="onequarter" unicode="&#xbc;" horiz-adv-x="849" 
d="M53 329v56h106v256h-6l-84 -87l-42 39l99 105h104v-313h94v-56h-271zM159 0l494 698h80l-494 -698h-80zM707 0v72h-185v58l161 239h91v-244h54v-53h-54v-72h-67zM707 302h-5l-120 -177h125v177z" />
    <glyph glyph-name="onehalf" unicode="&#xbd;" horiz-adv-x="873" 
d="M53 329v56h106v256h-6l-84 -87l-42 39l99 105h104v-313h94v-56h-271zM159 0l494 698h80l-494 -698h-80zM840 0l-275.003 -0.00195312v63l128 102c20 16.667 35.167 32.334 45.5 47.001s15.5 30.334 15.5 47.001v6c0 16 -5.5 28.5 -16.5 37.5s-25.833 13.5 -44.5 13.5
c-21.333 0 -37.666 -5.33301 -48.999 -16s-19.666 -23.667 -24.999 -39l-60 22c8 24.667 23 46.167 45 64.5s53.333 27.5 94 27.5c42 0 74.333 -10.333 97 -31s34 -47 34 -79c0 -30 -9.16699 -55.833 -27.5 -77.5s-42.166 -43.167 -71.499 -64.5l-89 -67h199v-56z" />
    <glyph glyph-name="threequarters" unicode="&#xbe;" horiz-adv-x="831" 
d="M154 548c24.667 0 42.668 4.50195 54.001 13.502s17 20.5 17 34.5v4c0 15.333 -5.33301 27.166 -16 35.499s-25.667 12.5 -45 12.5c-35.333 0 -63 -14.667 -83 -44l-46 39c12.667 17.333 29.167 31.833 49.5 43.5s47.5 17.5 81.5 17.5c39.333 0 71.5 -8.5 96.5 -25.5
s37.5 -40.5 37.5 -70.5c0 -24 -7.66699 -43 -23 -57s-33.666 -23 -54.999 -27v-4c23.333 -4 43.166 -13.333 59.499 -28s24.5 -35 24.5 -61c0 -32.667 -13.333 -58.834 -40 -78.501s-62 -29.5 -106 -29.5c-38 0 -67.667 6.83301 -89 20.5s-38.333 29.5 -51 47.5l53 38
c9.33301 -14.667 20.5 -26.667 33.5 -36s30.833 -14 53.5 -14c23.333 0 41.166 5 53.499 15s18.5 24 18.5 42v5c0 17.333 -6.5 30 -19.5 38s-31.167 12 -54.5 12h-42v57h38zM141.001 0.00195312l494 698h80l-494 -698h-80zM689.001 0.00195312v72h-185v58l161 239h91v-244
h54v-53h-54v-72h-67zM689.001 302.002h-5l-120 -177h125v177z" />
    <glyph glyph-name="questiondown" unicode="&#xbf;" horiz-adv-x="472" 
d="M242 -192c-32 0 -60.665 4.5 -85.998 13.5s-47 22 -65 39s-31.833 37.167 -41.5 60.5s-14.5 49.666 -14.5 78.999c0 31.333 5.33301 58.833 16 82.5s24.5 43.667 41.5 60s36.5 29.666 58.5 39.999s44 17.5 66 21.5v101h89v-162
c-54 -2.66699 -96.167 -15.167 -126.5 -37.5s-45.5 -54.166 -45.5 -95.499v-14c0 -32 10.167 -57.5 30.5 -76.5s47.166 -28.5 80.499 -28.5c36 0 65 10.5 87 31.5s36.667 47.5 44 79.5l84 -33c-6 -21.333 -14.833 -41.666 -26.5 -60.999s-26.334 -36.5 -44.001 -51.5
s-38.667 -26.833 -63 -35.5s-52.5 -13 -84.5 -13zM263.002 391c-23.333 0 -40.166 5.83301 -50.499 17.5s-15.5 26.5 -15.5 44.5v15c0 18 5.16699 32.833 15.5 44.5s27.166 17.5 50.499 17.5s40.166 -5.83301 50.499 -17.5s15.5 -26.5 15.5 -44.5v-15
c0 -18 -5.16699 -32.833 -15.5 -44.5s-27.166 -17.5 -50.499 -17.5z" />
    <glyph glyph-name="Agrave" unicode="&#xc0;" horiz-adv-x="649" 
d="M525 0l-66 197h-272l-67 -197h-98l242 698h122l241 -698h-102zM325 609h-5l-110 -326h225zM205 914l82 40l88 -174l-59 -28z" />
    <glyph glyph-name="Aacute" unicode="&#xc1;" horiz-adv-x="649" 
d="M525 0l-66 197h-272l-67 -197h-98l242 698h122l241 -698h-102zM325 609h-5l-110 -326h225zM334 752l-59 28l88 174l82 -40z" />
    <glyph glyph-name="Acircumflex" unicode="&#xc2;" horiz-adv-x="649" 
d="M525 0l-66 197h-272l-67 -197h-98l242 698h122l241 -698h-102zM325 609h-5l-110 -326h225zM377 939l115 -146l-49 -36l-118 116l-118 -116l-49 36l115 146h104z" />
    <glyph glyph-name="Atilde" unicode="&#xc3;" horiz-adv-x="649" 
d="M525 0l-66 197h-272l-67 -197h-98l242 698h122l241 -698h-102zM325 609h-5l-110 -326h225zM399 778c-17.333 0 -32.166 2.83301 -44.499 8.5l-35.5 16.5c-30 15.333 -53.667 23 -71 23c-11.333 0 -21.333 -2.16699 -30 -6.5s-18.334 -10.833 -29.001 -19.5l-36 45
c9.33301 14.667 22.166 27.5 38.499 38.5s36.166 16.5 59.499 16.5c17.333 0 32.166 -2.83301 44.499 -8.5l35.5 -16.5c30 -15.333 53.667 -23 71 -23c11.333 0 21.333 2.16699 30 6.5s18.334 10.833 29.001 19.5l36 -45c-9.33301 -14.667 -22.166 -27.5 -38.499 -38.5
s-36.166 -16.5 -59.499 -16.5z" />
    <glyph glyph-name="Adieresis" unicode="&#xc4;" horiz-adv-x="649" 
d="M525 0l-66 197h-272l-67 -197h-98l242 698h122l241 -698h-102zM325 609h-5l-110 -326h225zM229 783c-19.333 0 -33.333 4.33301 -42 13s-13 20.667 -13 36v16c0 15.333 4.33301 27.333 13 36s22.667 13 42 13s33.333 -4.33301 42 -13s13 -20.667 13 -36v-16
c0 -15.333 -4.33301 -27.333 -13 -36s-22.667 -13 -42 -13zM421 783c-19.333 0 -33.333 4.33301 -42 13s-13 20.667 -13 36v16c0 15.333 4.33301 27.333 13 36s22.667 13 42 13s33.333 -4.33301 42 -13s13 -20.667 13 -36v-16c0 -15.333 -4.33301 -27.333 -13 -36
s-22.667 -13 -42 -13z" />
    <glyph glyph-name="Aring" unicode="&#xc5;" horiz-adv-x="649" 
d="M525 0l-66 197h-272l-67 -197h-98l242 698h122l241 -698h-102zM325 609h-5l-110 -326h225zM325 742c-17.333 0 -33.333 3 -48 9s-27.5 14.333 -38.5 25s-19.667 23.334 -26 38.001s-9.5 30.667 -9.5 48s3.16699 33.333 9.5 48s15 27.334 26 38.001s23.833 19 38.5 25
s30.667 9 48 9c16.667 0 32.5 -3 47.5 -9s28 -14.333 39 -25s19.667 -23.334 26 -38.001s9.5 -30.667 9.5 -48s-3.16699 -33.333 -9.5 -48s-15 -27.334 -26 -38.001s-24 -19 -39 -25s-30.833 -9 -47.5 -9zM325 796c17.333 0 31.166 4.66699 41.499 14
s15.5 22.666 15.5 39.999v24c0 17.333 -5.16699 30.666 -15.5 39.999s-24.166 14 -41.499 14s-31.166 -4.66699 -41.499 -14s-15.5 -22.666 -15.5 -39.999v-24c0 -17.333 5.16699 -30.666 15.5 -39.999s24.166 -14 41.499 -14z" />
    <glyph glyph-name="AE" unicode="&#xc6;" horiz-adv-x="919" 
d="M421 198h-222l-97 -198h-99l354 698h499v-86h-338v-216h313v-86h-313v-224h338v-86h-435v198zM406 612l-167 -330h182v330h-15z" />
    <glyph glyph-name="Ccedilla" unicode="&#xc7;" horiz-adv-x="627" 
d="M343 623c-57.333 0 -102.16 -19.667 -134.493 -59s-48.5 -93.333 -48.5 -162v-106c0 -68.667 16.167 -122.667 48.5 -162s77.166 -59 134.499 -59c43.333 0 79.166 11.167 107.499 33.5s49.166 51.5 62.499 87.5l78 -47c-21.333 -48 -51.333 -85.833 -90 -113.5
s-85 -43.167 -139 -46.5l-10 -49l3 -3c14 4 27.667 6 41 6c19.333 0 35.666 -5.5 48.999 -16.5s20 -27.5 20 -49.5c0 -15.333 -3.16699 -28.333 -9.5 -39s-14.833 -19.334 -25.5 -26.001s-23 -11.667 -37 -15s-28.333 -5 -43 -5c-28.667 0 -51.334 4.5 -68.001 13.5
s-28.667 18.5 -36 28.5l39 43c6.66699 -7.33301 15 -13.833 25 -19.5s22.333 -8.5 37 -8.5c12.667 0 23.167 2.5 31.5 7.5s12.5 12.5 12.5 22.5c0 9.33301 -4.33301 17.5 -13 24.5s-27.334 12.5 -56.001 16.5l-27 4l14 66c-79.333 7.33301 -141.333 41.5 -186 102.5
s-67 146.5 -67 256.5c0 117.333 25.5 206.833 76.5 268.5s121.167 92.5 210.5 92.5c59.333 0 109.166 -13.333 149.499 -40s71.833 -65 94.5 -115l-80 -46c-13.333 34.667 -33.5 62.334 -60.5 83.001s-61.5 31 -103.5 31z" />
    <glyph glyph-name="Egrave" unicode="&#xc8;" horiz-adv-x="588" 
d="M90 0v698h435v-86h-338v-216h313v-86h-313v-224h338v-86h-435zM186 914l82 40l88 -174l-59 -28z" />
    <glyph glyph-name="Eacute" unicode="&#xc9;" horiz-adv-x="588" 
d="M90 0v698h435v-86h-338v-216h313v-86h-313v-224h338v-86h-435zM315 752l-59 28l88 174l82 -40z" />
    <glyph glyph-name="Ecircumflex" unicode="&#xca;" horiz-adv-x="588" 
d="M90 0v698h435v-86h-338v-216h313v-86h-313v-224h338v-86h-435zM358 939l115 -146l-49 -36l-118 116l-118 -116l-49 36l115 146h104z" />
    <glyph glyph-name="Edieresis" unicode="&#xcb;" horiz-adv-x="588" 
d="M90 0v698h435v-86h-338v-216h313v-86h-313v-224h338v-86h-435zM210 783c-19.333 0 -33.333 4.33301 -42 13s-13 20.667 -13 36v16c0 15.333 4.33301 27.333 13 36s22.667 13 42 13s33.333 -4.33301 42 -13s13 -20.667 13 -36v-16c0 -15.333 -4.33301 -27.333 -13 -36
s-22.667 -13 -42 -13zM402 783c-19.333 0 -33.333 4.33301 -42 13s-13 20.667 -13 36v16c0 15.333 4.33301 27.333 13 36s22.667 13 42 13s33.333 -4.33301 42 -13s13 -20.667 13 -36v-16c0 -15.333 -4.33301 -27.333 -13 -36s-22.667 -13 -42 -13z" />
    <glyph glyph-name="Igrave" unicode="&#xcc;" horiz-adv-x="407" 
d="M58 0v82h97v534h-97v82h291v-82h-97v-534h97v-82h-291zM84 914l82 40l88 -174l-59 -28z" />
    <glyph glyph-name="Iacute" unicode="&#xcd;" horiz-adv-x="407" 
d="M58 0v82h97v534h-97v82h291v-82h-97v-534h97v-82h-291zM213 752l-59 28l88 174l82 -40z" />
    <glyph glyph-name="Icircumflex" unicode="&#xce;" horiz-adv-x="407" 
d="M58 0v82h97v534h-97v82h291v-82h-97v-534h97v-82h-291zM256 939l115 -146l-49 -36l-118 116l-118 -116l-49 36l115 146h104z" />
    <glyph glyph-name="Idieresis" unicode="&#xcf;" horiz-adv-x="407" 
d="M58 0v82h97v534h-97v82h291v-82h-97v-534h97v-82h-291zM108 783c-19.333 0 -33.333 4.33301 -42 13s-13 20.667 -13 36v16c0 15.333 4.33301 27.333 13 36s22.667 13 42 13s33.333 -4.33301 42 -13s13 -20.667 13 -36v-16c0 -15.333 -4.33301 -27.333 -13 -36
s-22.667 -13 -42 -13zM300 783c-19.333 0 -33.333 4.33301 -42 13s-13 20.667 -13 36v16c0 15.333 4.33301 27.333 13 36s22.667 13 42 13s33.333 -4.33301 42 -13s13 -20.667 13 -36v-16c0 -15.333 -4.33301 -27.333 -13 -36s-22.667 -13 -42 -13z" />
    <glyph glyph-name="Eth" unicode="&#xd0;" horiz-adv-x="679" 
d="M93 329h-78v74h78v295h239c44 0 84 -7.33301 120 -22s66.667 -36.5 92 -65.5s44.833 -65.333 58.5 -109s20.5 -94.5 20.5 -152.5s-6.83301 -108.833 -20.5 -152.5s-33.167 -80 -58.5 -109s-56 -50.833 -92 -65.5s-76 -22 -120 -22h-239v329zM332 86
c28 0 53.333 4.49805 76 13.498s42.334 22.333 59.001 40s29.5 39.334 38.5 65.001s13.5 55.167 13.5 88.5v112c0 33.333 -4.5 62.833 -13.5 88.5s-21.833 47.334 -38.5 65.001s-36.334 31 -59.001 40s-48 13.5 -76 13.5h-142v-209h134v-74h-134v-243h142z" />
    <glyph glyph-name="Ntilde" unicode="&#xd1;" horiz-adv-x="710" 
d="M283 382l-96 175h-3v-557h-94v698h108l229 -382l96 -175h3v557h94v-698h-108zM429 778c-17.333 0 -32.166 2.83301 -44.499 8.5l-35.5 16.5c-30 15.333 -53.667 23 -71 23c-11.333 0 -21.333 -2.16699 -30 -6.5s-18.334 -10.833 -29.001 -19.5l-36 45
c9.33301 14.667 22.166 27.5 38.499 38.5s36.166 16.5 59.499 16.5c17.333 0 32.166 -2.83301 44.499 -8.5l35.5 -16.5c30 -15.333 53.667 -23 71 -23c11.333 0 21.333 2.16699 30 6.5s18.334 10.833 29.001 19.5l36 -45c-9.33301 -14.667 -22.166 -27.5 -38.499 -38.5
s-36.166 -16.5 -59.499 -16.5z" />
    <glyph glyph-name="Ograve" unicode="&#xd2;" horiz-adv-x="708" 
d="M354 -12c-45.333 0 -86.333 7.83301 -123 23.5s-68 38.667 -94 69s-46 68 -60 113s-21 96.833 -21 155.5s7 110.5 21 155.5s34 82.667 60 113s57.333 53.333 94 69s77.667 23.5 123 23.5s86.333 -7.83301 123 -23.5s68 -38.667 94 -69s46 -68 60 -113
s21 -96.833 21 -155.5s-7 -110.5 -21 -155.5s-34 -82.667 -60 -113s-57.333 -53.333 -94 -69s-77.667 -23.5 -123 -23.5zM354 75c28.667 0 55 5 79 15s44.5 24.5 61.5 43.5s30.167 41.833 39.5 68.5s14 56.667 14 90v114c0 33.333 -4.66699 63.333 -14 90
s-22.5 49.5 -39.5 68.5s-37.5 33.5 -61.5 43.5s-50.333 15 -79 15c-29.333 0 -55.833 -5 -79.5 -15s-44 -24.5 -61 -43.5s-30.167 -41.833 -39.5 -68.5s-14 -56.667 -14 -90v-114c0 -33.333 4.66699 -63.333 14 -90s22.5 -49.5 39.5 -68.5s37.333 -33.5 61 -43.5
s50.167 -15 79.5 -15zM234 914l82 40l88 -174l-59 -28z" />
    <glyph glyph-name="Oacute" unicode="&#xd3;" horiz-adv-x="708" 
d="M354 -12c-45.333 0 -86.333 7.83301 -123 23.5s-68 38.667 -94 69s-46 68 -60 113s-21 96.833 -21 155.5s7 110.5 21 155.5s34 82.667 60 113s57.333 53.333 94 69s77.667 23.5 123 23.5s86.333 -7.83301 123 -23.5s68 -38.667 94 -69s46 -68 60 -113
s21 -96.833 21 -155.5s-7 -110.5 -21 -155.5s-34 -82.667 -60 -113s-57.333 -53.333 -94 -69s-77.667 -23.5 -123 -23.5zM354 75c28.667 0 55 5 79 15s44.5 24.5 61.5 43.5s30.167 41.833 39.5 68.5s14 56.667 14 90v114c0 33.333 -4.66699 63.333 -14 90
s-22.5 49.5 -39.5 68.5s-37.5 33.5 -61.5 43.5s-50.333 15 -79 15c-29.333 0 -55.833 -5 -79.5 -15s-44 -24.5 -61 -43.5s-30.167 -41.833 -39.5 -68.5s-14 -56.667 -14 -90v-114c0 -33.333 4.66699 -63.333 14 -90s22.5 -49.5 39.5 -68.5s37.333 -33.5 61 -43.5
s50.167 -15 79.5 -15zM363 752l-59 28l88 174l82 -40z" />
    <glyph glyph-name="Ocircumflex" unicode="&#xd4;" horiz-adv-x="708" 
d="M354 -12c-45.333 0 -86.333 7.83301 -123 23.5s-68 38.667 -94 69s-46 68 -60 113s-21 96.833 -21 155.5s7 110.5 21 155.5s34 82.667 60 113s57.333 53.333 94 69s77.667 23.5 123 23.5s86.333 -7.83301 123 -23.5s68 -38.667 94 -69s46 -68 60 -113
s21 -96.833 21 -155.5s-7 -110.5 -21 -155.5s-34 -82.667 -60 -113s-57.333 -53.333 -94 -69s-77.667 -23.5 -123 -23.5zM354 75c28.667 0 55 5 79 15s44.5 24.5 61.5 43.5s30.167 41.833 39.5 68.5s14 56.667 14 90v114c0 33.333 -4.66699 63.333 -14 90
s-22.5 49.5 -39.5 68.5s-37.5 33.5 -61.5 43.5s-50.333 15 -79 15c-29.333 0 -55.833 -5 -79.5 -15s-44 -24.5 -61 -43.5s-30.167 -41.833 -39.5 -68.5s-14 -56.667 -14 -90v-114c0 -33.333 4.66699 -63.333 14 -90s22.5 -49.5 39.5 -68.5s37.333 -33.5 61 -43.5
s50.167 -15 79.5 -15zM406 939l115 -146l-49 -36l-118 116l-118 -116l-49 36l115 146h104z" />
    <glyph glyph-name="Otilde" unicode="&#xd5;" horiz-adv-x="708" 
d="M354 -12c-45.333 0 -86.333 7.83301 -123 23.5s-68 38.667 -94 69s-46 68 -60 113s-21 96.833 -21 155.5s7 110.5 21 155.5s34 82.667 60 113s57.333 53.333 94 69s77.667 23.5 123 23.5s86.333 -7.83301 123 -23.5s68 -38.667 94 -69s46 -68 60 -113
s21 -96.833 21 -155.5s-7 -110.5 -21 -155.5s-34 -82.667 -60 -113s-57.333 -53.333 -94 -69s-77.667 -23.5 -123 -23.5zM354 75c28.667 0 55 5 79 15s44.5 24.5 61.5 43.5s30.167 41.833 39.5 68.5s14 56.667 14 90v114c0 33.333 -4.66699 63.333 -14 90
s-22.5 49.5 -39.5 68.5s-37.5 33.5 -61.5 43.5s-50.333 15 -79 15c-29.333 0 -55.833 -5 -79.5 -15s-44 -24.5 -61 -43.5s-30.167 -41.833 -39.5 -68.5s-14 -56.667 -14 -90v-114c0 -33.333 4.66699 -63.333 14 -90s22.5 -49.5 39.5 -68.5s37.333 -33.5 61 -43.5
s50.167 -15 79.5 -15zM428 778c-17.333 0 -32.166 2.83301 -44.499 8.5l-35.5 16.5c-30 15.333 -53.667 23 -71 23c-11.333 0 -21.333 -2.16699 -30 -6.5s-18.334 -10.833 -29.001 -19.5l-36 45c9.33301 14.667 22.166 27.5 38.499 38.5s36.166 16.5 59.499 16.5
c17.333 0 32.166 -2.83301 44.499 -8.5l35.5 -16.5c30 -15.333 53.667 -23 71 -23c11.333 0 21.333 2.16699 30 6.5s18.334 10.833 29.001 19.5l36 -45c-9.33301 -14.667 -22.166 -27.5 -38.499 -38.5s-36.166 -16.5 -59.499 -16.5z" />
    <glyph glyph-name="Odieresis" unicode="&#xd6;" horiz-adv-x="708" 
d="M354 -12c-45.333 0 -86.333 7.83301 -123 23.5s-68 38.667 -94 69s-46 68 -60 113s-21 96.833 -21 155.5s7 110.5 21 155.5s34 82.667 60 113s57.333 53.333 94 69s77.667 23.5 123 23.5s86.333 -7.83301 123 -23.5s68 -38.667 94 -69s46 -68 60 -113
s21 -96.833 21 -155.5s-7 -110.5 -21 -155.5s-34 -82.667 -60 -113s-57.333 -53.333 -94 -69s-77.667 -23.5 -123 -23.5zM354 75c28.667 0 55 5 79 15s44.5 24.5 61.5 43.5s30.167 41.833 39.5 68.5s14 56.667 14 90v114c0 33.333 -4.66699 63.333 -14 90
s-22.5 49.5 -39.5 68.5s-37.5 33.5 -61.5 43.5s-50.333 15 -79 15c-29.333 0 -55.833 -5 -79.5 -15s-44 -24.5 -61 -43.5s-30.167 -41.833 -39.5 -68.5s-14 -56.667 -14 -90v-114c0 -33.333 4.66699 -63.333 14 -90s22.5 -49.5 39.5 -68.5s37.333 -33.5 61 -43.5
s50.167 -15 79.5 -15zM258 783c-19.333 0 -33.333 4.33301 -42 13s-13 20.667 -13 36v16c0 15.333 4.33301 27.333 13 36s22.667 13 42 13s33.333 -4.33301 42 -13s13 -20.667 13 -36v-16c0 -15.333 -4.33301 -27.333 -13 -36s-22.667 -13 -42 -13zM450 783
c-19.333 0 -33.333 4.33301 -42 13s-13 20.667 -13 36v16c0 15.333 4.33301 27.333 13 36s22.667 13 42 13s33.333 -4.33301 42 -13s13 -20.667 13 -36v-16c0 -15.333 -4.33301 -27.333 -13 -36s-22.667 -13 -42 -13z" />
    <glyph glyph-name="multiply" unicode="&#xd7;" 
d="M300 249l-155 -160l-55 55l155 160l-155 160l55 55l155 -160l155 160l55 -55l-155 -160l155 -160l-55 -55z" />
    <glyph glyph-name="Oslash" unicode="&#xd8;" horiz-adv-x="708" 
d="M354 -12c-66 0 -122.333 16.333 -169 49l-59 -84l-63 41l66 97c-23.333 30 -41.333 66.5 -54 109.5s-19 92.5 -19 148.5c0 58.667 7 110.5 21 155.5s34 82.667 60 113s57.333 53.333 94 69s77.667 23.5 123 23.5c66 0 122.333 -16.333 169 -49l59 84l63 -41l-66 -97
c23.333 -30 41.333 -66.5 54 -109.5s19 -92.5 19 -148.5c0 -58.667 -7 -110.5 -21 -155.5s-34 -82.667 -60 -113s-57.333 -53.333 -94 -69s-77.667 -23.5 -123 -23.5zM160 292c0 -23.333 2.33203 -45.167 6.99902 -65.5s11.334 -38.833 20.001 -55.5l285 414
c-32.667 25.333 -72 38 -118 38c-29.333 0 -55.833 -5 -79.5 -15s-44 -24.5 -61 -43.5s-30.167 -41.833 -39.5 -68.5s-14 -56.667 -14 -90v-114zM547.999 405.999c0 23.333 -2.33203 45.167 -6.99902 65.5s-11.334 38.833 -20.001 55.5l-285 -414
c32.667 -25.333 72 -38 118 -38c28.667 0 55 5 79 15s44.5 24.5 61.5 43.5s30.167 41.833 39.5 68.5s14 56.667 14 90v114z" />
    <glyph glyph-name="Ugrave" unicode="&#xd9;" horiz-adv-x="682" 
d="M182 698l-0.000976562 -430.999c0 -32 2.66699 -60 8 -84s14.333 -44 27 -60s29.167 -28 49.5 -36s45.166 -12 74.499 -12c58.667 0 99.834 16.167 123.501 48.5s35.5 80.166 35.5 143.499v431h97v-412c0 -51.333 -4.66699 -95.666 -14 -132.999
s-24.166 -68.166 -44.499 -92.499s-47 -42.5 -80 -54.5s-73.167 -18 -120.5 -18s-87.166 6 -119.499 18s-58.333 30.167 -78 54.5s-33.834 55.166 -42.501 92.499s-13 81.666 -13 132.999v412h97zM218.999 914.001l82 40l88 -174l-59 -28z" />
    <glyph glyph-name="Uacute" unicode="&#xda;" horiz-adv-x="682" 
d="M182 698l-0.000976562 -430.999c0 -32 2.66699 -60 8 -84s14.333 -44 27 -60s29.167 -28 49.5 -36s45.166 -12 74.499 -12c58.667 0 99.834 16.167 123.501 48.5s35.5 80.166 35.5 143.499v431h97v-412c0 -51.333 -4.66699 -95.666 -14 -132.999
s-24.166 -68.166 -44.499 -92.499s-47 -42.5 -80 -54.5s-73.167 -18 -120.5 -18s-87.166 6 -119.499 18s-58.333 30.167 -78 54.5s-33.834 55.166 -42.501 92.499s-13 81.666 -13 132.999v412h97zM347.999 752.001l-59 28l88 174l82 -40z" />
    <glyph glyph-name="Ucircumflex" unicode="&#xdb;" horiz-adv-x="682" 
d="M182 698l-0.000976562 -430.999c0 -32 2.66699 -60 8 -84s14.333 -44 27 -60s29.167 -28 49.5 -36s45.166 -12 74.499 -12c58.667 0 99.834 16.167 123.501 48.5s35.5 80.166 35.5 143.499v431h97v-412c0 -51.333 -4.66699 -95.666 -14 -132.999
s-24.166 -68.166 -44.499 -92.499s-47 -42.5 -80 -54.5s-73.167 -18 -120.5 -18s-87.166 6 -119.499 18s-58.333 30.167 -78 54.5s-33.834 55.166 -42.501 92.499s-13 81.666 -13 132.999v412h97zM390.999 939.001l115 -146l-49 -36l-118 116l-118 -116l-49 36l115 146h104z
" />
    <glyph glyph-name="Udieresis" unicode="&#xdc;" horiz-adv-x="682" 
d="M182 698l-0.000976562 -430.999c0 -32 2.66699 -60 8 -84s14.333 -44 27 -60s29.167 -28 49.5 -36s45.166 -12 74.499 -12c58.667 0 99.834 16.167 123.501 48.5s35.5 80.166 35.5 143.499v431h97v-412c0 -51.333 -4.66699 -95.666 -14 -132.999
s-24.166 -68.166 -44.499 -92.499s-47 -42.5 -80 -54.5s-73.167 -18 -120.5 -18s-87.166 6 -119.499 18s-58.333 30.167 -78 54.5s-33.834 55.166 -42.501 92.499s-13 81.666 -13 132.999v412h97zM242.999 783.001c-19.333 0 -33.333 4.33301 -42 13s-13 20.667 -13 36v16
c0 15.333 4.33301 27.333 13 36s22.667 13 42 13s33.333 -4.33301 42 -13s13 -20.667 13 -36v-16c0 -15.333 -4.33301 -27.333 -13 -36s-22.667 -13 -42 -13zM434.999 783.001c-19.333 0 -33.333 4.33301 -42 13s-13 20.667 -13 36v16c0 15.333 4.33301 27.333 13 36
s22.667 13 42 13s33.333 -4.33301 42 -13s13 -20.667 13 -36v-16c0 -15.333 -4.33301 -27.333 -13 -36s-22.667 -13 -42 -13z" />
    <glyph glyph-name="Yacute" unicode="&#xdd;" horiz-adv-x="603" 
d="M252 0v275l-240 423h111l179 -325h3l178 325h108l-242 -420v-278h-97zM311 752l-59 28l88 174l82 -40z" />
    <glyph glyph-name="Thorn" unicode="&#xde;" horiz-adv-x="617" 
d="M90 0v698h97v-139h191c31.333 0 59.333 -4.83301 84 -14.5s45.5 -23.5 62.5 -41.5s30 -39.667 39 -65s13.5 -53.333 13.5 -84c0 -31.333 -4.5 -59.5 -13.5 -84.5s-22 -46.5 -39 -64.5s-37.833 -31.833 -62.5 -41.5s-52.667 -14.5 -84 -14.5h-191v-149h-97zM187 235h187
c31.333 0 55.666 8.16699 72.999 24.5s26 39.5 26 69.5v50c0 30 -8.66699 53.167 -26 69.5s-41.666 24.5 -72.999 24.5h-187v-238z" />
    <glyph glyph-name="germandbls" unicode="&#xdf;" horiz-adv-x="650" 
d="M623 154c0 -52 -16.332 -92.666 -48.999 -121.999s-77.334 -44 -134.001 -44c-40.667 0 -75.5 7 -104.5 21s-53.833 34.333 -74.5 61l60 56c33.333 -41.333 74.333 -62 123 -62c28.667 0 51 6.83301 67 20.5s24 33.167 24 58.5c0 19.333 -4.83301 35.5 -14.5 48.5
s-27.834 22.833 -54.501 29.5l-31 7c-20 4.66699 -38.5 10.667 -55.5 18s-31.833 16.666 -44.5 27.999s-22.5 25.333 -29.5 42s-10.5 36.667 -10.5 60c0 44.667 15.333 79.667 46 105s72.334 39.333 125.001 42v5c0 50 -10.667 87.167 -32 111.5s-54.666 36.5 -99.999 36.5
s-78.5 -12.167 -99.5 -36.5s-31.5 -61.5 -31.5 -111.5v-528h-93v439h-83v79h83v5c0 34.667 5 66.167 15 94.5s24.667 52.5 44 72.5s42.666 35.333 69.999 46s58.666 16 93.999 16c34.667 0 65.834 -5.33301 93.501 -16s51 -26 70 -46s33.5 -44.167 43.5 -72.5
s15 -59.833 15 -94.5v-68h-48c-40 0 -70.5 -5.66699 -91.5 -17s-31.5 -30.333 -31.5 -57c0 -23.333 6.5 -40.333 19.5 -51s31.5 -19 55.5 -25l31 -7c46.667 -11.333 80.5 -28.333 101.5 -51s31.5 -53.667 31.5 -93z" />
    <glyph glyph-name="agrave" unicode="&#xe0;" horiz-adv-x="541" 
d="M459 0c-28.667 0 -50.1689 7.99902 -64.502 23.999s-23.166 36.667 -26.499 62h-5c-10.667 -32 -29 -56.333 -55 -73s-57.667 -25 -95 -25c-54 0 -96 13.833 -126 41.5s-45 65.5 -45 113.5c0 50 18.167 88.167 54.5 114.5s91.833 39.5 166.5 39.5h98v47
c0 34.667 -9.33301 61.334 -28 80.001s-47.667 28 -87 28c-30.667 0 -56.167 -6.83301 -76.5 -20.5s-37.166 -31.5 -50.499 -53.5l-56 51c15.333 28 38.5 51.833 69.5 71.5s70.5 29.5 118.5 29.5c64.667 0 114.667 -15.5 150 -46.5s53 -74.833 53 -131.5v-273h58v-79h-53z
M233.998 62.999c36.667 0 67.001 8.33301 91.001 25s36 38 36 64v80h-99c-42.667 0 -73.834 -6.33301 -93.501 -19s-29.5 -31 -29.5 -55v-20c0 -24 8.5 -42.5 25.5 -55.5s40.167 -19.5 69.5 -19.5zM135.999 745.999l82 40l88 -175l-59 -27z" />
    <glyph glyph-name="aacute" unicode="&#xe1;" horiz-adv-x="541" 
d="M459 0c-28.667 0 -50.1689 7.99902 -64.502 23.999s-23.166 36.667 -26.499 62h-5c-10.667 -32 -29 -56.333 -55 -73s-57.667 -25 -95 -25c-54 0 -96 13.833 -126 41.5s-45 65.5 -45 113.5c0 50 18.167 88.167 54.5 114.5s91.833 39.5 166.5 39.5h98v47
c0 34.667 -9.33301 61.334 -28 80.001s-47.667 28 -87 28c-30.667 0 -56.167 -6.83301 -76.5 -20.5s-37.166 -31.5 -50.499 -53.5l-56 51c15.333 28 38.5 51.833 69.5 71.5s70.5 29.5 118.5 29.5c64.667 0 114.667 -15.5 150 -46.5s53 -74.833 53 -131.5v-273h58v-79h-53z
M233.998 62.999c36.667 0 67.001 8.33301 91.001 25s36 38 36 64v80h-99c-42.667 0 -73.834 -6.33301 -93.501 -19s-29.5 -31 -29.5 -55v-20c0 -24 8.5 -42.5 25.5 -55.5s40.167 -19.5 69.5 -19.5zM264.999 583.999l-59 27l88 175l82 -40z" />
    <glyph glyph-name="acircumflex" unicode="&#xe2;" horiz-adv-x="541" 
d="M459 0c-28.667 0 -50.1689 7.99902 -64.502 23.999s-23.166 36.667 -26.499 62h-5c-10.667 -32 -29 -56.333 -55 -73s-57.667 -25 -95 -25c-54 0 -96 13.833 -126 41.5s-45 65.5 -45 113.5c0 50 18.167 88.167 54.5 114.5s91.833 39.5 166.5 39.5h98v47
c0 34.667 -9.33301 61.334 -28 80.001s-47.667 28 -87 28c-30.667 0 -56.167 -6.83301 -76.5 -20.5s-37.166 -31.5 -50.499 -53.5l-56 51c15.333 28 38.5 51.833 69.5 71.5s70.5 29.5 118.5 29.5c64.667 0 114.667 -15.5 150 -46.5s53 -74.833 53 -131.5v-273h58v-79h-53z
M233.998 62.999c36.667 0 67.001 8.33301 91.001 25s36 38 36 64v80h-99c-42.667 0 -73.834 -6.33301 -93.501 -19s-29.5 -31 -29.5 -55v-20c0 -24 8.5 -42.5 25.5 -55.5s40.167 -19.5 69.5 -19.5zM307.999 770.999l115 -146l-49 -36l-118 116l-118 -116l-49 36l115 146h104
z" />
    <glyph glyph-name="atilde" unicode="&#xe3;" horiz-adv-x="541" 
d="M459 0c-28.667 0 -50.1689 7.99902 -64.502 23.999s-23.166 36.667 -26.499 62h-5c-10.667 -32 -29 -56.333 -55 -73s-57.667 -25 -95 -25c-54 0 -96 13.833 -126 41.5s-45 65.5 -45 113.5c0 50 18.167 88.167 54.5 114.5s91.833 39.5 166.5 39.5h98v47
c0 34.667 -9.33301 61.334 -28 80.001s-47.667 28 -87 28c-30.667 0 -56.167 -6.83301 -76.5 -20.5s-37.166 -31.5 -50.499 -53.5l-56 51c15.333 28 38.5 51.833 69.5 71.5s70.5 29.5 118.5 29.5c64.667 0 114.667 -15.5 150 -46.5s53 -74.833 53 -131.5v-273h58v-79h-53z
M233.998 62.999c36.667 0 67.001 8.33301 91.001 25s36 38 36 64v80h-99c-42.667 0 -73.834 -6.33301 -93.501 -19s-29.5 -31 -29.5 -55v-20c0 -24 8.5 -42.5 25.5 -55.5s40.167 -19.5 69.5 -19.5zM329.999 609.999c-17.333 0 -32.166 2.83301 -44.499 8.5l-35.5 16.5
c-30 15.333 -53.667 23 -71 23c-11.333 0 -21.333 -2.16699 -30 -6.5s-18.334 -10.833 -29.001 -19.5l-36 45c9.33301 14.667 22.166 27.5 38.499 38.5s36.166 16.5 59.499 16.5c17.333 0 32.166 -2.83301 44.499 -8.5l35.5 -16.5c30 -15.333 53.667 -23 71 -23
c11.333 0 21.333 2.16699 30 6.5s18.334 10.833 29.001 19.5l36 -45c-9.33301 -14.667 -22.166 -27.5 -38.499 -38.5s-36.166 -16.5 -59.499 -16.5z" />
    <glyph glyph-name="adieresis" unicode="&#xe4;" horiz-adv-x="541" 
d="M459 0c-28.667 0 -50.1689 7.99902 -64.502 23.999s-23.166 36.667 -26.499 62h-5c-10.667 -32 -29 -56.333 -55 -73s-57.667 -25 -95 -25c-54 0 -96 13.833 -126 41.5s-45 65.5 -45 113.5c0 50 18.167 88.167 54.5 114.5s91.833 39.5 166.5 39.5h98v47
c0 34.667 -9.33301 61.334 -28 80.001s-47.667 28 -87 28c-30.667 0 -56.167 -6.83301 -76.5 -20.5s-37.166 -31.5 -50.499 -53.5l-56 51c15.333 28 38.5 51.833 69.5 71.5s70.5 29.5 118.5 29.5c64.667 0 114.667 -15.5 150 -46.5s53 -74.833 53 -131.5v-273h58v-79h-53z
M233.998 62.999c36.667 0 67.001 8.33301 91.001 25s36 38 36 64v80h-99c-42.667 0 -73.834 -6.33301 -93.501 -19s-29.5 -31 -29.5 -55v-20c0 -24 8.5 -42.5 25.5 -55.5s40.167 -19.5 69.5 -19.5zM159.999 614.999c-19.333 0 -33.333 4.33301 -42 13s-13 20.667 -13 36v14
c0 15.333 4.33301 27.333 13 36s22.667 13 42 13s33.333 -4.33301 42 -13s13 -20.667 13 -36v-14c0 -15.333 -4.33301 -27.333 -13 -36s-22.667 -13 -42 -13zM351.999 614.999c-19.333 0 -33.333 4.33301 -42 13s-13 20.667 -13 36v14c0 15.333 4.33301 27.333 13 36
s22.667 13 42 13s33.333 -4.33301 42 -13s13 -20.667 13 -36v-14c0 -15.333 -4.33301 -27.333 -13 -36s-22.667 -13 -42 -13z" />
    <glyph glyph-name="aring" unicode="&#xe5;" horiz-adv-x="541" 
d="M459 0c-28.667 0 -50.1689 7.99902 -64.502 23.999s-23.166 36.667 -26.499 62h-5c-10.667 -32 -29 -56.333 -55 -73s-57.667 -25 -95 -25c-54 0 -96 13.833 -126 41.5s-45 65.5 -45 113.5c0 50 18.167 88.167 54.5 114.5s91.833 39.5 166.5 39.5h98v47
c0 34.667 -9.33301 61.334 -28 80.001s-47.667 28 -87 28c-30.667 0 -56.167 -6.83301 -76.5 -20.5s-37.166 -31.5 -50.499 -53.5l-56 51c15.333 28 38.5 51.833 69.5 71.5s70.5 29.5 118.5 29.5c64.667 0 114.667 -15.5 150 -46.5s53 -74.833 53 -131.5v-273h58v-79h-53z
M233.998 62.999c36.667 0 67.001 8.33301 91.001 25s36 38 36 64v80h-99c-42.667 0 -73.834 -6.33301 -93.501 -19s-29.5 -31 -29.5 -55v-20c0 -24 8.5 -42.5 25.5 -55.5s40.167 -19.5 69.5 -19.5zM255.999 572.999c-17.333 0 -33.333 3 -48 9s-27.5 14.333 -38.5 25
s-19.667 23.334 -26 38.001s-9.5 30.667 -9.5 48s3.16699 33.333 9.5 48s15 27.334 26 38.001s23.833 19 38.5 25s30.667 9 48 9c16.667 0 32.5 -3 47.5 -9s28 -14.333 39 -25s19.667 -23.334 26 -38.001s9.5 -30.667 9.5 -48s-3.16699 -33.333 -9.5 -48
s-15 -27.334 -26 -38.001s-24 -19 -39 -25s-30.833 -9 -47.5 -9zM255.999 626.999c17.333 0 31.166 4.66699 41.499 14s15.5 22.666 15.5 39.999v24c0 17.333 -5.16699 30.666 -15.5 39.999s-24.166 14 -41.499 14s-31.166 -4.66699 -41.499 -14
s-15.5 -22.666 -15.5 -39.999v-24c0 -17.333 5.16699 -30.666 15.5 -39.999s24.166 -14 41.499 -14z" />
    <glyph glyph-name="ae" unicode="&#xe6;" horiz-adv-x="864" 
d="M262 236c-42 -1.33301 -72.999 -8.66797 -92.999 -22.001s-30 -31.666 -30 -54.999v-20c0 -24.667 8.33301 -43.5 25 -56.5s40.334 -19.5 71.001 -19.5c18 0 34.667 2.16699 50 6.5s28.666 10.5 39.999 18.5s20.166 17.333 26.499 28s9.5 22.667 9.5 36v84h-99z
M720.001 300.998v10.001c0 43.333 -11.5 78.166 -34.5 104.499s-53.833 39.5 -92.5 39.5c-20.667 0 -39.5 -3.66699 -56.5 -11s-31.5 -17.5 -43.5 -30.5s-21.333 -28.5 -28 -46.5s-10 -37.667 -10 -59v-7h265zM601.001 66.999c32.667 0 60.4922 7.33008 83.4922 21.9971
s41.833 35 56.5 61l60 -50c-18 -34 -44.5 -61.167 -79.5 -81.5s-75.167 -30.5 -120.5 -30.5c-26.667 0 -51.167 3.66699 -73.5 11s-41.666 16.5 -57.999 27.5s-29.833 23.333 -40.5 37s-17.667 26.5 -21 38.5h-6c-3.33301 -12 -9.66602 -24.667 -18.999 -38
s-22 -25.666 -38 -36.999s-35 -20.666 -57 -27.999s-47.333 -11 -76 -11c-52.667 0 -94.167 14 -124.5 42s-45.5 65.333 -45.5 112c0 51.333 18.833 90.666 56.5 117.999s92.5 41 164.5 41h98v43c0 34.667 -9.33301 61.334 -28 80.001s-46.667 28 -84 28
c-32.667 0 -59.167 -6.66699 -79.5 -20s-37.166 -31.333 -50.499 -54l-56 51c15.333 28 38.5 51.833 69.5 71.5s70.833 29.5 119.5 29.5c26.667 0 49.334 -3.66699 68.001 -11s34.167 -16.333 46.5 -27s22 -22.167 29 -34.5s12.5 -23.833 16.5 -34.5h6
c4 11.333 11 23.333 21 36s22.833 24.167 38.5 34.5s33.834 19 54.501 26s43.334 10.5 68.001 10.5c34.667 0 65.667 -6.5 93 -19.5s50.333 -30.833 69 -53.5s32.834 -49.667 42.501 -81s14.5 -65 14.5 -101v-39h-365v-21c0 -21.333 3.33301 -41 10 -59
s16.334 -33.667 29.001 -47s28 -23.666 46 -30.999s38.667 -11 62 -11z" />
    <glyph glyph-name="ccedilla" unicode="&#xe7;" horiz-adv-x="505" 
d="M278 530c51.333 0 92.999 -11.333 124.999 -34s55.667 -52.667 71 -90l-77 -38c-8.66699 25.333 -23.167 45.333 -43.5 60s-45.5 22 -75.5 22c-44.667 0 -78.167 -13.667 -100.5 -41s-33.5 -62.333 -33.5 -105v-90c0 -42.667 11.167 -77.667 33.5 -105
s55.833 -41 100.5 -41c32 0 58.667 7.66699 80 23s38.666 37 51.999 65l68 -42c-15.333 -36.667 -38.166 -66 -68.499 -88s-67.833 -34.333 -112.5 -37l-10 -49l4 -3c6.66699 2 13.5 3.5 20.5 4.5s13.5 1.5 19.5 1.5c20 0 36.5 -5.5 49.5 -16.5s19.5 -27.5 19.5 -49.5
c0 -15.333 -3.16699 -28.333 -9.5 -39s-14.666 -19.334 -24.999 -26.001s-22.5 -11.667 -36.5 -15s-28.667 -5 -44 -5c-28.667 0 -51.167 4.5 -67.5 13.5s-28.166 18.5 -35.499 28.5l39 43c6 -7.33301 14.167 -13.833 24.5 -19.5s22.833 -8.5 37.5 -8.5
c12.667 0 23.167 2.5 31.5 7.5s12.5 12.5 12.5 22.5c0 9.33301 -4.33301 17.5 -13 24.5s-27.334 12.5 -56.001 16.5l-27 4l13 66c-64 7.33301 -113.167 34.833 -147.5 82.5s-51.5 109.834 -51.5 186.501c0 41.333 5.16699 78.666 15.5 111.999s25.5 61.833 45.5 85.5
s44.333 41.834 73 54.501s61.667 19 99 19z" />
    <glyph glyph-name="egrave" unicode="&#xe8;" horiz-adv-x="552" 
d="M280 -12c-36 0 -68.499 6.5 -97.499 19.5s-53.667 31.167 -74 54.5s-36 51.666 -47 84.999s-16.5 70.666 -16.5 111.999c0 40.667 5.5 77.834 16.5 111.501s26.667 62.167 47 85.5s45 41.5 74 54.5s61.5 19.5 97.5 19.5s68.167 -6.5 96.5 -19.5
s52.166 -30.833 71.499 -53.5s34 -49.667 44 -81s15 -65 15 -101v-39h-365v-21c0 -43.333 12.667 -78.833 38 -106.5s61.333 -41.5 108 -41.5c32.667 0 60.667 7.33301 84 22s42 35.334 56 62.001l60 -51c-18 -34 -45 -61.167 -81 -81.5s-78.333 -30.5 -127 -30.5z
M280.001 455c-20 0 -38.5 -3.66602 -55.5 -10.999s-31.667 -17.5 -44 -30.5s-21.833 -28.5 -28.5 -46.5s-10 -37.667 -10 -59v-7h266v10c0 43.333 -11.5 78.166 -34.5 104.499s-54.167 39.5 -93.5 39.5zM162.001 746.001l82 40l88 -175l-59 -27z" />
    <glyph glyph-name="eacute" unicode="&#xe9;" horiz-adv-x="552" 
d="M280 -12c-36 0 -68.499 6.5 -97.499 19.5s-53.667 31.167 -74 54.5s-36 51.666 -47 84.999s-16.5 70.666 -16.5 111.999c0 40.667 5.5 77.834 16.5 111.501s26.667 62.167 47 85.5s45 41.5 74 54.5s61.5 19.5 97.5 19.5s68.167 -6.5 96.5 -19.5
s52.166 -30.833 71.499 -53.5s34 -49.667 44 -81s15 -65 15 -101v-39h-365v-21c0 -43.333 12.667 -78.833 38 -106.5s61.333 -41.5 108 -41.5c32.667 0 60.667 7.33301 84 22s42 35.334 56 62.001l60 -51c-18 -34 -45 -61.167 -81 -81.5s-78.333 -30.5 -127 -30.5z
M280.001 455c-20 0 -38.5 -3.66602 -55.5 -10.999s-31.667 -17.5 -44 -30.5s-21.833 -28.5 -28.5 -46.5s-10 -37.667 -10 -59v-7h266v10c0 43.333 -11.5 78.166 -34.5 104.499s-54.167 39.5 -93.5 39.5zM291.001 584.001l-59 27l88 175l82 -40z" />
    <glyph glyph-name="ecircumflex" unicode="&#xea;" horiz-adv-x="552" 
d="M280 -12c-36 0 -68.499 6.5 -97.499 19.5s-53.667 31.167 -74 54.5s-36 51.666 -47 84.999s-16.5 70.666 -16.5 111.999c0 40.667 5.5 77.834 16.5 111.501s26.667 62.167 47 85.5s45 41.5 74 54.5s61.5 19.5 97.5 19.5s68.167 -6.5 96.5 -19.5
s52.166 -30.833 71.499 -53.5s34 -49.667 44 -81s15 -65 15 -101v-39h-365v-21c0 -43.333 12.667 -78.833 38 -106.5s61.333 -41.5 108 -41.5c32.667 0 60.667 7.33301 84 22s42 35.334 56 62.001l60 -51c-18 -34 -45 -61.167 -81 -81.5s-78.333 -30.5 -127 -30.5z
M280.001 455c-20 0 -38.5 -3.66602 -55.5 -10.999s-31.667 -17.5 -44 -30.5s-21.833 -28.5 -28.5 -46.5s-10 -37.667 -10 -59v-7h266v10c0 43.333 -11.5 78.166 -34.5 104.499s-54.167 39.5 -93.5 39.5zM334.001 771.001l115 -146l-49 -36l-118 116l-118 -116l-49 36
l115 146h104z" />
    <glyph glyph-name="edieresis" unicode="&#xeb;" horiz-adv-x="552" 
d="M280 -12c-36 0 -68.499 6.5 -97.499 19.5s-53.667 31.167 -74 54.5s-36 51.666 -47 84.999s-16.5 70.666 -16.5 111.999c0 40.667 5.5 77.834 16.5 111.501s26.667 62.167 47 85.5s45 41.5 74 54.5s61.5 19.5 97.5 19.5s68.167 -6.5 96.5 -19.5
s52.166 -30.833 71.499 -53.5s34 -49.667 44 -81s15 -65 15 -101v-39h-365v-21c0 -43.333 12.667 -78.833 38 -106.5s61.333 -41.5 108 -41.5c32.667 0 60.667 7.33301 84 22s42 35.334 56 62.001l60 -51c-18 -34 -45 -61.167 -81 -81.5s-78.333 -30.5 -127 -30.5z
M280.001 455c-20 0 -38.5 -3.66602 -55.5 -10.999s-31.667 -17.5 -44 -30.5s-21.833 -28.5 -28.5 -46.5s-10 -37.667 -10 -59v-7h266v10c0 43.333 -11.5 78.166 -34.5 104.499s-54.167 39.5 -93.5 39.5zM186.001 615.001c-19.333 0 -33.333 4.33301 -42 13
s-13 20.667 -13 36v14c0 15.333 4.33301 27.333 13 36s22.667 13 42 13s33.333 -4.33301 42 -13s13 -20.667 13 -36v-14c0 -15.333 -4.33301 -27.333 -13 -36s-22.667 -13 -42 -13zM378.001 615.001c-19.333 0 -33.333 4.33301 -42 13s-13 20.667 -13 36v14
c0 15.333 4.33301 27.333 13 36s22.667 13 42 13s33.333 -4.33301 42 -13s13 -20.667 13 -36v-14c0 -15.333 -4.33301 -27.333 -13 -36s-22.667 -13 -42 -13z" />
    <glyph glyph-name="igrave" unicode="&#xec;" horiz-adv-x="257" 
d="M82 0v518h93v-518h-93zM10 746l82 40l88 -175l-59 -27z" />
    <glyph glyph-name="iacute" unicode="&#xed;" horiz-adv-x="257" 
d="M82 0v518h93v-518h-93zM139 584l-59 27l88 175l82 -40z" />
    <glyph glyph-name="icircumflex" unicode="&#xee;" horiz-adv-x="257" 
d="M82 0v518h93v-518h-93zM182 771l115 -146l-49 -36l-118 116l-118 -116l-49 36l115 146h104z" />
    <glyph glyph-name="idieresis" unicode="&#xef;" horiz-adv-x="257" 
d="M82 0v518h93v-518h-93zM34 615c-19.333 0 -33.333 4.33301 -42 13s-13 20.667 -13 36v14c0 15.333 4.33301 27.333 13 36s22.667 13 42 13s33.333 -4.33301 42 -13s13 -20.667 13 -36v-14c0 -15.333 -4.33301 -27.333 -13 -36s-22.667 -13 -42 -13zM226 615
c-19.333 0 -33.333 4.33301 -42 13s-13 20.667 -13 36v14c0 15.333 4.33301 27.333 13 36s22.667 13 42 13s33.333 -4.33301 42 -13s13 -20.667 13 -36v-14c0 -15.333 -4.33301 -27.333 -13 -36s-22.667 -13 -42 -13z" />
    <glyph glyph-name="eth" unicode="&#xf0;" horiz-adv-x="565" 
d="M431 708l-77.002 -53.001c22 -21.333 42.667 -45.333 62 -72s36.5 -56 51.5 -88s26.833 -66.5 35.5 -103.5s13 -76.833 13 -119.5c0 -47.333 -5.66699 -88.833 -17 -124.5s-27.333 -65.334 -48 -89.001s-45.334 -41.334 -74.001 -53.001s-60.334 -17.5 -95.001 -17.5
c-36 0 -68.667 6.33301 -98 19s-54.166 30.334 -74.499 53.001s-36 49.834 -47 81.501s-16.5 66.834 -16.5 105.501c0 38 5.33301 72.667 16 104s25.667 58.333 45 81s43 40.167 71 52.5s59 18.5 93 18.5c33.333 0 61.333 -8.66699 84 -26s39.667 -41.333 51 -72l4 2
c-7.33301 37.333 -22.166 72.833 -44.499 106.5s-49.166 65.167 -80.499 94.5l-81 -55l-35 45l72 49c-21.333 17.333 -43.5 33.833 -66.5 49.5s-46.167 30.167 -69.5 43.5h143c9.33301 -6 19.333 -12.833 30 -20.5s21.334 -16.167 32.001 -25.5l85 59zM280.998 64.999
c41.333 0 74.333 13.333 99 40s37 63 37 109v63c0 46 -12.333 82.333 -37 109s-57.667 40 -99 40s-74.333 -13.333 -99 -40s-37 -63 -37 -109v-63c0 -46 12.333 -82.333 37 -109s57.667 -40 99 -40z" />
    <glyph glyph-name="ntilde" unicode="&#xf1;" horiz-adv-x="573" 
d="M82 0l-0.000976562 518.001h93v-85h5c12 28.667 29.5 52 52.5 70s54.167 27 93.5 27c53.333 0 95.166 -17.333 125.499 -52s45.5 -83.667 45.5 -147v-331h-93v317c0 88 -36.333 132 -109 132c-15.333 0 -30.166 -2 -44.499 -6s-27.166 -9.83301 -38.499 -17.5
s-20.333 -17.334 -27 -29.001s-10 -25.5 -10 -41.5v-355h-93zM364.999 610.001c-17.333 0 -32.166 2.83301 -44.499 8.5l-35.5 16.5c-30 15.333 -53.667 23 -71 23c-11.333 0 -21.333 -2.16699 -30 -6.5s-18.334 -10.833 -29.001 -19.5l-36 45
c9.33301 14.667 22.166 27.5 38.499 38.5s36.166 16.5 59.499 16.5c17.333 0 32.166 -2.83301 44.499 -8.5l35.5 -16.5c30 -15.333 53.667 -23 71 -23c11.333 0 21.333 2.16699 30 6.5s18.334 10.833 29.001 19.5l36 -45c-9.33301 -14.667 -22.166 -27.5 -38.499 -38.5
s-36.166 -16.5 -59.499 -16.5z" />
    <glyph glyph-name="ograve" unicode="&#xf2;" horiz-adv-x="562" 
d="M281 -12c-35.333 0 -67.5 6.33301 -96.5 19s-53.833 30.834 -74.5 54.501s-36.667 52.167 -48 85.5s-17 70.666 -17 111.999s5.66699 78.666 17 111.999s27.333 61.833 48 85.5s45.5 41.834 74.5 54.501s61.167 19 96.5 19s67.5 -6.33301 96.5 -19
s53.833 -30.834 74.5 -54.501s36.667 -52.167 48 -85.5s17 -70.666 17 -111.999s-5.66699 -78.666 -17 -111.999s-27.333 -61.833 -48 -85.5s-45.5 -41.834 -74.5 -54.501s-61.167 -19 -96.5 -19zM281 68c40.667 0 73.667 12.667 99 38s38 63.333 38 114v78
c0 50.667 -12.667 88.667 -38 114s-58.333 38 -99 38s-73.667 -12.667 -99 -38s-38 -63.333 -38 -114v-78c0 -50.667 12.667 -88.667 38 -114s58.333 -38 99 -38zM162 746l82 40l88 -175l-59 -27z" />
    <glyph glyph-name="oacute" unicode="&#xf3;" horiz-adv-x="562" 
d="M281 -12c-35.333 0 -67.5 6.33301 -96.5 19s-53.833 30.834 -74.5 54.501s-36.667 52.167 -48 85.5s-17 70.666 -17 111.999s5.66699 78.666 17 111.999s27.333 61.833 48 85.5s45.5 41.834 74.5 54.501s61.167 19 96.5 19s67.5 -6.33301 96.5 -19
s53.833 -30.834 74.5 -54.501s36.667 -52.167 48 -85.5s17 -70.666 17 -111.999s-5.66699 -78.666 -17 -111.999s-27.333 -61.833 -48 -85.5s-45.5 -41.834 -74.5 -54.501s-61.167 -19 -96.5 -19zM281 68c40.667 0 73.667 12.667 99 38s38 63.333 38 114v78
c0 50.667 -12.667 88.667 -38 114s-58.333 38 -99 38s-73.667 -12.667 -99 -38s-38 -63.333 -38 -114v-78c0 -50.667 12.667 -88.667 38 -114s58.333 -38 99 -38zM291 584l-59 27l88 175l82 -40z" />
    <glyph glyph-name="ocircumflex" unicode="&#xf4;" horiz-adv-x="562" 
d="M281 -12c-35.333 0 -67.5 6.33301 -96.5 19s-53.833 30.834 -74.5 54.501s-36.667 52.167 -48 85.5s-17 70.666 -17 111.999s5.66699 78.666 17 111.999s27.333 61.833 48 85.5s45.5 41.834 74.5 54.501s61.167 19 96.5 19s67.5 -6.33301 96.5 -19
s53.833 -30.834 74.5 -54.501s36.667 -52.167 48 -85.5s17 -70.666 17 -111.999s-5.66699 -78.666 -17 -111.999s-27.333 -61.833 -48 -85.5s-45.5 -41.834 -74.5 -54.501s-61.167 -19 -96.5 -19zM281 68c40.667 0 73.667 12.667 99 38s38 63.333 38 114v78
c0 50.667 -12.667 88.667 -38 114s-58.333 38 -99 38s-73.667 -12.667 -99 -38s-38 -63.333 -38 -114v-78c0 -50.667 12.667 -88.667 38 -114s58.333 -38 99 -38zM334 771l115 -146l-49 -36l-118 116l-118 -116l-49 36l115 146h104z" />
    <glyph glyph-name="otilde" unicode="&#xf5;" horiz-adv-x="562" 
d="M281 -12c-35.333 0 -67.5 6.33301 -96.5 19s-53.833 30.834 -74.5 54.501s-36.667 52.167 -48 85.5s-17 70.666 -17 111.999s5.66699 78.666 17 111.999s27.333 61.833 48 85.5s45.5 41.834 74.5 54.501s61.167 19 96.5 19s67.5 -6.33301 96.5 -19
s53.833 -30.834 74.5 -54.501s36.667 -52.167 48 -85.5s17 -70.666 17 -111.999s-5.66699 -78.666 -17 -111.999s-27.333 -61.833 -48 -85.5s-45.5 -41.834 -74.5 -54.501s-61.167 -19 -96.5 -19zM281 68c40.667 0 73.667 12.667 99 38s38 63.333 38 114v78
c0 50.667 -12.667 88.667 -38 114s-58.333 38 -99 38s-73.667 -12.667 -99 -38s-38 -63.333 -38 -114v-78c0 -50.667 12.667 -88.667 38 -114s58.333 -38 99 -38zM356 610c-17.333 0 -32.166 2.83301 -44.499 8.5l-35.5 16.5c-30 15.333 -53.667 23 -71 23
c-11.333 0 -21.333 -2.16699 -30 -6.5s-18.334 -10.833 -29.001 -19.5l-36 45c9.33301 14.667 22.166 27.5 38.499 38.5s36.166 16.5 59.499 16.5c17.333 0 32.166 -2.83301 44.499 -8.5l35.5 -16.5c30 -15.333 53.667 -23 71 -23c11.333 0 21.333 2.16699 30 6.5
s18.334 10.833 29.001 19.5l36 -45c-9.33301 -14.667 -22.166 -27.5 -38.499 -38.5s-36.166 -16.5 -59.499 -16.5z" />
    <glyph glyph-name="odieresis" unicode="&#xf6;" horiz-adv-x="562" 
d="M281 -12c-35.333 0 -67.5 6.33301 -96.5 19s-53.833 30.834 -74.5 54.501s-36.667 52.167 -48 85.5s-17 70.666 -17 111.999s5.66699 78.666 17 111.999s27.333 61.833 48 85.5s45.5 41.834 74.5 54.501s61.167 19 96.5 19s67.5 -6.33301 96.5 -19
s53.833 -30.834 74.5 -54.501s36.667 -52.167 48 -85.5s17 -70.666 17 -111.999s-5.66699 -78.666 -17 -111.999s-27.333 -61.833 -48 -85.5s-45.5 -41.834 -74.5 -54.501s-61.167 -19 -96.5 -19zM281 68c40.667 0 73.667 12.667 99 38s38 63.333 38 114v78
c0 50.667 -12.667 88.667 -38 114s-58.333 38 -99 38s-73.667 -12.667 -99 -38s-38 -63.333 -38 -114v-78c0 -50.667 12.667 -88.667 38 -114s58.333 -38 99 -38zM186 615c-19.333 0 -33.333 4.33301 -42 13s-13 20.667 -13 36v14c0 15.333 4.33301 27.333 13 36
s22.667 13 42 13s33.333 -4.33301 42 -13s13 -20.667 13 -36v-14c0 -15.333 -4.33301 -27.333 -13 -36s-22.667 -13 -42 -13zM378 615c-19.333 0 -33.333 4.33301 -42 13s-13 20.667 -13 36v14c0 15.333 4.33301 27.333 13 36s22.667 13 42 13s33.333 -4.33301 42 -13
s13 -20.667 13 -36v-14c0 -15.333 -4.33301 -27.333 -13 -36s-22.667 -13 -42 -13z" />
    <glyph glyph-name="divide" unicode="&#xf7;" 
d="M67 266v78h466v-78h-466zM300 47c-24.667 0 -42 5.16699 -52 15.5s-15 22.5 -15 36.5v23c0 14 5 26.167 15 36.5s27.333 15.5 52 15.5s42 -5.16699 52 -15.5s15 -22.5 15 -36.5v-23c0 -14 -5 -26.167 -15 -36.5s-27.333 -15.5 -52 -15.5zM300 436
c-24.667 0 -42 5.16699 -52 15.5s-15 22.5 -15 36.5v23c0 14 5 26.167 15 36.5s27.333 15.5 52 15.5s42 -5.16699 52 -15.5s15 -22.5 15 -36.5v-23c0 -14 -5 -26.167 -15 -36.5s-27.333 -15.5 -52 -15.5z" />
    <glyph glyph-name="oslash" unicode="&#xf8;" horiz-adv-x="568" 
d="M31 -3l67.001 83c-16 23.333 -28.333 50 -37 80s-13 63 -13 99c0 41.333 5.66699 78.666 17 111.999s27.333 61.833 48 85.5s45.5 41.834 74.5 54.501s61.167 19 96.5 19c54 0 100.667 -15 140 -45l61 75l52 -39l-67 -84c16 -22.667 28.333 -49 37 -79s13 -63 13 -99
c0 -41.333 -5.66699 -78.666 -17 -111.999s-27.333 -61.833 -48 -85.5s-45.5 -41.834 -74.5 -54.501s-61.167 -19 -96.5 -19c-54.667 0 -101.334 14.667 -140.001 44l-61 -74zM284.001 68c40.667 0 73.667 12.666 99 37.999s38 63.333 38 114v78
c0 24.667 -3.66699 47.334 -11 68.001l-216 -268c22.667 -20 52.667 -30 90 -30zM147.001 219.999c0 -27.333 3.33301 -50 10 -68l217 268c-24 20 -54 30 -90 30c-40.667 0 -73.667 -12.667 -99 -38s-38 -63.333 -38 -114v-78z" />
    <glyph glyph-name="ugrave" unicode="&#xf9;" horiz-adv-x="574" 
d="M399 85l-4.99805 0.000976562c-4.66699 -12.667 -10.834 -24.834 -18.501 -36.501s-17.334 -22 -29.001 -31s-25.5 -16.167 -41.5 -21.5s-34.667 -8 -56 -8c-53.333 0 -95.333 17.333 -126 52s-46 83.667 -46 147v331h93v-317c0 -88 36.667 -132 110 -132
c14.667 0 29.167 1.83301 43.5 5.5s27 9.5 38 17.5s20 18 27 30s10.5 26 10.5 42v354h93v-518h-93v85zM166.002 746.001l82 40l88 -175l-59 -27z" />
    <glyph glyph-name="uacute" unicode="&#xfa;" horiz-adv-x="574" 
d="M399 85l-4.99805 0.000976562c-4.66699 -12.667 -10.834 -24.834 -18.501 -36.501s-17.334 -22 -29.001 -31s-25.5 -16.167 -41.5 -21.5s-34.667 -8 -56 -8c-53.333 0 -95.333 17.333 -126 52s-46 83.667 -46 147v331h93v-317c0 -88 36.667 -132 110 -132
c14.667 0 29.167 1.83301 43.5 5.5s27 9.5 38 17.5s20 18 27 30s10.5 26 10.5 42v354h93v-518h-93v85zM295.002 584.001l-59 27l88 175l82 -40z" />
    <glyph glyph-name="ucircumflex" unicode="&#xfb;" horiz-adv-x="574" 
d="M399 85l-4.99805 0.000976562c-4.66699 -12.667 -10.834 -24.834 -18.501 -36.501s-17.334 -22 -29.001 -31s-25.5 -16.167 -41.5 -21.5s-34.667 -8 -56 -8c-53.333 0 -95.333 17.333 -126 52s-46 83.667 -46 147v331h93v-317c0 -88 36.667 -132 110 -132
c14.667 0 29.167 1.83301 43.5 5.5s27 9.5 38 17.5s20 18 27 30s10.5 26 10.5 42v354h93v-518h-93v85zM338.002 771.001l115 -146l-49 -36l-118 116l-118 -116l-49 36l115 146h104z" />
    <glyph glyph-name="udieresis" unicode="&#xfc;" horiz-adv-x="574" 
d="M399 85l-4.99805 0.000976562c-4.66699 -12.667 -10.834 -24.834 -18.501 -36.501s-17.334 -22 -29.001 -31s-25.5 -16.167 -41.5 -21.5s-34.667 -8 -56 -8c-53.333 0 -95.333 17.333 -126 52s-46 83.667 -46 147v331h93v-317c0 -88 36.667 -132 110 -132
c14.667 0 29.167 1.83301 43.5 5.5s27 9.5 38 17.5s20 18 27 30s10.5 26 10.5 42v354h93v-518h-93v85zM190.002 615.001c-19.333 0 -33.333 4.33301 -42 13s-13 20.667 -13 36v14c0 15.333 4.33301 27.333 13 36s22.667 13 42 13s33.333 -4.33301 42 -13s13 -20.667 13 -36
v-14c0 -15.333 -4.33301 -27.333 -13 -36s-22.667 -13 -42 -13zM382.002 615.001c-19.333 0 -33.333 4.33301 -42 13s-13 20.667 -13 36v14c0 15.333 4.33301 27.333 13 36s22.667 13 42 13s33.333 -4.33301 42 -13s13 -20.667 13 -36v-14
c0 -15.333 -4.33301 -27.333 -13 -36s-22.667 -13 -42 -13z" />
    <glyph glyph-name="yacute" unicode="&#xfd;" horiz-adv-x="506" 
d="M401 518h90.001l-225 -631c-6 -16 -12.333 -29.667 -19 -41s-14.834 -20.333 -24.501 -27s-21.167 -11.5 -34.5 -14.5s-30 -4.5 -50 -4.5h-51v79h85l35 100l-192 539h93l115 -331l27 -97h5l30 97zM264.001 584l-59 27l88 175l82 -40z" />
    <glyph glyph-name="thorn" unicode="&#xfe;" horiz-adv-x="585" 
d="M82 740h93v-307h4c12 32 30.833 56.167 56.5 72.5s56.5 24.5 92.5 24.5c32.667 0 61.834 -6.16699 87.501 -18.5s47.5 -30.333 65.5 -54s31.667 -52.167 41 -85.5s14 -71 14 -113s-4.66699 -79.667 -14 -113s-23 -61.833 -41 -85.5s-39.833 -41.667 -65.5 -54
s-54.834 -18.5 -87.501 -18.5c-36 0 -66.833 8.16699 -92.5 24.5s-44.5 40.5 -56.5 72.5h-4v-285h-93v940zM301 69c42 0 75.167 13.335 99.5 40.002s36.5 62 36.5 106v88c0 44 -12.167 79.333 -36.5 106s-57.5 40 -99.5 40c-17.333 0 -33.666 -2.33301 -48.999 -7
s-28.666 -11.334 -39.999 -20.001s-20.333 -18.667 -27 -30s-10 -24 -10 -38v-190c0 -14 3.33301 -26.667 10 -38s15.667 -21.333 27 -30s24.666 -15.334 39.999 -20.001s31.666 -7 48.999 -7z" />
    <glyph glyph-name="ydieresis" unicode="&#xff;" horiz-adv-x="506" 
d="M401 518h90.001l-225 -631c-6 -16 -12.333 -29.667 -19 -41s-14.834 -20.333 -24.501 -27s-21.167 -11.5 -34.5 -14.5s-30 -4.5 -50 -4.5h-51v79h85l35 100l-192 539h93l115 -331l27 -97h5l30 97zM159.001 615c-19.333 0 -33.333 4.33301 -42 13s-13 20.667 -13 36v14
c0 15.333 4.33301 27.333 13 36s22.667 13 42 13s33.333 -4.33301 42 -13s13 -20.667 13 -36v-14c0 -15.333 -4.33301 -27.333 -13 -36s-22.667 -13 -42 -13zM351.001 615c-19.333 0 -33.333 4.33301 -42 13s-13 20.667 -13 36v14c0 15.333 4.33301 27.333 13 36
s22.667 13 42 13s33.333 -4.33301 42 -13s13 -20.667 13 -36v-14c0 -15.333 -4.33301 -27.333 -13 -36s-22.667 -13 -42 -13z" />
    <glyph glyph-name="Dcroat" unicode="&#x110;" horiz-adv-x="679" 
d="M93 329h-78v74h78v295h239c44 0 84 -7.33301 120 -22s66.667 -36.5 92 -65.5s44.833 -65.333 58.5 -109s20.5 -94.5 20.5 -152.5s-6.83301 -108.833 -20.5 -152.5s-33.167 -80 -58.5 -109s-56 -50.833 -92 -65.5s-76 -22 -120 -22h-239v329zM332 86
c28 0 53.333 4.49805 76 13.498s42.334 22.333 59.001 40s29.5 39.334 38.5 65.001s13.5 55.167 13.5 88.5v112c0 33.333 -4.5 62.833 -13.5 88.5s-21.833 47.334 -38.5 65.001s-36.334 31 -59.001 40s-48 13.5 -76 13.5h-142v-209h134v-74h-134v-243h142z" />
    <glyph glyph-name="dotlessi" unicode="&#x131;" horiz-adv-x="257" 
d="M82 0v518h93v-518h-93z" />
    <glyph glyph-name="IJ" unicode="&#x132;" horiz-adv-x="647" 
d="M562 698l-0.000976562 -476.002c0 -36 -5.5 -68.5 -16.5 -97.5s-27 -53.667 -48 -74s-46.333 -35.833 -76 -46.5s-63.167 -16 -100.5 -16c-34 0 -64.167 4.33301 -90.5 13s-49 20.667 -68 36s-34.667 33.5 -47 54.5s-20.833 43.833 -25.5 68.5l89 20
c7.33301 -31.333 22.333 -56.666 45 -75.999s56 -29 100 -29c42.667 0 76.834 10.833 102.501 32.5s38.5 55.834 38.5 102.501v402h-140v86h237zM84.999 697.998h97v-404h-97v404z" />
    <glyph glyph-name="ij" unicode="&#x133;" horiz-adv-x="509" 
d="M129 626c-19.333 0 -33.5 4.66699 -42.5 14s-13.5 21.666 -13.5 36.999v14c0 15.333 4.5 27.666 13.5 36.999s23.167 14 42.5 14s33.5 -4.66699 42.5 -14s13.5 -21.666 13.5 -36.999v-14c0 -15.333 -4.5 -27.666 -13.5 -36.999s-23.167 -14 -42.5 -14zM82 518h93v-518
h-93v518zM334 518h93v-593c0 -38 -9.5 -68.333 -28.5 -91s-49.167 -34 -90.5 -34h-57v79h83v639zM381 626c-19.333 0 -33.5 4.66699 -42.5 14s-13.5 21.666 -13.5 36.999v14c0 15.333 4.5 27.666 13.5 36.999s23.167 14 42.5 14s33.5 -4.66699 42.5 -14
s13.5 -21.666 13.5 -36.999v-14c0 -15.333 -4.5 -27.666 -13.5 -36.999s-23.167 -14 -42.5 -14z" />
    <glyph glyph-name="jcircumflex" unicode="&#x135;" horiz-adv-x="257" 
d="M-1 -121h83v639h93v-593c0 -38 -9.5 -68.333 -28.5 -91s-49.167 -34 -90.5 -34h-57v79zM182 771l115 -146l-49 -36l-118 116l-118 -116l-49 36l115 146h104z" />
    <glyph glyph-name="ldot" unicode="&#x140;" horiz-adv-x="374" 
d="M179 0c-32 0 -56.167 8.66699 -72.5 26s-24.5 40.333 -24.5 69v645h93v-661h74v-79h-70zM314 256c-20 0 -34.667 4.66699 -44 14s-14 21.666 -14 36.999v14c0 15.333 4.66699 27.666 14 36.999s24 14 44 14s34.667 -4.66699 44 -14s14 -21.666 14 -36.999v-14
c0 -15.333 -4.66699 -27.666 -14 -36.999s-24 -14 -44 -14z" />
    <glyph glyph-name="Lslash" unicode="&#x141;" horiz-adv-x="514" 
d="M481 0h-388v266l-100 -34v76l100 34v356h97v-325l177 59v-76l-177 -59v-211h291v-86z" />
    <glyph glyph-name="lslash" unicode="&#x142;" horiz-adv-x="284" 
d="M252 0h-70c-32 0 -56.167 8.66699 -72.5 26s-24.5 40.333 -24.5 69v224l-71 -23v76l71 23v345h93v-314l103 34v-76l-103 -34v-271h74v-79z" />
    <glyph glyph-name="OE" unicode="&#x152;" horiz-adv-x="987" 
d="M490 0c-17.333 -3.33301 -37.5 -6.16797 -60.5 -8.50098s-44.5 -3.5 -64.5 -3.5c-48 0 -91.167 7.83301 -129.5 23.5s-70.666 38.667 -96.999 69s-46.666 68 -60.999 113s-21.5 96.833 -21.5 155.5s7.16699 110.5 21.5 155.5s34.666 82.667 60.999 113
s58.666 53.333 96.999 69s81.5 23.5 129.5 23.5c20 0 41.5 -1.16699 64.5 -3.5s43.833 -5.16602 62.5 -8.49902h433v-86h-339v-216h314v-86h-314v-224h339v-86h-435zM373 74.998c18.667 0 38.167 1.33301 58.5 4s39.5 6.66699 57.5 12v516
c-18 5.33301 -37.167 9.33301 -57.5 12s-39.833 4 -58.5 4c-72 0 -125.5 -19.5 -160.5 -58.5s-52.5 -91.833 -52.5 -158.5v-114c0 -66.667 17.5 -119.5 52.5 -158.5s88.5 -58.5 160.5 -58.5z" />
    <glyph glyph-name="oe" unicode="&#x153;" horiz-adv-x="925" 
d="M281 68c40.667 0 73.667 12.667 99 38s38 63.333 38 114v78c0 50.667 -12.667 88.667 -38 114s-58.333 38 -99 38s-73.667 -12.667 -99 -38s-38 -63.333 -38 -114v-78c0 -50.667 12.667 -88.667 38 -114s58.333 -38 99 -38zM781 301v10.001
c0 43.333 -11.5 78.166 -34.5 104.499s-53.833 39.5 -92.5 39.5c-20.667 0 -39.5 -3.66699 -56.5 -11s-31.5 -17.5 -43.5 -30.5s-21.333 -28.5 -28 -46.5s-10 -37.667 -10 -59v-7h265zM660 -11.999c-49.333 0 -89.8301 10.4971 -121.497 31.4971
s-54.834 46.167 -69.501 75.5h-5c-14.667 -31.333 -38 -57 -70 -77s-69.667 -30 -113 -30c-35.333 0 -67.5 6.33301 -96.5 19s-53.833 30.834 -74.5 54.501s-36.667 52.167 -48 85.5s-17 70.666 -17 111.999s5.66699 78.666 17 111.999s27.333 61.833 48 85.5
s45.5 41.834 74.5 54.501s61.167 19 96.5 19c43.333 0 80.666 -9.16699 111.999 -27.5s55 -44.833 71 -79.5h6c14.667 32.667 37.667 58.667 69 78s69.666 29 114.999 29c34.667 0 66 -6.33301 94 -19s51.833 -30.167 71.5 -52.5s34.667 -49.166 45 -80.499
s15.5 -65.666 15.5 -102.999v-39h-364v-21c0 -43.333 12.667 -78.833 38 -106.5s61.333 -41.5 108 -41.5c33.333 0 61.5 7.33301 84.5 22s41.833 35.334 56.5 62.001l59 -51c-18 -34 -44.167 -61.167 -78.5 -81.5s-75.5 -30.5 -123.5 -30.5z" />
    <glyph glyph-name="Scaron" unicode="&#x160;" horiz-adv-x="588" 
d="M291 -12c-57.333 0 -106.334 10.668 -147.001 32.001s-75 50.666 -103 87.999l69 62c24.667 -32 51.834 -56.167 81.501 -72.5s64.167 -24.5 103.5 -24.5c48 0 84.333 11.167 109 33.5s37 52.166 37 89.499c0 30.667 -9 54.667 -27 72s-49 30.666 -93 39.999l-59 12
c-66 13.333 -115.833 35.5 -149.5 66.5s-50.5 73.833 -50.5 128.5c0 30.667 5.66699 58.167 17 82.5s27.333 44.833 48 61.5s45.5 29.334 74.5 38.001s61.5 13 97.5 13c52.667 0 98 -9.5 136 -28.5s70.333 -46.5 97 -82.5l-71 -57c-18.667 25.333 -41.167 45.5 -67.5 60.5
s-59.5 22.5 -99.5 22.5c-42.667 0 -76 -9 -100 -27s-36 -44.333 -36 -79c0 -31.333 9.83301 -54.833 29.5 -70.5s50.5 -28.167 92.5 -37.5l59 -12c68.667 -15.333 118.834 -38.666 150.501 -69.999s47.5 -74 47.5 -128c0 -32 -5.5 -61.167 -16.5 -87.5
s-27 -48.833 -48 -67.5s-46.833 -33 -77.5 -43s-65.334 -15 -104.001 -15zM239.999 765.001l-115 146l49 36l118 -116l118 116l49 -36l-115 -146h-104z" />
    <glyph glyph-name="scaron" unicode="&#x161;" horiz-adv-x="490" 
d="M241 -12c-48 0 -88.4961 9.00195 -121.496 27.002s-61.5 42.333 -85.5 73l63 54c19.333 -24.667 41.166 -43.667 65.499 -57s52.5 -20 84.5 -20c33.333 0 58.666 6.83301 75.999 20.5s26 32.5 26 56.5c0 19.333 -5.83301 35.333 -17.5 48s-33.5 21.334 -65.5 26.001
l-44 7c-24.667 3.33301 -47.334 8.66602 -68.001 15.999s-38.334 17 -53.001 29s-26.167 26.667 -34.5 44s-12.5 38 -12.5 62c0 25.333 4.66699 47.833 14 67.5s22.333 36 39 49s36.5 22.833 59.5 29.5s48.167 10 75.5 10c44 0 80.667 -7.33301 110 -22s55 -35 77 -61
l-59 -56c-12.667 16.667 -29.834 31.167 -51.501 43.5s-48.167 18.5 -79.5 18.5c-32 0 -55.833 -6.66699 -71.5 -20s-23.5 -31 -23.5 -53c0 -23.333 7.5 -40.333 22.5 -51s37.5 -18.334 67.5 -23.001l44 -7c57.333 -8.66699 98.5 -25.334 123.5 -50.001s37.5 -57 37.5 -97
c0 -50.667 -17.667 -90.667 -53 -120s-83.666 -44 -144.999 -44zM189.004 597.002l-115 146l49 36l118 -117l118 117l49 -36l-115 -146h-104z" />
    <glyph glyph-name="Ydieresis" unicode="&#x178;" horiz-adv-x="603" 
d="M252 0v275l-240 423h111l179 -325h3l178 325h108l-242 -420v-278h-97zM206 783c-19.333 0 -33.333 4.33301 -42 13s-13 20.667 -13 36v16c0 15.333 4.33301 27.333 13 36s22.667 13 42 13s33.333 -4.33301 42 -13s13 -20.667 13 -36v-16
c0 -15.333 -4.33301 -27.333 -13 -36s-22.667 -13 -42 -13zM398 783c-19.333 0 -33.333 4.33301 -42 13s-13 20.667 -13 36v16c0 15.333 4.33301 27.333 13 36s22.667 13 42 13s33.333 -4.33301 42 -13s13 -20.667 13 -36v-16c0 -15.333 -4.33301 -27.333 -13 -36
s-22.667 -13 -42 -13z" />
    <glyph glyph-name="Zcaron" unicode="&#x17d;" horiz-adv-x="586" 
d="M549 0h-512v87l390 525h-370v86h479v-87l-392 -525h405v-86zM247 765l-115 146l49 36l118 -116l118 116l49 -36l-115 -146h-104z" />
    <glyph glyph-name="zcaron" unicode="&#x17e;" horiz-adv-x="474" 
d="M34 0v77l287 362h-278v79h389v-71l-292 -368h300v-79h-406zM186 597l-115 146l49 36l118 -117l118 117l49 -36l-115 -146h-104z" />
    <glyph glyph-name="florin" unicode="&#x192;" horiz-adv-x="486" 
d="M7 -55h140l35 346h-136l9 82h135l20 200c4 37.333 17.167 67.5 39.5 90.5s54.166 34.5 95.499 34.5h119l-9 -79h-146l-25 -246h160l-7 -82h-161l-31 -301c-3.33301 -36 -16.166 -65.667 -38.499 -89s-54.5 -35 -96.5 -35h-111z" />
    <glyph glyph-name="uni0237" unicode="&#x237;" horiz-adv-x="257" 
d="M-1 -121h83v639h93v-593c0 -38 -9.5 -68.333 -28.5 -91s-49.167 -34 -90.5 -34h-57v79z" />
    <glyph glyph-name="uni02BB" unicode="&#x2bb;" 
d="M301 591c-17.333 0 -30.833 4.5 -40.5 13.5s-14.5 21.167 -14.5 36.5v12c0 24.667 6.16699 48.334 18.5 71.001s26.833 41.667 43.5 57h63c-14 -14 -25.167 -27.167 -33.5 -39.5s-14.833 -26.5 -19.5 -42.5c13.333 -2.66699 23 -8.33398 29 -17.001s9 -19 9 -31v-10
c0 -15.333 -4.83301 -27.5 -14.5 -36.5s-23.167 -13.5 -40.5 -13.5z" />
    <glyph glyph-name="uni02BC" unicode="&#x2bc;" 
d="M250 740h105l-55 -191h-61z" />
    <glyph glyph-name="circumflex" unicode="&#x2c6;" 
d="M352 771l115 -146l-49 -36l-118 116l-118 -116l-49 36l115 146h104z" />
    <glyph glyph-name="caron" unicode="&#x2c7;" 
d="M248 597l-115 146l49 36l118 -117l118 117l49 -36l-115 -146h-104z" />
    <glyph glyph-name="uni02D7" unicode="&#x2d7;" horiz-adv-x="300" 
d="M18 315h264v-95h-264v95z" />
    <glyph glyph-name="breve" unicode="&#x2d8;" 
d="M300 593c-27.333 0 -50 4.16699 -68 12.5s-33 19 -45 32s-21.5 27.333 -28.5 43s-12.833 30.834 -17.5 45.501l52 26l20 -33c10 -16 21 -29.333 33 -40s30 -16 54 -16s42 5.33301 54 16s23 24 33 40l20 33l52 -26c-4.66699 -14.667 -10.5 -29.834 -17.5 -45.501
s-16.5 -30 -28.5 -43s-27 -23.667 -45 -32s-40.667 -12.5 -68 -12.5z" />
    <glyph glyph-name="dotaccent" unicode="&#x2d9;" 
d="M300 611c-20 0 -34.667 4.66699 -44 14s-14 21.666 -14 36.999v14c0 15.333 4.66699 27.666 14 36.999s24 14 44 14s34.667 -4.66699 44 -14s14 -21.666 14 -36.999v-14c0 -15.333 -4.66699 -27.666 -14 -36.999s-24 -14 -44 -14z" />
    <glyph glyph-name="ring" unicode="&#x2da;" 
d="M300 573c-17.333 0 -33.333 3 -48 9s-27.5 14.333 -38.5 25s-19.667 23.334 -26 38.001s-9.5 30.667 -9.5 48s3.16699 33.333 9.5 48s15 27.334 26 38.001s23.833 19 38.5 25s30.667 9 48 9c16.667 0 32.5 -3 47.5 -9s28 -14.333 39 -25s19.667 -23.334 26 -38.001
s9.5 -30.667 9.5 -48s-3.16699 -33.333 -9.5 -48s-15 -27.334 -26 -38.001s-24 -19 -39 -25s-30.833 -9 -47.5 -9zM300 627c17.333 0 31.166 4.66699 41.499 14s15.5 22.666 15.5 39.999v24c0 17.333 -5.16699 30.666 -15.5 39.999s-24.166 14 -41.499 14
s-31.166 -4.66699 -41.499 -14s-15.5 -22.666 -15.5 -39.999v-24c0 -17.333 5.16699 -30.666 15.5 -39.999s24.166 -14 41.499 -14z" />
    <glyph glyph-name="ogonek" unicode="&#x2db;" 
d="M251 -208c-27.333 0 -50.833 6.16797 -70.5 18.501s-29.5 32.166 -29.5 59.499c0 26.667 9.83301 50 29.5 70s45.5 40.667 77.5 62l-5 20h61l9 -22c-22 -18.667 -39.667 -34.334 -53 -47.001s-23.5 -23.5 -30.5 -32.5s-11.667 -16.5 -14 -22.5s-3.5 -12 -3.5 -18
c0 -11.333 3 -19.166 9 -23.499s13.667 -6.5 23 -6.5c20 0 36.333 8.33301 49 25l43 -42c-6.66699 -11.333 -18 -21 -34 -29s-36.333 -12 -61 -12z" />
    <glyph glyph-name="tilde" unicode="&#x2dc;" 
d="M374 610c-17.333 0 -32.166 2.83301 -44.499 8.5l-35.5 16.5c-30 15.333 -53.667 23 -71 23c-11.333 0 -21.333 -2.16699 -30 -6.5s-18.334 -10.833 -29.001 -19.5l-36 45c9.33301 14.667 22.166 27.5 38.499 38.5s36.166 16.5 59.499 16.5
c17.333 0 32.166 -2.83301 44.499 -8.5l35.5 -16.5c30 -15.333 53.667 -23 71 -23c11.333 0 21.333 2.16699 30 6.5s18.334 10.833 29.001 19.5l36 -45c-9.33301 -14.667 -22.166 -27.5 -38.499 -38.5s-36.166 -16.5 -59.499 -16.5z" />
    <glyph glyph-name="hungarumlaut" unicode="&#x2dd;" 
d="M224 585l-55 25l88 175l78 -38zM392 585l-54 25l88 175l78 -38z" />
    <glyph glyph-name="uni0303" unicode="&#x303;" horiz-adv-x="0" 
d="M74 628c-17.333 0 -32.166 2.83301 -44.499 8.5l-35.5 16.5c-30 15.333 -53.667 23 -71 23c-11.333 0 -21.333 -2.16699 -30 -6.5s-18.334 -10.833 -29.001 -19.5l-36 45c9.33301 14.667 22.166 27.5 38.499 38.5s36.166 16.5 59.499 16.5
c17.333 0 32.166 -2.83301 44.499 -8.5l35.5 -16.5c30 -15.333 53.667 -23 71 -23c11.333 0 21.333 2.16699 30 6.5s18.334 10.833 29.001 19.5l36 -45c-9.33301 -14.667 -22.166 -27.5 -38.499 -38.5s-36.166 -16.5 -59.499 -16.5z" />
    <glyph glyph-name="uni0331" unicode="&#x331;" horiz-adv-x="0" 
d="M-327 -110h284v-74h-284v74z" />
    <glyph glyph-name="uni034F" unicode="&#x34f;" horiz-adv-x="0" 
 />
    <glyph glyph-name="pi" unicode="&#x3c0;" horiz-adv-x="628" 
d="M494 79l65 -0.000976562v-79h-59c-32 0 -56.5 8.83301 -73.5 26.5s-25.5 40.834 -25.5 69.501v343h-192v-439h-93v439h-92v79h572v-79h-102v-360z" />
    <glyph glyph-name="uni0E01" unicode="&#xe01;" horiz-adv-x="616" 
d="M131 308l-86 36c2 32 9.83301 61.167 23.5 87.5s31.5 49 53.5 68s47.667 33.833 77 44.5s61.333 16 96 16c78.667 0 139.167 -19.833 181.5 -59.5s63.5 -93.5 63.5 -161.5v-339h-93v328c0 50 -13.833 88 -41.5 114s-64.5 39 -110.5 39c-40 0 -74.667 -8.83301 -104 -26.5
s-49 -41.5 -59 -71.5l48 -19c15.333 -6 26.5 -13.5 33.5 -22.5s10.5 -21.833 10.5 -38.5v-303h-93v308z" />
    <glyph glyph-name="uni0E02" unicode="&#xe02;" horiz-adv-x="562" 
d="M282 -12c-32 0 -60.999 4.00098 -86.999 12.001s-48.333 20.167 -67 36.5s-33.167 36.666 -43.5 60.999s-15.5 52.833 -15.5 85.5c0 38 5.33301 68.5 16 91.5s23.334 44.167 38.001 63.5c13.333 17.333 24.5 34.666 33.5 51.999s13.5 35.666 13.5 54.999v24h-110v79h116
c27.333 0 48.166 -6.83301 62.499 -20.5s21.5 -32.167 21.5 -55.5v-8c0 -23.333 -4.16699 -45 -12.5 -65s-20.5 -43.667 -36.5 -71c-14 -22 -24.667 -42.167 -32 -60.5s-11 -39.166 -11 -62.499v-30c0 -36.667 10 -63.667 30 -81s47 -26 81 -26c36 0 64 10.833 84 32.5
s30 52.834 30 93.501v354h93v-357c0 -62.667 -17.333 -112.167 -52 -148.5s-85.334 -54.5 -152.001 -54.5z" />
    <glyph glyph-name="uni0E03" unicode="&#xe03;" horiz-adv-x="592" 
d="M312 -12c-32 0 -61 4 -87 12s-48.333 20.167 -67 36.5s-33.167 36.666 -43.5 60.999s-15.5 52.833 -15.5 85.5c0 36.667 5.5 67 16.5 91s24.167 46 39.5 66c15.333 19.333 28 37 38 53s15 33.333 15 52c0 16.667 -4.66699 29 -14 37s-21 12 -35 12
c-19.333 0 -34 -7 -44 -21s-16 -34 -18 -60h-65v143h73v-70h5c7.33301 23.333 18.833 41.5 34.5 54.5s35.167 19.5 58.5 19.5c27.333 0 49 -9 65 -27s24 -41 24 -69c0 -24.667 -4.66699 -47.167 -14 -67.5s-22 -43.5 -38 -69.5
c-11.333 -19.333 -21.166 -38.166 -29.499 -56.499s-12.5 -40.166 -12.5 -65.499v-30c0 -36.667 10.167 -63.667 30.5 -81s47.5 -26 81.5 -26c36 0 63.833 10.667 83.5 32s29.5 52.666 29.5 93.999v354h93v-357c0 -62.667 -17.333 -112.167 -52 -148.5
s-85.334 -54.5 -152.001 -54.5z" />
    <glyph glyph-name="uni0E04" unicode="&#xe04;" horiz-adv-x="641" 
d="M76 340c0 33.333 5.6709 63.666 17.0039 90.999s27.5 50.5 48.5 69.5s46.667 33.667 77 44s64.166 15.5 101.499 15.5s71.166 -5.16699 101.499 -15.5s56.166 -25 77.499 -44s37.666 -42.167 48.999 -69.5s17 -57.666 17 -90.999v-340h-93v332
c0 48 -13.333 84.667 -40 110s-64 38 -112 38s-85.167 -12.667 -111.5 -38s-39.5 -62 -39.5 -110v-128h5c4 12.667 10 25.167 18 37.5s17.833 23 29.5 32s25.5 16.333 41.5 22s34.667 8.5 56 8.5h32v-91h-45c-42.667 0 -76.167 -7.66699 -100.5 -23s-36.5 -38 -36.5 -68
v-122h-93v340z" />
    <glyph glyph-name="uni0E05" unicode="&#xe05;" horiz-adv-x="657" 
d="M76 412c0 46 11.5049 82.167 34.5049 108.5s55.5 39.5 97.5 39.5c28.667 0 53.667 -7.66699 75 -23s35.666 -37.333 42.999 -66h5c7.33301 28.667 21.5 50.667 42.5 66s45.833 23 74.5 23c42.667 0 75.5 -13.167 98.5 -39.5s34.5 -62.5 34.5 -108.5v-412h-93v408
c0 25.333 -5.5 43.666 -16.5 54.999s-26.167 17 -45.5 17c-23.333 0 -39.833 -7.83301 -49.5 -23.5s-15.834 -33.834 -18.501 -54.501h-60c-2.66699 20.667 -8.83398 38.834 -18.501 54.501s-25.834 23.5 -48.501 23.5c-20 0 -35.5 -5.66699 -46.5 -17
s-16.5 -29.666 -16.5 -54.999v-212h5c4 12.667 10 25 18 37s17.833 22.5 29.5 31.5s25.5 16.333 41.5 22s34.667 8.5 56 8.5h32v-91h-44c-42.667 0 -76.334 -7.83301 -101.001 -23.5s-37 -38.167 -37 -67.5v-113h-92v412z" />
    <glyph glyph-name="uni0E06" unicode="&#xe06;" horiz-adv-x="631" 
d="M369 -12c-23.333 0 -43.667 2.83398 -61 8.50098s-32.166 13.167 -44.499 22.5s-22.833 20.166 -31.5 32.499s-15.334 25.166 -20.001 38.499h-5v-90h-93v186c0 36.667 4.5 66.5 13.5 89.5s21.167 44.5 36.5 64.5c15.333 19.333 28 37 38 53s15 33.333 15 52
c0 16.667 -4.66699 29 -14 37s-21 12 -35 12c-19.333 0 -34 -7 -44 -21s-16 -34 -18 -60h-65v143h73v-70h5c7.33301 23.333 18.833 41.5 34.5 54.5s35.167 19.5 58.5 19.5c27.333 0 49 -9 65 -27s24 -41 24 -69c0 -24.667 -4.66699 -47.167 -14 -67.5s-22 -43.5 -38 -69.5
c-12 -19.333 -22 -38 -30 -56s-12 -39 -12 -63v-35c0 -18 3.83301 -33.5 11.5 -46.5s17.5 -23.667 29.5 -32s25.833 -14.666 41.5 -18.999s31.5 -6.5 47.5 -6.5c42.667 0 74.167 12 94.5 36s30.5 59 30.5 105v338h93v-348c0 -68 -16.5 -120.333 -49.5 -157
s-78.5 -55 -136.5 -55z" />
    <glyph glyph-name="uni0E07" unicode="&#xe07;" horiz-adv-x="545" 
d="M28 395h97l140 -318h4c38.667 0 68.5 13.5 89.5 40.5s31.5 65.167 31.5 114.5v84c0 48 -10.667 85.5 -32 112.5s-51.333 40.5 -90 40.5h-33v79h34c69.333 0 123.333 -24.167 162 -72.5s58 -115.5 58 -201.5c0 -86.667 -19 -154 -57 -202s-91.667 -72 -161 -72h-69z" />
    <glyph glyph-name="uni0E08" unicode="&#xe08;" horiz-adv-x="572" 
d="M137 225l-60.001 -0.00195312v79h80c13.333 0 24.833 -2.66699 34.5 -8s16.834 -14.333 21.501 -27l68 -194h36c30 0 54.167 14.333 72.5 43s27.5 68 27.5 118v84c0 50.667 -13.5 90 -40.5 118s-64.5 42 -112.5 42c-46.667 0 -84.667 -9.33301 -114 -28
s-52.333 -41.667 -69 -69l-59 52c9.33301 16.667 21.333 32.5 36 47.5s32 28.333 52 40s43.167 20.834 69.5 27.501s55.5 10 87.5 10c39.333 0 74.5 -6.5 105.5 -19.5s57.167 -31.5 78.5 -55.5s37.5 -53.5 48.5 -88.5s16.5 -74.5 16.5 -118.5
c0 -43.333 -4.83301 -82.166 -14.5 -116.499s-23.5 -63.5 -41.5 -87.5s-39.667 -42.333 -65 -55s-54 -19 -86 -19h-93z" />
    <glyph glyph-name="uni0E09" unicode="&#xe09;" horiz-adv-x="596" 
d="M260 -12c-56.667 0 -100.833 16.501 -132.5 49.501s-47.5 80.167 -47.5 141.5v72h93v-56c0 -84 38.333 -126 115 -126c14.667 0 29.5 2.16699 44.5 6.5s28.5 10.666 40.5 18.999s21.667 19 29 32s11 28.5 11 46.5v167c0 46.667 -11.5 81.667 -34.5 105
s-59.167 35 -108.5 35c-42 0 -76.667 -8.66699 -104 -26s-49.666 -41 -66.999 -71l-60 53c10 18 22.167 34.5 36.5 49.5s31.166 28 50.499 39s41.5 19.667 66.5 26s53.167 9.5 84.5 9.5c73.333 0 129.833 -18.333 169.5 -55s59.5 -88.667 59.5 -156v-270h61v-79h-65
c-27.333 0 -47.5 8 -60.5 24s-20.167 37.333 -21.5 64h-5c-10.667 -30 -30 -54.167 -58 -72.5s-60.333 -27.5 -97 -27.5z" />
    <glyph glyph-name="uni0E0A" unicode="&#xe0a;" horiz-adv-x="558" 
d="M283 -12c-64 0 -115.666 16.001 -154.999 48.001s-59 81 -59 147c0 38 5.33301 68.5 16 91.5s23.334 44.167 38.001 63.5c13.333 17.333 24.5 34.666 33.5 51.999s13.5 35.666 13.5 54.999v24h-110v79h116c27.333 0 48.166 -6.83301 62.499 -20.5
s21.5 -32.167 21.5 -55.5v-8c0 -23.333 -4.16699 -45 -12.5 -65s-20.5 -43.667 -36.5 -71c-14 -22 -24.667 -42.167 -32 -60.5s-11 -39.166 -11 -62.499v-30c0 -36.667 10.167 -63.667 30.5 -81s47.833 -26 82.5 -26c35.333 0 62.833 8.5 82.5 25.5s29.5 41.833 29.5 74.5
v85c0 32 -6 56.833 -18 74.5s-29.667 26.5 -53 26.5h-24v73h27c22 0 39.667 6.33301 53 19s20 33.667 20 63v56h92v-52c0 -32 -9.83301 -57.333 -29.5 -76s-44.167 -30.667 -73.5 -36v-5c35.333 -10 61.666 -31.333 78.999 -64s26 -73 26 -121
c0 -68.667 -18.333 -123 -55 -163s-88 -60 -154 -60z" />
    <glyph glyph-name="uni0E0B" unicode="&#xe0b;" horiz-adv-x="588" 
d="M313 -12c-64 0 -115.666 15.998 -154.999 47.998s-59 81 -59 147c0 36.667 5.5 67 16.5 91s24.167 46 39.5 66c15.333 19.333 28 37 38 53s15 33.333 15 52c0 16.667 -4.66699 29 -14 37s-21 12 -35 12c-19.333 0 -34 -7 -44 -21s-16 -34 -18 -60h-65v143h73v-70h5
c7.33301 23.333 18.833 41.5 34.5 54.5s35.167 19.5 58.5 19.5c27.333 0 49 -9 65 -27s24 -41 24 -69c0 -24.667 -4.66699 -47.167 -14 -67.5s-22 -43.5 -38 -69.5c-11.333 -19.333 -21.166 -38.166 -29.499 -56.499s-12.5 -40.166 -12.5 -65.499v-30
c0 -36.667 10.333 -63.667 31 -81s48 -26 82 -26c36 0 63.667 8.5 83 25.5s29 41.833 29 74.5v85c0 32 -6 56.833 -18 74.5s-29.667 26.5 -53 26.5h-24v73h28c21.333 0 38.666 6.33301 51.999 19s20 33.667 20 63v56h92v-52c0 -32 -9.83301 -57.333 -29.5 -76
s-43.834 -30.667 -72.501 -36v-5c34.667 -10 60.667 -31.333 78 -64s26 -73 26 -121c0 -68.667 -18.167 -123 -54.5 -163s-87.833 -60 -154.5 -60z" />
    <glyph glyph-name="uni0E0C" unicode="&#xe0c;" horiz-adv-x="937" 
d="M690 -12c-21.333 0 -40.168 2.83691 -56.501 8.50391s-30.333 13.167 -42 22.5s-21.5 20.166 -29.5 32.499s-14.333 25.166 -19 38.499h-5v-90h-93v328c0 50 -13.667 88 -41 114s-64 39 -110 39c-40 0 -74.5 -8.83301 -103.5 -26.5s-48.5 -41.5 -58.5 -71.5l47 -19
c16 -6.66699 27.5 -14.334 34.5 -23.001s10.5 -21.334 10.5 -38.001v-224h61v-79h-57c-33.333 -0 -57.833 8.33301 -73.5 25s-23.5 40 -23.5 70v213l-86 36c2 32 9.66699 61.167 23 87.5s31 49 53 68s47.667 33.833 77 44.5s61 16 95 16c78.667 0 139.167 -20 181.5 -60
s63.5 -93.667 63.5 -161v-166c0 -18 3.5 -33.5 10.5 -46.5s16.167 -23.833 27.5 -32.5s24 -15.167 38 -19.5s28.333 -6.5 43 -6.5c38.667 0 66.834 12.333 84.501 37s26.5 59.667 26.5 105v338h93v-348c0 -68 -15 -120.333 -45 -157s-72 -55 -126 -55z" />
    <glyph glyph-name="uni0E0D" unicode="&#xe0d;" horiz-adv-x="916" 
d="M634 -12c-64 0 -114.331 17.5 -150.998 52.5s-55 82.5 -55 142.5v144c0 50.667 -12.5 89 -37.5 115s-59.5 39 -103.5 39c-38 0 -71 -8.83301 -99 -26.5s-46.667 -41.5 -56 -71.5l47 -19c16 -6.66699 27.5 -14.334 34.5 -23.001s10.5 -21.334 10.5 -38.001v-224h61v-79
h-57c-32.667 0 -57 8.33301 -73 25s-24 40 -24 70v213l-86 36c2 32 9.5 61.167 22.5 87.5s30.167 49 51.5 68s46.166 33.833 74.499 44.5s59.166 16 92.499 16c38 0 71.667 -5.33301 101 -16s53.833 -25.667 73.5 -45s34.667 -42.666 45 -69.999s15.5 -57.666 15.5 -90.999
v-153c0 -38 10.167 -67 30.5 -87s47.833 -30 82.5 -30c35.333 0 63 10 83 30s30 49 30 87v363h93v-365c0 -60 -18.167 -107.5 -54.5 -142.5s-86.833 -52.5 -151.5 -52.5zM523.002 -235c-32 0 -55.667 7.5 -71 22.5s-23 35.833 -23 62.5v67h87v-77h324v-75h-317z" />
    <glyph glyph-name="uni0E0E" unicode="&#xe0e;" horiz-adv-x="616" 
d="M117 -184c20.667 30 46.001 54.335 76.001 73.002s67 28 111 28c32.667 0 61 -6.83301 85 -20.5s41.333 -32.5 52 -56.5h6v488c0 50 -13.333 88 -40 114s-63 39 -109 39c-39.333 0 -73.5 -8.83301 -102.5 -26.5s-48.5 -41.5 -58.5 -71.5l48 -19
c16 -6.66699 27.333 -14.334 34 -23.001s10 -21.334 10 -38.001v-208c0 -30 -8 -53.333 -24 -70s-40.333 -25 -73 -25h-57v79h61v229l-86 36c2 32 9.66699 61.167 23 87.5s31 49 53 68s47.667 33.833 77 44.5s61 16 95 16c78 0 137.833 -19.833 179.5 -59.5
s62.5 -93.5 62.5 -161.5v-574h-76c-11.333 23.333 -28.333 43.5 -51 60.5s-51.334 25.5 -86.001 25.5c-34 0 -63.333 -8.5 -88 -25.5s-43.667 -37.167 -57 -60.5z" />
    <glyph glyph-name="uni0E0F" unicode="&#xe0f;" horiz-adv-x="616" 
d="M138 -160l50.998 0.00195312c14 0 25.333 2.16699 34 6.5s15.667 9.83301 21 16.5s9.16602 14.334 11.499 23.001s3.83301 17.667 4.5 27h68c0.666992 -8.66699 2.5 -17.334 5.5 -26.001s7 -16.5 12 -23.5s11.333 -12.667 19 -17s16.834 -6.5 27.501 -6.5
c16.667 0 30 5.33301 40 16s15 26.667 15 48v424c0 50 -13.333 88 -40 114s-63 39 -109 39c-39.333 0 -73.666 -8.83301 -102.999 -26.5s-48.666 -41.5 -57.999 -71.5l48 -19c16 -6.66699 27.333 -14.334 34 -23.001s10 -21.334 10 -38.001v-208
c0 -30 -7.83301 -53.333 -23.5 -70s-39.834 -25 -72.501 -25h-58v79h61v229l-86 36c2 32 9.66699 61.167 23 87.5s31 49 53 68s47.667 33.833 77 44.5s61 16 95 16c78 0 137.833 -19.833 179.5 -59.5s62.5 -93.5 62.5 -161.5v-435c0 -44 -11.5 -78.167 -34.5 -102.5
s-54.5 -36.5 -94.5 -36.5c-25.333 0 -48.833 6.16699 -70.5 18.5s-36.167 33.166 -43.5 62.499h-5c-6.66699 -29.333 -19.167 -50.166 -37.5 -62.499s-41.166 -18.5 -68.499 -18.5h-48v75z" />
    <glyph glyph-name="uni0E10" unicode="&#xe10;" horiz-adv-x="622" 
d="M137 225l-60.001 -0.00195312v79h80c13.333 0 24.833 -2.66699 34.5 -8s16.834 -14.333 21.501 -27l68 -194h36c30 0 54.167 14.333 72.5 43s27.5 68 27.5 118v84c0 51.333 -13.5 90.833 -40.5 118.5s-64.5 41.5 -112.5 41.5c-46.667 0 -84.667 -9.33301 -114 -28
s-52.333 -41.667 -69 -69l-59 52c9.33301 16.667 21.333 32.5 36 47.5s32 28.333 52 40s43.167 20.834 69.5 27.501s55.5 10 87.5 10c55.333 0 102.666 -13 141.999 -39c2.66699 36.667 23.334 55 62.001 55h142v-83h-169v-2c48 -49.333 72 -120.333 72 -213
c0 -43.333 -4.83301 -82.166 -14.5 -116.499s-23.5 -63.5 -41.5 -87.5s-39.667 -42.333 -65 -55s-54 -19 -86 -19h-93zM83.999 -160.002l51 0.000976562c14 0 25.5 2.16699 34.5 6.5s16.167 9.83301 21.5 16.5s9.16602 14.334 11.499 23.001s3.83301 17.667 4.5 27h68
c0.666992 -8.66699 2.33398 -17.334 5.00098 -26.001s6.5 -16.5 11.5 -23.5s11.333 -12.667 19 -17s16.834 -6.5 27.501 -6.5c17.333 0 30.833 5.5 40.5 16.5s14.5 27.167 14.5 48.5v41h93v-40c0 -44.667 -11.333 -79.334 -34 -104.001s-54 -37 -94 -37
c-25.333 0 -49 6.33301 -71 19s-36.333 33.334 -43 62.001h-5c-6.66699 -28.667 -19.334 -49.334 -38.001 -62.001s-41.667 -19 -69 -19h-48v75z" />
    <glyph glyph-name="uni0E11" unicode="&#xe11;" horiz-adv-x="643" 
d="M114 186c0 36.667 4.5 66.499 13.5 89.499s21.167 44.5 36.5 64.5c15.333 19.333 28 37 38 53s15 33.333 15 52c0 16.667 -4.66699 29 -14 37s-20.666 12 -33.999 12c-20 0 -35 -7 -45 -21s-16 -34 -18 -60h-65v143h73v-70h5c7.33301 23.333 18.833 41.5 34.5 54.5
s35.167 19.5 58.5 19.5c21.333 0 38.333 -6.33301 51 -19s19 -28.667 19 -48c0 -5.33301 -0.666992 -11 -2 -17s-3 -12.667 -5 -20l5 -1c12 16.667 23.5 31.5 34.5 44.5s22.167 24 33.5 33s23.5 15.833 36.5 20.5s27.833 7 44.5 7c43.333 0 77.166 -14.667 101.499 -44
s36.5 -71.666 36.5 -126.999v-389h-93v361c0 34.667 -4.66699 63.167 -14 85.5s-27.333 33.5 -54 33.5c-15.333 0 -30.666 -5.5 -45.999 -16.5s-29.833 -24.5 -43.5 -40.5s-26.334 -32.833 -38.001 -50.5l-29.5 -45.5c-12 -19.333 -22 -38 -30 -56s-12 -39 -12 -63v-208h-93
v186z" />
    <glyph glyph-name="uni0E12" unicode="&#xe12;" horiz-adv-x="958" 
d="M278 -12c-72 0 -127.004 25.0039 -165.004 75.0039s-57 121 -57 213c0 90 13.333 159.833 40 209.5s67 74.5 121 74.5c24.667 0 46.334 -7 65.001 -21s31.334 -34.667 38.001 -62h5c6 27.333 19.167 48 39.5 62s43.833 21 70.5 21c40 0 70.667 -13 92 -39
s32 -62.333 32 -109v-239c0 -17.333 3.5 -32.5 10.5 -45.5s16 -23.833 27 -32.5s23.667 -15.167 38 -19.5s28.833 -6.5 43.5 -6.5c38 0 66 12 84 36s27 59 27 105v338h93v-348c0 -68 -15.167 -120.333 -45.5 -157s-72.5 -55 -126.5 -55c-21.333 0 -40 2.83301 -56 8.5
s-30 13.167 -42 22.5s-22 20.166 -30 32.499s-14.333 25.166 -19 38.499h-4v-90h-93v410c0 24.667 -4.66699 42.5 -14 53.5s-22.666 16.5 -39.999 16.5c-21.333 0 -36.5 -7.83301 -45.5 -23.5s-14.833 -33.834 -17.5 -54.501h-59c-2.66699 20.667 -8 38.834 -16 54.501
s-22.333 23.5 -43 23.5c-27.333 0 -46.833 -14.833 -58.5 -44.5s-17.5 -67.834 -17.5 -114.501v-86c0 -52 10.833 -93 32.5 -123s57.5 -45 107.5 -45c6.66699 0 13.834 0.333008 21.501 1s15.5 1.66699 23.5 3l11 -77c-11.333 -2.66699 -23.5 -4.33398 -36.5 -5.00098
s-25.167 -1 -36.5 -1z" />
    <glyph glyph-name="uni0E13" unicode="&#xe13;" horiz-adv-x="938" 
d="M598 -12c-53.333 0 -94.999 18.168 -124.999 54.501s-45 88.166 -45 155.499v129c0 50.667 -12.667 89 -38 115s-60 39 -104 39c-37.333 0 -70 -8.83301 -98 -26.5s-46.667 -41.5 -56 -71.5l47 -19c16 -6.66699 27.5 -14.334 34.5 -23.001s10.5 -21.334 10.5 -38.001
v-225h61v-78h-57c-32.667 0 -57 8.33301 -73 25s-24 40 -24 70v213l-86 36c2 32 9.5 61.167 22.5 87.5s30.167 49 51.5 68s46.166 33.833 74.499 44.5s59.166 16 92.499 16c38 0 71.667 -5.33301 101 -16s53.833 -25.667 73.5 -45s34.667 -42.666 45 -69.999
s15.5 -57.666 15.5 -90.999v-128c0 -46 8.83301 -81.167 26.5 -105.5s45.167 -36.5 82.5 -36.5c14.667 0 29.167 2.16699 43.5 6.5s27 10.833 38 19.5s20 19.5 27 32.5s10.5 28.5 10.5 46.5v375h93v-469h61v-79h-64c-27.333 0 -47.5 8 -60.5 24s-20.5 37.333 -22.5 64h-4
c-5.33301 -12.667 -12.166 -25 -20.499 -37s-18.666 -22.667 -30.999 -32s-26.833 -16.833 -43.5 -22.5s-36.334 -8.5 -59.001 -8.5z" />
    <glyph glyph-name="uni0E14" unicode="&#xe14;" horiz-adv-x="637" 
d="M293 -12c-75.333 0 -133.665 25.499 -174.998 76.499s-62 120.833 -62 209.5c0 43.333 6 82.5 18 117.5s29.333 65 52 90s50.167 44.333 82.5 58s68.5 20.5 108.5 20.5c36.667 0 70.167 -5.33301 100.5 -16s56 -26 77 -46s37.333 -44 49 -72s17.5 -59.333 17.5 -94v-332
h-93v322c0 50 -13.5 88.833 -40.5 116.5s-64.5 41.5 -112.5 41.5c-50 0 -89.167 -15.333 -117.5 -46s-42.5 -72 -42.5 -124v-72c0 -56 12.5 -98.667 37.5 -128s63.5 -44 115.5 -44c7.33301 0 14.666 0.166992 21.999 0.5s14.666 1.5 21.999 3.5l11 -76
c-11.333 -3.33301 -23.333 -5.16602 -36 -5.49902s-24 -0.5 -34 -0.5z" />
    <glyph glyph-name="uni0E15" unicode="&#xe15;" horiz-adv-x="658" 
d="M294 -12c-77.333 0 -136.33 25.001 -176.997 75.001s-61 121 -61 213c0 90 13.667 159.833 41 209.5s69.333 74.5 126 74.5c27.333 0 51.166 -7 71.499 -21s33.5 -34.667 39.5 -62h5c6.66699 27.333 20.5 48 41.5 62s45.5 21 73.5 21c40.667 0 72.167 -13.167 94.5 -39.5
s33.5 -62.5 33.5 -108.5v-412h-93v407c0 25.333 -5.16699 43.833 -15.5 55.5s-24.833 17.5 -43.5 17.5c-11.333 0 -21 -2.16699 -29 -6.5s-14.667 -10 -20 -17s-9.33301 -15.333 -12 -25s-4.66699 -19.5 -6 -29.5h-59c-1.33301 10 -3.33301 19.667 -6 29
s-6.5 17.666 -11.5 24.999s-11.333 13.166 -19 17.499s-17.5 6.5 -29.5 6.5c-15.333 0 -28.333 -4 -39 -12s-19.334 -19 -26.001 -33s-11.334 -30.667 -14.001 -50s-4 -40.666 -4 -63.999v-86c0 -51.333 12 -92.166 36 -122.499s63.667 -45.5 119 -45.5
c6.66699 0 14 0.333008 22 1s15.667 1.66699 23 3l11 -77c-11.333 -2.66699 -23.333 -4.33398 -36 -5.00098s-24.667 -1 -36 -1z" />
    <glyph glyph-name="uni0E16" unicode="&#xe16;" horiz-adv-x="618" 
d="M228 0c-32.667 0 -57 8.33496 -73 25.002s-24 40 -24 70v213l-86 36c2 32 9.83301 61.167 23.5 87.5s31.5 49 53.5 68s47.667 33.833 77 44.5s61.333 16 96 16c79.333 0 140.333 -19.833 183 -59.5s64 -93.5 64 -161.5v-339h-93v328c0 50 -14 88 -42 114
s-65.333 39 -112 39c-39.333 0 -73.833 -8.83301 -103.5 -26.5s-49.5 -41.5 -59.5 -71.5l47 -19c16 -6.66699 27.5 -14.334 34.5 -23.001s10.5 -21.334 10.5 -38.001v-224h61v-79h-57z" />
    <glyph glyph-name="uni0E17" unicode="&#xe17;" horiz-adv-x="601" 
d="M82 548l93.001 -0.00195312v-90h5c5.33301 12.667 12.166 25.167 20.499 37.5s19 23.333 32 33s28.333 17.334 46 23.001s38.167 8.5 61.5 8.5c58.667 0 104.167 -18.333 136.5 -55s48.5 -89 48.5 -157v-348h-93v337c0 94.667 -41.667 142 -125 142
c-16 0 -32 -2.16699 -48 -6.5s-30.167 -10.666 -42.5 -18.999s-22.333 -19 -30 -32s-11.5 -28.5 -11.5 -46.5v-375h-93v548z" />
    <glyph glyph-name="uni0E18" unicode="&#xe18;" horiz-adv-x="550" 
d="M68 201l85.002 -0.000976562v-126h255v105c0 16 -1.33301 30 -4 42s-8.16699 22.167 -16.5 30.5s-20.166 15.166 -35.499 20.499s-36 9 -62 11l-232 20v63c0 60.667 19.833 108 59.5 142s96.167 51 169.5 51c50 0 91.667 -7.66699 125 -23s61.333 -35.666 84 -60.999
l-55 -57c-14.667 17.333 -34.834 32.5 -60.501 45.5s-58.5 19.5 -98.5 19.5c-42 0 -74.833 -9 -98.5 -27s-35.5 -44.667 -35.5 -80v-9l158 -15c31.333 -2.66699 59.166 -7.16699 83.499 -13.5s44.666 -15.666 60.999 -27.999s28.833 -27.833 37.5 -46.5s13 -42 13 -70v-100
c0 -30 -8.16699 -53.333 -24.5 -70s-40.5 -25 -72.5 -25h-336v201z" />
    <glyph glyph-name="uni0E19" unicode="&#xe19;" horiz-adv-x="609" 
d="M259 -12c-58 0 -103 18.333 -135 55s-48 89 -48 157v348h93v-338c0 -94 40.667 -141 122 -141c16 0 31.833 2.16699 47.5 6.5s29.5 10.666 41.5 18.999s21.833 19 29.5 32s11.5 28.5 11.5 46.5v375h93v-469h61v-79h-65c-27.333 0 -47.333 8.33301 -60 25
s-20 38.334 -22 65.001h-5c-10.667 -30 -30.167 -54.5 -58.5 -73.5s-63.5 -28.5 -105.5 -28.5z" />
    <glyph glyph-name="uni0E1A" unicode="&#xe1a;" horiz-adv-x="616" 
d="M308 -12c-36 0 -68.333 5 -97 15s-53 24.5 -73 43.5s-35.333 41.833 -46 68.5s-16 56.667 -16 90v343h93v-335c0 -47.333 12.167 -83.333 36.5 -108s58.5 -37 102.5 -37s78.167 12.333 102.5 37s36.5 60.667 36.5 108v335h93v-343c0 -33.333 -5.33301 -63.333 -16 -90
s-26 -49.5 -46 -68.5s-44.333 -33.5 -73 -43.5s-61 -15 -97 -15z" />
    <glyph glyph-name="uni0E1B" unicode="&#xe1b;" horiz-adv-x="616" 
d="M308 -12c-36 0 -68.333 5 -97 15s-53 24.5 -73 43.5s-35.333 41.833 -46 68.5s-16 56.667 -16 90v343h93v-335c0 -47.333 12.167 -83.333 36.5 -108s58.5 -37 102.5 -37s78.167 12.333 102.5 37s36.5 60.667 36.5 108v514h93v-522c0 -33.333 -5.33301 -63.333 -16 -90
s-26 -49.5 -46 -68.5s-44.333 -33.5 -73 -43.5s-61 -15 -97 -15z" />
    <glyph glyph-name="uni0E1C" unicode="&#xe1c;" horiz-adv-x="689" 
d="M218 -12c-29.333 0 -54.1699 6.33398 -74.5029 19.001s-36.666 31.167 -48.999 55.5s-21.166 54 -26.499 89s-8 75.167 -8 120.5c0 90 17.5 158.5 52.5 205.5s84.5 70.5 148.5 70.5h27v-79h-21c-36 0 -63.167 -12 -81.5 -36s-27.5 -62 -27.5 -114v-103
c0 -22.667 1 -43.167 3 -61.5s5.66699 -34 11 -47s13 -23 23 -30s22.667 -10.5 38 -10.5c20.667 0 37.334 7.66699 50.001 23s19 39 19 71v95h87v-95c0 -32 5.83301 -55.667 17.5 -71s28.167 -23 49.5 -23c20 0 35.667 6.66699 47 20s17 32.666 17 57.999v403h93v-412
c0 -45.333 -11.833 -81.333 -35.5 -108s-56.5 -40 -98.5 -40c-38.667 0 -69.167 10.667 -91.5 32s-35.5 47.666 -39.5 78.999h-5c-4 -31.333 -16.833 -57.666 -38.5 -78.999s-50.5 -32 -86.5 -32z" />
    <glyph glyph-name="uni0E1D" unicode="&#xe1d;" horiz-adv-x="689" 
d="M218 -12c-29.333 0 -54.1699 6.33398 -74.5029 19.001s-36.666 31.167 -48.999 55.5s-21.166 54 -26.499 89s-8 75.167 -8 120.5c0 90 17.5 158.5 52.5 205.5s84.5 70.5 148.5 70.5h27v-79h-21c-36 0 -63.167 -12 -81.5 -36s-27.5 -62 -27.5 -114v-103
c0 -22.667 1 -43.167 3 -61.5s5.66699 -34 11 -47s13 -23 23 -30s22.667 -10.5 38 -10.5c20.667 0 37.334 7.66699 50.001 23s19 39 19 71v95h87v-95c0 -32 5.83301 -55.667 17.5 -71s28.167 -23 49.5 -23c20 0 35.667 6.66699 47 20s17 32.666 17 57.999v582h93v-591
c0 -45.333 -11.833 -81.333 -35.5 -108s-56.5 -40 -98.5 -40c-38.667 0 -69.167 10.667 -91.5 32s-35.5 47.666 -39.5 78.999h-5c-4 -31.333 -16.833 -57.666 -38.5 -78.999s-50.5 -32 -86.5 -32z" />
    <glyph glyph-name="uni0E1E" unicode="&#xe1e;" horiz-adv-x="725" 
d="M60 548h90l34 -264l16 -180h5l45 180l74 264h77l75 -264l44 -180h6l15 180l34 264h90l-79 -548h-103l-85 307l-35 139h-3l-34 -139l-85 -307h-102z" />
    <glyph glyph-name="uni0E1F" unicode="&#xe1f;" horiz-adv-x="725" 
d="M60 548h90l34 -264l16 -180h5l45 180l74 264h77l75 -264l44 -180h6l15 180l57 443h91l-103 -727h-103l-85 307l-35 139h-3l-34 -139l-85 -307h-102z" />
    <glyph glyph-name="uni0E20" unicode="&#xe20;" horiz-adv-x="616" 
d="M75 79h61.001v229l-86 36c2 32 9.66699 61.167 23 87.5s31 49 53 68s47.667 33.833 77 44.5s61 16 95 16c78 0 137.833 -19.833 179.5 -59.5s62.5 -93.5 62.5 -161.5v-339h-93v328c0 50 -13.333 88 -40 114s-63 39 -109 39c-39.333 0 -73.5 -8.83301 -102.5 -26.5
s-48.5 -41.5 -58.5 -71.5l48 -19c15.333 -6 26.5 -13.5 33.5 -22.5s10.5 -21.833 10.5 -38.5v-208c0 -30 -7.83301 -53.333 -23.5 -70s-39.834 -25 -72.501 -25h-58v79z" />
    <glyph glyph-name="uni0E21" unicode="&#xe21;" horiz-adv-x="601" 
d="M340 -12c-23.333 0 -43.834 2.83105 -61.501 8.49805s-33 13.334 -46 23.001s-23.667 20.5 -32 32.5s-15.166 24.667 -20.499 38h-5v-90h-93v548h93v-375c0 -18 3.83301 -33.5 11.5 -46.5s17.667 -23.667 30 -32s26.5 -14.666 42.5 -18.999s32 -6.5 48 -6.5
c83.333 0 125 47.333 125 142v337h93v-348c0 -68 -16.167 -120.333 -48.5 -157s-77.833 -55 -136.5 -55z" />
    <glyph glyph-name="uni0E22" unicode="&#xe22;" horiz-adv-x="599" 
d="M283 -12c-68 0 -120.999 14.335 -158.999 43.002s-57 69 -57 121c0 32.667 9.66699 60 29 82s43.666 37 72.999 45v6c-32.667 7.33301 -58.5 22.666 -77.5 45.999s-28.5 52 -28.5 86c0 42.667 13.667 77.167 41 103.5s64.333 39.5 111 39.5
c14.667 0 29.834 -1.33301 45.501 -4s30.167 -7.33398 43.5 -14.001l-20 -70c-17.333 7.33301 -34.666 11 -51.999 11c-26 0 -46.333 -7.16699 -61 -21.5s-22 -33.166 -22 -56.499c0 -10 1.33301 -20 4 -30s7.5 -18.833 14.5 -26.5s16.667 -13.834 29 -18.501
s28.166 -7 47.499 -7h57v-65h-57c-23.333 0 -42.666 -7 -57.999 -21s-23 -33.667 -23 -59v-24c0 -28 10.333 -49.833 31 -65.5s50.667 -23.5 90 -23.5c46 0 81.833 12 107.5 36s38.5 58.333 38.5 103v344h93v-357c0 -31.333 -5.66699 -59.5 -17 -84.5
s-27.333 -46.167 -48 -63.5s-45.834 -30.833 -75.501 -40.5s-62.834 -14.5 -99.501 -14.5z" />
    <glyph glyph-name="uni0E23" unicode="&#xe23;" horiz-adv-x="536" 
d="M272 -12c-50 0 -92.833 9.00293 -128.5 27.0029s-66.167 43 -91.5 75l63 54c20.667 -26.667 44.167 -46.5 70.5 -59.5s57.5 -19.5 93.5 -19.5c38 0 66.833 7.16699 86.5 21.5s29.5 35.166 29.5 62.499c0 23.333 -7.66699 41.5 -23 54.5s-39.333 22.167 -72 27.5l-49 7
c-22.667 3.33301 -44.834 8.16602 -66.501 14.499s-40.834 15.5 -57.501 27.5s-30 27.333 -40 46s-15 42 -15 70c0 26 5 49.167 15 69.5s23.833 37.5 41.5 51.5s38.667 24.667 63 32s51.166 11 80.499 11c48.667 0 89 -7.33301 121 -22s59.667 -35.667 83 -63l-59 -56
c-15.333 19.333 -35.166 34.833 -59.499 46.5s-53.166 17.5 -86.499 17.5c-35.333 0 -62.333 -7.16699 -81 -21.5s-28 -34.166 -28 -59.499c0 -26.667 8.83301 -45.834 26.5 -57.501s42.5 -19.834 74.5 -24.501l49 -7c25.333 -4 48.5 -9.66699 69.5 -17s39.167 -17 54.5 -29
s27.333 -27 36 -45s13 -39.667 13 -65c0 -52 -19.167 -93.167 -57.5 -123.5s-90.166 -45.5 -155.499 -45.5z" />
    <glyph glyph-name="uni0E24" unicode="&#xe24;" horiz-adv-x="614" 
d="M445 328c0 50 -13.667 88.002 -41 114.002s-64.333 39 -111 39c-39.333 0 -73.5 -8.83301 -102.5 -26.5s-48.5 -41.5 -58.5 -71.5l47 -19c16 -6.66699 27.5 -14.334 34.5 -23.001s10.5 -21.334 10.5 -38.001v-224h61v-79h-57c-32.667 -0 -57 8.33301 -73 25
s-24 40 -24 70v213l-86 36c2 32 9.66699 61.167 23 87.5s30.833 49 52.5 68s47.167 33.833 76.5 44.5s61.333 16 96 16c79.333 0 140 -19.833 182 -59.5s63 -93.5 63 -161.5v-523h-93v512z" />
    <glyph glyph-name="uni0E25" unicode="&#xe25;" horiz-adv-x="582" 
d="M241 -10c-54.667 0 -98.333 13.498 -131 40.498s-49 67.167 -49 120.5c0 50.667 16 89.834 48 117.501s76 41.5 132 41.5h172v47c0 82 -45 123 -135 123c-40 0 -73.167 -8 -99.5 -24s-47.5 -37.667 -63.5 -65l-59 52c18.667 34 46.334 62 83.001 84s84.667 33 144 33
c72 0 127.167 -17.333 165.5 -52s57.5 -83.334 57.5 -146.001v-362h-93v246h-147c-34 0 -60.333 -7.16699 -79 -21.5s-28 -35.166 -28 -62.499v-22c0 -28 8.33301 -49.5 25 -64.5s39.667 -22.5 69 -22.5c8 0 15 0.333008 21 1s11 1.33398 15 2.00098l8 -60
c-4.66699 -2 -12.834 -3.5 -24.501 -4.5s-22.167 -1.5 -31.5 -1.5z" />
    <glyph glyph-name="uni0E26" unicode="&#xe26;" horiz-adv-x="610" 
d="M441 328c0 50 -12.8311 88 -38.498 114s-61.5 39 -107.5 39c-39.333 0 -73 -8.83301 -101 -26.5s-47 -41.5 -57 -71.5l48 -19c15.333 -6 26.5 -13.5 33.5 -22.5s10.5 -21.833 10.5 -38.5v-208c0 -30 -7.83301 -53.333 -23.5 -70s-39.834 -25 -72.501 -25h-58v79h61v229
l-86 36c2 32 9.66699 61.167 23 87.5s30.666 49 51.999 68s46.5 33.833 75.5 44.5s60.5 16 94.5 16c78 0 137.333 -19.833 178 -59.5s61 -93.5 61 -161.5v-523h-93v512z" />
    <glyph glyph-name="uni0E27" unicode="&#xe27;" horiz-adv-x="534" 
d="M246 -12c-26.667 0 -52.168 3.16699 -76.501 9.5s-45.833 15.833 -64.5 28.5l36 70c14 -9.33301 29.167 -16.333 45.5 -21s35.166 -7 56.499 -7c44 0 77.667 14.333 101 43s35 68.667 35 120v86c0 50.667 -11.5 90.5 -34.5 119.5s-56.833 43.5 -101.5 43.5
c-34 0 -62.167 -7.33301 -84.5 -22s-39.166 -34.667 -50.499 -60l-75 36c16.667 38 42.834 68.5 78.501 91.5s80.5 34.5 134.5 34.5c75.333 0 132.833 -25.333 172.5 -76s59.5 -120.667 59.5 -210s-20 -159.333 -60 -210s-97.333 -76 -172 -76z" />
    <glyph glyph-name="uni0E28" unicode="&#xe28;" horiz-adv-x="677" 
d="M76 340c0 33.333 5.66699 63.667 17 91s27.5 50.5 48.5 69.5s46.667 33.667 77 44s64.166 15.5 101.499 15.5c30.667 0 58.834 -3.5 84.501 -10.5s48.5 -16.833 68.5 -29.5c2.66699 37.333 23 56 61 56h143v-83h-170v-2c18.667 -19.333 33 -41.5 43 -66.5
s15 -53.167 15 -84.5v-340h-93v332c0 48 -13.333 84.667 -40 110s-64 38 -112 38s-85.167 -12.667 -111.5 -38s-39.5 -62 -39.5 -110v-128h5c4 12.667 10 25.167 18 37.5s17.833 23 29.5 32s25.5 16.333 41.5 22s34.667 8.5 56 8.5h32v-91h-45
c-42.667 0 -76.167 -7.66699 -100.5 -23s-36.5 -38 -36.5 -68v-122h-93v340z" />
    <glyph glyph-name="uni0E29" unicode="&#xe29;" horiz-adv-x="652" 
d="M314 -12c-74.667 0 -132.998 19.334 -174.998 58.001s-63 91 -63 157v345h93v-335c0 -46 12.667 -81.667 38 -107s61 -38 107 -38s81.5 12.667 106.5 38s37.5 61 37.5 107v38h-98c-30.667 0 -53.334 6.66699 -68.001 20s-22 32.666 -22 57.999v51h87v-58h101v226h93v-226
h72v-71h-72v-48c0 -66 -20.833 -118.333 -62.5 -157s-99.834 -58 -174.501 -58z" />
    <glyph glyph-name="uni0E2A" unicode="&#xe2a;" horiz-adv-x="618" 
d="M241 -10c-54.667 0 -98.333 13.4971 -131 40.4971s-49 67.167 -49 120.5c0 50.667 16 89.834 48 117.501s76 41.5 132 41.5h172v47c0 82 -45 123 -135 123c-40 0 -73.167 -8 -99.5 -24s-47.5 -37.667 -63.5 -65l-59 52c18.667 34 46.334 62 83.001 84s84.667 33 144 33
c58.667 0 106.667 -12.333 144 -37c4 35.333 24.333 53 61 53h129v-83h-155v-1c29.333 -32.667 44 -76 44 -130v-362h-93v246h-147c-34 0 -60.333 -7.16699 -79 -21.5s-28 -35.166 -28 -62.499v-22c0 -28 8.33301 -49.5 25 -64.5s39.667 -22.5 69 -22.5
c8 0 15 0.333008 21 1s11 1.33398 15 2.00098l8 -60c-4.66699 -2 -12.834 -3.5 -24.501 -4.5s-22.167 -1.5 -31.5 -1.5z" />
    <glyph glyph-name="uni0E2B" unicode="&#xe2b;" horiz-adv-x="596" 
d="M82 548l92.999 0.000976562v-171l145 21c28 4 50.167 11.667 66.5 23s26.166 31.333 29.499 60l8 67h97l-8 -70c-3.33301 -31.333 -15.166 -56.5 -35.499 -75.5s-46.833 -30.833 -79.5 -35.5v-5c36 -9.33301 63.167 -28 81.5 -56s29.166 -62 32.499 -102l19 -204h-97
l-18 210c-1.33301 16.667 -4.66602 32.167 -9.99902 46.5s-13 26.5 -23 36.5s-22.667 17.167 -38 21.5s-33.666 5.16602 -54.999 2.49902l-115 -16v-301h-93v548z" />
    <glyph glyph-name="uni0E2C" unicode="&#xe2c;" horiz-adv-x="655" 
d="M82 548l93 0.000976562v-272l-5 -167h5l129 154h46l129 -154h4l-4 167v139c0 20.667 -4.66699 36 -14 46s-25.333 15 -48 15h-45v72h56c19.333 0 34.5 4.16699 45.5 12.5s16.5 24.166 16.5 47.499v71h93v-61c0 -53.333 -28.667 -85 -86 -95v-5c26 -8 45 -21 57 -39
s18 -41.333 18 -70v-409h-91l-154 184l-155 -184h-90v548z" />
    <glyph glyph-name="uni0E2D" unicode="&#xe2d;" horiz-adv-x="602" 
d="M294 -12c-32.667 0 -63.166 4.66699 -91.499 14s-53 22.666 -74 39.999s-37.5 38.166 -49.5 62.499s-18 51.5 -18 81.5v50c0 21.333 4.66699 38 14 50s27.666 18 54.999 18h108v-77h-86v-36c0 -43.333 13.5 -75.166 40.5 -95.499s62.167 -30.5 105.5 -30.5
c47.333 0 84 14.5 110 43.5s39 69.5 39 121.5v84c0 52.667 -14.333 93.5 -43 122.5s-68.334 43.5 -119.001 43.5c-40.667 0 -75.667 -8.16699 -105 -24.5s-52 -37.166 -68 -62.499l-60 52c19.333 32.667 48.5 60 87.5 82s88.833 33 149.5 33
c81.333 0 144.5 -25.333 189.5 -76s67.5 -120.667 67.5 -210c0 -44 -5.5 -83.667 -16.5 -119s-27.167 -65.333 -48.5 -90s-47.666 -43.667 -78.999 -57s-67.333 -20 -108 -20z" />
    <glyph glyph-name="uni0E2E" unicode="&#xe2e;" horiz-adv-x="638" 
d="M294 -12c-32.667 0 -63.165 4.66797 -91.498 14.001s-53 22.666 -74 39.999s-37.5 38.166 -49.5 62.499s-18 51.5 -18 81.5v50c0 21.333 4.66699 38 14 50s27.666 18 54.999 18h108v-77h-86v-36c0 -43.333 13.5 -75.166 40.5 -95.499s62.167 -30.5 105.5 -30.5
c47.333 0 84 14.5 110 43.5s39 69.5 39 121.5v84c0 52.667 -14.333 93.5 -43 122.5s-68.334 43.5 -119.001 43.5c-40.667 0 -75.667 -8.16699 -105 -24.5s-52 -37.166 -68 -62.499l-60 52c19.333 32.667 48.5 60 87.5 82s88.833 33 149.5 33
c29.333 0 56.166 -3.33301 80.499 -10s46.166 -16.334 65.499 -29.001c2.66699 36.667 23.334 55 62.001 55h145v-83h-172v-2c24.667 -24 43.5 -54.333 56.5 -91s19.5 -78.667 19.5 -126c0 -44 -5.5 -83.667 -16.5 -119s-27.167 -65.333 -48.5 -90
s-47.666 -43.667 -78.999 -57s-67.333 -20 -108 -20z" />
    <glyph glyph-name="uni0E2F" unicode="&#xe2f;" horiz-adv-x="534" 
d="M359 421l-4 -0.00195312c-4.66699 -12 -11 -23.667 -19 -35s-18.167 -21.166 -30.5 -29.499s-27.333 -15.166 -45 -20.499s-38.5 -8 -62.5 -8c-48 0 -86.5 13.333 -115.5 40s-43.5 67.667 -43.5 123v57h93v-44c0 -34 8.5 -58.667 25.5 -74s40.5 -23 70.5 -23h18
c33.333 0 60.5 8.16699 81.5 24.5s31.5 40.833 31.5 73.5v43h93v-548h-93v421z" />
    <glyph glyph-name="uni0E30" unicode="&#xe30;" horiz-adv-x="414" 
d="M175 96c-32.667 0 -56.667 7.83301 -72 23.5s-23 36.5 -23 62.5v47h87v-54h171v-79h-163zM174 351c-32.667 0 -56.5 7.66699 -71.5 23s-22.5 36.333 -22.5 63v47h87v-54h171v-79h-164z" />
    <glyph glyph-name="uni0E31" unicode="&#xe31;" horiz-adv-x="0" 
d="M-94 650c-32.667 0 -56.667 7.83203 -72 23.499s-23 36.834 -23 63.501v66h87v-76h258v-77h-250z" />
    <glyph glyph-name="uni0E32" unicode="&#xe32;" horiz-adv-x="489" 
d="M320 372c0 71.333 -37.332 106.999 -111.999 106.999c-31.333 0 -56.5 -6.5 -75.5 -19.5s-35.167 -30.5 -48.5 -52.5l-59 51c16 30 39.167 54.5 69.5 73.5s70.166 28.5 119.499 28.5c64.667 0 114 -15.667 148 -47s51 -75.666 51 -132.999v-380h-93v372z" />
    <glyph glyph-name="uni0E33" unicode="&#xe33;" horiz-adv-x="490" 
d="M-143 673c15.333 0 27 3.83301 35 11.5s12 18.167 12 31.5v20c0 13.333 -4 23.833 -12 31.5s-19.667 11.5 -35 11.5s-27 -3.83301 -35 -11.5s-12 -18.167 -12 -31.5v-20c0 -13.333 4 -23.833 12 -31.5s19.667 -11.5 35 -11.5zM-143 614c-36 0 -64.333 10.167 -85 30.5
s-31 47.5 -31 81.5s10.333 61.167 31 81.5s49 30.5 85 30.5s64.333 -10.167 85 -30.5s31 -47.5 31 -81.5s-10.333 -61.167 -31 -81.5s-49 -30.5 -85 -30.5zM320 372c0 71.333 -37.332 106.999 -111.999 106.999c-31.333 0 -56.5 -6.5 -75.5 -19.5s-35.167 -30.5 -48.5 -52.5
l-59 51c16 30 39.167 54.5 69.5 73.5s70.166 28.5 119.499 28.5c64.667 0 114 -15.667 148 -47s51 -75.666 51 -132.999v-380h-93v372z" />
    <glyph glyph-name="uni0E34" unicode="&#xe34;" horiz-adv-x="0" 
d="M-418 727h418v-77h-418v77z" />
    <glyph glyph-name="uni0E35" unicode="&#xe35;" horiz-adv-x="0" 
d="M-418 727h329v76h89v-153h-418v77z" />
    <glyph glyph-name="uni0E36" unicode="&#xe36;" horiz-adv-x="0" 
d="M-418 727h269c-2 6 -3 13 -3 21c0 30 9.33301 53.5 28 70.5s44 25.5 76 25.5s57.5 -8.5 76.5 -25.5s28.5 -40.5 28.5 -70.5s-9.5 -53.833 -28.5 -71.5s-44.5 -26.5 -76.5 -26.5h-370v77zM-48 702c30.667 0 46 13.667 46 41v10c0 27.333 -15.333 41 -46 41
s-46 -13.667 -46 -41v-10c0 -27.333 15.333 -41 46 -41z" />
    <glyph glyph-name="uni0E37" unicode="&#xe37;" horiz-adv-x="0" 
d="M-418 727h184v76h79v-82h73v82h82v-153h-418v77z" />
    <glyph glyph-name="uni0E38" unicode="&#xe38;" horiz-adv-x="0" 
d="M-85 -181l-66 -0.000976562v70h87c22.667 0 39 -5.66699 49 -17s15 -26.666 15 -45.999v-171h-85v164z" />
    <glyph glyph-name="uni0E39" unicode="&#xe39;" horiz-adv-x="0" 
d="M-143 -352c-46 0 -80.333 11.666 -103 34.999s-34 52.333 -34 87v49h-66v70h81c22.667 0 39 -5 49 -15s15 -23.333 15 -40v-47c0 -22 4.33301 -39.167 13 -51.5s23.667 -18.5 45 -18.5c22 0 37.167 6.16699 45.5 18.5s12.5 29.5 12.5 51.5v102h85v-109
c0 -37.333 -12 -68.666 -36 -93.999s-59.667 -38 -107 -38z" />
    <glyph glyph-name="uni0E3A" unicode="&#xe3a;" horiz-adv-x="0" 
d="M-48 -217c-19.333 0 -33.666 4.5 -42.999 13.5s-14 21.167 -14 36.5v13c0 15.333 4.66699 27.5 14 36.5s23.666 13.5 42.999 13.5s33.666 -4.5 42.999 -13.5s14 -21.167 14 -36.5v-13c0 -15.333 -4.66699 -27.5 -14 -36.5s-23.666 -13.5 -42.999 -13.5z" />
    <glyph glyph-name="uni0E3F" unicode="&#xe3f;" horiz-adv-x="646" 
d="M281 21l-190.999 0.000976562v656h191v103h76v-103h29c56 0 99.667 -15.167 131 -45.5s47 -71.5 47 -123.5c0 -43.333 -11 -76 -33 -98s-50.333 -36 -85 -42v-5c18.667 -2 36.5 -6.33301 53.5 -13s32.167 -16 45.5 -28s24 -27.333 32 -46s12 -41.334 12 -68.001
s-4.33301 -51.5 -13 -74.5s-20.834 -42.833 -36.501 -59.5s-34.167 -29.667 -55.5 -39s-45 -14 -71 -14h-56v-106h-76v106zM389.001 97.001c34.667 0 61.667 8.33301 81 25s29 40 29 70v36c0 30.667 -9.66699 54.167 -29 70.5s-46.333 24.5 -81 24.5h-36v-226h36z
M380.001 390.001c32 0 55.667 7.66699 71 23s23 37.333 23 66v32c0 28 -7.66699 49.833 -23 65.5s-39 23.5 -71 23.5h-27v-210h27zM284.001 97.001v226h-108v-226h108zM284.001 390.001v210h-108v-210h108z" />
    <glyph glyph-name="uni0E40" unicode="&#xe40;" horiz-adv-x="318" 
d="M207 0c-32.667 0 -57 8.33301 -73 25s-24 40 -24 70v453h93v-469h81v-79h-77z" />
    <glyph glyph-name="uni0E41" unicode="&#xe41;" horiz-adv-x="582" 
d="M207 0c-32.667 0 -57 8.33301 -73 25s-24 40 -24 70v453h93v-469h81v-79h-77zM471 0c-32.667 0 -57 8.33301 -73 25s-24 40 -24 70v453h93v-469h81v-79h-77z" />
    <glyph glyph-name="uni0E42" unicode="&#xe42;" horiz-adv-x="318" 
d="M207 0c-32.667 0 -57.0039 8.33008 -73.0039 24.9971s-24 40 -24 70v534l-126 54v18c0 28 4.66699 53 14 75s22.333 40.833 39 56.5s36.834 27.667 60.501 36s49.834 12.5 78.501 12.5c41.333 0 75.333 -6.33301 102 -19s49.334 -29.667 68.001 -51l-58 -54
c-10.667 12.667 -24.667 23.834 -42 33.501s-39 14.5 -65 14.5c-30 0 -56 -6.5 -78 -19.5s-34.333 -33.5 -37 -61.5l92 -38c16.667 -7.33301 28.334 -15.666 35.001 -24.999s10 -23.666 10 -42.999v-539h81v-79h-77z" />
    <glyph glyph-name="uni0E43" unicode="&#xe43;" horiz-adv-x="318" 
d="M207 0c-32.667 0 -57.001 8.33496 -73.001 25.002s-24 40 -24 70v422c0 16 2.33301 30.333 7 43s10.5 24.167 17.5 34.5s14.833 19.833 23.5 28.5l26 25c12 12 22.333 24.5 31 37.5s13 28.833 13 47.5c0 23.333 -7 41.166 -21 53.499s-32.333 18.5 -55 18.5
c-50.667 0 -83.667 -27.667 -99 -83l-71 40c13.333 36 34.333 64.833 63 86.5s67.334 32.5 116.001 32.5c50 0 88.833 -13 116.5 -39s41.5 -59.333 41.5 -100c0 -14.667 -1.83301 -27.834 -5.5 -39.501s-8.5 -22.5 -14.5 -32.5s-12.667 -19.167 -20 -27.5l-22 -24.5
c-14 -14.667 -26.5 -29.5 -37.5 -44.5s-16.5 -32.833 -16.5 -53.5v-441h81v-79h-77z" />
    <glyph glyph-name="uni0E44" unicode="&#xe44;" horiz-adv-x="318" 
d="M207 0c-32.667 0 -57 8.33398 -73 25.001s-24 40 -24 70v557c0 20.667 2.66699 39 8 55s12.333 29.667 21 41s18.667 20.666 30 27.999s23.333 13 36 17v4h-217v76h321v-76h-11c-30.667 0 -54.167 -8.83301 -70.5 -26.5s-24.5 -42.5 -24.5 -74.5v-617h81v-79h-77z" />
    <glyph glyph-name="uni0E45" unicode="&#xe45;" horiz-adv-x="489" 
d="M320 372c0 71.333 -37.332 106.999 -111.999 106.999c-31.333 0 -56.5 -6.5 -75.5 -19.5s-35.167 -30.5 -48.5 -52.5l-59 51c16 30 39.167 54.5 69.5 73.5s70.166 28.5 119.499 28.5c64.667 0 114 -15.667 148 -47s51 -75.666 51 -132.999v-564h-93v556z" />
    <glyph glyph-name="uni0E46" unicode="&#xe46;" horiz-adv-x="575" 
d="M399 411c0 20 -3.33203 36.5029 -9.99902 49.5029s-19.667 19.5 -39 19.5c-17.333 0 -30 -8 -38 -24s-12.667 -34.333 -14 -55h-60c-1.33301 10.667 -3 20.667 -5 30s-4.83301 17.666 -8.5 24.999s-8.33398 13.166 -14.001 17.499s-12.834 6.5 -21.501 6.5
c-19.333 0 -32.333 -6.33301 -39 -19s-10 -28.334 -10 -47.001v-43c0 -21.333 4.83301 -39.166 14.5 -53.499s26.5 -21.5 50.5 -21.5c5.33301 0 10 0.166992 14 0.5s9.33301 1.16602 16 2.49902l8 -68c-8.66699 -2 -17.5 -3.5 -26.5 -4.5s-16.5 -1.5 -22.5 -1.5
c-46.667 0 -82.834 15.167 -108.501 45.5s-38.5 72.833 -38.5 127.5c0 52 9.33301 92 28 120s49.334 42 92.001 42c26 0 47.833 -7.16699 65.5 -21.5s29.167 -34.5 34.5 -60.5h5c6 26 17.833 46.167 35.5 60.5s39.834 21.5 66.501 21.5c38.667 0 68 -13 88 -39
s30 -60 30 -102v-603h-93v595z" />
    <glyph glyph-name="uni0E47" unicode="&#xe47;" horiz-adv-x="0" 
d="M-296 642c-31.333 0 -56.834 10.668 -76.501 32.001s-29.5 50 -29.5 86c0 38 11.667 69 35 93s56 36 98 36h269v-65h-270c-18 0 -31.833 -5.5 -41.5 -16.5s-14.5 -25.833 -14.5 -44.5c0 -38 16 -57 48 -57c8.66699 0 16 2 22 6s10.833 9.16699 14.5 15.5
s6.33398 13.166 8.00098 20.499s2.83398 14 3.50098 20h59c0.666992 -6.66699 2 -13.667 4 -21s5 -14 9 -20s9 -11 15 -15s13.667 -6 23 -6c12.667 0 23.334 4.5 32.001 13.5s13 22.5 13 40.5v23h75v-31c0 -34.667 -9.33301 -61.667 -28 -81s-44.667 -29 -78 -29
c-18.667 0 -37 5.5 -55 16.5s-30.333 28.167 -37 51.5h-4c-6.66699 -23.333 -18.334 -40.5 -35.001 -51.5s-36.334 -16.5 -59.001 -16.5z" />
    <glyph glyph-name="uni0E48" unicode="&#xe48;" horiz-adv-x="0" 
d="M-90 840h88v-190h-88v190z" />
    <glyph glyph-name="uni0E49" unicode="&#xe49;" horiz-adv-x="0" 
d="M-167 727l72.999 -0.000976562v36c0 16 -3.66699 27.333 -11 34s-19.666 10 -36.999 10h-25v68h61c30.667 0 54 -6.66699 70 -20s24 -31.333 24 -54c0 -13.333 -3.5 -26.666 -10.5 -39.999s-17.167 -23 -30.5 -29v-5h177v-68h-291v68z" />
    <glyph glyph-name="uni0E4A" unicode="&#xe4a;" horiz-adv-x="0" 
d="M-356 748c0 28.667 7.66797 51.334 23.001 68.001s37.333 25 66 25c20.667 0 38.667 -5.5 54 -16.5s24.666 -26.833 27.999 -47.5h6c4 20.667 13.5 36.5 28.5 47.5s33.167 16.5 54.5 16.5c28.667 0 50.667 -8.33301 66 -25s23 -39.334 23 -68.001v-21h78v-68h-154v79
c0 11.333 -3 20.5 -9 27.5s-14.667 10.5 -26 10.5c-10.667 0 -19 -3.33301 -25 -10s-9 -17.667 -9 -33v-22h-59v22c0 15.333 -3 26.333 -9 33s-14.667 10 -26 10s-19.833 -3.5 -25.5 -10.5s-8.5 -16.167 -8.5 -27.5v-80h-76v90z" />
    <glyph glyph-name="uni0E4B" unicode="&#xe4b;" horiz-adv-x="0" 
d="M-78 733h-82v70h82v82h75v-82h82v-70h-82v-82h-75v82z" />
    <glyph glyph-name="uni0E4C" unicode="&#xe4c;" horiz-adv-x="0" 
d="M-180 717c0 26.667 7.66699 47.667 23 63s39.333 23 72 23h199v-77h-207v-76h-87v67z" />
    <glyph glyph-name="uni0E4D" unicode="&#xe4d;" horiz-adv-x="0" 
d="M-46 673c15.333 0 27 3.83301 35 11.5s12 18.167 12 31.5v20c0 13.333 -4 23.833 -12 31.5s-19.667 11.5 -35 11.5s-27 -3.83301 -35 -11.5s-12 -18.167 -12 -31.5v-20c0 -13.333 4 -23.833 12 -31.5s19.667 -11.5 35 -11.5zM-46 614c-36 0 -64.333 10.167 -85 30.5
s-31 47.5 -31 81.5s10.333 61.167 31 81.5s49 30.5 85 30.5s64.333 -10.167 85 -30.5s31 -47.5 31 -81.5s-10.333 -61.167 -31 -81.5s-49 -30.5 -85 -30.5z" />
    <glyph glyph-name="uni0E4E" unicode="&#xe4e;" horiz-adv-x="0" 
d="M-49 643c-32.667 0 -57.499 6.83496 -74.499 20.502s-25.5 32.834 -25.5 57.501c0 19.333 7.5 36.666 22.5 51.999s39.833 23.666 74.5 24.999v4c-23.333 5.33301 -40.166 13.833 -50.499 25.5s-15.5 25.167 -15.5 40.5c0 21.333 8.66699 39.333 26 54
s42.666 22 75.999 22c16 0 30.167 -1.5 42.5 -4.5s23.166 -7.16699 32.499 -12.5l-20 -53c-6 3.33301 -13.167 6.16602 -21.5 8.49902s-16.5 3.5 -24.5 3.5c-29.333 0 -44 -10.333 -44 -31c0 -11.333 4.16699 -20 12.5 -26s19.833 -9 34.5 -9h21v-50h-44
c-35.333 0 -53 -12.333 -53 -37c0 -21.333 17.667 -32 53 -32h27v-58h-49z" />
    <glyph glyph-name="uni0E4F" unicode="&#xe4f;" horiz-adv-x="642" 
d="M321 202c-24.667 0 -42.5 5.83301 -53.5 17.5s-16.5 26.5 -16.5 44.5v20c0 18 5.5 32.833 16.5 44.5s28.833 17.5 53.5 17.5s42.5 -5.83301 53.5 -17.5s16.5 -26.5 16.5 -44.5v-20c0 -18 -5.5 -32.833 -16.5 -44.5s-28.833 -17.5 -53.5 -17.5zM321 68
c50.667 0 91 14 121 42s45 69.333 45 124v80c0 54.667 -15 96 -45 124s-70.333 42 -121 42s-91 -14 -121 -42s-45 -69.333 -45 -124v-80c0 -54.667 15 -96 45 -124s70.333 -42 121 -42zM321 -12c-40 0 -76.333 6.49902 -109 19.499s-60.5 31.833 -83.5 56.5
s-40.833 54.667 -53.5 90s-19 75 -19 119s6.33301 83.833 19 119.5s30.5 65.834 53.5 90.501s50.833 43.667 83.5 57s69 20 109 20s76.333 -6.66699 109 -20s60.5 -32.333 83.5 -57s40.833 -54.667 53.5 -90s19 -75 19 -119s-6.33301 -83.667 -19 -119
s-30.5 -65.333 -53.5 -90s-50.833 -43.667 -83.5 -57s-69 -20 -109 -20z" />
    <glyph glyph-name="uni0E50" unicode="&#xe50;" horiz-adv-x="592" 
d="M296 68c44 0 78.833 12.167 104.5 36.5s38.5 59.833 38.5 106.5v76c0 46.667 -12.833 82.167 -38.5 106.5s-60.5 36.5 -104.5 36.5s-78.833 -12.167 -104.5 -36.5s-38.5 -59.833 -38.5 -106.5v-76c0 -46.667 12.833 -82.167 38.5 -106.5s60.5 -36.5 104.5 -36.5zM296 -12
c-36.667 0 -70 6 -100 18s-55.5 29.167 -76.5 51.5s-37.167 49.666 -48.5 81.999s-17 68.833 -17 109.5s5.66699 77 17 109s27.5 59.333 48.5 82s46.5 40 76.5 52s63.333 18 100 18s70 -6 100 -18s55.5 -29.333 76.5 -52s37.167 -50 48.5 -82s17 -68.333 17 -109
s-5.66699 -77.167 -17 -109.5s-27.5 -59.666 -48.5 -81.999s-46.5 -39.5 -76.5 -51.5s-63.333 -18 -100 -18z" />
    <glyph glyph-name="uni0E51" unicode="&#xe51;" horiz-adv-x="561" 
d="M172 37c36 0.666992 68.668 4.8291 98.001 12.4961s54.166 19.5 74.499 35.5s36 36.333 47 61s16.5 55 16.5 91v35c0 52 -13 91.667 -39 119s-60.667 41 -104 41c-19.333 0 -36.5 -2.66699 -51.5 -8s-28 -12.5 -39 -21.5s-19.333 -19.667 -25 -32
s-8.5 -25.166 -8.5 -38.499v-14c0 -24.667 6.33301 -45.167 19 -61.5s34.334 -24.5 65.001 -24.5c14 0 27 1 39 3l8 -73c-8 -3.33301 -17.5 -5.33301 -28.5 -6s-20.833 -1 -29.5 -1c-53.333 0 -94.833 14.333 -124.5 43s-44.5 69.334 -44.5 122.001
c0 28.667 5.33301 54.834 16 78.501s25.667 43.667 45 60s42.5 29 69.5 38s56.833 13.5 89.5 13.5c74 0 132.833 -22.167 176.5 -66.5s65.5 -107.5 65.5 -189.5c0 -49.333 -7.83301 -92.166 -23.5 -128.499s-37.834 -66.666 -66.501 -90.999s-63.167 -42.833 -103.5 -55.5
s-84.833 -19.334 -133.5 -20.001z" />
    <glyph glyph-name="uni0E52" unicode="&#xe52;" horiz-adv-x="771" 
d="M387 -12c-70 0 -125.498 6.83301 -166.498 20.5s-72.333 31 -94 52s-35.5 44.333 -41.5 70s-9 50.5 -9 74.5v390h93v-385c0 -47.333 12.667 -82.666 38 -105.999c13.333 -12 30.666 -21.167 51.999 -27.5s51 -9.5 89 -9.5h78c37.333 0 66.833 3.16699 88.5 9.5
s39.167 15.5 52.5 27.5c25.333 23.333 38 58.666 38 105.999v156c0 17.333 -2.83301 32.5 -8.5 45.5s-17.167 19.5 -34.5 19.5c-9.33301 0 -17.333 -2.33301 -24 -7s-12 -10.667 -16 -18s-7 -15.833 -9 -25.5s-3.33301 -19.5 -4 -29.5h-60c-2 21.333 -6.33301 40 -13 56
s-19.334 24 -38.001 24c-16.667 0 -28.334 -6.33301 -35.001 -19s-10 -28.334 -10 -47.001v-43c0 -20 4.66699 -36.667 14 -50s26 -20 50 -20h14c4 0 9 0.666992 15 2l8 -63c-19.333 -4 -38 -6 -56 -6c-48 0 -83 14.5 -105 43.5s-33 69.167 -33 120.5
c0 48 9.5 86.833 28.5 116.5s48.5 44.5 88.5 44.5c26 0 47.833 -7.16699 65.5 -21.5s29.167 -34.5 34.5 -60.5h7c5.33301 26 16.666 46.167 33.999 60.5s39.333 21.5 66 21.5c38.667 0 67.334 -13 86.001 -39s28 -59.333 28 -100v-166c0 -24 -3 -48.667 -9 -74
s-19.667 -48.666 -41 -69.999s-52.666 -38.833 -93.999 -52.5s-97 -20.5 -167 -20.5z" />
    <glyph glyph-name="uni0E53" unicode="&#xe53;" horiz-adv-x="726" 
d="M278 -12c-36 0 -67.668 6.33496 -95.001 19.002s-50.5 30.667 -69.5 54s-33.333 51.666 -43 84.999s-14.5 71 -14.5 113c0 81.333 14.667 143.5 44 186.5s73.333 64.5 132 64.5c18.667 0 35 -2.5 49 -7.5s26.167 -11.5 36.5 -19.5s18.5 -16.833 24.5 -26.5
s10.333 -19.167 13 -28.5h6c2.66699 9.33301 7.16699 18.833 13.5 28.5s15 18.5 26 26.5s24.333 14.5 40 19.5s34.5 7.5 56.5 7.5c50 0 88 -15 114 -45s39 -70.667 39 -122v-343h-93v333c0 30 -6 53.833 -18 71.5s-32 26.5 -60 26.5c-26.667 0 -46.5 -8.83301 -59.5 -26.5
s-19.5 -38.5 -19.5 -62.5v-166h-88v166c0 24 -5.33301 44.833 -16 62.5s-29 26.5 -55 26.5c-29.333 0 -51 -12.333 -65 -37s-21 -60.667 -21 -108v-53c0 -51.333 11 -91.833 33 -121.5s57.667 -44.5 107 -44.5c6.66699 0 13.834 0.333008 21.501 1s15.5 1.66699 23.5 3
l11 -77c-11.333 -2.66699 -23.5 -4.33398 -36.5 -5.00098s-25.167 -1 -36.5 -1z" />
    <glyph glyph-name="uni0E54" unicode="&#xe54;" horiz-adv-x="556" 
d="M304 0c-79.333 0 -140.833 20.499 -184.5 61.499s-65.5 100.833 -65.5 179.5c0 38.667 5.66699 70.834 17 96.501s26 47 44 64s37.833 30.167 59.5 39.5s42.834 17 63.501 23l112 30c15.333 4 26.666 8.16699 33.999 12.5s12 12.833 14 25.5l9 63h90l-11 -76
c-2 -12 -4.83301 -22.333 -8.5 -31s-9.5 -16.5 -17.5 -23.5s-18.833 -13.333 -32.5 -19s-31.167 -11.5 -52.5 -17.5l-106 -28c-39.333 -11.333 -68.5 -27.333 -87.5 -48s-28.5 -51 -28.5 -91v-49c0 -43.333 12.5 -76.333 37.5 -99s62.833 -34 113.5 -34h124v5
c-14 4 -27.5 9.33301 -40.5 16s-24.667 15.334 -35 26.001s-18.5 23.667 -24.5 39s-9 33.333 -9 54v13c0 23.333 8.16699 41.5 24.5 54.5s40.5 19.5 72.5 19.5h81v-79h-84v-31c0 -15.333 2.33301 -30 7 -44s11.167 -26.333 19.5 -37s18.833 -19.334 31.5 -26.001
s27 -10 43 -10v-79h-210z" />
    <glyph glyph-name="uni0E55" unicode="&#xe55;" horiz-adv-x="556" 
d="M304 0c-79.333 0 -140.834 20.5 -184.501 61.5s-65.5 100.833 -65.5 179.5c0 29.333 3.33301 54.833 10 76.5s15.834 40.5 27.501 56.5s25.167 29.333 40.5 40s31.666 19.667 48.999 27c-13.333 7.33301 -23.666 17 -30.999 29s-11 26.333 -11 43
c0 30 9.5 53.667 28.5 71s44.5 26 76.5 26c31.333 0 56.333 -8.33301 75 -25s28 -38 28 -64c0 -10 -2.33301 -20.667 -7 -32l14 3c14 3.33301 24.333 7.5 31 12.5s11 14.167 13 27.5l9 63h90l-11 -76c-2 -12 -4.83301 -22.333 -8.5 -31s-9.5 -16.5 -17.5 -23.5
s-18.833 -13.333 -32.5 -19s-31.167 -11.5 -52.5 -17.5l-106 -28c-39.333 -11.333 -68.5 -27.333 -87.5 -48s-28.5 -51 -28.5 -91v-49c0 -43.333 12.5 -76.333 37.5 -99s62.833 -34 113.5 -34h124v5c-14 4 -27.5 9.33301 -40.5 16s-24.667 15.334 -35 26.001
s-18.5 23.667 -24.5 39s-9 33.333 -9 54v13c0 23.333 8.16699 41.5 24.5 54.5s40.5 19.5 72.5 19.5h81v-79h-84v-31c0 -15.333 2.33301 -30 7 -44s11.167 -26.333 19.5 -37s18.833 -19.334 31.5 -26.001s27 -10 43 -10v-79h-210zM243.999 464c30.667 0 46 14 46 42v10
c0 28 -15.333 42 -46 42s-46 -14 -46 -42v-10c0 -28 15.333 -42 46 -42z" />
    <glyph glyph-name="uni0E56" unicode="&#xe56;" horiz-adv-x="569" 
d="M273 -12c-52 0 -95.166 11.3311 -129.499 33.998s-60.166 54.334 -77.499 95.001l69 40c13.333 -28 30.833 -50.167 52.5 -66.5s49.5 -24.5 83.5 -24.5c44 0 79.167 12.5 105.5 37.5s39.5 61.167 39.5 108.5v80c0 45.333 -12 80 -36 104s-56 36 -96 36
c-40.667 0 -71.667 -9.83301 -93 -29.5s-37 -45.5 -47 -77.5l-79 7l-45 263h90l29 -197h5c11.333 36 31.5 63.667 60.5 83s63.5 29 103.5 29c31.333 0 59.666 -6 84.999 -18s47 -29 65 -51s32 -49 42 -81s15 -68 15 -108c0 -41.333 -5.83301 -78.166 -17.5 -110.499
s-28 -60 -49 -83s-46.333 -40.5 -76 -52.5s-62.834 -18 -99.501 -18z" />
    <glyph glyph-name="uni0E57" unicode="&#xe57;" horiz-adv-x="843" 
d="M263 -12c-33.333 0 -62.832 6.33496 -88.499 19.002s-47.334 30.667 -65.001 54s-31 51.666 -40 84.999s-13.5 71 -13.5 113c0 82 11.833 144.333 35.5 187s60.167 64 109.5 64c28 0 50.833 -7.16699 68.5 -21.5s29.167 -34.5 34.5 -60.5h5c6 26 18 46.167 36 60.5
s43 21.5 75 21.5c42 0 73.5 -13.333 94.5 -40s31.5 -65 31.5 -115v-286h31c31.333 0 55.333 11.667 72 35s25 56.666 25 99.999v391h93v-402c0 -59.333 -16.5 -106.333 -49.5 -141s-79.833 -52 -140.5 -52h-124v355c0 22.667 -4.33301 41 -13 55s-23 21 -43 21
c-22.667 0 -38.334 -8 -47.001 -24s-13.667 -34.667 -15 -56h-61c-0.666992 10.667 -2 20.834 -4 30.501s-5 18.167 -9 25.5s-9.5 13.166 -16.5 17.499s-15.833 6.5 -26.5 6.5c-23.333 0 -39.666 -11.667 -48.999 -35s-14 -58.666 -14 -105.999v-57
c0 -52 9.83301 -92.667 29.5 -122s51.167 -44 94.5 -44c7.33301 0 14.833 0.333008 22.5 1s15.5 1.66699 23.5 3l11 -77c-12 -2.66699 -24.333 -4.33398 -37 -5.00098s-24.667 -1 -36 -1z" />
    <glyph glyph-name="uni0E58" unicode="&#xe58;" horiz-adv-x="608" 
d="M200 -12c-22 0 -42.166 3.83496 -60.499 11.502s-34 20.5 -47 38.5s-23.167 41.5 -30.5 70.5s-11 64.833 -11 107.5s5 78.834 15 108.501s23.5 54 40.5 73s36.667 33.667 59 44s45.833 17.833 70.5 22.5l175 30c15.333 3.33301 26.833 7.16602 34.5 11.499
s12.167 13.166 13.5 26.499l9 63h90l-11 -76c-2 -13.333 -5 -24.833 -9 -34.5s-10 -18.167 -18 -25.5s-18.667 -13.5 -32 -18.5s-30.333 -9.16699 -51 -12.5l-170 -28c-36.667 -6 -65.167 -21.333 -85.5 -46s-30.5 -62.667 -30.5 -114v-57c0 -23.333 1.5 -42.5 4.5 -57.5
s7.33301 -26.833 13 -35.5s12.667 -14.667 21 -18s17.5 -5 27.5 -5c21.333 0 36 8.66699 44 26s12 40.666 12 69.999v25h72v-25c0 -29.333 5.33301 -52.666 16 -69.999s27.667 -26 51 -26c42 0 63 22.667 63 68v43c0 19.333 -4.33301 33.666 -13 42.999s-20.667 14 -36 14
c-2.66699 0 -5.83398 -0.166992 -9.50098 -0.5s-9.16699 -1.16602 -16.5 -2.49902l-8 67c8.66699 2 17.167 3.5 25.5 4.5s15.833 1.5 22.5 1.5c36 0 66.167 -11.833 90.5 -35.5s36.5 -60.834 36.5 -111.501c0 -58.667 -13 -101.667 -39 -129s-60.333 -41 -103 -41
c-34 0 -60.5 7.33301 -79.5 22s-31.167 35.334 -36.5 62.001h-5c-5.33301 -26.667 -16 -47.334 -32 -62.001s-40 -22 -72 -22z" />
    <glyph glyph-name="uni0E59" unicode="&#xe59;" horiz-adv-x="664" 
d="M239 -10c-60 0 -105.503 22.834 -136.503 68.501s-46.5 114.167 -46.5 205.5c0 79.333 14.667 140.166 44 182.499s71 63.5 125 63.5c41.333 0 74.833 -12 100.5 -36s44.5 -55.333 56.5 -94l5 1c-1.33301 6 -2.16602 11.333 -2.49902 16s-0.5 9.66699 -0.5 15
c0 32 8.5 56.333 25.5 73s37.5 25 61.5 25c32.667 0 56.167 -10.667 70.5 -32s21.833 -48 22.5 -80h4l27 197h90l-43 -260l-79 -7c0 32 -7.66699 57.167 -23 75.5s-35 27.5 -59 27.5c-17.333 0 -32.333 -6.16699 -45 -18.5s-19 -31.5 -19 -57.5
c0 -18 3.33301 -37.333 10 -58l91 -297h-101l-100 332c-9.33301 31.333 -20.666 55.666 -33.999 72.999s-31.666 26 -54.999 26c-24 0 -42.167 -10.333 -54.5 -31s-18.5 -49.667 -18.5 -87v-103c0 -41.333 7.66699 -75.5 23 -102.5s39.666 -40.5 72.999 -40.5h13
c4.66699 0 10.667 0.666992 18 2l6 -76c-7.33301 -1.33301 -15.166 -2.16602 -23.499 -2.49902s-16.833 -0.5 -25.5 -0.5z" />
    <glyph glyph-name="uni0E5A" unicode="&#xe5a;" horiz-adv-x="744" 
d="M569 548h93v-548h-93v548zM359 421l-4 -0.00195312c-4.66699 -12 -11 -23.667 -19 -35s-18.167 -21.166 -30.5 -29.499s-27.333 -15.166 -45 -20.499s-38.5 -8 -62.5 -8c-48 0 -86.5 13.333 -115.5 40s-43.5 67.667 -43.5 123v57h93v-44c0 -34 8.5 -58.667 25.5 -74
s40.5 -23 70.5 -23h18c33.333 0 60.5 8.16699 81.5 24.5s31.5 40.833 31.5 73.5v43h93v-548h-93v421z" />
    <glyph glyph-name="uni0E5B" unicode="&#xe5b;" horiz-adv-x="1419" 
d="M319 -12c-81.333 0 -145.332 24 -191.999 72s-70 119.333 -70 214c0 46.667 5.83301 87.834 17.5 123.501s28.334 65.5 50.001 89.5s47.5 42.167 77.5 54.5s63.667 18.5 101 18.5c44 0 80.667 -6.66699 110 -20s52 -29.666 68 -48.999l-51 -60
c-13.333 14 -29.5 25.833 -48.5 35.5s-43.5 14.5 -73.5 14.5c-44 0 -80.333 -14.333 -109 -43s-43 -70.334 -43 -125.001v-78c0 -54.667 14.667 -96.334 44 -125.001s70 -43 122 -43c36.667 0 69.834 7.33301 99.501 22s55.667 38.667 78 72s41 77 56 131
s26.167 120.667 33.5 200h95l95 -297h2l81 257h76l70 -225h3l63 199h75c4.66699 -23.333 10.667 -44.333 18 -63s16.666 -34.5 27.999 -47.5s25.166 -22.833 41.499 -29.5s36.166 -10 59.499 -10h66v-79h-69c-22.667 0 -42.667 2.16699 -60 6.5s-33 11.5 -47 21.5
s-26.5 23 -37.5 39s-21.5 35.333 -31.5 58h-2l-69 -216h-75l-71 224h-3l-80 -256h-76l-93 296h-2c-10.667 -70 -26.167 -129.333 -46.5 -178s-44.5 -88 -72.5 -118s-59.5 -51.833 -94.5 -65.5s-72.833 -20.5 -113.5 -20.5z" />
    <glyph glyph-name="uni1E9E" unicode="&#x1e9e;" horiz-adv-x="706" 
d="M658 200c0 -32.667 -5.16895 -62.1689 -15.502 -88.502s-25.166 -48.666 -44.499 -66.999s-42.666 -32.333 -69.999 -42s-58 -14.5 -92 -14.5c-88 0 -154 30 -198 90l65 58c16.667 -21.333 36 -37.666 58 -48.999s47 -17 75 -17c38.667 0 68.334 10.333 89.001 31
s31 48 31 82v31c0 34 -10.333 61.167 -31 81.5s-51.334 30.5 -92.001 30.5h-95v85l175 203h-326v-614h-97v698h520v-93l-170 -198v-4c32 -0.666992 61.333 -5.5 88 -14.5s49.667 -22 69 -39s34.333 -38 45 -63s16 -53.833 16 -86.5z" />
    <glyph glyph-name="uni200B" unicode="&#x200b;" horiz-adv-x="0" 
 />
    <glyph glyph-name="uni200C" unicode="&#x200c;" horiz-adv-x="0" 
 />
    <glyph glyph-name="uni200D" unicode="&#x200d;" horiz-adv-x="0" 
 />
    <glyph glyph-name="endash" unicode="&#x2013;" horiz-adv-x="588" 
d="M36 262v84h516v-84h-516z" />
    <glyph glyph-name="emdash" unicode="&#x2014;" horiz-adv-x="780" 
d="M36 262v84h708v-84h-708z" />
    <glyph glyph-name="quoteleft" unicode="&#x2018;" horiz-adv-x="277" 
d="M135 480c-23.333 0 -40.168 5.83008 -50.501 17.4971s-15.5 26.834 -15.5 45.501v15c0 30 8.16699 61.833 24.5 95.5s39.5 62.834 69.5 87.501h73c-20.667 -21.333 -37.5 -41.666 -50.5 -60.999s-22.5 -40.666 -28.5 -63.999c15.333 -3.33301 26.5 -10 33.5 -20
s10.5 -22.667 10.5 -38v-15c0 -18.667 -5.16699 -33.834 -15.5 -45.501s-27.166 -17.5 -50.499 -17.5z" />
    <glyph glyph-name="quoteright" unicode="&#x2019;" horiz-adv-x="277" 
d="M142 750c23.333 0 40.168 -5.83008 50.501 -17.4971s15.5 -26.834 15.5 -45.501v-15c0 -30 -8.16699 -61.833 -24.5 -95.5s-39.5 -62.834 -69.5 -87.501h-73c20.667 21.333 37.5 41.666 50.5 60.999s22.5 40.666 28.5 63.999c-15.333 3.33301 -26.5 10 -33.5 20
s-10.5 22.667 -10.5 38v15c0 18.667 5.16699 33.834 15.5 45.501s27.166 17.5 50.499 17.5z" />
    <glyph glyph-name="quotesinglbase" unicode="&#x201a;" horiz-adv-x="280" 
d="M136 143c23.333 0 40.168 -5.83008 50.501 -17.4971s15.5 -26.834 15.5 -45.501v-15c0 -30 -8.16699 -61.833 -24.5 -95.5s-39.5 -62.834 -69.5 -87.501h-73c20.667 21.333 37.5 41.666 50.5 60.999s22.5 40.666 28.5 63.999c-15.333 3.33301 -26.5 10 -33.5 20
s-10.5 22.667 -10.5 38v15c0 18.667 5.16699 33.834 15.5 45.501s27.166 17.5 50.499 17.5z" />
    <glyph glyph-name="quotedblleft" unicode="&#x201c;" horiz-adv-x="484" 
d="M135 480c-23.333 0 -40.168 5.83008 -50.501 17.4971s-15.5 26.834 -15.5 45.501v15c0 30 8.16699 61.833 24.5 95.5s39.5 62.834 69.5 87.501h73c-20.667 -21.333 -37.5 -41.666 -50.5 -60.999s-22.5 -40.666 -28.5 -63.999c15.333 -3.33301 26.5 -10 33.5 -20
s10.5 -22.667 10.5 -38v-15c0 -18.667 -5.16699 -33.834 -15.5 -45.501s-27.166 -17.5 -50.499 -17.5zM341.998 479.997c-23.333 0 -40.168 5.83008 -50.501 17.4971s-15.5 26.834 -15.5 45.501v15c0 30 8.16699 61.833 24.5 95.5s39.5 62.834 69.5 87.501h73
c-20.667 -21.333 -37.5 -41.666 -50.5 -60.999s-22.5 -40.666 -28.5 -63.999c15.333 -3.33301 26.5 -10 33.5 -20s10.5 -22.667 10.5 -38v-15c0 -18.667 -5.16699 -33.834 -15.5 -45.501s-27.166 -17.5 -50.499 -17.5z" />
    <glyph glyph-name="quotedblright" unicode="&#x201d;" horiz-adv-x="484" 
d="M142 750c23.333 0 40.168 -5.83008 50.501 -17.4971s15.5 -26.834 15.5 -45.501v-15c0 -30 -8.16699 -61.833 -24.5 -95.5s-39.5 -62.834 -69.5 -87.501h-73c20.667 21.333 37.5 41.666 50.5 60.999s22.5 40.666 28.5 63.999c-15.333 3.33301 -26.5 10 -33.5 20
s-10.5 22.667 -10.5 38v15c0 18.667 5.16699 33.834 15.5 45.501s27.166 17.5 50.499 17.5zM349.002 750.003c23.333 0 40.168 -5.83008 50.501 -17.4971s15.5 -26.834 15.5 -45.501v-15c0 -30 -8.16699 -61.833 -24.5 -95.5s-39.5 -62.834 -69.5 -87.501h-73
c20.667 21.333 37.5 41.666 50.5 60.999s22.5 40.666 28.5 63.999c-15.333 3.33301 -26.5 10 -33.5 20s-10.5 22.667 -10.5 38v15c0 18.667 5.16699 33.834 15.5 45.501s27.166 17.5 50.499 17.5z" />
    <glyph glyph-name="quotedblbase" unicode="&#x201e;" horiz-adv-x="486" 
d="M136 143c23.333 0 40.168 -5.83008 50.501 -17.4971s15.5 -26.834 15.5 -45.501v-15c0 -30 -8.16699 -61.833 -24.5 -95.5s-39.5 -62.834 -69.5 -87.501h-73c20.667 21.333 37.5 41.666 50.5 60.999s22.5 40.666 28.5 63.999c-15.333 3.33301 -26.5 10 -33.5 20
s-10.5 22.667 -10.5 38v15c0 18.667 5.16699 33.834 15.5 45.501s27.166 17.5 50.499 17.5zM342.002 143.003c23.333 0 40.168 -5.83008 50.501 -17.4971s15.5 -26.834 15.5 -45.501v-15c0 -30 -8.16699 -61.833 -24.5 -95.5s-39.5 -62.834 -69.5 -87.501h-73
c20.667 21.333 37.5 41.666 50.5 60.999s22.5 40.666 28.5 63.999c-15.333 3.33301 -26.5 10 -33.5 20s-10.5 22.667 -10.5 38v15c0 18.667 5.16699 33.834 15.5 45.501s27.166 17.5 50.499 17.5z" />
    <glyph glyph-name="dagger" unicode="&#x2020;" horiz-adv-x="546" 
d="M233 -200v646h-188v72h188v222h80v-222h188v-72h-188v-646h-80z" />
    <glyph glyph-name="daggerdbl" unicode="&#x2021;" horiz-adv-x="550" 
d="M234 -200v222h-187v72h187v352h-187v72h187v222h81v-222h188v-72h-188v-352h188v-72h-188v-222h-81z" />
    <glyph glyph-name="bullet" unicode="&#x2022;" horiz-adv-x="402" 
d="M201 177c-23.333 0 -43.166 2.83301 -59.499 8.5s-29.5 13.334 -39.5 23.001s-17.333 21.167 -22 34.5s-7 27.666 -7 42.999v29c0 15.333 2.33301 29.666 7 42.999s12 24.833 22 34.5s23.167 17.334 39.5 23.001s36.166 8.5 59.499 8.5s43.166 -2.83301 59.499 -8.5
s29.5 -13.334 39.5 -23.001s17.333 -21.167 22 -34.5s7 -27.666 7 -42.999v-29c0 -15.333 -2.33301 -29.666 -7 -42.999s-12 -24.833 -22 -34.5s-23.167 -17.334 -39.5 -23.001s-36.166 -8.5 -59.499 -8.5z" />
    <glyph glyph-name="ellipsis" unicode="&#x2026;" horiz-adv-x="818" 
d="M139 -12c-23.333 0 -40.166 5.83301 -50.499 17.5s-15.5 26.5 -15.5 44.5v15c0 18 5.16699 32.833 15.5 44.5s27.166 17.5 50.499 17.5s40.166 -5.83301 50.499 -17.5s15.5 -26.5 15.5 -44.5v-15c0 -18 -5.16699 -32.833 -15.5 -44.5s-27.166 -17.5 -50.499 -17.5z
M409 -12c-23.333 0 -40.166 5.83301 -50.499 17.5s-15.5 26.5 -15.5 44.5v15c0 18 5.16699 32.833 15.5 44.5s27.166 17.5 50.499 17.5s40.166 -5.83301 50.499 -17.5s15.5 -26.5 15.5 -44.5v-15c0 -18 -5.16699 -32.833 -15.5 -44.5s-27.166 -17.5 -50.499 -17.5zM679 -12
c-23.333 0 -40.166 5.83301 -50.499 17.5s-15.5 26.5 -15.5 44.5v15c0 18 5.16699 32.833 15.5 44.5s27.166 17.5 50.499 17.5s40.166 -5.83301 50.499 -17.5s15.5 -26.5 15.5 -44.5v-15c0 -18 -5.16699 -32.833 -15.5 -44.5s-27.166 -17.5 -50.499 -17.5z" />
    <glyph glyph-name="perthousand" unicode="&#x2030;" horiz-adv-x="1324" 
d="M183 0l484 698h88l-484 -698h-88zM225 314c-52 0 -92.167 16.833 -120.5 50.5s-42.5 82.834 -42.5 147.501s14.167 113.834 42.5 147.501s68.5 50.5 120.5 50.5s92.167 -16.833 120.5 -50.5s42.5 -82.834 42.5 -147.501s-14.167 -113.834 -42.5 -147.501
s-68.5 -50.5 -120.5 -50.5zM225 373c53.333 0 80 36.667 80 110v58c0 73.333 -26.667 110 -80 110s-80 -36.667 -80 -110v-58c0 -73.333 26.667 -110 80 -110zM713 -12c-52 0 -92.167 16.833 -120.5 50.5s-42.5 82.834 -42.5 147.501s14.167 113.834 42.5 147.501
s68.5 50.5 120.5 50.5s92.167 -16.833 120.5 -50.5s42.5 -82.834 42.5 -147.501s-14.167 -113.834 -42.5 -147.501s-68.5 -50.5 -120.5 -50.5zM713 47c53.333 0 80 36.667 80 110v58c0 73.333 -26.667 110 -80 110s-80 -36.667 -80 -110v-58c0 -73.333 26.667 -110 80 -110z
M1099 -12c-52 0 -92.167 16.833 -120.5 50.5s-42.5 82.834 -42.5 147.501s14.167 113.834 42.5 147.501s68.5 50.5 120.5 50.5s92.167 -16.833 120.5 -50.5s42.5 -82.834 42.5 -147.501s-14.167 -113.834 -42.5 -147.501s-68.5 -50.5 -120.5 -50.5zM1099 47
c53.333 0 80 36.667 80 110v58c0 73.333 -26.667 110 -80 110s-80 -36.667 -80 -110v-58c0 -73.333 26.667 -110 80 -110z" />
    <glyph glyph-name="guilsinglleft" unicode="&#x2039;" horiz-adv-x="307" 
d="M227 75l-191 165v84l191 165l28 -61l-134 -146l134 -146z" />
    <glyph glyph-name="guilsinglright" unicode="&#x203a;" horiz-adv-x="307" 
d="M52 136l134 146l-134 146l28 61l191 -165v-84l-191 -165z" />
    <glyph glyph-name="fraction" unicode="&#x2044;" horiz-adv-x="152" 
d="M-211 0l494 698h80l-494 -698h-80z" />
    <glyph glyph-name="uni2060" unicode="&#x2060;" horiz-adv-x="0" 
 />
    <glyph glyph-name="uni2070" unicode="&#x2070;" horiz-adv-x="376" 
d="M188 324c-50.667 0 -88 16.5 -112 49.5s-36 79.833 -36 140.5s12 107.5 36 140.5s61.333 49.5 112 49.5s88 -16.5 112 -49.5s36 -79.833 36 -140.5s-12 -107.5 -36 -140.5s-61.333 -49.5 -112 -49.5zM188 381c27.333 0 46.166 8.83301 56.499 26.5s15.5 42.167 15.5 73.5
v66c0 31.333 -5.16699 55.833 -15.5 73.5s-29.166 26.5 -56.499 26.5s-46.166 -8.83301 -56.499 -26.5s-15.5 -42.167 -15.5 -73.5v-66c0 -31.333 5.16699 -55.833 15.5 -73.5s29.166 -26.5 56.499 -26.5z" />
    <glyph glyph-name="uni2074" unicode="&#x2074;" horiz-adv-x="346" 
d="M204 329v72h-185v58l161 239h91v-244h54v-53h-54v-72h-67zM204 631h-5l-120 -177h125v177z" />
    <glyph glyph-name="uni2075" unicode="&#x2075;" horiz-adv-x="350" 
d="M294 641l-178.999 0.00195312l-11 -127h4c9.33301 15.333 20 28 32 38s29.667 15 53 15c34.667 0 63.667 -10.333 87 -31s35 -49 35 -85c0 -38 -12.667 -68.833 -38 -92.5s-61.333 -35.5 -108 -35.5c-36.667 0 -65.334 6.83301 -86.001 20.5s-37 29.5 -49 47.5l50 38
c9.33301 -14.667 20.333 -26.667 33 -36s30.334 -14 53.001 -14c23.333 0 41 5.66699 53 17s18 26.666 18 45.999v6c0 19.333 -6 34.666 -18 45.999s-29.667 17 -53 17c-17.333 0 -30.833 -2.83301 -40.5 -8.5s-17.834 -12.167 -24.501 -19.5l-58 8l14 207h233v-57z" />
    <glyph glyph-name="uni2076" unicode="&#x2076;" horiz-adv-x="359" 
d="M181 323c-46 0 -81.5 12.999 -106.5 38.999s-37.5 61.333 -37.5 106c0 26 4.33301 50.667 13 74s19.834 44.833 33.501 64.5s29 37.167 46 52.5s33.833 28.333 50.5 39h96c-23.333 -16 -44.333 -31.167 -63 -45.5s-34.834 -28.833 -48.501 -43.5s-25 -30 -34 -46
s-15.833 -33.333 -20.5 -52l4 -1c8 14 19 26.5 33 37.5s33.667 16.5 59 16.5c34 0 62.333 -10.167 85 -30.5s34 -48.166 34 -83.499c0 -38 -13 -68.667 -39 -92s-61 -35 -105 -35zM181 375.999c21.333 0 38.5 5.33301 51.5 16s19.5 26.667 19.5 48v7
c0 21.333 -6.5 37.333 -19.5 48s-30.167 16 -51.5 16s-38.5 -5.33301 -51.5 -16s-19.5 -26.667 -19.5 -48v-7c0 -21.333 6.5 -37.333 19.5 -48s30.167 -16 51.5 -16z" />
    <glyph glyph-name="uni2077" unicode="&#x2077;" horiz-adv-x="332" 
d="M89 329l144 313h-145v-68h-60v124h275v-59l-139 -310h-75z" />
    <glyph glyph-name="uni2078" unicode="&#x2078;" horiz-adv-x="373" 
d="M186 323c-47.333 0 -83.5 10.167 -108.5 30.5s-37.5 45.833 -37.5 76.5c0 24 7.5 43.5 22.5 58.5s34.167 25.5 57.5 31.5v4c-20 6.66699 -36.167 17 -48.5 31s-18.5 31.667 -18.5 53c0 28.667 11.5 51.834 34.5 69.501s55.833 26.5 98.5 26.5s75.5 -8.83301 98.5 -26.5
s34.5 -40.834 34.5 -69.501c0 -21.333 -6.16699 -39 -18.5 -53s-28.5 -24.333 -48.5 -31v-4c24 -6 43.333 -16.5 58 -31.5s22 -34.5 22 -58.5c0 -30.667 -12.5 -56.167 -37.5 -76.5s-61.167 -30.5 -108.5 -30.5zM186 544c43.333 0 65 16.333 65 49v9
c0 32.667 -21.667 49 -65 49s-65 -16.333 -65 -49v-9c0 -32.667 21.667 -49 65 -49zM186 376c23.333 0 41 4.66699 53 14s18 22.333 18 39v12c0 16.667 -6 29.667 -18 39s-29.667 14 -53 14s-41 -4.66699 -53 -14s-18 -22.333 -18 -39v-12c0 -16.667 6 -29.667 18 -39
s29.667 -14 53 -14z" />
    <glyph glyph-name="uni2079" unicode="&#x2079;" horiz-adv-x="359" 
d="M322 559c0 -26 -4.33203 -50.668 -12.999 -74.001s-19.834 -44.833 -33.501 -64.5s-29 -37.167 -46 -52.5s-33.833 -28.333 -50.5 -39h-96c23.333 16 44.333 31.167 63 45.5s34.834 28.833 48.501 43.5s25 29.834 34 45.501s15.833 33.167 20.5 52.5l-5 1
c-7.33301 -14.667 -18 -27.5 -32 -38.5s-33.667 -16.5 -59 -16.5c-34 0 -62.333 10.333 -85 31s-34 48.667 -34 84c0 38 13 68.667 39 92s61 35 105 35c45.333 0 80.666 -13 105.999 -39s38 -61.333 38 -106zM178.001 514.999c21.333 0 38.5 5.33301 51.5 16
s19.5 26.667 19.5 48v8c0 21.333 -6.5 37.333 -19.5 48s-30.167 16 -51.5 16s-38.5 -5.33301 -51.5 -16s-19.5 -26.667 -19.5 -48v-8c0 -21.333 6.5 -37.333 19.5 -48s30.167 -16 51.5 -16z" />
    <glyph glyph-name="uni2080" unicode="&#x2080;" horiz-adv-x="376" 
d="M188 -6c-50.667 0 -88 16.5 -112 49.5s-36 79.833 -36 140.5s12 107.5 36 140.5s61.333 49.5 112 49.5s88 -16.5 112 -49.5s36 -79.833 36 -140.5s-12 -107.5 -36 -140.5s-61.333 -49.5 -112 -49.5zM188 51c27.333 0 46.166 8.83301 56.499 26.5s15.5 42.167 15.5 73.5
v66c0 31.333 -5.16699 55.833 -15.5 73.5s-29.166 26.5 -56.499 26.5s-46.166 -8.83301 -56.499 -26.5s-15.5 -42.167 -15.5 -73.5v-66c0 -31.333 5.16699 -55.833 15.5 -73.5s29.166 -26.5 56.499 -26.5z" />
    <glyph glyph-name="uni2081" unicode="&#x2081;" horiz-adv-x="355" 
d="M53 0v56h106v256h-6l-84 -87l-42 39l99 105h104v-313h94v-56h-271z" />
    <glyph glyph-name="uni2082" unicode="&#x2082;" horiz-adv-x="346" 
d="M313 0l-275.003 -0.00195312v63l128 102c20 16.667 35.167 32.334 45.5 47.001s15.5 30.334 15.5 47.001v6c0 16 -5.5 28.5 -16.5 37.5s-25.833 13.5 -44.5 13.5c-21.333 0 -37.666 -5.33301 -48.999 -16s-19.666 -23.667 -24.999 -39l-60 22c8 24.667 23 46.167 45 64.5
s53.333 27.5 94 27.5c42 0 74.333 -10.333 97 -31s34 -47 34 -79c0 -30 -9.16699 -55.833 -27.5 -77.5s-42.166 -43.167 -71.499 -64.5l-89 -67h199v-56z" />
    <glyph glyph-name="uni2083" unicode="&#x2083;" horiz-adv-x="347" 
d="M154 219c24.667 0 42.668 4.50195 54.001 13.502s17 20.5 17 34.5v4c0 15.333 -5.33301 27.166 -16 35.499s-25.667 12.5 -45 12.5c-35.333 0 -63 -14.667 -83 -44l-46 39c12.667 17.333 29.167 31.833 49.5 43.5s47.5 17.5 81.5 17.5c39.333 0 71.5 -8.5 96.5 -25.5
s37.5 -40.5 37.5 -70.5c0 -24 -7.66699 -43 -23 -57s-33.666 -23 -54.999 -27v-4c23.333 -4 43.166 -13.333 59.499 -28s24.5 -35 24.5 -61c0 -32.667 -13.333 -58.834 -40 -78.501s-62 -29.5 -106 -29.5c-38 0 -67.667 6.83301 -89 20.5s-38.333 29.5 -51 47.5l53 38
c9.33301 -14.667 20.5 -26.667 33.5 -36s30.833 -14 53.5 -14c23.333 0 41.166 5 53.499 15s18.5 24 18.5 42v5c0 17.333 -6.5 30 -19.5 38s-31.167 12 -54.5 12h-42v57h38z" />
    <glyph glyph-name="uni2084" unicode="&#x2084;" horiz-adv-x="346" 
d="M204 0v72h-185v58l161 239h91v-244h54v-53h-54v-72h-67zM204 302h-5l-120 -177h125v177z" />
    <glyph glyph-name="uni2085" unicode="&#x2085;" horiz-adv-x="350" 
d="M115 312l-10.999 -126.998h4c9.33301 15.333 20 28 32 38s29.667 15 53 15c34.667 0 63.667 -10.333 87 -31s35 -49 35 -85c0 -38 -12.667 -68.833 -38 -92.5s-61.333 -35.5 -108 -35.5c-36.667 0 -65.334 6.83301 -86.001 20.5s-37 29.5 -49 47.5l50 38
c9.33301 -14.667 20.333 -26.667 33 -36s30.334 -14 53.001 -14c23.333 0 41 5.66699 53 17s18 26.666 18 45.999v6c0 19.333 -6 34.666 -18 45.999s-29.667 17 -53 17c-17.333 0 -30.833 -2.83301 -40.5 -8.5s-17.834 -12.167 -24.501 -19.5l-58 8l14 207h233v-57h-179z
" />
    <glyph glyph-name="uni2086" unicode="&#x2086;" horiz-adv-x="359" 
d="M181 -6c-46 0 -81.5 12.999 -106.5 38.999s-37.5 61.333 -37.5 106c0 26 4.33301 50.667 13 74s19.834 44.833 33.501 64.5s29 37.167 46 52.5s33.833 28.333 50.5 39h96c-23.333 -16 -44.333 -31.167 -63 -45.5s-34.834 -28.833 -48.501 -43.5s-25 -30 -34 -46
s-15.833 -33.333 -20.5 -52l4 -1c8 14 19 26.5 33 37.5s33.667 16.5 59 16.5c34 0 62.333 -10.167 85 -30.5s34 -48.166 34 -83.499c0 -38 -13 -68.667 -39 -92s-61 -35 -105 -35zM181 46.999c21.333 0 38.5 5.33301 51.5 16s19.5 26.667 19.5 48v7
c0 21.333 -6.5 37.333 -19.5 48s-30.167 16 -51.5 16s-38.5 -5.33301 -51.5 -16s-19.5 -26.667 -19.5 -48v-7c0 -21.333 6.5 -37.333 19.5 -48s30.167 -16 51.5 -16z" />
    <glyph glyph-name="uni2087" unicode="&#x2087;" horiz-adv-x="332" 
d="M89 0l144 313h-145v-67h-60v123h275v-59l-139 -310h-75z" />
    <glyph glyph-name="uni2088" unicode="&#x2088;" horiz-adv-x="373" 
d="M186 -6c-47.333 0 -83.5 10.167 -108.5 30.5s-37.5 45.833 -37.5 76.5c0 24 7.5 43.5 22.5 58.5s34.167 25.5 57.5 31.5v4c-20 6.66699 -36.167 17 -48.5 31s-18.5 31.667 -18.5 53c0 28.667 11.5 51.834 34.5 69.501s55.833 26.5 98.5 26.5s75.5 -8.83301 98.5 -26.5
s34.5 -40.834 34.5 -69.501c0 -21.333 -6.16699 -39 -18.5 -53s-28.5 -24.333 -48.5 -31v-4c24 -6 43.333 -16.5 58 -31.5s22 -34.5 22 -58.5c0 -30.667 -12.5 -56.167 -37.5 -76.5s-61.167 -30.5 -108.5 -30.5zM186 47c23.333 0 41 4.66699 53 14s18 22.333 18 39v12
c0 16.667 -6 29.667 -18 39s-29.667 14 -53 14s-41 -4.66699 -53 -14s-18 -22.333 -18 -39v-12c0 -16.667 6 -29.667 18 -39s29.667 -14 53 -14zM186 215c43.333 0 65 16.333 65 49v9c0 32.667 -21.667 49 -65 49s-65 -16.333 -65 -49v-9c0 -32.667 21.667 -49 65 -49z" />
    <glyph glyph-name="uni2089" unicode="&#x2089;" horiz-adv-x="359" 
d="M322 230c0 -26 -4.33203 -50.668 -12.999 -74.001s-19.834 -44.833 -33.501 -64.5s-29 -37.167 -46 -52.5s-33.833 -28.333 -50.5 -39h-96c23.333 16 44.333 31.167 63 45.5s34.834 28.833 48.501 43.5s25 29.834 34 45.501s15.833 33.167 20.5 52.5l-5 1
c-7.33301 -14.667 -18 -27.5 -32 -38.5s-33.667 -16.5 -59 -16.5c-34 0 -62.333 10.333 -85 31s-34 48.667 -34 84c0 38 13 68.667 39 92s61 35 105 35c45.333 0 80.666 -13 105.999 -39s38 -61.333 38 -106zM178.001 185.999c21.333 0 38.5 5.33301 51.5 16
s19.5 26.667 19.5 48v8c0 21.333 -6.5 37.333 -19.5 48s-30.167 16 -51.5 16s-38.5 -5.33301 -51.5 -16s-19.5 -26.667 -19.5 -48v-8c0 -21.333 6.5 -37.333 19.5 -48s30.167 -16 51.5 -16z" />
    <glyph glyph-name="uni20A1" unicode="&#x20a1;" horiz-adv-x="626" 
d="M317 1c-8.66699 0.666992 -17.165 1.5 -25.498 2.5s-16.166 2.5 -23.499 4.5l-10 -90h-68l12 112c-46 24 -81.833 62.667 -107.5 116s-38.5 120.666 -38.5 201.999c0 99.333 18.833 177.833 56.5 235.5s90.167 93.834 157.5 108.501l9 88h69l-9 -82h5c16 0 31 -1 45 -3
l9 85h69l-11 -103c28.667 -11.333 53 -27.666 73 -48.999s37.333 -46.333 52 -75l-74 -48c-7.33301 17.333 -16 33 -26 47s-22 25.667 -36 35l-52 -499c28.667 7.33301 52.667 21 72 41s34.666 44 45.999 72l74 -51c-18.667 -38 -43.834 -70.333 -75.501 -97
s-72.834 -43.334 -123.501 -50.001l-9 -85h-69zM329.002 615l-54 -520c16 -7.33301 33.333 -11.333 52 -12l55 528c-6 1.33301 -12.833 2.33301 -20.5 3s-16.167 1 -25.5 1h-7zM158.002 293c0 -35.333 4.66797 -67 14.001 -95s23.666 -50.667 42.999 -68l47 470
c-33.333 -14 -59 -37.833 -77 -71.5s-27 -74.5 -27 -122.5v-113z" />
    <glyph glyph-name="uni20A4" unicode="&#x20a4;" horiz-adv-x="592" 
d="M530 0l-450.999 0.000976562v107c26.667 11.333 45.167 28.833 55.5 52.5s16.166 49.167 17.499 76.5h-97v71h89c-3.33301 15.333 -7.5 29.833 -12.5 43.5l-14.5 40.5h-62v71h44c-2 10.667 -3 23.334 -3 38.001c0 30.667 5.33301 59 16 85s26 48.167 46 66.5
s44.5 32.666 73.5 42.999s61.833 15.5 98.5 15.5c52 0 95.5 -10.167 130.5 -30.5s64.167 -48.5 87.5 -84.5l-72 -52c-17.333 26 -37.666 46.167 -60.999 60.5s-52 21.5 -86 21.5c-41.333 0 -73.833 -11.333 -97.5 -34s-35.5 -56.667 -35.5 -102
c0 -4.66699 0.166992 -9.33398 0.5 -14.001s0.833008 -9 1.5 -13h232v-71h-216l14 -41c4.66699 -14 8.66699 -28.333 12 -43h190v-71h-183c-2.66699 -34 -11.334 -63.667 -26.001 -89s-31 -44 -49 -56v-6h358v-85z" />
    <glyph glyph-name="uni20A6" unicode="&#x20a6;" horiz-adv-x="711" 
d="M366 235h-177v-235h-92v233h-82v71h82v91h-82v71h82v232h110l134 -234h182v234h91v-232h82v-71h-82v-91h82v-71h-82v-233h-113zM333 302l-141 255h-3v-255h144zM520 132h3v265h-149z" />
    <glyph glyph-name="uni20A8" unicode="&#x20a8;" horiz-adv-x="747" 
d="M90 0l0.000976562 697.998h185c60.667 0 106.667 -16.5 138 -49.5s47 -79.833 47 -140.5c0 -44 -8.33301 -80.833 -25 -110.5s-42 -51.167 -76 -64.5l91 -189c13.333 -27.333 27.5 -47.5 42.5 -60.5s34.833 -19.5 59.5 -19.5c23.333 0 41.333 5.33301 54 16
s19 25.667 19 45c0 6.66699 -0.666992 12.834 -2 18.501s-3.83301 11.334 -7.5 17.001s-8.83398 12.167 -15.501 19.5s-15.334 16.333 -26.001 27l-19 18c-28 27.333 -47.5 51.5 -58.5 72.5s-16.5 43.5 -16.5 67.5c0 36 11.667 65.5 35 88.5s55.666 34.5 96.999 34.5
c18 0 36 -2 54 -6s35 -11.667 51 -23l-35 -65c-18.667 14.667 -39.667 22 -63 22c-16 0 -28.667 -4.33301 -38 -13s-14 -20.667 -14 -36s4 -28.833 12 -40.5s21.667 -26.834 41 -45.501l16 -15c14.667 -14.667 27 -27.667 37 -39s18 -22.166 24 -32.499
s10.333 -20.833 13 -31.5s4 -23 4 -37c0 -40.667 -13.667 -73.834 -41 -99.501s-70.666 -38.5 -129.999 -38.5c-41.333 0 -76.166 8.33301 -104.499 25s-51.833 45.334 -70.5 86.001l-97 214h-87v-313h-94zM265.001 392.998c31.333 0 55.666 7.5 72.999 22.5
s26 37.167 26 66.5v45c0 29.333 -8.66699 51.5 -26 66.5s-41.666 22.5 -72.999 22.5h-81v-223h81z" />
    <glyph glyph-name="uni20A9" unicode="&#x20a9;" horiz-adv-x="965" 
d="M570 235h-182l-61 -235h-107l-56 234h-127v71h111l-21 90h-90v71h73l-55 232h96l51 -234h166l60 234h109l59 -233h169l53 233h95l-58 -231h73v-71h-91l-23 -91h114v-71h-131l-60 -234h-107zM341 361l9 36h-133l7 -36l54 -248h3zM685 114l56 247l8 37h-137l9 -36l61 -248
h3zM405 302h148l-12 47l-60 247h-2l-61 -247z" />
    <glyph glyph-name="uni20AA" unicode="&#x20aa;" horiz-adv-x="799" 
d="M266 533l90.999 0.000976562v-453h163c12.667 0 25 1.83301 37 5.5s22.5 9.5 31.5 17.5s16.167 18.667 21.5 32s8 30 8 50v513h91v-500c0 -33.333 -4.66699 -62.333 -14 -87s-22.166 -45.334 -38.499 -62.001s-36 -29 -59 -37s-47.833 -12 -74.5 -12h-257v533z
M89.999 0.000976562v698.002h259c54 0 98.167 -16.333 132.5 -49s51.5 -82.334 51.5 -149.001v-336h-91v349c0 39.333 -9.5 66.666 -28.5 81.999s-41.833 23 -68.5 23h-164v-618h-91z" />
    <glyph glyph-name="uni20AB" unicode="&#x20ab;" horiz-adv-x="578" 
d="M381 213l-4 0.00195312c-13.333 -24.667 -31.5 -44 -54.5 -58s-51.5 -21 -85.5 -21c-52.667 0 -94.667 17.667 -126 53s-47 87.666 -47 156.999s15.667 121.666 47 156.999s73.333 53 126 53c34 0 62.5 -7 85.5 -21s41.167 -33.333 54.5 -58h4v139h-144v67h144v59h90v-59
h66v-67h-66v-471h-90v70zM271 205.002c32.667 0 59.167 7.83496 79.5 23.502s30.5 36.167 30.5 61.5v108c0 25.333 -10.167 45.833 -30.5 61.5s-46.833 23.5 -79.5 23.5c-34.667 0 -62.334 -9.83301 -83.001 -29.5s-31 -45.834 -31 -78.501v-62
c0 -32.667 10.333 -58.834 31 -78.501s48.334 -29.5 83.001 -29.5zM67 0.00390625v71h432v-71h-432z" />
    <glyph glyph-name="Euro" unicode="&#x20ac;" horiz-adv-x="625" 
d="M341 -12c-44 0 -83.665 8.00293 -118.998 24.0029s-65.333 39.167 -90 69.5s-43.5 68 -56.5 113s-19.5 96.5 -19.5 154.5s6.5 109.5 19.5 154.5s31.833 82.667 56.5 113s54.667 53.5 90 69.5s75 24 119 24c60 0 109 -13.333 147 -40s68 -62.334 90 -107.001l-74 -47
c-14 34 -34.667 61 -62 81s-61 30 -101 30c-50 0 -90.333 -14.667 -121 -44s-50 -68.333 -58 -117h251v-71h-256v-92h256v-71h-251c9.33301 -49.333 29 -88.5 59 -117.5s70 -43.5 120 -43.5c41.333 0 76 10.833 104 32.5s49.667 50.5 65 86.5l74 -50
c-10.667 -21.333 -23.334 -41.333 -38.001 -60s-31.834 -34.834 -51.501 -48.501s-42.167 -24.334 -67.5 -32.001s-54 -11.5 -86 -11.5z" />
    <glyph glyph-name="uni20AD" unicode="&#x20ad;" horiz-adv-x="629" 
d="M190 0h-96v320h-85v79h85v299h96v-299h72l217 299h108l-225 -299h208v-79h-200l235 -320h-115l-226 320h-74v-320z" />
    <glyph glyph-name="uni20AE" unicode="&#x20ae;" horiz-adv-x="606" 
d="M352 215v-215h-97v168l-130 -62v73l130 62v87l-130 -63v73l130 63v212h-216v85h528v-85h-215v-165l132 63v-73l-132 -63v-87l132 64v-73z" />
    <glyph glyph-name="uni20B1" unicode="&#x20b1;" horiz-adv-x="640" 
d="M204 0l-96 -0.000976562v328h-81v69h81v91h-81v69h81v141h241c48.667 0 87.834 -12.167 117.501 -36.5s50.834 -59.166 63.501 -104.499h93v-69h-81c0.666992 -7.33301 1.16699 -14.833 1.5 -22.5s0.5 -15.167 0.5 -22.5c0 -8 -0.166992 -15.833 -0.5 -23.5
s-0.833008 -15.167 -1.5 -22.5h81v-69h-93c-12.667 -45.333 -33.834 -80.333 -63.501 -105s-68.834 -37 -117.501 -37h-145v-186zM204 553.999h236.999c-7.33301 20 -19.166 36 -35.499 48s-36.5 18 -60.5 18h-141v-66zM447.999 393.999v97h-244v-97h244zM344.999 262.999
c24.667 0 45.5 6 62.5 18s28.5 28.667 34.5 50h-238v-68h141z" />
    <glyph glyph-name="uni20B2" unicode="&#x20b2;" horiz-adv-x="674" 
d="M219 -82l17.998 98c-57.333 21.333 -101.833 59.5 -133.5 114.5s-47.5 127.833 -47.5 218.5c0 58 6.83301 108.833 20.5 152.5s32.834 80 57.501 109s54.334 50.833 89.001 65.5s73 22 115 22h17l14 82h73l-16 -93c76 -22 131.333 -69.333 166 -142l-78 -43
c-19.333 50 -54.666 84 -105.999 102l-42 -240h240v-106c0 -50 -8.5 -91.667 -25.5 -125s-38.667 -59.833 -65 -79.5s-55.333 -33.5 -87 -41.5s-61.834 -12 -90.501 -12h-16c-5.33301 -0 -10.333 0.333008 -15 1l-15 -83h-73zM157.998 293
c0 -97.333 31.999 -161.334 95.999 -192.001l90 514h-6c-57.333 0 -101.666 -18.167 -132.999 -54.5s-47 -88.166 -47 -155.499v-112zM351.997 280.999l-33.999 -198h20c26 0 49.667 3.66699 71 11s39.666 17.666 54.999 30.999s27.333 29.833 36 49.5s13 41.834 13 66.501
v40h-161z" />
    <glyph glyph-name="uni20B4" unicode="&#x20b4;" horiz-adv-x="631" 
d="M320 -12c-33.333 0 -63 4.83398 -89 14.501s-48.333 23 -67 40s-32.834 37.167 -42.501 60.5s-14.5 49 -14.5 77c0 13.333 1 25.166 3 35.499s4.66699 20.166 8 29.499h-74v71h122l159 91h-281v71h372c6 12.667 9 28.334 9 47.001c0 34.667 -10.333 60.334 -31 77.001
s-49 25 -85 25c-26 0 -50.333 -5 -73 -15s-43.667 -26 -63 -48l-57 61c26 30 56.333 51.667 91 65s71 20 109 20c30 0 57.333 -4.16699 82 -12.5s46 -20.166 64 -35.499s31.833 -33.833 41.5 -55.5s14.5 -45.834 14.5 -72.501c0 -21.333 -3 -40 -9 -56h78v-71h-125l-158 -91
h283v-71h-374c-4 -8.66699 -7.16699 -17.834 -9.5 -27.501s-3.5 -20.167 -3.5 -31.5c0 -38 11.167 -66.833 33.5 -86.5s52.833 -29.5 91.5 -29.5c26.667 0 52.334 5.83301 77.001 17.5s50 31.5 76 59.5l56 -62c-25.333 -31.333 -56.333 -55.333 -93 -72s-77 -25 -121 -25z
" />
    <glyph glyph-name="uni20B5" unicode="&#x20b5;" horiz-adv-x="623" 
d="M219 -82l16.999 99.001c-58 21.333 -102.5 59.666 -133.5 114.999s-46.5 127.666 -46.5 216.999c0 57.333 6.66699 107.666 20 150.999s32.333 79.666 57 108.999s54.5 51.5 89.5 66.5s74.167 22.5 117.5 22.5h14l15 82h73l-16 -93
c36.667 -11.333 67.334 -28.166 92.001 -50.499s44.667 -49.833 60 -82.5l-74 -47c-19.333 45.333 -51.333 77.333 -96 96l-90 -519c3.33301 -0.666992 7 -1 11 -1h11c42 0 77 10.5 105 31.5s49 49.5 63 85.5l74 -49c-10 -21.333 -22.333 -41.166 -37 -59.499
s-31.667 -34.166 -51 -47.499s-41.833 -24 -67.5 -32s-54.5 -12 -86.5 -12h-16.5c-5.66699 -0 -11.167 0.333008 -16.5 1l-15 -83h-73zM157.999 293.001c0 -44 8.00098 -82.333 24.001 -115s40 -58 72 -76l89 513c-30 0 -56.333 -5 -79 -15s-41.834 -24.167 -57.501 -42.5
s-27.667 -40.333 -36 -66s-12.5 -54.5 -12.5 -86.5v-112z" />
    <glyph glyph-name="uni20B8" unicode="&#x20b8;" horiz-adv-x="607" 
d="M39 621v77h529v-77h-529zM352 456v-456h-97v456h-216v77h529v-77h-216z" />
    <glyph glyph-name="uni20B9" unicode="&#x20b9;" horiz-adv-x="610" 
d="M385 0l-209.004 283.001h-121v77h210c34 0 61.167 7.66699 81.5 23s30.833 38.666 31.5 69.999h-323v77h323c-1.33301 30.667 -12.166 53.5 -32.499 68.5s-47.166 22.5 -80.499 22.5h-210v77h520v-77h-173v-4c4.66699 -0.666992 10.5 -2.16699 17.5 -4.5
s13.833 -6.83301 20.5 -13.5s12.834 -15.5 18.501 -26.5s9.83398 -25.167 12.501 -42.5h104v-77h-104c-6 -50 -24.833 -89.667 -56.5 -119s-74.5 -45.333 -128.5 -48l217 -286h-118z" />
    <glyph glyph-name="uni20BA" unicode="&#x20ba;" horiz-adv-x="607" 
d="M109 241l-94.999 -45.998v73l95 46v87l-95 -46v73l95 46v224h97v-178l204 98v-73l-204 -98v-87l204 98v-73l-204 -98v-204h97c53.333 0 94.833 19.167 124.5 57.5s44.5 93.166 44.5 164.499h94c0 -42.667 -5.33301 -82.5 -16 -119.5s-26.667 -69.333 -48 -97
s-47.833 -49.334 -79.5 -65.001s-68.834 -23.5 -111.501 -23.5h-202v241z" />
    <glyph glyph-name="uni20BD" unicode="&#x20bd;" horiz-adv-x="630" 
d="M206 126v-125.998h-97v126h-82v77h82v93h-82v77h82v325h284c63.333 0 112.166 -17.833 146.499 -53.5s51.5 -84.834 51.5 -147.501s-17.167 -111.834 -51.5 -147.501s-83.166 -53.5 -146.499 -53.5h-187v-93h263v-77h-263zM206 373.002h184
c31.333 0 55.666 7.83301 72.999 23.5s26 38.5 26 68.5v57c0 30 -8.66699 52.833 -26 68.5s-41.666 23.5 -72.999 23.5h-184v-241z" />
    <glyph glyph-name="uni20BF" unicode="&#x20bf;" horiz-adv-x="648" 
d="M337 21l-60.999 0.000976562v-103h-78v103h-108v656h108v103h78v-103h61v103h78v-104c47.333 -6 84.166 -23.833 110.499 -53.5s39.5 -67.834 39.5 -114.501c0 -44.667 -11.5 -77.834 -34.5 -99.501s-51.167 -35.167 -84.5 -40.5v-6c17.333 -2.66699 34.5 -7 51.5 -13
s32.333 -14.667 46 -26s24.834 -26.166 33.501 -44.499s13 -41.166 13 -68.499c0 -26.667 -4.5 -51.334 -13.5 -74.001s-21.167 -42.5 -36.5 -59.5s-33.833 -30.5 -55.5 -40.5s-44.834 -15 -69.501 -15v-103h-78v103zM185.001 397.001h192c59.333 0 89 27.667 89 83v30
c0 55.333 -29.667 83 -89 83h-192v-196zM185.001 105.001h199c33.333 0 59.5 7.33301 78.5 22s28.5 37 28.5 67v34c0 30 -9.5 52.333 -28.5 67s-45.167 22 -78.5 22h-199v-212z" />
    <glyph glyph-name="uni2113" unicode="&#x2113;" horiz-adv-x="500" 
d="M281 -12c-50 0 -89 15.668 -117 47.001s-42 72.666 -42 123.999v9c-8 -6 -16.667 -12 -26 -18l-26 -17l-39 63c15.333 9.33301 30.5 19.166 45.5 29.499l42.5 30.5v303c0 36 3.66699 66.333 11 91s17.666 44.5 30.999 59.5s29 25.833 47 32.5s37.667 10 59 10
c48.667 0 85.5 -14.667 110.5 -44s37.5 -72 37.5 -128c0 -32.667 -4.5 -64 -13.5 -94s-22.167 -59.5 -39.5 -88.5s-38.833 -57.667 -64.5 -86s-55.5 -57.5 -89.5 -87.5v-44c0 -40 6.83301 -68.5 20.5 -85.5s32.834 -25.5 57.501 -25.5c28 0 50.833 9.33301 68.5 28
s34.167 44.334 49.5 77.001l69 -40c-8.66699 -20.667 -19 -40 -31 -58s-25.833 -33.5 -41.5 -46.5s-33.5 -23.167 -53.5 -30.5s-42 -11 -66 -11zM271 673.001c-17.333 0 -32.167 -7.5 -44.5 -22.5s-18.5 -43.5 -18.5 -85.5v-243c38.667 40 68.5 80.5 89.5 121.5
s31.5 83.167 31.5 126.5v16c0 32 -5.33301 54.5 -16 67.5s-24.667 19.5 -42 19.5z" />
    <glyph glyph-name="uni2116" unicode="&#x2116;" horiz-adv-x="1034" 
d="M830 364c-23.333 0 -44.833 3.83301 -64.5 11.5s-36.834 18.834 -51.501 33.501s-26 32.667 -34 54s-12 46 -12 74s4 52.667 12 74s19.333 39.333 34 54s31.834 25.834 51.501 33.501s41.167 11.5 64.5 11.5s44.833 -3.83301 64.5 -11.5s36.834 -18.834 51.501 -33.501
s26 -32.667 34 -54s12 -46 12 -74s-4 -52.667 -12 -74s-19.333 -39.333 -34 -54s-31.834 -25.834 -51.501 -33.501s-41.167 -11.5 -64.5 -11.5zM90 0v698h107l213 -389l90 -172h3v561h91v-698h-109l-222 400l-79 154h-3v-554h-91zM830 428c26 0 46.667 7.5 62 22.5
s23 35.167 23 60.5v52c0 25.333 -7.66699 45.5 -23 60.5s-36 22.5 -62 22.5s-46.667 -7.5 -62 -22.5s-23 -35.167 -23 -60.5v-52c0 -25.333 7.66699 -45.5 23 -60.5s36 -22.5 62 -22.5zM688 238v69h284v-69h-284z" />
    <glyph glyph-name="trademark" unicode="&#x2122;" horiz-adv-x="642" 
d="M116 417v233h-86v48h229v-48h-86v-233h-57zM295 417v281h68l67 -128h2l65 128h68v-281h-52v120l3 85h-4l-83 -153l-81 153h-4l3 -85v-120h-52z" />
    <glyph glyph-name="Omega" unicode="&#x2126;" horiz-adv-x="717" 
d="M56 86h159.001v9c-21.333 11.333 -41.333 25.833 -60 43.5s-35 38.5 -49 62.5s-25.167 51.167 -33.5 81.5s-12.5 63.5 -12.5 99.5c0 41.333 6 81.666 18 120.999s30.333 74.333 55 105s55.667 55.334 93 74.001s81.666 28 132.999 28
c50.667 0 94.834 -9.33301 132.501 -28s68.667 -43.334 93 -74.001s42.5 -65.667 54.5 -105s18 -79.666 18 -120.999c0 -36 -4.16699 -69.167 -12.5 -99.5s-19.5 -57.5 -33.5 -81.5s-30.333 -44.833 -49 -62.5s-38.667 -32.167 -60 -43.5v-9h159v-86h-238v129
c16 6 31.833 15.833 47.5 29.5s29.5 30.167 41.5 49.5s21.833 40.666 29.5 63.999s11.5 47 11.5 71v88c0 23.333 -4.33301 46.5 -13 69.5s-21.334 43.667 -38.001 62s-37 33.166 -61 44.499s-51.333 17 -82 17s-58 -5.66699 -82 -17s-44.333 -26.166 -61 -44.499
s-29.5 -39 -38.5 -62s-13.5 -46.167 -13.5 -69.5v-88c0 -24 3.83301 -47.667 11.5 -71s17.5 -44.666 29.5 -63.999s25.833 -35.833 41.5 -49.5s31.5 -23.5 47.5 -29.5v-129h-238v86z" />
    <glyph glyph-name="uni212E" unicode="&#x212e;" horiz-adv-x="724" 
d="M187 105c20.667 -18.667 45.501 -33.999 74.501 -45.999s62.5 -18 100.5 -18c60 0 109.667 13.667 149 41s71 63.333 95 108l48 -26c-13.333 -25.333 -29.333 -48.666 -48 -69.999s-40.167 -39.833 -64.5 -55.5s-51.5 -28 -81.5 -37s-62.667 -13.5 -98 -13.5
c-47.333 0 -90.833 8.5 -130.5 25.5s-74.167 41.167 -103.5 72.5s-52.166 69.166 -68.499 113.499s-24.5 94.166 -24.5 149.499c0 54.667 8.16699 104.334 24.5 149.001s39.166 82.667 68.499 114s63.833 55.5 103.5 72.5s83.167 25.5 130.5 25.5
c46.667 0 90 -8.5 130 -25.5s74.667 -41.167 104 -72.5s52.166 -69.333 68.499 -114s24.5 -94.334 24.5 -149.001h-502v-244zM537.001 399.001v197c-20.667 18.667 -45.5 34 -74.5 46s-62.5 18 -100.5 18s-71.5 -6 -100.5 -18s-53.833 -27.333 -74.5 -46v-197h350z" />
    <glyph glyph-name="uni2150" unicode="&#x2150;" horiz-adv-x="861" 
d="M53 329v56h106v256h-6l-84 -87l-42 39l99 105h104v-313h94v-56h-271zM159 0l494 698h80l-494 -698h-80zM618 0l144 313h-145v-67h-60v123h275v-59l-139 -310h-75z" />
    <glyph glyph-name="uni2151" unicode="&#x2151;" horiz-adv-x="882" 
d="M53 329v56h106v256h-6l-84 -87l-42 39l99 105h104v-313h94v-56h-271zM159 0l494 698h80l-494 -698h-80zM845 230c0 -26 -4.33203 -50.668 -12.999 -74.001s-19.834 -44.833 -33.501 -64.5s-29 -37.167 -46 -52.5s-33.833 -28.333 -50.5 -39h-96
c23.333 16 44.333 31.167 63 45.5s34.834 28.833 48.501 43.5s25 29.834 34 45.501s15.833 33.167 20.5 52.5l-5 1c-7.33301 -14.667 -18 -27.5 -32 -38.5s-33.667 -16.5 -59 -16.5c-34 0 -62.333 10.333 -85 31s-34 48.667 -34 84c0 38 13 68.667 39 92s61 35 105 35
c45.333 0 80.666 -13 105.999 -39s38 -61.333 38 -106zM701.001 185.999c21.333 0 38.5 5.33301 51.5 16s19.5 26.667 19.5 48v8c0 21.333 -6.5 37.333 -19.5 48s-30.167 16 -51.5 16s-38.5 -5.33301 -51.5 -16s-19.5 -26.667 -19.5 -48v-8c0 -21.333 6.5 -37.333 19.5 -48
s30.167 -16 51.5 -16z" />
    <glyph glyph-name="uni2153" unicode="&#x2153;" horiz-adv-x="875" 
d="M53 329v56h106v256h-6l-84 -87l-42 39l99 105h104v-313h94v-56h-271zM159 0l494 698h80l-494 -698h-80zM682 219c24.667 0 42.668 4.50195 54.001 13.502s17 20.5 17 34.5v4c0 15.333 -5.33301 27.166 -16 35.499s-25.667 12.5 -45 12.5c-35.333 0 -63 -14.667 -83 -44
l-46 39c12.667 17.333 29.167 31.833 49.5 43.5s47.5 17.5 81.5 17.5c39.333 0 71.5 -8.5 96.5 -25.5s37.5 -40.5 37.5 -70.5c0 -24 -7.66699 -43 -23 -57s-33.666 -23 -54.999 -27v-4c23.333 -4 43.166 -13.333 59.499 -28s24.5 -35 24.5 -61
c0 -32.667 -13.333 -58.834 -40 -78.501s-62 -29.5 -106 -29.5c-38 0 -67.667 6.83301 -89 20.5s-38.333 29.5 -51 47.5l53 38c9.33301 -14.667 20.5 -26.667 33.5 -36s30.833 -14 53.5 -14c23.333 0 41.166 5 53.499 15s18.5 24 18.5 42v5c0 17.333 -6.5 30 -19.5 38
s-31.167 12 -54.5 12h-42v57h38z" />
    <glyph glyph-name="uni2154" unicode="&#x2154;" horiz-adv-x="865" 
d="M313 329l-275.003 0.000976562v63l128 102c20 16.667 35.167 32.167 45.5 46.5s15.5 30.166 15.5 47.499v6c0 16 -5.5 28.5 -16.5 37.5s-25.833 13.5 -44.5 13.5c-21.333 0 -37.666 -5.33301 -48.999 -16s-19.666 -23.667 -24.999 -39l-60 22c8 24.667 23 46.167 45 64.5
s53.333 27.5 94 27.5c42 0 74.333 -10.333 97 -31s34 -47 34 -79c0 -30 -9.16699 -55.833 -27.5 -77.5s-42.166 -43.167 -71.499 -64.5l-89 -67h199v-56zM148.997 0.000976562l494 698h80l-494 -698h-80zM671.997 219.001c24.667 0 42.668 4.50195 54.001 13.502
s17 20.5 17 34.5v4c0 15.333 -5.33301 27.166 -16 35.499s-25.667 12.5 -45 12.5c-35.333 0 -63 -14.667 -83 -44l-46 39c12.667 17.333 29.167 31.833 49.5 43.5s47.5 17.5 81.5 17.5c39.333 0 71.5 -8.5 96.5 -25.5s37.5 -40.5 37.5 -70.5c0 -24 -7.66699 -43 -23 -57
s-33.666 -23 -54.999 -27v-4c23.333 -4 43.166 -13.333 59.499 -28s24.5 -35 24.5 -61c0 -32.667 -13.333 -58.834 -40 -78.501s-62 -29.5 -106 -29.5c-38 0 -67.667 6.83301 -89 20.5s-38.333 29.5 -51 47.5l53 38c9.33301 -14.667 20.5 -26.667 33.5 -36
s30.833 -14 53.5 -14c23.333 0 41.166 5 53.499 15s18.5 24 18.5 42v5c0 17.333 -6.5 30 -19.5 38s-31.167 12 -54.5 12h-42v57h38z" />
    <glyph glyph-name="uni2155" unicode="&#x2155;" horiz-adv-x="873" 
d="M53 329v56h106v256h-6l-84 -87l-42 39l99 105h104v-313h94v-56h-271zM159 0l494 698h80l-494 -698h-80zM638 312l-10.999 -126.998h4c9.33301 15.333 20 28 32 38s29.667 15 53 15c34.667 0 63.667 -10.333 87 -31s35 -49 35 -85c0 -38 -12.667 -68.833 -38 -92.5
s-61.333 -35.5 -108 -35.5c-36.667 0 -65.334 6.83301 -86.001 20.5s-37 29.5 -49 47.5l50 38c9.33301 -14.667 20.333 -26.667 33 -36s30.334 -14 53.001 -14c23.333 0 41 5.66699 53 17s18 26.666 18 45.999v6c0 19.333 -6 34.666 -18 45.999s-29.667 17 -53 17
c-17.333 0 -30.833 -2.83301 -40.5 -8.5s-17.834 -12.167 -24.501 -19.5l-58 8l14 207h233v-57h-179z" />
    <glyph glyph-name="uni2156" unicode="&#x2156;" horiz-adv-x="863" 
d="M313 329l-275.003 0.000976562v63l128 102c20 16.667 35.167 32.167 45.5 46.5s15.5 30.166 15.5 47.499v6c0 16 -5.5 28.5 -16.5 37.5s-25.833 13.5 -44.5 13.5c-21.333 0 -37.666 -5.33301 -48.999 -16s-19.666 -23.667 -24.999 -39l-60 22c8 24.667 23 46.167 45 64.5
s53.333 27.5 94 27.5c42 0 74.333 -10.333 97 -31s34 -47 34 -79c0 -30 -9.16699 -55.833 -27.5 -77.5s-42.166 -43.167 -71.499 -64.5l-89 -67h199v-56zM148.997 0.000976562l494 698h80l-494 -698h-80zM627.997 312.001l-10.999 -126.998h4c9.33301 15.333 20 28 32 38
s29.667 15 53 15c34.667 0 63.667 -10.333 87 -31s35 -49 35 -85c0 -38 -12.667 -68.833 -38 -92.5s-61.333 -35.5 -108 -35.5c-36.667 0 -65.334 6.83301 -86.001 20.5s-37 29.5 -49 47.5l50 38c9.33301 -14.667 20.333 -26.667 33 -36s30.334 -14 53.001 -14
c23.333 0 41 5.66699 53 17s18 26.666 18 45.999v6c0 19.333 -6 34.666 -18 45.999s-29.667 17 -53 17c-17.333 0 -30.833 -2.83301 -40.5 -8.5s-17.834 -12.167 -24.501 -19.5l-58 8l14 207h233v-57h-179z" />
    </font>
</defs>
</svg>
