<?xml version="1.0" standalone="no"?>
<!DOCTYPE svg PUBLIC "-//W3C//DTD SVG 1.1//EN" "http://www.w3.org/Graphics/SVG/1.1/DTD/svg11.dtd" >
<svg>
<metadata>
Created by FontForge 20090914 at Sat Oct 17 09:09:27 2020
 By www-data
Copyright 2019 IBM Corp. All rights reserved.
</metadata>
<defs>
<font id="IBMPlexSansThai" horiz-adv-x="600" >
  <font-face 
    font-family="IBM Plex Sans Thai"
    font-weight="400"
    font-stretch="normal"
    units-per-em="1000"
    panose-1="2 11 5 3 5 2 3 0 2 3"
    ascent="780"
    descent="-220"
    x-height="516"
    cap-height="698"
    bbox="-435.004 -533 1629 1076"
    underline-thickness="60"
    underline-position="-65"
    unicode-range="U+000D-U+FB02"
  />
<missing-glyph horiz-adv-x="472" 
d="M32 0v780h408v-780h-408zM92 60h288v660h-288v-660z" />
    <glyph glyph-name="fi" unicode="fi" horiz-adv-x="567" 
d="M113 446h-84v70h84v104c0 36 9.33301 65 28 87s47 33 85 33h78v-70h-111v-154h289v-516h-80v446h-209v-446h-80v446zM442 637c-17.333 0 -29.833 4.16699 -37.5 12.5s-11.5 19.166 -11.5 32.499v13c0 13.333 3.83301 24.166 11.5 32.499s20.167 12.5 37.5 12.5
s29.833 -4.16699 37.5 -12.5s11.5 -19.166 11.5 -32.499v-13c0 -13.333 -3.83301 -24.166 -11.5 -32.499s-20.167 -12.5 -37.5 -12.5z" />
    <glyph glyph-name="uni0E260E45" unicode="&#xe26;&#xe45;" horiz-adv-x="924" 
d="M446 331c0 52 -13.834 91.3291 -41.501 117.996s-64.5 40 -110.5 40c-20 0 -39 -2.5 -57 -7.5s-34.333 -12 -49 -21s-27.167 -20 -37.5 -33s-17.833 -27.5 -22.5 -43.5l50 -20c14.667 -6 25.167 -13 31.5 -21s9.5 -19.333 9.5 -34v-225
c0 -25.333 -7.16699 -45.666 -21.5 -60.999s-35.5 -23 -63.5 -23h-59v70h64v242l-86 36c2 30.667 9.5 58.834 22.5 84.501s30 47.834 51 66.501s45.667 33.167 74 43.5s58.833 15.5 91.5 15.5c43.333 0 81 -6.66699 113 -20s57.667 -32.333 77 -57
c16.667 22.667 38.667 41.167 66 55.5s61.333 21.5 102 21.5c62.667 0 110.667 -15.333 144 -46s50 -74 50 -130v-562h-80v555c0 76.667 -39.667 115 -119 115c-31.333 0 -57.166 -6.66699 -77.499 -20s-37.5 -31.666 -51.5 -54.999c6.66699 -22 10 -46.667 10 -74v-521h-80
v511z" />
    <glyph glyph-name="uni0E240E45" unicode="&#xe24;&#xe45;" horiz-adv-x="929" 
d="M451 331c0 52 -14.499 91.332 -43.499 117.999s-67.167 40 -114.5 40c-20.667 0 -40.167 -2.5 -58.5 -7.5s-34.833 -12 -49.5 -21s-27.334 -20 -38.001 -33s-18.334 -27.5 -23.001 -43.5l50 -20c14.667 -6 25 -13 31 -21s9 -19.333 9 -34v-239h64v-70h-58
c-28.667 0 -50.167 7.66699 -64.5 23s-21.5 35.666 -21.5 60.999v228l-85 36c2 30.667 9.5 58.834 22.5 84.501s30.167 47.834 51.5 66.501s46.166 33.167 74.499 43.5s59.166 15.5 92.499 15.5c45.333 0 84.333 -6.66699 117 -20s59 -32.333 79 -57
c16.667 22.667 38.834 41.167 66.501 55.5s61.834 21.5 102.501 21.5c62.667 0 110.667 -15.333 144 -46s50 -74 50 -130v-562h-80v555c0 76.667 -39.667 115 -119 115c-31.333 0 -57.166 -6.83301 -77.499 -20.5s-37.5 -32.167 -51.5 -55.5c6.66699 -20.667 10 -45 10 -73
v-521h-80v511z" />
    <glyph glyph-name=".notdef" horiz-adv-x="472" 
d="M32 0v780h408v-780h-408zM92 60h288v660h-288v-660z" />
    <glyph glyph-name=".null" horiz-adv-x="0" 
 />
    <glyph glyph-name=".null" horiz-adv-x="0" 
 />
    <glyph glyph-name="uni000D" unicode="&#xd;" horiz-adv-x="236" 
 />
    <glyph glyph-name="space" unicode=" " horiz-adv-x="236" 
 />
    <glyph glyph-name="exclam" unicode="!" horiz-adv-x="284" 
d="M122 185l-24 310v203h88v-203l-24 -310h-40zM142 -12c-21.333 0 -36.833 5.33301 -46.5 16s-14.5 24.667 -14.5 42v13c0 17.333 4.83301 31.333 14.5 42s25.167 16 46.5 16s36.833 -5.33301 46.5 -16s14.5 -24.667 14.5 -42v-13c0 -17.333 -4.83301 -31.333 -14.5 -42
s-25.167 -16 -46.5 -16z" />
    <glyph glyph-name="quotedbl" unicode="&#x22;" horiz-adv-x="419" 
d="M85 460v280h72v-280h-72zM262 460v280h72v-280h-72z" />
    <glyph glyph-name="numbersign" unicode="#" horiz-adv-x="713" 
d="M406 205h-154l-36 -205h-64l36 205h-128v60h138l28 168h-127v60h138l35 205h64l-35 -205h154l35 205h64l-35 -205h128v-60h-139l-28 -168h128v-60h-138l-36 -205h-64zM416 265l28 168h-154l-28 -168h154z" />
    <glyph glyph-name="dollar" unicode="$" horiz-adv-x="598" 
d="M270 -82l0.000976562 82c-50.667 3.33301 -93.5 15.833 -128.5 37.5s-64.833 48.834 -89.5 81.501l59 53c21.333 -28.667 44.833 -51.5 70.5 -68.5s55.5 -27.833 89.5 -32.5v257c-68.667 15.333 -118.834 37.833 -150.501 67.5s-47.5 70.5 -47.5 122.5
c0 26.667 4.83301 50.5 14.5 71.5s23.167 39.167 40.5 54.5s38 27.5 62 36.5s50.667 14.833 80 17.5v82h62v-81c45.333 -4 84.5 -15.5 117.5 -34.5s61.5 -45.167 85.5 -78.5l-61 -46c-16.667 23.333 -36.667 42.5 -60 57.5s-51 24.833 -83 29.5v-234l9 -2
c69.333 -15.333 119.833 -37.833 151.5 -67.5s47.5 -70.834 47.5 -123.501c0 -57.333 -18.5 -103.5 -55.5 -138.5s-87.5 -55.5 -151.5 -61.5v-82h-62zM460.001 195c0 34 -9.83203 60 -29.499 78s-52.834 32.667 -99.501 44v-246c40 5.33301 71.5 18.833 94.5 40.5
s34.5 49.5 34.5 83.5zM152.002 524c0 -34 9.83301 -59.501 29.5 -76.501s49.5 -30.833 89.5 -41.5v221c-36 -4.66699 -64.833 -15.667 -86.5 -33s-32.5 -40.666 -32.5 -69.999z" />
    <glyph glyph-name="percent" unicode="%" horiz-adv-x="927" 
d="M183 0l484 698h77l-484 -698h-77zM223 314c-50.667 0 -89.667 16.833 -117 50.5s-41 82.834 -41 147.501s13.667 113.834 41 147.501s66.333 50.5 117 50.5s89.667 -16.833 117 -50.5s41 -82.834 41 -147.501s-13.667 -113.834 -41 -147.501s-66.333 -50.5 -117 -50.5z
M223 366c57.333 0 86 38.667 86 116v60c0 77.333 -28.667 116 -86 116s-86 -38.667 -86 -116v-60c0 -77.333 28.667 -116 86 -116zM704 -12c-50.667 0 -89.667 16.833 -117 50.5s-41 82.834 -41 147.501s13.667 113.834 41 147.501s66.333 50.5 117 50.5
s89.667 -16.833 117 -50.5s41 -82.834 41 -147.501s-13.667 -113.834 -41 -147.501s-66.333 -50.5 -117 -50.5zM704 40c57.333 0 86 38.667 86 116v60c0 77.333 -28.667 116 -86 116s-86 -38.667 -86 -116v-60c0 -77.333 28.667 -116 86 -116z" />
    <glyph glyph-name="ampersand" unicode="&#x26;" horiz-adv-x="694" 
d="M489 82c-7.33301 -8.66699 -16.6689 -18.5 -28.002 -29.5s-25.166 -21.167 -41.499 -30.5s-35.666 -17.333 -57.999 -24s-47.5 -10 -75.5 -10c-34.667 0 -65.334 5 -92.001 15s-49 23.833 -67 41.5s-31.667 38.167 -41 61.5s-14 48.333 -14 75c0 26 4 49 12 69
s18.833 37.833 32.5 53.5s29 29.5 46 41.5s34.5 23 52.5 33c-24 25.333 -43.167 51.166 -57.5 77.499s-21.5 55.166 -21.5 86.499c0 23.333 4.33301 45.333 13 66s20.834 38.5 36.501 53.5s34.667 26.833 57 35.5s47.166 13 74.499 13c24.667 0 47.334 -3.66699 68.001 -11
s38.334 -17.5 53.001 -30.5s26.167 -28.833 34.5 -47.5s12.5 -39 12.5 -61c0 -23.333 -4.16699 -44.166 -12.5 -62.499s-19.833 -35.166 -34.5 -50.499s-31.667 -29.5 -51 -42.5s-40 -25.5 -62 -37.5l157 -169c10 25.333 17.667 52.333 23 81s8.66602 58 9.99902 88h136v-68
h-71c-4.66699 -29.333 -11 -56.833 -19 -82.5s-17.667 -49.5 -29 -71.5l136 -145h-104zM312.997 643c-28.667 0 -52.167 -9 -70.5 -27s-27.5 -40.333 -27.5 -67v-12c0 -20 6.16699 -40.167 18.5 -60.5s28.5 -41.833 48.5 -64.5c16 8.66699 31.5 17.834 46.5 27.501
s28.333 20.167 40 31.5s21.167 23.166 28.5 35.499s11 25.5 11 39.5v12c0 27.333 -9.5 48.333 -28.5 63s-41.167 22 -66.5 22zM292.997 58c34 0 63.3311 6.49902 87.998 19.499s45.667 30.5 63 52.5l-187 202c-13.333 -7.33301 -26.166 -15 -38.499 -23
s-23.166 -17.5 -32.499 -28.5s-16.833 -23.667 -22.5 -38s-8.5 -31.166 -8.5 -50.499v-15c0 -36.667 12.5 -65.667 37.5 -87s58.5 -32 100.5 -32z" />
    <glyph glyph-name="quotesingle" unicode="'" horiz-adv-x="242" 
d="M85 460v280h72v-280h-72z" />
    <glyph glyph-name="parenleft" unicode="(" horiz-adv-x="335" 
d="M83 312c0 48 4.66992 94.333 14.0029 139s22.166 86.167 38.499 124.5s35.5 73.166 57.5 104.499s45.667 58 71 80h76c-28 -25.333 -53.167 -54 -75.5 -86s-41.333 -66 -57 -102s-27.834 -72.667 -36.501 -110s-13 -73.333 -13 -108v-86
c0 -35.333 4.33301 -71.666 13 -108.999s21 -74 37 -110s35.167 -70 57.5 -102s47.166 -60 74.499 -84h-76c-24.667 20.667 -48 46.667 -70 78s-41.167 66.333 -57.5 105s-29.333 80.5 -39 125.5s-14.5 91.833 -14.5 140.5z" />
    <glyph glyph-name="parenright" unicode=")" horiz-adv-x="335" 
d="M252 312c0 -48.667 -4.83008 -95.5 -14.4971 -140.5s-22.667 -86.833 -39 -125.5s-35.5 -73.667 -57.5 -105s-45.333 -57.333 -70 -78h-76c27.333 24 52.166 52 74.499 84s41.5 66 57.5 102s28.333 72.667 37 110s13 73.666 13 108.999v86
c0 34.667 -4.33301 70.667 -13 108s-20.834 74 -36.501 110s-34.667 70 -57 102s-47.5 60.667 -75.5 86h76c25.333 -22 49 -48.667 71 -80s41.167 -66.166 57.5 -104.499s29.166 -79.833 38.499 -124.5s14 -91 14 -139z" />
    <glyph glyph-name="asterisk" unicode="*" horiz-adv-x="450" 
d="M143 388l-56 41l91 116l-142 39l22 67l138 -51l-6 147h70l-6 -147l138 51l22 -67l-142 -39l91 -116l-56 -41l-82 123z" />
    <glyph glyph-name="plus" unicode="+" 
d="M262 62v209h-195v68h195v209h76v-209h195v-68h-195v-209h-76z" />
    <glyph glyph-name="comma" unicode="," horiz-adv-x="272" 
d="M136 117c21.333 0 36.833 -5.49805 46.5 -16.498s14.5 -25.167 14.5 -42.5v-14c0 -27.333 -8 -57.5 -24 -90.5s-38.333 -61.833 -67 -86.5h-67c20 21.333 36.167 41.5 48.5 60.5s21.166 40.167 26.499 63.5c-13.333 3.33301 -23.166 9.66602 -29.499 18.999
s-9.5 20.666 -9.5 33.999v14c0 17.333 4.83301 31.5 14.5 42.5s25.167 16.5 46.5 16.5z" />
    <glyph glyph-name="hyphen" unicode="-" horiz-adv-x="399" 
d="M69 261v86h261v-86h-261z" />
    <glyph glyph-name="period" unicode="." horiz-adv-x="272" 
d="M136 -12c-21.333 0 -36.833 5.33301 -46.5 16s-14.5 24.667 -14.5 42v13c0 17.333 4.83301 31.333 14.5 42s25.167 16 46.5 16s36.833 -5.33301 46.5 -16s14.5 -24.667 14.5 -42v-13c0 -17.333 -4.83301 -31.333 -14.5 -42s-25.167 -16 -46.5 -16z" />
    <glyph glyph-name="slash" unicode="/" horiz-adv-x="383" 
d="M9 -151l261 891h72l-261 -891h-72z" />
    <glyph glyph-name="zero" unicode="0" 
d="M300 -12c-83.333 0 -144.166 31.667 -182.499 95s-57.5 152 -57.5 266s19.167 202.667 57.5 266s99.166 95 182.499 95s144.166 -31.667 182.499 -95s57.5 -152 57.5 -266s-19.167 -202.667 -57.5 -266s-99.166 -95 -182.499 -95zM300 61
c27.333 0 50.666 5.66699 69.999 17s35 27.333 47 48s20.833 45 26.5 73s8.5 59 8.5 93v114c0 34 -2.83301 65 -8.5 93s-14.5 52.333 -26.5 73s-27.667 36.667 -47 48s-42.666 17 -69.999 17s-50.666 -5.66699 -69.999 -17s-35 -27.333 -47 -48s-20.833 -45 -26.5 -73
s-8.5 -59 -8.5 -93v-114c0 -34 2.83301 -65 8.5 -93s14.5 -52.333 26.5 -73s27.667 -36.667 47 -48s42.666 -17 69.999 -17z" />
    <glyph glyph-name="one" unicode="1" 
d="M88 0v74h195v562h-7l-176 -164l-49 53l185 173h131v-624h180v-74h-459z" />
    <glyph glyph-name="two" unicode="2" 
d="M533 0l-458.001 -0.000976562v86l228 210c32.667 30 60 61.833 82 95.5s33 67.5 33 101.5v12c0 38.667 -10.667 70 -32 94s-53.666 36 -96.999 36c-21.333 0 -40 -3 -56 -9s-29.833 -14.333 -41.5 -25s-21.334 -23.167 -29.001 -37.5s-13.834 -29.833 -18.501 -46.5
l-75 29c6.66699 20.667 15.834 40.834 27.501 60.501s26.334 37.167 44.001 52.5s39 27.666 64 36.999s54.5 14 88.5 14s64.333 -5 91 -15s49 -24 67 -42s31.833 -39.333 41.5 -64s14.5 -52 14.5 -82c0 -27.333 -3.83301 -52.666 -11.5 -75.999s-18.167 -45.5 -31.5 -66.5
s-29.5 -41.5 -48.5 -61.5s-39.5 -40 -61.5 -60l-188 -169h367v-74z" />
    <glyph glyph-name="three" unicode="3" 
d="M261 402c47.333 0 82.832 10.832 106.499 32.499s35.5 49.5 35.5 83.5v7c0 36.667 -11.5 64.167 -34.5 82.5s-53.167 27.5 -90.5 27.5c-36 0 -65.333 -7.83301 -88 -23.5s-41.334 -36.834 -56.001 -63.501l-62 48c8.66699 14 19.167 27.833 31.5 41.5
s26.833 25.834 43.5 36.501s36 19.334 58 26.001s47 10 75 10c29.333 0 57 -3.83301 83 -11.5s48.5 -19 67.5 -34s34 -33.5 45 -55.5s16.5 -47 16.5 -75c0 -22.667 -3.5 -43 -10.5 -61s-16.5 -33.667 -28.5 -47s-26.167 -24.666 -42.5 -33.999s-33.833 -16.333 -52.5 -21v-4
c18.667 -4 36.834 -10.5 54.501 -19.5s33.334 -20.667 47.001 -35s24.667 -31.666 33 -51.999s12.5 -43.5 12.5 -69.5c0 -30 -5.66699 -57.5 -17 -82.5s-27.333 -46.333 -48 -64s-45.667 -31.5 -75 -41.5s-61.666 -15 -96.999 -15c-30 0 -56.667 3.33301 -80 10
s-44 15.667 -62 27s-33.833 24 -47.5 38s-25.834 28.667 -36.501 44l63 48c8.66699 -14 18.167 -26.667 28.5 -38s21.833 -21 34.5 -29s27 -14.167 43 -18.5s34.667 -6.5 56 -6.5c49.333 0 86.666 11.167 111.999 33.5s38 54.166 38 95.499v8
c0 41.333 -12.667 73.166 -38 95.499s-62.666 33.5 -111.999 33.5h-82v73h76z" />
    <glyph glyph-name="four" unicode="4" 
d="M375 0v137h-337v74l292 487h125v-491h101v-70h-101v-137h-80zM117 207h258v426h-5z" />
    <glyph glyph-name="five" unicode="5" 
d="M498 624l-306.003 -0.00195312l-20 -266h7c16.667 23.333 35.5 42 56.5 56s49.833 21 86.5 21c30 0 57.667 -5 83 -15s47.333 -24.167 66 -42.5s33.167 -40.833 43.5 -67.5s15.5 -57 15.5 -91s-5.33301 -65.167 -16 -93.5s-26.167 -52.666 -46.5 -72.999
s-45 -36.166 -74 -47.499s-61.833 -17 -98.5 -17c-29.333 0 -55.166 3.33301 -77.499 10s-42.166 15.667 -59.499 27s-32.5 24 -45.5 38s-24.833 28.667 -35.5 44l63 48c8.66699 -14 17.834 -26.667 27.501 -38s20.334 -21 32.001 -29s25.167 -14.167 40.5 -18.5
s33.666 -6.5 54.999 -6.5c48 0 84.333 12.667 109 38s37 61 37 107v10c0 46 -12.333 81.667 -37 107s-61 38 -109 38c-32 0 -57.167 -5.83301 -75.5 -17.5s-34.833 -25.5 -49.5 -41.5l-71 10l25 384h374v-74z" />
    <glyph glyph-name="six" unicode="6" 
d="M301 -12c-36 0 -68.499 6.16602 -97.499 18.499s-53.667 30 -74 53s-35.833 51.167 -46.5 84.5s-16 70.666 -16 111.999c0 52 7.66699 100.833 23 146.5s35.166 87.334 59.499 125.001s51.166 71 80.499 100s58 52.5 86 70.5h108
c-37.333 -27.333 -70.666 -54 -99.999 -80s-55 -53.167 -77 -81.5s-40.667 -58.666 -56 -90.999s-27.666 -68.833 -36.999 -109.5l5 -2c16.667 28.667 38.167 52.5 64.5 71.5s60.833 28.5 103.5 28.5c30 0 57.667 -5 83 -15s47 -24.333 65 -43s32.167 -41.334 42.5 -68.001
s15.5 -56.334 15.5 -89.001c0 -34 -5.5 -65.167 -16.5 -93.5s-26.667 -52.666 -47 -72.999s-44.833 -36.166 -73.5 -47.499s-60.334 -17 -95.001 -17zM300.001 60.999c46 0 81.833 12.667 107.5 38s38.5 61.666 38.5 108.999v8c0 47.333 -12.833 83.666 -38.5 108.999
s-61.5 38 -107.5 38s-81.833 -12.667 -107.5 -38s-38.5 -61.666 -38.5 -108.999v-8c0 -47.333 12.833 -83.666 38.5 -108.999s61.5 -38 107.5 -38z" />
    <glyph glyph-name="seven" unicode="7" 
d="M175 0l267 626h-298v-130h-75v202h458v-74l-262 -624h-90z" />
    <glyph glyph-name="eight" unicode="8" 
d="M300 -12c-40 0 -75 5.16699 -105 15.5s-55.167 24.5 -75.5 42.5s-35.666 39.333 -45.999 64s-15.5 51.334 -15.5 80.001c0 48 13 86 39 114s60 47.667 102 59v8c-36.667 12.667 -65.834 33.167 -87.501 61.5s-32.5 62.5 -32.5 102.5c0 53.333 19.333 95.833 58 127.5
s93 47.5 163 47.5s124.333 -15.833 163 -47.5s58 -74.167 58 -127.5c0 -40 -10.833 -74.167 -32.5 -102.5s-50.834 -48.833 -87.501 -61.5v-8c42 -11.333 76 -31 102 -59s39 -66 39 -114c0 -28.667 -5.16699 -55.334 -15.5 -80.001s-25.666 -46 -45.999 -64
s-45.5 -32.167 -75.5 -42.5s-65 -15.5 -105 -15.5zM300 61c48.667 0 86.334 10.833 113.001 32.5s40 52.5 40 92.5v21c0 40 -13.333 70.833 -40 92.5s-64.334 32.5 -113.001 32.5s-86.334 -10.833 -113.001 -32.5s-40 -52.5 -40 -92.5v-21c0 -40 13.333 -70.833 40 -92.5
s64.334 -32.5 113.001 -32.5zM300 402c44 0 77.333 9.33301 100 28s34 46 34 82v15c0 36 -11.333 63.333 -34 82s-56 28 -100 28s-77.333 -9.33301 -100 -28s-34 -46 -34 -82v-15c0 -36 11.333 -63.333 34 -82s56 -28 100 -28z" />
    <glyph glyph-name="nine" unicode="9" 
d="M533 442c0 -52 -7.66504 -100.829 -22.998 -146.496s-35.166 -87.334 -59.499 -125.001s-51.166 -71 -80.499 -100s-58 -52.5 -86 -70.5h-108c37.333 27.333 70.666 54 99.999 80s55 53.167 77 81.5s40.667 58.666 56 90.999s27.666 68.833 36.999 109.5l-5 2
c-16.667 -28.667 -38.167 -52.5 -64.5 -71.5s-60.833 -28.5 -103.5 -28.5c-30 0 -57.667 5 -83 15s-47 24.333 -65 43s-32.167 41.167 -42.5 67.5s-15.5 56.166 -15.5 89.499c0 34 5.5 65.167 16.5 93.5s26.667 52.666 47 72.999s44.666 36.166 72.999 47.499
s60.166 17 95.499 17c36 0 68.5 -6.16699 97.5 -18.5s53.667 -30 74 -53s35.833 -51.167 46.5 -84.5s16 -70.666 16 -111.999zM300.002 335.004c46 0 81.833 12.667 107.5 38s38.5 61.666 38.5 108.999v8c0 47.333 -12.833 83.666 -38.5 108.999s-61.5 38 -107.5 38
s-81.833 -12.667 -107.5 -38s-38.5 -61.666 -38.5 -108.999v-8c0 -47.333 12.833 -83.666 38.5 -108.999s61.5 -38 107.5 -38z" />
    <glyph glyph-name="colon" unicode=":" horiz-adv-x="292" 
d="M146 -12c-21.333 0 -36.833 5.33301 -46.5 16s-14.5 24.667 -14.5 42v13c0 17.333 4.83301 31.333 14.5 42s25.167 16 46.5 16s36.833 -5.33301 46.5 -16s14.5 -24.667 14.5 -42v-13c0 -17.333 -4.83301 -31.333 -14.5 -42s-25.167 -16 -46.5 -16zM146 399
c-21.333 0 -36.833 5.33301 -46.5 16s-14.5 24.667 -14.5 42v13c0 17.333 4.83301 31.333 14.5 42s25.167 16 46.5 16s36.833 -5.33301 46.5 -16s14.5 -24.667 14.5 -42v-13c0 -17.333 -4.83301 -31.333 -14.5 -42s-25.167 -16 -46.5 -16z" />
    <glyph glyph-name="semicolon" unicode=";" horiz-adv-x="292" 
d="M146 117c21.333 0 36.833 -5.49805 46.5 -16.498s14.5 -25.167 14.5 -42.5v-14c0 -27.333 -8 -57.5 -24 -90.5s-38.333 -61.833 -67 -86.5h-67c20 21.333 36.167 41.5 48.5 60.5s21.166 40.167 26.499 63.5c-13.333 3.33301 -23.166 9.66602 -29.499 18.999
s-9.5 20.666 -9.5 33.999v14c0 17.333 4.83301 31.5 14.5 42.5s25.167 16.5 46.5 16.5zM146 399.002c-21.333 0 -36.833 5.33301 -46.5 16s-14.5 24.667 -14.5 42v13c0 17.333 4.83301 31.333 14.5 42s25.167 16 46.5 16s36.833 -5.33301 46.5 -16s14.5 -24.667 14.5 -42
v-13c0 -17.333 -4.83301 -31.333 -14.5 -42s-25.167 -16 -46.5 -16z" />
    <glyph glyph-name="less" unicode="&#x3c;" 
d="M90 237v80l420 249v-84l-345 -201v-8l345 -201v-84z" />
    <glyph glyph-name="equal" unicode="=" 
d="M67 372v68h466v-68h-466zM67 172v68h466v-68h-466z" />
    <glyph glyph-name="greater" unicode="&#x3e;" 
d="M90 72l345 201v8l-345 201v84l420 -249v-80l-420 -249v84z" />
    <glyph glyph-name="question" unicode="?" horiz-adv-x="477" 
d="M179 208l-0.000976562 164.001c54.667 2.66699 97.5 16 128.5 40s46.5 57 46.5 99v14c0 34 -10.667 61.167 -32 81.5s-50 30.5 -86 30.5c-38.667 0 -69.5 -11 -92.5 -33s-38.5 -50 -46.5 -84l-74 28c6 21.333 14.833 41.833 26.5 61.5s26.334 37 44.001 52
s38.5 26.833 62.5 35.5s51.667 13 83 13c62 0 111 -17 147 -51s54 -80 54 -138c0 -32 -5.5 -59.833 -16.5 -83.5s-25.167 -43.834 -42.5 -60.501s-37 -30 -59 -40s-44 -17 -66 -21v-108h-77zM217.999 -11.999c-21.333 0 -36.833 5.33301 -46.5 16s-14.5 24.667 -14.5 42v13
c0 17.333 4.83301 31.333 14.5 42s25.167 16 46.5 16s36.833 -5.33301 46.5 -16s14.5 -24.667 14.5 -42v-13c0 -17.333 -4.83301 -31.333 -14.5 -42s-25.167 -16 -46.5 -16z" />
    <glyph glyph-name="at" unicode="@" horiz-adv-x="891" 
d="M679 -121l-232.004 0.00292969c-57.333 0 -109.5 9.66699 -156.5 29s-87.167 46.833 -120.5 82.5s-59.166 78.667 -77.499 129s-27.5 106.5 -27.5 168.5s9.33301 118.667 28 170s45 95.5 79 132.5s75 65.833 123 86.5s101.667 31 161 31
c46.667 0 92.334 -7.16699 137.001 -21.5s84.167 -36.833 118.5 -67.5s62 -70.5 83 -119.5s31.5 -107.833 31.5 -176.5c0 -34.667 -3.16699 -67.334 -9.5 -98.001s-16.5 -57.5 -30.5 -80.5s-32 -41.333 -54 -55s-48.667 -20.5 -80 -20.5c-32 0 -56 8 -72 24
s-25.667 36.667 -29 62h-4c-13.333 -26.667 -29.666 -47.667 -48.999 -63s-44.333 -23 -75 -23c-23.333 0 -45.5 4.5 -66.5 13.5s-39.5 22.5 -55.5 40.5s-28.667 40.833 -38 68.5s-14 60.167 -14 97.5s4.66699 69.833 14 97.5s22 50.5 38 68.5s34.5 31.5 55.5 40.5
s43.167 13.5 66.5 13.5c30.667 0 55 -7.5 73 -22.5s31.667 -33.167 41 -54.5h4v68h69v-304c0 -26 4.5 -43.5 13.5 -52.5s22.833 -13.5 41.5 -13.5c31.333 0 55 16 71 48s24 76 24 132v46c0 44 -7.83301 84 -23.5 120s-37.167 66.667 -64.5 92s-59.666 45 -96.999 59
s-77.333 21 -120 21c-48 0 -91.667 -8.33301 -131 -25s-73.333 -39.834 -102 -69.501s-50.834 -64.334 -66.501 -104.001s-23.5 -82.5 -23.5 -128.5v-59c0 -47.333 7.66699 -90.666 23 -129.999s36.833 -73.333 64.5 -102s60.834 -50.834 99.501 -66.501
s81.667 -23.5 129 -23.5h231v-61zM436.996 135.003c35.333 0 61.5 8.33496 78.5 25.002s25.5 40.334 25.5 71.001v122c0 25.333 -8.33301 46.666 -25 63.999s-43 26 -79 26s-62.333 -10.333 -79 -31s-25 -48.334 -25 -83.001v-80c0 -34.667 8.33301 -62.334 25 -83.001
s43 -31 79 -31z" />
    <glyph glyph-name="A" unicode="A" horiz-adv-x="641" 
d="M530 0l-70 206h-282l-70 -206h-85l244 698h107l244 -698h-88zM321 620h-5l-118 -340h241z" />
    <glyph glyph-name="B" unicode="B" horiz-adv-x="653" 
d="M93 698l286.996 0.00292969c58 0 103.5 -16.333 136.5 -49s49.5 -76.334 49.5 -131.001c0 -26 -3.66699 -48 -11 -66s-16.666 -32.833 -27.999 -44.5s-23.666 -20.334 -36.999 -26.001s-25.666 -9.5 -36.999 -11.5v-6c12.667 -0.666992 26.834 -4 42.501 -10
s30.5 -15.5 44.5 -28.5s25.833 -29.667 35.5 -50s14.5 -44.833 14.5 -73.5s-4.5 -55.334 -13.5 -80.001s-21.5 -46 -37.5 -64s-35 -32.167 -57 -42.5s-46 -15.5 -72 -15.5h-317v698zM176.996 74.0029l207 0.00195312c36 0 64.333 9.16699 85 27.5s31 45.166 31 80.499v34
c0 35.333 -10.333 62.166 -31 80.499s-49 27.5 -85 27.5h-207v-250zM176.996 396.005h193c33.333 0 59.333 8.33301 78 25s28 40.667 28 72v34c0 31.333 -9.33301 55.333 -28 72s-44.667 25 -78 25h-193v-228z" />
    <glyph glyph-name="C" unicode="C" horiz-adv-x="621" 
d="M339 -12c-88.667 0 -157.668 30.168 -207.001 90.501s-74 149.166 -74 266.499s24.667 207.5 74 270.5s118.333 94.5 207 94.5c58.667 0 107.834 -13.333 147.501 -40s70.5 -64.334 92.5 -113.001l-68 -41c-14 36 -35.333 64.833 -64 86.5s-64.667 32.5 -108 32.5
c-30 0 -56.833 -5.66699 -80.5 -17s-43.667 -27.5 -60 -48.5s-28.833 -46 -37.5 -75s-13 -61.5 -13 -97.5v-104c0 -72 16.667 -128.333 50 -169s80.333 -61 141 -61c44.667 0 82 11.5 112 34.5s52 53.5 66 91.5l67 -42c-22 -49.333 -53.667 -88.166 -95 -116.499
s-91.333 -42.5 -150 -42.5z" />
    <glyph glyph-name="D" unicode="D" horiz-adv-x="671" 
d="M93 698h234c43.333 0 82.666 -7.33301 117.999 -22s65.5 -36.5 90.5 -65.5s44.167 -65.333 57.5 -109s20 -94.5 20 -152.5s-6.66699 -108.833 -20 -152.5s-32.5 -80 -57.5 -109s-55.167 -50.833 -90.5 -65.5s-74.666 -22 -117.999 -22h-234v698zM327 74
c28.667 0 55 4.83105 79 14.498s44.667 23.834 62 42.501s30.833 41.5 40.5 68.5s14.5 57.833 14.5 92.5v114c0 34.667 -4.83301 65.5 -14.5 92.5s-23.167 49.833 -40.5 68.5s-38 32.834 -62 42.501s-50.333 14.5 -79 14.5h-150v-550h150z" />
    <glyph glyph-name="E" unicode="E" horiz-adv-x="583" 
d="M93 0v698h426v-74h-342v-234h322v-74h-322v-242h342v-74h-426z" />
    <glyph glyph-name="F" unicode="F" horiz-adv-x="559" 
d="M93 0v698h416v-74h-332v-234h303v-74h-303v-316h-84z" />
    <glyph glyph-name="G" unicode="G" horiz-adv-x="695" 
d="M545 102l-3 0.00195312c-8.66699 -32.667 -29.834 -59.834 -63.501 -81.501s-77.167 -32.5 -130.5 -32.5c-42.667 0 -81.834 7.83301 -117.501 23.5s-66.167 38.667 -91.5 69s-45.166 68 -59.499 113s-21.5 96.833 -21.5 155.5c0 58 7 109.5 21 154.5s34 82.667 60 113
s57.333 53.5 94 69.5s77.334 24 122.001 24c62.667 0 115 -14 157 -42s74.333 -65 97 -111l-69 -42c-16 37.333 -39.833 66.666 -71.5 87.999s-69.5 32 -113.5 32c-30.667 0 -58.667 -5.5 -84 -16.5s-47.166 -26.5 -65.499 -46.5s-32.5 -44 -42.5 -72s-15 -59.333 -15 -94
v-113c0 -34.667 5 -66.167 15 -94.5s24.167 -52.5 42.5 -72.5s40.833 -35.5 67.5 -46.5s56.667 -16.5 90 -16.5c24 0 46.833 3.16699 68.5 9.5s40.667 15.833 57 28.5s29.166 28.5 38.499 47.5s14 41.5 14 67.5v69h-154v74h236v-359h-78v102z" />
    <glyph glyph-name="H" unicode="H" horiz-adv-x="707" 
d="M530 316h-353v-316h-84v698h84v-308h353v308h84v-698h-84v316z" />
    <glyph glyph-name="I" unicode="I" horiz-adv-x="400" 
d="M60 0v70h98v558h-98v70h280v-70h-98v-558h98v-70h-280z" />
    <glyph glyph-name="J" unicode="J" horiz-adv-x="510" 
d="M422 698l0.000976562 -517c0 -29.333 -4.83301 -56 -14.5 -80s-23.334 -44.333 -41.001 -61s-38.834 -29.5 -63.501 -38.5s-51.667 -13.5 -81 -13.5c-54 0 -97.5 14.5 -130.5 43.5s-54.167 67.5 -63.5 115.5l76 18c6.66699 -30 19.334 -54.5 38.001 -73.5
s46 -28.5 82 -28.5s64 11 84 33s30 55.333 30 100v428h-240v74h324z" />
    <glyph glyph-name="K" unicode="K" horiz-adv-x="634" 
d="M276 343l-99 -110v-233h-84v698h84v-371h3l100 121l211 250h103l-260 -299l278 -399h-104z" />
    <glyph glyph-name="L" unicode="L" horiz-adv-x="501" 
d="M93 0v698h84v-624h297v-74h-381z" />
    <glyph glyph-name="M" unicode="M" horiz-adv-x="812" 
d="M637 588h-5l-59 -117l-167 -304l-167 304l-59 117h-5v-588h-82v698h112l200 -376h5l201 376h108v-698h-82v588z" />
    <glyph glyph-name="N" unicode="N" horiz-adv-x="707" 
d="M262 426l-84 155h-3v-581h-82v698h97l255 -426l84 -155h3v581h82v-698h-97z" />
    <glyph glyph-name="O" unicode="O" horiz-adv-x="708" 
d="M354 -12c-45.333 0 -86.166 7.83301 -122.499 23.5s-67.333 38.667 -93 69s-45.5 68 -59.5 113s-21 96.833 -21 155.5s7 110.334 21 155.001s33.833 82.334 59.5 113.001s56.667 53.834 93 69.501s77.166 23.5 122.499 23.5c44.667 0 85.334 -7.83301 122.001 -23.5
s67.834 -38.834 93.501 -69.501s45.5 -68.334 59.5 -113.001s21 -96.334 21 -155.001s-7 -110.5 -21 -155.5s-33.833 -82.667 -59.5 -113s-56.834 -53.333 -93.501 -69s-77.334 -23.5 -122.001 -23.5zM354 63c30 0 57.667 5.33301 83 16s47.166 26 65.499 46
s32.5 44 42.5 72s15 59.333 15 94v116c0 34.667 -5 66 -15 94s-24.167 52 -42.5 72s-40.166 35.333 -65.499 46s-53 16 -83 16s-57.667 -5.33301 -83 -16s-47.166 -26 -65.499 -46s-32.5 -44 -42.5 -72s-15 -59.333 -15 -94v-116c0 -34.667 5 -66 15 -94
s24.167 -52 42.5 -72s40.166 -35.333 65.499 -46s53 -16 83 -16z" />
    <glyph glyph-name="P" unicode="P" horiz-adv-x="606" 
d="M93 0v698h278c62.667 0 110.834 -17.833 144.501 -53.5s50.5 -84.5 50.5 -146.5s-16.833 -110.833 -50.5 -146.5s-81.834 -53.5 -144.501 -53.5h-194v-298h-84zM177 372h194c33.333 0 59.166 8.66699 77.499 26s27.5 42 27.5 74v52c0 32 -9.16699 56.667 -27.5 74
s-44.166 26 -77.499 26h-194v-252z" />
    <glyph glyph-name="Q" unicode="Q" horiz-adv-x="708" 
d="M508 -164h-102.999c-28 0 -49 7.83301 -63 23.5s-21 35.167 -21 58.5v71c-40 4 -76.333 14.667 -109 32s-60.334 41.166 -83.001 71.499s-40.167 67 -52.5 110s-18.5 91.833 -18.5 146.5c0 58.667 7 110.334 21 155.001s33.833 82.334 59.5 113.001
s56.667 53.834 93 69.501s77.166 23.5 122.499 23.5c44.667 0 85.334 -7.83301 122.001 -23.5s67.834 -38.834 93.501 -69.501s45.5 -68.334 59.5 -113.001s21 -96.334 21 -155.001c0 -107.333 -22.333 -191.166 -67 -251.499s-105.334 -95.833 -182.001 -106.5v-85h107v-70
zM354.001 63c30 0 57.667 5.33301 83 16s47.166 26 65.499 46s32.5 44 42.5 72s15 59.333 15 94v116c0 34.667 -5 66 -15 94s-24.167 52 -42.5 72s-40.166 35.333 -65.499 46s-53 16 -83 16s-57.667 -5.33301 -83 -16s-47.166 -26 -65.499 -46s-32.5 -44 -42.5 -72
s-15 -59.333 -15 -94v-116c0 -34.667 5 -66 15 -94s24.167 -52 42.5 -72s40.166 -35.333 65.499 -46s53 -16 83 -16z" />
    <glyph glyph-name="R" unicode="R" horiz-adv-x="640" 
d="M177 0h-83.999v698h278c61.333 0 109.166 -17 143.499 -51s51.5 -83 51.5 -147c0 -51.333 -11.833 -93.5 -35.5 -126.5s-58.5 -54.833 -104.5 -65.5l160 -308h-95l-151 300h-163v-300zM371.001 372c33.333 0 59.166 8.66699 77.499 26s27.5 42 27.5 74v52
c0 32 -9.16699 56.667 -27.5 74s-44.166 26 -77.499 26h-194v-252h194z" />
    <glyph glyph-name="S" unicode="S" horiz-adv-x="581" 
d="M289 -12c-56.667 0 -104.999 10.8301 -144.999 32.4971s-74 51.5 -102 89.5l62 52c24.667 -32.667 52 -57.5 82 -74.5s65.333 -25.5 106 -25.5c50 0 88.167 12 114.5 36s39.5 56 39.5 96c0 33.333 -10 59 -30 77s-53 32.333 -99 43l-57 13
c-64 14.667 -112.833 36.834 -146.5 66.501s-50.5 71.5 -50.5 125.5c0 30.667 5.66699 58 17 82s27.166 44 47.499 60s44.666 28.167 72.999 36.5s59.5 12.5 93.5 12.5c52.667 0 97.834 -9.66699 135.501 -29s69.5 -47.666 95.5 -84.999l-63 -46
c-19.333 26.667 -42.666 47.667 -69.999 63s-61.333 23 -102 23c-44.667 0 -79.834 -9.5 -105.501 -28.5s-38.5 -47.5 -38.5 -85.5c0 -33.333 10.833 -58.5 32.5 -75.5s54.5 -30.5 98.5 -40.5l57 -13c68.667 -15.333 118.334 -38.666 149.001 -69.999s46 -73 46 -125
c0 -32 -5.5 -61 -16.5 -87s-26.833 -48 -47.5 -66s-45.834 -32 -75.501 -42s-63.167 -15 -100.5 -15z" />
    <glyph glyph-name="T" unicode="T" horiz-adv-x="572" 
d="M328 624v-624h-84v624h-222v74h528v-74h-222z" />
    <glyph glyph-name="U" unicode="U" horiz-adv-x="678" 
d="M172 698v-432c0 -66.667 12.333 -117.167 37 -151.5s68 -51.5 130 -51.5s105.333 17.167 130 51.5s37 84.833 37 151.5v432h84v-412c0 -50.667 -4.5 -94.667 -13.5 -132s-23.5 -68.333 -43.5 -93s-46.167 -43 -78.5 -55s-71.833 -18 -118.5 -18s-85.834 6 -117.501 18
s-57.167 30.333 -76.5 55s-33.166 55.667 -41.499 93s-12.5 81.333 -12.5 132v412h84z" />
    <glyph glyph-name="V" unicode="V" horiz-adv-x="609" 
d="M252 0l-232 698h90l115 -352l77 -262h5l79 262l116 352h87l-235 -698h-102z" />
    <glyph glyph-name="W" unicode="W" horiz-adv-x="891" 
d="M190 0l-170 698h89l75 -336l58 -261h2l65 261l88 336h96l85 -336l65 -260h3l60 260l79 336h86l-179 -698h-93l-91 348l-64 256h-2l-66 -256l-93 -348h-93z" />
    <glyph glyph-name="X" unicode="X" horiz-adv-x="613" 
d="M589 0h-101l-183 293h-2l-183 -293h-96l228 355l-222 343h101l175 -278h2l179 278h96l-224 -340z" />
    <glyph glyph-name="Y" unicode="Y" horiz-adv-x="593" 
d="M253 0v276l-240 422h96l186 -336h3l186 336h96l-243 -419v-279h-84z" />
    <glyph glyph-name="Z" unicode="Z" horiz-adv-x="580" 
d="M544 0h-508v76l403 548h-382v74h473v-76l-404 -548h418v-74z" />
    <glyph glyph-name="bracketleft" unicode="[" horiz-adv-x="317" 
d="M93 -138v898h164v-63h-95v-772h95v-63h-164z" />
    <glyph glyph-name="backslash" unicode="\" horiz-adv-x="383" 
d="M299 -151l-259 891h72l259 -891h-72z" />
    <glyph glyph-name="bracketright" unicode="]" horiz-adv-x="317" 
d="M224 760v-898h-164v63h95v772h-95v63h164z" />
    <glyph glyph-name="asciicircum" unicode="^" 
d="M489 296l-187 328h-4l-187 -328l-61 32l207 370h86l207 -370z" />
    <glyph glyph-name="underscore" unicode="_" horiz-adv-x="565" 
d="M30 -165v70h505v-70h-505z" />
    <glyph glyph-name="grave" unicode="`" 
d="M187 744l73 35l85 -170l-52 -24z" />
    <glyph glyph-name="a" unicode="a" horiz-adv-x="534" 
d="M460 0c-30 0 -51.502 8.00098 -64.502 24.001s-21.167 36 -24.5 60h-5c-11.333 -32 -30 -56 -56 -72s-57 -24 -93 -24c-54.667 0 -97.167 14 -127.5 42s-45.5 66 -45.5 114c0 48.667 17.833 86 53.5 112s91.167 39 166.5 39h102v51c0 36.667 -10 64.667 -30 84
s-50.667 29 -92 29c-31.333 0 -57.5 -7 -78.5 -21s-38.5 -32.667 -52.5 -56l-48 45c14 28 36.333 51.833 67 71.5s69.334 29.5 116.001 29.5c62.667 0 111.334 -15.333 146.001 -46s52 -73.334 52 -128.001v-284h59v-70h-45zM229.998 56.001
c20 0 38.334 2.33203 55.001 6.99902s31 11.334 43 20.001s21.333 18.667 28 30s10 23.666 10 36.999v85h-106c-46 0 -79.5 -6.66699 -100.5 -20s-31.5 -32.666 -31.5 -57.999v-21c0 -25.333 9.16699 -45 27.5 -59s43.166 -21 74.499 -21z" />
    <glyph glyph-name="b" unicode="b" horiz-adv-x="580" 
d="M85 740l80 -0.00488281v-308h4c13.333 32.667 32.833 56.834 58.5 72.501s56.5 23.5 92.5 23.5c32 0 61 -6.33301 87 -19s48.167 -30.667 66.5 -54s32.333 -51.666 42 -84.999s14.5 -70.666 14.5 -111.999s-4.83301 -78.666 -14.5 -111.999s-23.667 -61.666 -42 -84.999
s-40.5 -41.333 -66.5 -54s-55 -19 -87 -19c-70 0 -120.333 32 -151 96h-4v-84h-80v740zM298 59.9951c45.333 0 81 14.167 107 42.5s39 65.5 39 111.5v88c0 46 -13 83.167 -39 111.5s-61.667 42.5 -107 42.5c-18 0 -35.167 -2.5 -51.5 -7.5s-30.5 -11.833 -42.5 -20.5
s-21.5 -19.167 -28.5 -31.5s-10.5 -25.5 -10.5 -39.5v-192c0 -16.667 3.5 -31.5 10.5 -44.5s16.5 -24 28.5 -33s26.167 -15.833 42.5 -20.5s33.5 -7 51.5 -7z" />
    <glyph glyph-name="c" unicode="c" horiz-adv-x="503" 
d="M277 -12c-36 0 -68.334 6.33691 -97.001 19.0039s-52.834 30.667 -72.501 54s-34.667 51.666 -45 84.999s-15.5 70.666 -15.5 111.999s5.16699 78.666 15.5 111.999s25.333 61.666 45 84.999s43.834 41.333 72.501 54s61 19 97 19c51.333 0 92.5 -11.167 123.5 -33.5
s54.167 -51.5 69.5 -87.5l-67 -34c-9.33301 26.667 -24.666 47.334 -45.999 62.001s-48 22 -80 22c-24 0 -45 -3.83301 -63 -11.5s-33 -18.334 -45 -32.001s-21 -30 -27 -49s-9 -39.833 -9 -62.5v-88c0 -45.333 12.167 -82.5 36.5 -111.5s60.166 -43.5 107.499 -43.5
c64.667 0 111.334 30 140.001 90l58 -39c-16.667 -37.333 -41.5 -67 -74.5 -89s-74.167 -33 -123.5 -33z" />
    <glyph glyph-name="d" unicode="d" horiz-adv-x="580" 
d="M415 84l-4.00098 0.00488281c-31.333 -64 -81.666 -96 -150.999 -96c-32 0 -61 6.33301 -87 19s-48.167 30.667 -66.5 54s-32.333 51.666 -42 84.999s-14.5 70.666 -14.5 111.999s4.83301 78.666 14.5 111.999s23.667 61.666 42 84.999s40.5 41.333 66.5 54s55 19 87 19
c36 0 66.833 -7.83301 92.5 -23.5s45.167 -39.834 58.5 -72.501h4v308h80v-740h-80v84zM281.999 60.0049c18 0 35.167 2.33301 51.5 7s30.5 11.5 42.5 20.5s21.5 20 28.5 33s10.5 27.833 10.5 44.5v192c0 14 -3.5 27.167 -10.5 39.5s-16.5 22.833 -28.5 31.5
s-26.167 15.5 -42.5 20.5s-33.5 7.5 -51.5 7.5c-45.333 0 -81 -14.167 -107 -42.5s-39 -65.5 -39 -111.5v-88c0 -46 13 -83.167 39 -111.5s61.667 -42.5 107 -42.5z" />
    <glyph glyph-name="e" unicode="e" horiz-adv-x="549" 
d="M279 -12c-35.333 0 -67.1631 6.33203 -95.4961 18.999s-52.666 30.834 -72.999 54.501s-36 52 -47 85s-16.5 70.167 -16.5 111.5c0 40.667 5.5 77.667 16.5 111s26.667 61.833 47 85.5s44.666 41.834 72.999 54.501s60.166 19 95.499 19c34.667 0 65.667 -6.33301 93 -19
s50.666 -30.167 69.999 -52.5s34.166 -48.833 44.499 -79.5s15.5 -64.334 15.5 -101.001v-38h-371v-24c0 -22 3.5 -42.5 10.5 -61.5s17 -35.5 30 -49.5s29 -25 48 -33s40.5 -12 64.5 -12c32.667 0 61.167 7.66699 85.5 23s43.166 37.333 56.499 66l57 -41
c-16.667 -35.333 -42.667 -63.833 -78 -85.5s-77.333 -32.5 -126 -32.5zM279.003 460.999c-22 0 -42 -3.83301 -60 -11.5s-33.5 -18.5 -46.5 -32.5s-23.167 -30.5 -30.5 -49.5s-11 -39.833 -11 -62.5v-7h285v11c0 46 -12.5 82.833 -37.5 110.5s-58.167 41.5 -99.5 41.5z" />
    <glyph glyph-name="f" unicode="f" horiz-adv-x="324" 
d="M113 446h-84v70h84v104c0 36 9.33301 65 28 87s47 33 85 33h78v-70h-111v-154h111v-70h-111v-446h-80v446z" />
    <glyph glyph-name="g" unicode="g" horiz-adv-x="528" 
d="M520 -57c0 -53.333 -20.832 -92.502 -62.499 -117.502s-104.167 -37.5 -187.5 -37.5c-80.667 0 -138.667 11 -174 33s-53 53.333 -53 94c0 28 7.33301 49.833 22 65.5s34.667 27.167 60 34.5v11c-30.667 14.667 -46 38.667 -46 72c0 26 8.33301 45.833 25 59.5
s38 23.834 64 30.501v4c-30.667 14.667 -54.5 35.667 -71.5 63s-25.5 59 -25.5 95c0 26 4.66699 50 14 72s22.5 40.833 39.5 56.5s37.333 27.834 61 36.501s50.167 13 79.5 13c36.667 0 69.334 -6.66699 98.001 -20v9c0 20 4.66699 36.5 14 49.5s24.666 19.5 45.999 19.5h77
v-70h-98v-33c18.667 -16 33.167 -35.167 43.5 -57.5s15.5 -47.5 15.5 -75.5c0 -26 -4.66699 -50 -14 -72s-22.5 -40.833 -39.5 -56.5s-37.5 -27.834 -61.5 -36.501s-50.667 -13 -80 -13c-16.667 0 -33.334 1.66699 -50.001 5c-17.333 -4.66699 -33 -11.5 -47 -20.5
s-21 -21.5 -21 -37.5c0 -15.333 7.33301 -25.666 22 -30.999s33.667 -8 57 -8h110c64 0 110.5 -12.167 139.5 -36.5s43.5 -57.833 43.5 -100.5zM445.001 -63.002c0 20.667 -7.83398 37.167 -23.501 49.5s-43.5 18.5 -83.5 18.5h-172c-32 -14.667 -48 -38 -48 -70
c0 -22.667 8.5 -42 25.5 -58s45.833 -24 86.5 -24h74c44.667 0 79.334 7 104.001 21s37 35 37 63zM266 235.998c34 0 61 8.16699 81 24.5s30 41.5 30 75.5v28c0 34 -10 59.167 -30 75.5s-47 24.5 -81 24.5s-61 -8.16699 -81 -24.5s-30 -41.5 -30 -75.5v-28
c0 -34 10 -59.167 30 -75.5s47 -24.5 81 -24.5z" />
    <glyph glyph-name="h" unicode="h" horiz-adv-x="568" 
d="M85 740l80 0.000976562v-308h4c12.667 29.333 30.5 52.666 53.5 69.999s53.833 26 92.5 26c53.333 0 95.5 -17.167 126.5 -51.5s46.5 -82.833 46.5 -145.5v-331h-80v317c0 92.667 -39 139 -117 139c-16 0 -31.5 -2 -46.5 -6s-28.5 -10 -40.5 -18
s-21.5 -18.167 -28.5 -30.5s-10.5 -26.833 -10.5 -43.5v-358h-80v740z" />
    <glyph glyph-name="i" unicode="i" horiz-adv-x="250" 
d="M125 637c-17.333 0 -29.833 4.16699 -37.5 12.5s-11.5 19.166 -11.5 32.499v13c0 13.333 3.83301 24.166 11.5 32.499s20.167 12.5 37.5 12.5s29.833 -4.16699 37.5 -12.5s11.5 -19.166 11.5 -32.499v-13c0 -13.333 -3.83301 -24.166 -11.5 -32.499
s-20.167 -12.5 -37.5 -12.5zM85 516h80v-516h-80v516z" />
    <glyph glyph-name="j" unicode="j" horiz-adv-x="250" 
d="M85 516h80v-596c0 -36 -9 -65 -27 -87s-46.333 -33 -85 -33h-52v70h84v646zM125 637c-17.333 0 -29.833 4.16699 -37.5 12.5s-11.5 19.166 -11.5 32.499v13c0 13.333 3.83301 24.166 11.5 32.499s20.167 12.5 37.5 12.5s29.833 -4.16699 37.5 -12.5
s11.5 -19.166 11.5 -32.499v-13c0 -13.333 -3.83301 -24.166 -11.5 -32.499s-20.167 -12.5 -37.5 -12.5z" />
    <glyph glyph-name="k" unicode="k" horiz-adv-x="527" 
d="M85 740h80v-469h4l79 88l146 157h97l-191 -204l210 -312h-97l-171 263l-77 -79v-184h-80v740z" />
    <glyph glyph-name="l" unicode="l" horiz-adv-x="272" 
d="M170 0c-28 0 -49.167 7.83301 -63.5 23.5s-21.5 35.5 -21.5 59.5v657h80v-670h76v-70h-71z" />
    <glyph glyph-name="m" unicode="m" horiz-adv-x="873" 
d="M85 0l-0.00195312 515.998h80v-84h4c6 13.333 12.833 25.833 20.5 37.5s17 21.834 28 30.501s23.833 15.5 38.5 20.5s32 7.5 52 7.5c34 0 65.333 -8.16699 94 -24.5s50 -43.166 64 -80.499h2c9.33301 28 26.833 52.5 52.5 73.5s60.5 31.5 104.5 31.5
c52.667 0 93.834 -17.167 123.501 -51.5s44.5 -82.833 44.5 -145.5v-331h-80v317c0 46 -9 80.667 -27 104s-46.667 35 -86 35c-16 0 -31.167 -2 -45.5 -6s-27.166 -10 -38.499 -18s-20.333 -18.167 -27 -30.5s-10 -26.833 -10 -43.5v-358h-80v317c0 46 -9 80.667 -27 104
s-46 35 -84 35c-16 0 -31.333 -2 -46 -6s-27.667 -10 -39 -18s-20.5 -18.167 -27.5 -30.5s-10.5 -26.833 -10.5 -43.5v-358h-80z" />
    <glyph glyph-name="n" unicode="n" horiz-adv-x="568" 
d="M85 0v516.001h80v-84h4c12.667 29.333 30.5 52.666 53.5 69.999s53.833 26 92.5 26c53.333 0 95.5 -17.167 126.5 -51.5s46.5 -82.833 46.5 -145.5v-331h-80v317c0 92.667 -39 139 -117 139c-16 0 -31.5 -2 -46.5 -6s-28.5 -10 -40.5 -18s-21.5 -18.167 -28.5 -30.5
s-10.5 -26.833 -10.5 -43.5v-358h-80z" />
    <glyph glyph-name="o" unicode="o" horiz-adv-x="560" 
d="M280 -12c-34.667 0 -66.334 6.33301 -95.001 19s-53.167 30.834 -73.5 54.501s-36.166 52 -47.499 85s-17 70.167 -17 111.5c0 40.667 5.66699 77.667 17 111s27.166 61.833 47.499 85.5s44.833 41.834 73.5 54.501s60.334 19 95.001 19s66.167 -6.33301 94.5 -19
s52.833 -30.834 73.5 -54.501s36.667 -52.167 48 -85.5s17 -70.333 17 -111c0 -41.333 -5.66699 -78.5 -17 -111.5s-27.333 -61.333 -48 -85s-45.167 -41.834 -73.5 -54.501s-59.833 -19 -94.5 -19zM280 59c43.333 0 78.666 13.333 105.999 40s41 67.334 41 122.001v74
c0 54.667 -13.667 95.334 -41 122.001s-62.666 40 -105.999 40s-78.666 -13.333 -105.999 -40s-41 -67.334 -41 -122.001v-74c0 -54.667 13.667 -95.334 41 -122.001s62.666 -40 105.999 -40z" />
    <glyph glyph-name="p" unicode="p" horiz-adv-x="580" 
d="M85 516l80 -0.00488281v-84h4c13.333 32.667 32.833 56.834 58.5 72.501s56.5 23.5 92.5 23.5c32 0 61 -6.33301 87 -19s48.167 -30.667 66.5 -54s32.333 -51.666 42 -84.999s14.5 -70.666 14.5 -111.999s-4.83301 -78.666 -14.5 -111.999s-23.667 -61.666 -42 -84.999
s-40.5 -41.333 -66.5 -54s-55 -19 -87 -19c-70 0 -120.333 32 -151 96h-4v-284h-80v716zM298 59.9951c45.333 0 81 14.167 107 42.5s39 65.5 39 111.5v88c0 46 -13 83.167 -39 111.5s-61.667 42.5 -107 42.5c-18 0 -35.167 -2.5 -51.5 -7.5s-30.5 -11.833 -42.5 -20.5
s-21.5 -19.167 -28.5 -31.5s-10.5 -25.5 -10.5 -39.5v-192c0 -16.667 3.5 -31.5 10.5 -44.5s16.5 -24 28.5 -33s26.167 -15.833 42.5 -20.5s33.5 -7 51.5 -7z" />
    <glyph glyph-name="q" unicode="q" horiz-adv-x="580" 
d="M415 84l-4.00098 0.00488281c-31.333 -64 -81.666 -96 -150.999 -96c-32 0 -61 6.33301 -87 19s-48.167 30.667 -66.5 54s-32.333 51.666 -42 84.999s-14.5 70.666 -14.5 111.999s4.83301 78.666 14.5 111.999s23.667 61.666 42 84.999s40.5 41.333 66.5 54s55 19 87 19
c36 0 66.833 -7.83301 92.5 -23.5s45.167 -39.834 58.5 -72.501h4v84h80v-716h-80v284zM281.999 60.0049c18 0 35.167 2.33301 51.5 7s30.5 11.5 42.5 20.5s21.5 20 28.5 33s10.5 27.833 10.5 44.5v192c0 14 -3.5 27.167 -10.5 39.5s-16.5 22.833 -28.5 31.5
s-26.167 15.5 -42.5 20.5s-33.5 7.5 -51.5 7.5c-45.333 0 -81 -14.167 -107 -42.5s-39 -65.5 -39 -111.5v-88c0 -46 13 -83.167 39 -111.5s61.667 -42.5 107 -42.5z" />
    <glyph glyph-name="r" unicode="r" horiz-adv-x="367" 
d="M85 0l-0.000976562 516h80v-95h5c9.33301 24.667 26 46.667 50 66s57 29 99 29h31v-80h-47c-43.333 0 -77.166 -8.16699 -101.499 -24.5s-36.5 -36.833 -36.5 -61.5v-350h-80z" />
    <glyph glyph-name="s" unicode="s" horiz-adv-x="487" 
d="M240 -12c-48 0 -88.167 9.16406 -120.5 27.4971s-60.166 42.833 -83.499 73.5l57 46c20 -25.333 42.333 -44.833 67 -58.5s53.334 -20.5 86.001 -20.5c34 0 60.5 7.33301 79.5 22s28.5 35.334 28.5 62.001c0 20 -6.5 37.167 -19.5 51.5s-36.5 24.166 -70.5 29.499l-41 6
c-24 3.33301 -46 8.5 -66 15.5s-37.5 16.333 -52.5 28s-26.667 26.167 -35 43.5s-12.5 38 -12.5 62c0 25.333 4.66699 47.5 14 66.5s22.166 34.833 38.499 47.5s35.833 22.167 58.5 28.5s47 9.5 73 9.5c42 0 77.167 -7.33301 105.5 -22s53.166 -35 74.499 -61l-53 -48
c-11.333 16 -28 30.5 -50 43.5s-49.667 19.5 -83 19.5s-58.5 -7.16699 -75.5 -21.5s-25.5 -33.833 -25.5 -58.5c0 -25.333 8.5 -43.666 25.5 -54.999s41.5 -19.666 73.5 -24.999l40 -6c57.333 -8.66699 98 -25.167 122 -49.5s36 -56.166 36 -95.499
c0 -50 -17 -89.333 -51 -118s-80.667 -43 -140 -43z" />
    <glyph glyph-name="t" unicode="t" horiz-adv-x="351" 
d="M199 0c-28 0 -49.166 7.83301 -63.499 23.5s-21.5 36.167 -21.5 61.5v361h-85v70h48c17.333 0 29.166 3.5 35.499 10.5s9.5 19.167 9.5 36.5v96h72v-143h113v-70h-113v-376h105v-70h-100z" />
    <glyph glyph-name="u" unicode="u" horiz-adv-x="568" 
d="M403 84l-4.00098 0.000976562c-5.33301 -12 -11.833 -23.833 -19.5 -35.5s-17.167 -22 -28.5 -31s-25 -16.167 -41 -21.5s-34.667 -8 -56 -8c-53.333 0 -95.666 17.167 -126.999 51.5s-47 82.833 -47 145.5v331h80v-317c0 -92.667 39.333 -139 118 -139
c16 0 31.5 2 46.5 6s28.333 10 40 18s21 18.167 28 30.5s10.5 27.166 10.5 44.499v357h80v-516h-80v84z" />
    <glyph glyph-name="v" unicode="v" horiz-adv-x="492" 
d="M199 0l-181 516h80l90 -256l56 -176h5l56 176l92 256h77l-182 -516h-93z" />
    <glyph glyph-name="w" unicode="w" horiz-adv-x="768" 
d="M31 516h78l55 -223l55 -226h2l63 226l65 223h71l67 -223l64 -226h2l53 226l56 223h75l-137 -516h-99l-72 248l-45 157h-2l-44 -157l-72 -248h-97z" />
    <glyph glyph-name="x" unicode="x" horiz-adv-x="507" 
d="M21 0l191 260l-183 256h94l131 -192h3l136 192h89l-182 -250l186 -266h-94l-134 202h-3l-145 -202h-89z" />
    <glyph glyph-name="y" unicode="y" horiz-adv-x="499" 
d="M403 516l79 -0.000976562l-231 -636c-6 -15.333 -12 -28.166 -18 -38.499s-13.333 -18.5 -22 -24.5s-19.5 -10.333 -32.5 -13s-28.833 -4 -47.5 -4h-41v70h81l39 110l-193 536h80l124 -351l24 -84h5l28 84z" />
    <glyph glyph-name="z" unicode="z" horiz-adv-x="464" 
d="M33 0v67l293 379h-284v70h381v-60l-299 -386h307v-70h-398z" />
    <glyph glyph-name="braceleft" unicode="{" horiz-adv-x="343" 
d="M199 -138c-26.667 0 -46.667 7.8291 -60 23.4961s-20 35.167 -20 58.5v240c0 28.667 -9.16699 50.5 -27.5 65.5s-41.5 22.5 -69.5 22.5v78c28 0 51.167 7.5 69.5 22.5s27.5 36.833 27.5 65.5v240c0 23.333 6.66699 42.833 20 58.5s33.333 23.5 60 23.5h84v-63h-95v-250
c0 -31.333 -8.83301 -59.166 -26.5 -83.499s-40.5 -39.166 -68.5 -44.499v-16c28 -5.33301 50.833 -20.166 68.5 -44.499s26.5 -52.166 26.5 -83.499v-250h95v-63h-84z" />
    <glyph glyph-name="bar" unicode="|" horiz-adv-x="314" 
d="M123 -138v898h68v-898h-68z" />
    <glyph glyph-name="braceright" unicode="}" horiz-adv-x="343" 
d="M144 760c26.667 0 46.667 -7.8291 60 -23.4961s20 -35.167 20 -58.5v-240c0 -28.667 9.16699 -50.5 27.5 -65.5s41.5 -22.5 69.5 -22.5v-78c-28 0 -51.167 -7.5 -69.5 -22.5s-27.5 -36.833 -27.5 -65.5v-240c0 -23.333 -6.66699 -42.833 -20 -58.5
s-33.333 -23.5 -60 -23.5h-84v63h95v250c0 31.333 8.83301 59.166 26.5 83.499s40.5 39.166 68.5 44.499v16c-28 5.33301 -50.833 20.166 -68.5 44.499s-26.5 52.166 -26.5 83.499v250h-95v63h84z" />
    <glyph glyph-name="asciitilde" unicode="~" 
d="M419 236c-24.667 0 -46.5 3.33301 -65.5 10s-40.167 15.667 -63.5 27c-18.667 9.33301 -37 17.333 -55 24s-37.333 10 -58 10c-16.667 0 -30.834 -2.5 -42.501 -7.5s-25.167 -13.167 -40.5 -24.5l-33 44c13.333 16.667 29.166 30 47.499 40s42.5 15 72.5 15
c24.667 0 46.5 -3.33301 65.5 -10s40.167 -15.667 63.5 -27c18.667 -9.33301 37 -17.333 55 -24s37.333 -10 58 -10c16.667 0 30.834 2.5 42.501 7.5s25.167 13.167 40.5 24.5l33 -44c-13.333 -16.667 -29.166 -30 -47.499 -40s-42.5 -15 -72.5 -15z" />
    <glyph glyph-name="uni00A0" unicode="&#xa0;" horiz-adv-x="236" 
 />
    <glyph glyph-name="exclamdown" unicode="&#xa1;" horiz-adv-x="284" 
d="M97 -182v203l24 310h40l24 -310v-203h-88zM142 399c-21.333 0 -36.833 5.33301 -46.5 16s-14.5 24.667 -14.5 42v13c0 17.333 4.83301 31.333 14.5 42s25.167 16 46.5 16s36.833 -5.33301 46.5 -16s14.5 -24.667 14.5 -42v-13c0 -17.333 -4.83301 -31.333 -14.5 -42
s-25.167 -16 -46.5 -16z" />
    <glyph glyph-name="cent" unicode="&#xa2;" horiz-adv-x="514" 
d="M235 -114l0.000976562 105c-60.667 8.66699 -107.167 36.667 -139.5 84s-48.5 108.333 -48.5 183c0 75.333 16.333 136.5 49 183.5s79 74.833 139 83.5v105h70v-103c42 -3.33301 76.333 -15.833 103 -37.5s47 -48.5 61 -80.5l-64 -35
c-18 47.333 -51.667 74.666 -101 81.999v-396c52 6 90 35.333 114 88l58 -39c-14.667 -34 -36.334 -61.667 -65.001 -83s-64 -33.666 -106 -36.999v-103h-70zM133.001 214c0 -38 8.66699 -70.834 26 -98.501s43 -45.167 77 -52.5v390
c-34 -7.33301 -59.667 -24.666 -77 -51.999s-26 -60.333 -26 -99v-88z" />
    <glyph glyph-name="sterling" unicode="&#xa3;" horiz-adv-x="595" 
d="M82 0l-0.000976562 100c28 12 47 30.833 57 56.5s15 52.5 15 80.5c0 8.66699 -0.333008 17.167 -1 25.5s-1.66699 16.166 -3 23.499h-90v70h71l-21 67.5c-6.66699 22.333 -10 47.5 -10 75.5c0 30.667 5.16699 59 15.5 85s25.333 48.333 45 67s43.834 33.167 72.501 43.5
s61 15.5 97 15.5c51.333 0 94.166 -10 128.499 -30s62.833 -48 85.5 -84l-63 -46c-17.333 26.667 -38.166 47.667 -62.499 63s-54.833 23 -91.5 23c-43.333 0 -77.5 -12 -102.5 -36s-37.5 -60.333 -37.5 -109c0 -25.333 3 -48.833 9 -70.5s12.333 -43.167 19 -64.5h216v-70
h-198c2 -13.333 3 -26.666 3 -39.999c0 -37.333 -7.5 -71 -22.5 -101s-32.5 -51.667 -52.5 -65v-5h364v-75h-443z" />
    <glyph glyph-name="currency" unicode="&#xa4;" horiz-adv-x="612" 
d="M306 119c-56 0 -102 15 -138 45l-102 -102l-48 47l106 106c-21.333 37.333 -32 82 -32 134s10.667 96.667 32 134l-106 106l48 47l102 -102c36 30 82 45 138 45s102 -15 138 -45l102 102l48 -47l-106 -106c21.333 -37.333 32 -82 32 -134s-10.667 -96.667 -32 -134
l106 -106l-48 -47l-102 102c-36 -30 -82 -45 -138 -45zM306 186c38.667 0 69.834 10.833 93.501 32.5s35.5 54.5 35.5 98.5v64c0 44 -11.833 76.833 -35.5 98.5s-54.834 32.5 -93.501 32.5s-69.834 -10.833 -93.501 -32.5s-35.5 -54.5 -35.5 -98.5v-64
c0 -44 11.833 -76.833 35.5 -98.5s54.834 -32.5 93.501 -32.5z" />
    <glyph glyph-name="yen" unicode="&#xa5;" horiz-adv-x="605" 
d="M344 145v-145h-83v145h-176v67h176v96h-176v67h136l-187 323h94l175 -315h5l170 315h93l-187 -323h136v-67h-176v-96h176v-67h-176z" />
    <glyph glyph-name="brokenbar" unicode="&#xa6;" horiz-adv-x="314" 
d="M123 406v354h68v-354h-68zM123 -138v354h68v-354h-68z" />
    <glyph glyph-name="section" unicode="&#xa7;" horiz-adv-x="586" 
d="M475 4c0 -24.667 -4.83105 -46.8311 -14.498 -66.498s-23.167 -36.334 -40.5 -50.001s-38.166 -24.167 -62.499 -31.5s-51.166 -11 -80.499 -11c-30 0 -59.5 4.33301 -88.5 13s-55.167 23 -78.5 43l46 56c16 -13.333 34 -23.833 54 -31.5s42.667 -11.5 68 -11.5
c37.333 0 66.333 7.83301 87 23.5s31 37.167 31 64.5c0 25.333 -9.16699 45.333 -27.5 60s-43.833 27 -76.5 37l-63 19c-54 16 -93 37 -117 63s-36 56 -36 90c0 32 9.5 60.333 28.5 85s45.833 44 80.5 58v7c-22 14.667 -39.833 32.667 -53.5 54s-20.5 47 -20.5 77
c0 24 4.66699 45.667 14 65s22.666 36 39.999 50s38.166 24.667 62.499 32s51.166 11 80.499 11c30 0 59.667 -4.33301 89 -13s55.666 -23 78.999 -43l-47 -56c-16 13.333 -34 23.833 -54 31.5s-42.667 11.5 -68 11.5c-37.333 0 -66.333 -7.83301 -87 -23.5
s-31 -37.167 -31 -64.5c0 -25.333 9.16699 -45.333 27.5 -60s43.833 -27 76.5 -37l63 -19c54 -16 93.167 -37 117.5 -63s36.5 -56 36.5 -90c0 -32 -9.5 -60.333 -28.5 -85s-46.167 -44 -81.5 -58v-6c24 -15.333 42.5 -33.833 55.5 -55.5s19.5 -46.834 19.5 -75.501z
M431.002 263.003c0 28 -9.5 50.832 -28.5 68.499s-48.5 32.167 -88.5 43.5l-62 17c-5.33301 1.33301 -10.666 3 -15.999 5l-16 6c-20 -14 -35.833 -30.167 -47.5 -48.5s-17.5 -39.166 -17.5 -62.499c0 -28 9.33301 -50.833 28 -68.5s48 -32.167 88 -43.5l62 -17
c5.33301 -1.33301 10.666 -3 15.999 -5l16 -6c20 14.667 36 31 48 49s18 38.667 18 62z" />
    <glyph glyph-name="dieresis" unicode="&#xa8;" 
d="M207 618c-17.333 0 -29.833 4.16699 -37.5 12.5s-11.5 19.5 -11.5 33.5v11c0 14 3.83301 25.167 11.5 33.5s20.167 12.5 37.5 12.5s29.833 -4.16699 37.5 -12.5s11.5 -19.5 11.5 -33.5v-11c0 -14 -3.83301 -25.167 -11.5 -33.5s-20.167 -12.5 -37.5 -12.5zM393 618
c-17.333 0 -29.833 4.16699 -37.5 12.5s-11.5 19.5 -11.5 33.5v11c0 14 3.83301 25.167 11.5 33.5s20.167 12.5 37.5 12.5s29.833 -4.16699 37.5 -12.5s11.5 -19.5 11.5 -33.5v-11c0 -14 -3.83301 -25.167 -11.5 -33.5s-20.167 -12.5 -37.5 -12.5z" />
    <glyph glyph-name="copyright" unicode="&#xa9;" horiz-adv-x="776" 
d="M388 -11c-46.667 0 -90.334 8.33301 -131.001 25s-76 40.5 -106 71.5s-53.667 68.833 -71 113.5s-26 94.667 -26 150s8.66699 105.333 26 150s41 82.5 71 113.5s65.333 54.833 106 71.5s84.334 25 131.001 25s90.334 -8.33301 131.001 -25s76 -40.5 106 -71.5
s53.667 -68.833 71 -113.5s26 -94.667 26 -150s-8.66699 -105.333 -26 -150s-41 -82.5 -71 -113.5s-65.333 -54.833 -106 -71.5s-84.334 -25 -131.001 -25zM388 49c38.667 0 74.334 6.83301 107.001 20.5s60.834 32.5 84.501 56.5s42 52.5 55 85.5s19.5 68.833 19.5 107.5
v60c0 38.667 -6.5 74.5 -19.5 107.5s-31.333 61.5 -55 85.5s-51.834 42.833 -84.501 56.5s-68.334 20.5 -107.001 20.5c-39.333 0 -75.166 -6.83301 -107.499 -20.5s-60.333 -32.5 -84 -56.5s-42 -52.5 -55 -85.5s-19.5 -68.833 -19.5 -107.5v-60
c0 -38.667 6.5 -74.5 19.5 -107.5s31.333 -61.5 55 -85.5s51.667 -42.833 84 -56.5s68.166 -20.5 107.499 -20.5zM396 155c-52 0 -92.5 17.498 -121.5 52.498s-43.5 82.167 -43.5 141.5s14.5 106.5 43.5 141.5s69.5 52.5 121.5 52.5c34 0 61.833 -8 83.5 -24
s38.167 -37 49.5 -63l-57 -32c-7.33301 17.333 -17 31 -29 41s-27.667 15 -47 15c-29.333 0 -51.5 -9.16699 -66.5 -27.5s-22.5 -42.166 -22.5 -71.499v-65c0 -29.333 7.5 -53.166 22.5 -71.499s37.167 -27.5 66.5 -27.5c21.333 0 38.333 5.5 51 16.5s24 25.5 34 43.5
l54 -34c-11.333 -25.333 -28.5 -46.333 -51.5 -63s-52.167 -25 -87.5 -25z" />
    <glyph glyph-name="ordfeminine" unicode="&#xaa;" horiz-adv-x="399" 
d="M360 350h-34.001c-19.333 0 -34.5 4.33301 -45.5 13s-16.5 22 -16.5 40h-4c-7.33301 -15.333 -20 -29 -38 -41s-42.333 -18 -73 -18c-35.333 0 -62.333 9 -81 27s-28 41.667 -28 71c0 36 12.833 62.333 38.5 79s62.5 25 110.5 25h71v28c0 52 -25 78 -75 78
c-22.667 0 -41.667 -4.83301 -57 -14.5s-26.666 -22.167 -33.999 -37.5l-42 34c10 17.333 26 33.333 48 48s51.333 22 88 22c42 0 75 -11 99 -33s36 -53.333 36 -94v-171h37v-56zM186.999 500c-27.333 0 -48.168 -4.00098 -62.501 -12.001s-21.5 -19.667 -21.5 -35v-10
c0 -32 20 -48 60 -48c12.667 0 24.834 1.5 36.501 4.5s22 7.33301 31 13s16.167 12.334 21.5 20.001s8 16.5 8 26.5v41h-73z" />
    <glyph glyph-name="guillemotleft" unicode="&#xab;" horiz-adv-x="513" 
d="M228 80l-192 166v76l192 166l24 -54l-137 -150l137 -150zM437 80l-192 166v76l192 166l24 -54l-137 -150l137 -150z" />
    <glyph glyph-name="logicalnot" unicode="&#xac;" 
d="M464 78v193h-397v68h466v-261h-69z" />
    <glyph glyph-name="uni00AD" unicode="&#xad;" horiz-adv-x="399" 
d="M69 261v86h261v-86h-261z" />
    <glyph glyph-name="registered" unicode="&#xae;" horiz-adv-x="476" 
d="M238 298c-27.333 0 -53 5.16699 -77 15.5s-45 24.833 -63 43.5s-32.167 40.5 -42.5 65.5s-15.5 52.167 -15.5 81.5s5.16699 56.5 15.5 81.5s24.5 46.833 42.5 65.5s39 33.167 63 43.5s49.667 15.5 77 15.5c26.667 0 52 -5.16699 76 -15.5s45 -24.833 63 -43.5
s32.333 -40.5 43 -65.5s16 -52.167 16 -81.5s-5.33301 -56.5 -16 -81.5s-25 -46.833 -43 -65.5s-39 -33.167 -63 -43.5s-49.333 -15.5 -76 -15.5zM238 338c22.667 0 43.5 4.33301 62.5 13s35.333 20.167 49 34.5s24.334 30.833 32.001 49.5s11.5 38 11.5 58v22
c0 20 -3.83301 39.333 -11.5 58s-18.334 35.167 -32.001 49.5s-30 25.833 -49 34.5s-39.833 13 -62.5 13s-43.5 -4.33301 -62.5 -13s-35.333 -20.167 -49 -34.5s-24.334 -30.833 -32.001 -49.5s-11.5 -38 -11.5 -58v-22c0 -20 3.83301 -39.333 11.5 -58
s18.334 -35.167 32.001 -49.5s30 -25.833 49 -34.5s39.833 -13 62.5 -13zM203 396l-40.001 0.000976562v209h90c20 0 35.667 -5.83301 47 -17.5s17 -26.834 17 -45.501c0 -16 -3.66699 -29 -11 -39s-16.666 -17.333 -27.999 -22l49 -85h-45l-44 80h-35v-80zM250.999 508.001
c15.333 0 23 7 23 21v22c0 14 -7.66699 21 -23 21h-48v-64h48z" />
    <glyph glyph-name="macron" unicode="&#xaf;" 
d="M160 705h280v-68h-280v68z" />
    <glyph glyph-name="degree" unicode="&#xb0;" horiz-adv-x="468" 
d="M234 366c-24 0 -46.167 4.33301 -66.5 13s-38 20.667 -53 36s-26.833 33.5 -35.5 54.5s-13 43.833 -13 68.5s4.33301 47.5 13 68.5s20.5 39.167 35.5 54.5s32.667 27.333 53 36s42.5 13 66.5 13s46.167 -4.33301 66.5 -13s38 -20.667 53 -36s26.833 -33.5 35.5 -54.5
s13 -43.833 13 -68.5s-4.33301 -47.5 -13 -68.5s-20.5 -39.167 -35.5 -54.5s-32.667 -27.333 -53 -36s-42.5 -13 -66.5 -13zM234 430c30 0 53.833 10.5 71.5 31.5s26.5 46.5 26.5 76.5s-8.83301 55.5 -26.5 76.5s-41.5 31.5 -71.5 31.5s-53.833 -10.5 -71.5 -31.5
s-26.5 -46.5 -26.5 -76.5s8.83301 -55.5 26.5 -76.5s41.5 -31.5 71.5 -31.5z" />
    <glyph glyph-name="plusminus" unicode="&#xb1;" 
d="M262 152v199h-195v68h195v199h76v-199h195v-68h-195v-199h-76zM67 0v68h466v-68h-466z" />
    <glyph glyph-name="twosuperior" unicode="&#xb2;" horiz-adv-x="346" 
d="M311 329l-272 0.000976562v57l130 105c19.333 16 34.5 31.833 45.5 47.5s16.5 32.5 16.5 50.5v6c0 17.333 -5.5 31.166 -16.5 41.499s-27.167 15.5 -48.5 15.5c-23.333 0 -40.833 -5.66699 -52.5 -17s-20.167 -25 -25.5 -41l-54 20c4 12 9.5 23.333 16.5 34
s16 20.167 27 28.5s24.167 15 39.5 20s33 7.5 53 7.5c41.333 0 73 -10.167 95 -30.5s33 -46.5 33 -78.5c0 -29.333 -8.83301 -54.833 -26.5 -76.5s-40.5 -43.167 -68.5 -64.5l-97 -75h205v-50z" />
    <glyph glyph-name="threesuperior" unicode="&#xb3;" horiz-adv-x="346" 
d="M155 546c25.333 0 44.1689 4.83594 56.502 14.5029s18.5 22.167 18.5 37.5v4c0 16.667 -5.83301 29.5 -17.5 38.5s-27.5 13.5 -47.5 13.5c-19.333 0 -35.666 -4 -48.999 -12s-24.666 -19 -33.999 -33l-43 34c11.333 16.667 27.166 31 47.499 43s47.166 18 80.499 18
c38 0 69.167 -8.33301 93.5 -25s36.5 -40 36.5 -70c0 -24 -7.66699 -43 -23 -57s-33.666 -23.333 -54.999 -28v-3c22.667 -4 42.334 -13.333 59.001 -28s25 -35.334 25 -62.001c0 -32.667 -12.833 -58.834 -38.5 -78.501s-60.5 -29.5 -104.5 -29.5
c-36.667 0 -65.334 6.66699 -86.001 20s-37.334 28.666 -50.001 45.999l47 34c9.33301 -14.667 20.666 -26.667 33.999 -36s31.666 -14 54.999 -14c25.333 0 44.5 5.33301 57.5 16s19.5 25.667 19.5 45v6c0 36.667 -25.667 55 -77 55h-45v51h40z" />
    <glyph glyph-name="acute" unicode="&#xb4;" 
d="M307 585l-52 24l85 170l73 -35z" />
    <glyph glyph-name="mu" unicode="&#xb5;" horiz-adv-x="573" 
d="M85 -200v716.002h80v-317c0 -46 10 -80.667 30 -104s49 -35 87 -35c16 0 31.5 2 46.5 6s28.5 10.167 40.5 18.5s21.5 18.666 28.5 30.999s10.5 27.166 10.5 44.499v356h80v-516h-80v84h-4c-5.33301 -12 -11.833 -23.833 -19.5 -35.5s-17.167 -22 -28.5 -31
s-24.666 -16.167 -39.999 -21.5s-33.333 -8 -54 -8c-48.667 0 -82.334 17.333 -101.001 52h-3l7 -85v-155h-80z" />
    <glyph glyph-name="paragraph" unicode="&#xb6;" horiz-adv-x="652" 
d="M246 300c-27.333 0 -52.666 5.33301 -75.999 16s-43.833 25 -61.5 43s-31.5 39 -41.5 63s-15 49.667 -15 77c0 26.667 5 52.167 15 76.5s23.833 45.5 41.5 63.5s38.167 32.333 61.5 43s48.666 16 75.999 16h324v-68h-67v-779h-73v779h-111v-779h-73v449z" />
    <glyph glyph-name="periodcentered" unicode="&#xb7;" horiz-adv-x="326" 
d="M163 240c-21.333 0 -36.833 5.33301 -46.5 16s-14.5 24.667 -14.5 42v13c0 17.333 4.83301 31.333 14.5 42s25.167 16 46.5 16s36.833 -5.33301 46.5 -16s14.5 -24.667 14.5 -42v-13c0 -17.333 -4.83301 -31.333 -14.5 -42s-25.167 -16 -46.5 -16z" />
    <glyph glyph-name="cedilla" unicode="&#xb8;" 
d="M312 -207c-27.333 0 -48.834 4.5 -64.501 13.5s-27.167 18.167 -34.5 27.5l38 41c6 -7.33301 14 -13.833 24 -19.5s22.333 -8.5 37 -8.5c12.667 0 23.167 2.5 31.5 7.5s12.5 12.833 12.5 23.5c0 9.33301 -4.33301 17.5 -13 24.5s-27 12.5 -55 16.5l-28 4l19 97h50
l-16 -81l3 -3c12.667 4 25.667 6 39 6c19.333 0 35.5 -5.66699 48.5 -17s19.5 -27.666 19.5 -48.999c0 -14 -3 -26.333 -9 -37s-14.167 -19.334 -24.5 -26.001s-22.166 -11.667 -35.499 -15s-27.333 -5 -42 -5z" />
    <glyph glyph-name="onesuperior" unicode="&#xb9;" horiz-adv-x="359" 
d="M55 329v50h109v268h-6l-90 -89l-36 37l102 103h93v-319h98v-50h-270z" />
    <glyph glyph-name="ordmasculine" unicode="&#xba;" horiz-adv-x="398" 
d="M199 344c-48.667 0 -86.667 15.833 -114 47.5s-41 75.834 -41 132.501s13.667 100.834 41 132.501s65.333 47.5 114 47.5s86.667 -15.833 114 -47.5s41 -75.834 41 -132.501s-13.667 -100.834 -41 -132.501s-65.333 -47.5 -114 -47.5zM199 396
c29.333 0 51.166 9 65.499 27s21.5 41.333 21.5 70v62c0 28.667 -7.16699 52 -21.5 70s-36.166 27 -65.499 27s-51.166 -9 -65.499 -27s-21.5 -41.333 -21.5 -70v-62c0 -28.667 7.16699 -52 21.5 -70s36.166 -27 65.499 -27z" />
    <glyph glyph-name="guillemotright" unicode="&#xbb;" horiz-adv-x="513" 
d="M52 134l137 150l-137 150l24 54l192 -166v-76l-192 -166zM261 134l137 150l-137 150l24 54l192 -166v-76l-192 -166z" />
    <glyph glyph-name="onequarter" unicode="&#xbc;" horiz-adv-x="847" 
d="M55 329v50h109v268h-6l-90 -89l-36 37l102 103h93v-319h98v-50h-270zM171 0l486 698h67l-486 -698h-67zM710 0v72h-189v52l164 245h85v-249h56v-48h-56v-72h-60zM710 312h-4l-130 -192h134v192z" />
    <glyph glyph-name="onehalf" unicode="&#xbd;" horiz-adv-x="872" 
d="M55 329v50h109v268h-6l-90 -89l-36 37l102 103h93v-319h98v-50h-270zM171 0l486 698h67l-486 -698h-67zM837 0l-272 0.000976562v57l130 105c19.333 16 34.5 32 45.5 48s16.5 32.667 16.5 50v6c0 17.333 -5.5 31.166 -16.5 41.499s-27.167 15.5 -48.5 15.5
c-23.333 0 -40.833 -5.66699 -52.5 -17s-20.167 -25 -25.5 -41l-54 20c4 12 9.5 23.333 16.5 34s16 20.167 27 28.5s24.167 15 39.5 20s33 7.5 53 7.5c41.333 0 73 -10.167 95 -30.5s33 -46.5 33 -78.5c0 -29.333 -8.83301 -54.833 -26.5 -76.5s-40.5 -43.167 -68.5 -64.5
l-97 -75h205v-50z" />
    <glyph glyph-name="threequarters" unicode="&#xbe;" horiz-adv-x="824" 
d="M155 546c25.333 0 44.1689 4.83594 56.502 14.5029s18.5 22.167 18.5 37.5v4c0 16.667 -5.83301 29.5 -17.5 38.5s-27.5 13.5 -47.5 13.5c-19.333 0 -35.666 -4 -48.999 -12s-24.666 -19 -33.999 -33l-43 34c11.333 16.667 27.166 31 47.499 43s47.166 18 80.499 18
c38 0 69.167 -8.33301 93.5 -25s36.5 -40 36.5 -70c0 -24 -7.66699 -43 -23 -57s-33.666 -23.333 -54.999 -28v-3c22.667 -4 42.334 -13.333 59.001 -28s25 -35.334 25 -62.001c0 -32.667 -12.833 -58.834 -38.5 -78.501s-60.5 -29.5 -104.5 -29.5
c-36.667 0 -65.334 6.66699 -86.001 20s-37.334 28.666 -50.001 45.999l47 34c9.33301 -14.667 20.666 -26.667 33.999 -36s31.666 -14 54.999 -14c25.333 0 44.5 5.33301 57.5 16s19.5 25.667 19.5 45v6c0 36.667 -25.667 55 -77 55h-45v51h40zM148.003 0.00292969l486 698
h67l-486 -698h-67zM687.003 0.00292969v72h-189v52l164 245h85v-249h56v-48h-56v-72h-60zM687.003 312.003h-4l-130 -192h134v192z" />
    <glyph glyph-name="questiondown" unicode="&#xbf;" horiz-adv-x="467" 
d="M238 -194c-62 0 -110.999 16.999 -146.999 50.999s-54 80 -54 138c0 32 5.5 59.833 16.5 83.5s25.167 43.834 42.5 60.501s37 30 59 40s44 17 66 21v108h77v-164c-54.667 -2.66699 -97.5 -16 -128.5 -40s-46.5 -57 -46.5 -99v-14c0 -34 10.667 -61.167 32 -81.5
s50 -30.5 86 -30.5c38.667 0 69.5 11 92.5 33s38.5 50 46.5 84l74 -28c-6 -21.333 -14.833 -41.833 -26.5 -61.5s-26.334 -37 -44.001 -52s-38.5 -26.833 -62.5 -35.5s-51.667 -13 -83 -13zM262.001 398.999c-21.333 0 -36.833 5.33301 -46.5 16s-14.5 24.667 -14.5 42v13
c0 17.333 4.83301 31.333 14.5 42s25.167 16 46.5 16s36.833 -5.33301 46.5 -16s14.5 -24.667 14.5 -42v-13c0 -17.333 -4.83301 -31.333 -14.5 -42s-25.167 -16 -46.5 -16z" />
    <glyph glyph-name="Agrave" unicode="&#xc0;" horiz-adv-x="641" 
d="M530 0l-70 206h-282l-70 -206h-85l244 698h107l244 -698h-88zM321 620h-5l-118 -340h241zM209 914l73 35l85 -170l-52 -24z" />
    <glyph glyph-name="Aacute" unicode="&#xc1;" horiz-adv-x="641" 
d="M530 0l-70 206h-282l-70 -206h-85l244 698h107l244 -698h-88zM321 620h-5l-118 -340h241zM329 755l-52 24l85 170l73 -35z" />
    <glyph glyph-name="Acircumflex" unicode="&#xc2;" horiz-adv-x="641" 
d="M530 0l-70 206h-282l-70 -206h-85l244 698h107l244 -698h-88zM321 620h-5l-118 -340h241zM372 935l111 -143l-44 -31l-117 117l-117 -117l-44 31l111 143h100z" />
    <glyph glyph-name="Atilde" unicode="&#xc3;" horiz-adv-x="641" 
d="M530 0l-70 206h-282l-70 -206h-85l244 698h107l244 -698h-88zM321 620h-5l-118 -340h241zM395 782c-17.333 0 -32.333 3 -45 9l-35 17c-16 8.66699 -29.5 14.834 -40.5 18.501s-20.833 5.5 -29.5 5.5c-11.333 0 -21.333 -2.33301 -30 -7s-18 -11.334 -28 -20.001l-33 40
c9.33301 13.333 21.666 25.5 36.999 36.5s34.666 16.5 57.999 16.5c17.333 0 32.333 -3 45 -9l35 -17c16 -8.66699 29.5 -14.834 40.5 -18.501s20.833 -5.5 29.5 -5.5c11.333 0 21.333 2.33301 30 7s18 11.334 28 20.001l33 -40
c-9.33301 -13.333 -21.666 -25.5 -36.999 -36.5s-34.666 -16.5 -57.999 -16.5z" />
    <glyph glyph-name="Adieresis" unicode="&#xc4;" horiz-adv-x="641" 
d="M530 0l-70 206h-282l-70 -206h-85l244 698h107l244 -698h-88zM321 620h-5l-118 -340h241zM229 788c-17.333 0 -30 4.33301 -38 13s-12 20 -12 34v12c0 14 4 25.333 12 34s20.667 13 38 13s30 -4.33301 38 -13s12 -20 12 -34v-12c0 -14 -4 -25.333 -12 -34
s-20.667 -13 -38 -13zM415 788c-17.333 0 -30 4.33301 -38 13s-12 20 -12 34v12c0 14 4 25.333 12 34s20.667 13 38 13s30 -4.33301 38 -13s12 -20 12 -34v-12c0 -14 -4 -25.333 -12 -34s-20.667 -13 -38 -13z" />
    <glyph glyph-name="Aring" unicode="&#xc5;" horiz-adv-x="641" 
d="M530 0l-70 206h-282l-70 -206h-85l244 698h107l244 -698h-88zM321 620h-5l-118 -340h241zM322 746c-16 0 -31.167 2.83301 -45.5 8.5s-26.666 13.667 -36.999 24s-18.5 22.5 -24.5 36.5s-9 29.333 -9 46s3 32 9 46s14.167 26.167 24.5 36.5s22.666 18.333 36.999 24
s29.5 8.5 45.5 8.5s31.167 -2.83301 45.5 -8.5s26.666 -13.667 36.999 -24s18.5 -22.5 24.5 -36.5s9 -29.333 9 -46s-3 -32 -9 -46s-14.167 -26.167 -24.5 -36.5s-22.666 -18.333 -36.999 -24s-29.5 -8.5 -45.5 -8.5zM322 795c18 0 32.167 4.83301 42.5 14.5
s15.5 23.167 15.5 40.5v22c0 17.333 -5.16699 30.833 -15.5 40.5s-24.5 14.5 -42.5 14.5s-32.167 -4.83301 -42.5 -14.5s-15.5 -23.167 -15.5 -40.5v-22c0 -17.333 5.16699 -30.833 15.5 -40.5s24.5 -14.5 42.5 -14.5z" />
    <glyph glyph-name="AE" unicode="&#xc6;" horiz-adv-x="907" 
d="M417 205h-225l-102 -205h-86l357 698h482v-74h-343v-234h323v-74h-323v-242h343v-74h-426v205zM404 624l-177 -345h190v345h-13z" />
    <glyph glyph-name="Ccedilla" unicode="&#xc7;" horiz-adv-x="621" 
d="M339 635c-30 0 -56.833 -5.66602 -80.5 -16.999s-43.667 -27.5 -60 -48.5s-28.833 -46 -37.5 -75s-13 -61.5 -13 -97.5v-104c0 -72 16.667 -128.333 50 -169s80.333 -61 141 -61c44.667 0 82 11.5 112 34.5s52 53.5 66 91.5l67 -42c-20.667 -46 -49.834 -83 -87.501 -111
s-82.834 -43.667 -135.501 -47l-10 -50l3 -3c12.667 4 25.667 6 39 6c19.333 0 35.5 -5.66699 48.5 -17s19.5 -27.666 19.5 -48.999c0 -14 -3 -26.333 -9 -37s-14.167 -19.334 -24.5 -26.001s-22.166 -11.667 -35.499 -15s-27.333 -5 -42 -5
c-27.333 0 -48.833 4.5 -64.5 13.5s-27.167 18.167 -34.5 27.5l38 41c6 -7.33301 14 -13.833 24 -19.5s22.333 -8.5 37 -8.5c12.667 0 23.167 2.5 31.5 7.5s12.5 12.833 12.5 23.5c0 9.33301 -4.33301 17.5 -13 24.5s-27 12.5 -55 16.5l-28 4l13 66
c-80 6 -142.167 39 -186.5 99s-66.5 145.667 -66.5 257c0 117.333 24.667 207.5 74 270.5s118.333 94.5 207 94.5c58.667 0 107.834 -13.333 147.501 -40s70.5 -64.334 92.5 -113.001l-68 -41c-14 36 -35.333 64.833 -64 86.5s-64.667 32.5 -108 32.5z" />
    <glyph glyph-name="Egrave" unicode="&#xc8;" horiz-adv-x="583" 
d="M93 0v698h426v-74h-342v-234h322v-74h-322v-242h342v-74h-426zM191 914l73 35l85 -170l-52 -24z" />
    <glyph glyph-name="Eacute" unicode="&#xc9;" horiz-adv-x="583" 
d="M93 0v698h426v-74h-342v-234h322v-74h-322v-242h342v-74h-426zM311 755l-52 24l85 170l73 -35z" />
    <glyph glyph-name="Ecircumflex" unicode="&#xca;" horiz-adv-x="583" 
d="M93 0v698h426v-74h-342v-234h322v-74h-322v-242h342v-74h-426zM354 935l111 -143l-44 -31l-117 117l-117 -117l-44 31l111 143h100z" />
    <glyph glyph-name="Edieresis" unicode="&#xcb;" horiz-adv-x="583" 
d="M93 0v698h426v-74h-342v-234h322v-74h-322v-242h342v-74h-426zM211 788c-17.333 0 -30 4.33301 -38 13s-12 20 -12 34v12c0 14 4 25.333 12 34s20.667 13 38 13s30 -4.33301 38 -13s12 -20 12 -34v-12c0 -14 -4 -25.333 -12 -34s-20.667 -13 -38 -13zM397 788
c-17.333 0 -30 4.33301 -38 13s-12 20 -12 34v12c0 14 4 25.333 12 34s20.667 13 38 13s30 -4.33301 38 -13s12 -20 12 -34v-12c0 -14 -4 -25.333 -12 -34s-20.667 -13 -38 -13z" />
    <glyph glyph-name="Igrave" unicode="&#xcc;" horiz-adv-x="400" 
d="M60 0v70h98v558h-98v70h280v-70h-98v-558h98v-70h-280zM88 914l73 35l85 -170l-52 -24z" />
    <glyph glyph-name="Iacute" unicode="&#xcd;" horiz-adv-x="400" 
d="M60 0v70h98v558h-98v70h280v-70h-98v-558h98v-70h-280zM208 755l-52 24l85 170l73 -35z" />
    <glyph glyph-name="Icircumflex" unicode="&#xce;" horiz-adv-x="400" 
d="M60 0v70h98v558h-98v70h280v-70h-98v-558h98v-70h-280zM251 935l111 -143l-44 -31l-117 117l-117 -117l-44 31l111 143h100z" />
    <glyph glyph-name="Idieresis" unicode="&#xcf;" horiz-adv-x="400" 
d="M60 0v70h98v558h-98v70h280v-70h-98v-558h98v-70h-280zM108 788c-17.333 0 -30 4.33301 -38 13s-12 20 -12 34v12c0 14 4 25.333 12 34s20.667 13 38 13s30 -4.33301 38 -13s12 -20 12 -34v-12c0 -14 -4 -25.333 -12 -34s-20.667 -13 -38 -13zM294 788
c-17.333 0 -30 4.33301 -38 13s-12 20 -12 34v12c0 14 4 25.333 12 34s20.667 13 38 13s30 -4.33301 38 -13s12 -20 12 -34v-12c0 -14 -4 -25.333 -12 -34s-20.667 -13 -38 -13z" />
    <glyph glyph-name="Eth" unicode="&#xd0;" horiz-adv-x="674" 
d="M96 337h-79v64h79v297h234c43.333 0 82.666 -7.33301 117.999 -22s65.5 -36.5 90.5 -65.5s44.167 -65.333 57.5 -109s20 -94.5 20 -152.5s-6.66699 -108.833 -20 -152.5s-32.5 -80 -57.5 -109s-55.167 -50.833 -90.5 -65.5s-74.666 -22 -117.999 -22h-234v337zM330 74
c28.667 0 55 4.83105 79 14.498s44.667 23.834 62 42.501s30.833 41.5 40.5 68.5s14.5 57.833 14.5 92.5v114c0 34.667 -4.83301 65.5 -14.5 92.5s-23.167 49.833 -40.5 68.5s-38 32.834 -62 42.501s-50.333 14.5 -79 14.5h-150v-223h137v-64h-137v-263h150z" />
    <glyph glyph-name="Ntilde" unicode="&#xd1;" horiz-adv-x="707" 
d="M262 426l-84 155h-3v-581h-82v698h97l255 -426l84 -155h3v581h82v-698h-97zM426 782c-17.333 0 -32.333 3 -45 9l-35 17c-16 8.66699 -29.5 14.834 -40.5 18.501s-20.833 5.5 -29.5 5.5c-11.333 0 -21.333 -2.33301 -30 -7s-18 -11.334 -28 -20.001l-33 40
c9.33301 13.333 21.666 25.5 36.999 36.5s34.666 16.5 57.999 16.5c17.333 0 32.333 -3 45 -9l35 -17c16 -8.66699 29.5 -14.834 40.5 -18.501s20.833 -5.5 29.5 -5.5c11.333 0 21.333 2.33301 30 7s18 11.334 28 20.001l33 -40
c-9.33301 -13.333 -21.666 -25.5 -36.999 -36.5s-34.666 -16.5 -57.999 -16.5z" />
    <glyph glyph-name="Ograve" unicode="&#xd2;" horiz-adv-x="708" 
d="M354 -12c-45.333 0 -86.166 7.83301 -122.499 23.5s-67.333 38.667 -93 69s-45.5 68 -59.5 113s-21 96.833 -21 155.5s7 110.334 21 155.001s33.833 82.334 59.5 113.001s56.667 53.834 93 69.501s77.166 23.5 122.499 23.5c44.667 0 85.334 -7.83301 122.001 -23.5
s67.834 -38.834 93.501 -69.501s45.5 -68.334 59.5 -113.001s21 -96.334 21 -155.001s-7 -110.5 -21 -155.5s-33.833 -82.667 -59.5 -113s-56.834 -53.333 -93.501 -69s-77.334 -23.5 -122.001 -23.5zM354 63c30 0 57.667 5.33301 83 16s47.166 26 65.499 46
s32.5 44 42.5 72s15 59.333 15 94v116c0 34.667 -5 66 -15 94s-24.167 52 -42.5 72s-40.166 35.333 -65.499 46s-53 16 -83 16s-57.667 -5.33301 -83 -16s-47.166 -26 -65.499 -46s-32.5 -44 -42.5 -72s-15 -59.333 -15 -94v-116c0 -34.667 5 -66 15 -94
s24.167 -52 42.5 -72s40.166 -35.333 65.499 -46s53 -16 83 -16zM241 914l73 35l85 -170l-52 -24z" />
    <glyph glyph-name="Oacute" unicode="&#xd3;" horiz-adv-x="708" 
d="M354 -12c-45.333 0 -86.166 7.83301 -122.499 23.5s-67.333 38.667 -93 69s-45.5 68 -59.5 113s-21 96.833 -21 155.5s7 110.334 21 155.001s33.833 82.334 59.5 113.001s56.667 53.834 93 69.501s77.166 23.5 122.499 23.5c44.667 0 85.334 -7.83301 122.001 -23.5
s67.834 -38.834 93.501 -69.501s45.5 -68.334 59.5 -113.001s21 -96.334 21 -155.001s-7 -110.5 -21 -155.5s-33.833 -82.667 -59.5 -113s-56.834 -53.333 -93.501 -69s-77.334 -23.5 -122.001 -23.5zM354 63c30 0 57.667 5.33301 83 16s47.166 26 65.499 46
s32.5 44 42.5 72s15 59.333 15 94v116c0 34.667 -5 66 -15 94s-24.167 52 -42.5 72s-40.166 35.333 -65.499 46s-53 16 -83 16s-57.667 -5.33301 -83 -16s-47.166 -26 -65.499 -46s-32.5 -44 -42.5 -72s-15 -59.333 -15 -94v-116c0 -34.667 5 -66 15 -94
s24.167 -52 42.5 -72s40.166 -35.333 65.499 -46s53 -16 83 -16zM361 755l-52 24l85 170l73 -35z" />
    <glyph glyph-name="Ocircumflex" unicode="&#xd4;" horiz-adv-x="708" 
d="M354 -12c-45.333 0 -86.166 7.83301 -122.499 23.5s-67.333 38.667 -93 69s-45.5 68 -59.5 113s-21 96.833 -21 155.5s7 110.334 21 155.001s33.833 82.334 59.5 113.001s56.667 53.834 93 69.501s77.166 23.5 122.499 23.5c44.667 0 85.334 -7.83301 122.001 -23.5
s67.834 -38.834 93.501 -69.501s45.5 -68.334 59.5 -113.001s21 -96.334 21 -155.001s-7 -110.5 -21 -155.5s-33.833 -82.667 -59.5 -113s-56.834 -53.333 -93.501 -69s-77.334 -23.5 -122.001 -23.5zM354 63c30 0 57.667 5.33301 83 16s47.166 26 65.499 46
s32.5 44 42.5 72s15 59.333 15 94v116c0 34.667 -5 66 -15 94s-24.167 52 -42.5 72s-40.166 35.333 -65.499 46s-53 16 -83 16s-57.667 -5.33301 -83 -16s-47.166 -26 -65.499 -46s-32.5 -44 -42.5 -72s-15 -59.333 -15 -94v-116c0 -34.667 5 -66 15 -94
s24.167 -52 42.5 -72s40.166 -35.333 65.499 -46s53 -16 83 -16zM404 935l111 -143l-44 -31l-117 117l-117 -117l-44 31l111 143h100z" />
    <glyph glyph-name="Otilde" unicode="&#xd5;" horiz-adv-x="708" 
d="M354 -12c-45.333 0 -86.166 7.83301 -122.499 23.5s-67.333 38.667 -93 69s-45.5 68 -59.5 113s-21 96.833 -21 155.5s7 110.334 21 155.001s33.833 82.334 59.5 113.001s56.667 53.834 93 69.501s77.166 23.5 122.499 23.5c44.667 0 85.334 -7.83301 122.001 -23.5
s67.834 -38.834 93.501 -69.501s45.5 -68.334 59.5 -113.001s21 -96.334 21 -155.001s-7 -110.5 -21 -155.5s-33.833 -82.667 -59.5 -113s-56.834 -53.333 -93.501 -69s-77.334 -23.5 -122.001 -23.5zM354 63c30 0 57.667 5.33301 83 16s47.166 26 65.499 46
s32.5 44 42.5 72s15 59.333 15 94v116c0 34.667 -5 66 -15 94s-24.167 52 -42.5 72s-40.166 35.333 -65.499 46s-53 16 -83 16s-57.667 -5.33301 -83 -16s-47.166 -26 -65.499 -46s-32.5 -44 -42.5 -72s-15 -59.333 -15 -94v-116c0 -34.667 5 -66 15 -94
s24.167 -52 42.5 -72s40.166 -35.333 65.499 -46s53 -16 83 -16zM427 782c-17.333 0 -32.333 3 -45 9l-35 17c-16 8.66699 -29.5 14.834 -40.5 18.501s-20.833 5.5 -29.5 5.5c-11.333 0 -21.333 -2.33301 -30 -7s-18 -11.334 -28 -20.001l-33 40
c9.33301 13.333 21.666 25.5 36.999 36.5s34.666 16.5 57.999 16.5c17.333 0 32.333 -3 45 -9l35 -17c16 -8.66699 29.5 -14.834 40.5 -18.501s20.833 -5.5 29.5 -5.5c11.333 0 21.333 2.33301 30 7s18 11.334 28 20.001l33 -40
c-9.33301 -13.333 -21.666 -25.5 -36.999 -36.5s-34.666 -16.5 -57.999 -16.5z" />
    <glyph glyph-name="Odieresis" unicode="&#xd6;" horiz-adv-x="708" 
d="M354 -12c-45.333 0 -86.166 7.83301 -122.499 23.5s-67.333 38.667 -93 69s-45.5 68 -59.5 113s-21 96.833 -21 155.5s7 110.334 21 155.001s33.833 82.334 59.5 113.001s56.667 53.834 93 69.501s77.166 23.5 122.499 23.5c44.667 0 85.334 -7.83301 122.001 -23.5
s67.834 -38.834 93.501 -69.501s45.5 -68.334 59.5 -113.001s21 -96.334 21 -155.001s-7 -110.5 -21 -155.5s-33.833 -82.667 -59.5 -113s-56.834 -53.333 -93.501 -69s-77.334 -23.5 -122.001 -23.5zM354 63c30 0 57.667 5.33301 83 16s47.166 26 65.499 46
s32.5 44 42.5 72s15 59.333 15 94v116c0 34.667 -5 66 -15 94s-24.167 52 -42.5 72s-40.166 35.333 -65.499 46s-53 16 -83 16s-57.667 -5.33301 -83 -16s-47.166 -26 -65.499 -46s-32.5 -44 -42.5 -72s-15 -59.333 -15 -94v-116c0 -34.667 5 -66 15 -94
s24.167 -52 42.5 -72s40.166 -35.333 65.499 -46s53 -16 83 -16zM261 788c-17.333 0 -30 4.33301 -38 13s-12 20 -12 34v12c0 14 4 25.333 12 34s20.667 13 38 13s30 -4.33301 38 -13s12 -20 12 -34v-12c0 -14 -4 -25.333 -12 -34s-20.667 -13 -38 -13zM447 788
c-17.333 0 -30 4.33301 -38 13s-12 20 -12 34v12c0 14 4 25.333 12 34s20.667 13 38 13s30 -4.33301 38 -13s12 -20 12 -34v-12c0 -14 -4 -25.333 -12 -34s-20.667 -13 -38 -13z" />
    <glyph glyph-name="multiply" unicode="&#xd7;" 
d="M300 256l-159 -163l-49 49l159 163l-159 163l49 49l159 -163l159 163l49 -49l-159 -163l159 -163l-49 -49z" />
    <glyph glyph-name="Oslash" unicode="&#xd8;" horiz-adv-x="708" 
d="M354 -12c-68 0 -125.664 17.6641 -172.997 52.9971l-60 -86l-57 37l68 97c-24 30.667 -42.333 67.5 -55 110.5s-19 92.833 -19 149.5c0 58.667 7 110.334 21 155.001s33.833 82.334 59.5 113.001s56.667 53.834 93 69.501s77.166 23.5 122.499 23.5
c68 0 125.667 -17.667 173 -53l60 86l57 -37l-68 -97c24 -30.667 42.333 -67.5 55 -110.5s19 -92.833 19 -149.5c0 -58.667 -7 -110.5 -21 -155.5s-33.833 -82.667 -59.5 -113s-56.834 -53.333 -93.501 -69s-77.334 -23.5 -122.001 -23.5zM148.003 290.997
c0 -25.333 2.83301 -49 8.5 -71s13.5 -42 23.5 -60l302 432c-34.667 28.667 -77.334 43 -128.001 43c-30 0 -57.667 -5.33301 -83 -16s-47.166 -26 -65.499 -46s-32.5 -44 -42.5 -72s-15 -59.333 -15 -94v-116zM560.003 406.997c0 25.333 -2.83301 49 -8.5 71
s-13.5 42 -23.5 60l-302 -432c34.667 -28.667 77.334 -43 128.001 -43c30 0 57.667 5.33301 83 16s47.166 26 65.499 46s32.5 44 42.5 72s15 59.333 15 94v116z" />
    <glyph glyph-name="Ugrave" unicode="&#xd9;" horiz-adv-x="678" 
d="M172 698v-432c0 -66.667 12.333 -117.167 37 -151.5s68 -51.5 130 -51.5s105.333 17.167 130 51.5s37 84.833 37 151.5v432h84v-412c0 -50.667 -4.5 -94.667 -13.5 -132s-23.5 -68.333 -43.5 -93s-46.167 -43 -78.5 -55s-71.833 -18 -118.5 -18s-85.834 6 -117.501 18
s-57.167 30.333 -76.5 55s-33.166 55.667 -41.499 93s-12.5 81.333 -12.5 132v412h84zM224 914l73 35l85 -170l-52 -24z" />
    <glyph glyph-name="Uacute" unicode="&#xda;" horiz-adv-x="678" 
d="M172 698v-432c0 -66.667 12.333 -117.167 37 -151.5s68 -51.5 130 -51.5s105.333 17.167 130 51.5s37 84.833 37 151.5v432h84v-412c0 -50.667 -4.5 -94.667 -13.5 -132s-23.5 -68.333 -43.5 -93s-46.167 -43 -78.5 -55s-71.833 -18 -118.5 -18s-85.834 6 -117.501 18
s-57.167 30.333 -76.5 55s-33.166 55.667 -41.499 93s-12.5 81.333 -12.5 132v412h84zM344 755l-52 24l85 170l73 -35z" />
    <glyph glyph-name="Ucircumflex" unicode="&#xdb;" horiz-adv-x="678" 
d="M172 698v-432c0 -66.667 12.333 -117.167 37 -151.5s68 -51.5 130 -51.5s105.333 17.167 130 51.5s37 84.833 37 151.5v432h84v-412c0 -50.667 -4.5 -94.667 -13.5 -132s-23.5 -68.333 -43.5 -93s-46.167 -43 -78.5 -55s-71.833 -18 -118.5 -18s-85.834 6 -117.501 18
s-57.167 30.333 -76.5 55s-33.166 55.667 -41.499 93s-12.5 81.333 -12.5 132v412h84zM387 935l111 -143l-44 -31l-117 117l-117 -117l-44 31l111 143h100z" />
    <glyph glyph-name="Udieresis" unicode="&#xdc;" horiz-adv-x="678" 
d="M172 698v-432c0 -66.667 12.333 -117.167 37 -151.5s68 -51.5 130 -51.5s105.333 17.167 130 51.5s37 84.833 37 151.5v432h84v-412c0 -50.667 -4.5 -94.667 -13.5 -132s-23.5 -68.333 -43.5 -93s-46.167 -43 -78.5 -55s-71.833 -18 -118.5 -18s-85.834 6 -117.501 18
s-57.167 30.333 -76.5 55s-33.166 55.667 -41.499 93s-12.5 81.333 -12.5 132v412h84zM244 788c-17.333 0 -30 4.33301 -38 13s-12 20 -12 34v12c0 14 4 25.333 12 34s20.667 13 38 13s30 -4.33301 38 -13s12 -20 12 -34v-12c0 -14 -4 -25.333 -12 -34s-20.667 -13 -38 -13z
M430 788c-17.333 0 -30 4.33301 -38 13s-12 20 -12 34v12c0 14 4 25.333 12 34s20.667 13 38 13s30 -4.33301 38 -13s12 -20 12 -34v-12c0 -14 -4 -25.333 -12 -34s-20.667 -13 -38 -13z" />
    <glyph glyph-name="Yacute" unicode="&#xdd;" horiz-adv-x="593" 
d="M253 0v276l-240 422h96l186 -336h3l186 336h96l-243 -419v-279h-84zM305 755l-52 24l85 170l73 -35z" />
    <glyph glyph-name="Thorn" unicode="&#xde;" horiz-adv-x="606" 
d="M93 0v698h84v-144h194c62.667 0 110.834 -18 144.501 -54s50.5 -84.667 50.5 -146s-16.833 -110 -50.5 -146s-81.834 -54 -144.501 -54h-194v-154h-84zM177 229h194c33.333 0 59.166 8.66699 77.499 26s27.5 42 27.5 74v50c0 32 -9.16699 56.667 -27.5 74
s-44.166 26 -77.499 26h-194v-250z" />
    <glyph glyph-name="germandbls" unicode="&#xdf;" horiz-adv-x="640" 
d="M613 149c0 -50 -15.999 -89.335 -47.999 -118.002s-76.333 -43 -133 -43c-40 0 -74.333 7.33301 -103 22s-53.334 35.334 -74.001 62.001l54 48c34.667 -42.667 77.667 -64 129 -64c31.333 0 55.5 7.33301 72.5 22s25.5 35.334 25.5 62.001c0 20 -4.66699 37 -14 51
s-28 24 -56 30l-31 7c-20.667 4.66699 -39.834 10.5 -57.501 17.5s-33 16.167 -46 27.5s-23.333 25.333 -31 42s-11.5 37 -11.5 61c0 46 16 81.5 48 106.5s75.333 38.167 130 39.5v5c0 53.333 -11.167 92.833 -33.5 118.5s-57.166 38.5 -104.499 38.5
s-81.833 -12.833 -103.5 -38.5s-32.5 -65.167 -32.5 -118.5v-527h-80v446h-84v70h84v5c0 34.667 4.83301 66.334 14.5 95.001s23.667 53 42 73s40.833 35.5 67.5 46.5s57.334 16.5 92.001 16.5c34 0 64.5 -5.5 91.5 -16.5s49.667 -26.5 68 -46.5s32.333 -44.333 42 -73
s14.5 -60.334 14.5 -95.001v-61h-47c-42 0 -74.5 -6.16699 -97.5 -18.5s-34.5 -32.833 -34.5 -61.5c0 -25.333 6.83301 -43.666 20.5 -54.999s33.167 -20 58.5 -26l30 -7c49.333 -11.333 84.666 -28.333 105.999 -51s32 -53.334 32 -92.001z" />
    <glyph glyph-name="agrave" unicode="&#xe0;" horiz-adv-x="534" 
d="M460 0c-30 0 -51.502 8.00098 -64.502 24.001s-21.167 36 -24.5 60h-5c-11.333 -32 -30 -56 -56 -72s-57 -24 -93 -24c-54.667 0 -97.167 14 -127.5 42s-45.5 66 -45.5 114c0 48.667 17.833 86 53.5 112s91.167 39 166.5 39h102v51c0 36.667 -10 64.667 -30 84
s-50.667 29 -92 29c-31.333 0 -57.5 -7 -78.5 -21s-38.5 -32.667 -52.5 -56l-48 45c14 28 36.333 51.833 67 71.5s69.334 29.5 116.001 29.5c62.667 0 111.334 -15.333 146.001 -46s52 -73.334 52 -128.001v-284h59v-70h-45zM229.998 56.001
c20 0 38.334 2.33203 55.001 6.99902s31 11.334 43 20.001s21.333 18.667 28 30s10 23.666 10 36.999v85h-106c-46 0 -79.5 -6.66699 -100.5 -20s-31.5 -32.666 -31.5 -57.999v-21c0 -25.333 9.16699 -45 27.5 -59s43.166 -21 74.499 -21zM139.999 744l73 35l85 -170
l-52 -24z" />
    <glyph glyph-name="aacute" unicode="&#xe1;" horiz-adv-x="534" 
d="M460 0c-30 0 -51.502 8.00098 -64.502 24.001s-21.167 36 -24.5 60h-5c-11.333 -32 -30 -56 -56 -72s-57 -24 -93 -24c-54.667 0 -97.167 14 -127.5 42s-45.5 66 -45.5 114c0 48.667 17.833 86 53.5 112s91.167 39 166.5 39h102v51c0 36.667 -10 64.667 -30 84
s-50.667 29 -92 29c-31.333 0 -57.5 -7 -78.5 -21s-38.5 -32.667 -52.5 -56l-48 45c14 28 36.333 51.833 67 71.5s69.334 29.5 116.001 29.5c62.667 0 111.334 -15.333 146.001 -46s52 -73.334 52 -128.001v-284h59v-70h-45zM229.998 56.001
c20 0 38.334 2.33203 55.001 6.99902s31 11.334 43 20.001s21.333 18.667 28 30s10 23.666 10 36.999v85h-106c-46 0 -79.5 -6.66699 -100.5 -20s-31.5 -32.666 -31.5 -57.999v-21c0 -25.333 9.16699 -45 27.5 -59s43.166 -21 74.499 -21zM259.999 585l-52 24l85 170l73 -35
z" />
    <glyph glyph-name="acircumflex" unicode="&#xe2;" horiz-adv-x="534" 
d="M460 0c-30 0 -51.502 8.00098 -64.502 24.001s-21.167 36 -24.5 60h-5c-11.333 -32 -30 -56 -56 -72s-57 -24 -93 -24c-54.667 0 -97.167 14 -127.5 42s-45.5 66 -45.5 114c0 48.667 17.833 86 53.5 112s91.167 39 166.5 39h102v51c0 36.667 -10 64.667 -30 84
s-50.667 29 -92 29c-31.333 0 -57.5 -7 -78.5 -21s-38.5 -32.667 -52.5 -56l-48 45c14 28 36.333 51.833 67 71.5s69.334 29.5 116.001 29.5c62.667 0 111.334 -15.333 146.001 -46s52 -73.334 52 -128.001v-284h59v-70h-45zM229.998 56.001
c20 0 38.334 2.33203 55.001 6.99902s31 11.334 43 20.001s21.333 18.667 28 30s10 23.666 10 36.999v85h-106c-46 0 -79.5 -6.66699 -100.5 -20s-31.5 -32.666 -31.5 -57.999v-21c0 -25.333 9.16699 -45 27.5 -59s43.166 -21 74.499 -21zM302.999 765l111 -143l-44 -31
l-117 117l-117 -117l-44 31l111 143h100z" />
    <glyph glyph-name="atilde" unicode="&#xe3;" horiz-adv-x="534" 
d="M460 0c-30 0 -51.502 8.00098 -64.502 24.001s-21.167 36 -24.5 60h-5c-11.333 -32 -30 -56 -56 -72s-57 -24 -93 -24c-54.667 0 -97.167 14 -127.5 42s-45.5 66 -45.5 114c0 48.667 17.833 86 53.5 112s91.167 39 166.5 39h102v51c0 36.667 -10 64.667 -30 84
s-50.667 29 -92 29c-31.333 0 -57.5 -7 -78.5 -21s-38.5 -32.667 -52.5 -56l-48 45c14 28 36.333 51.833 67 71.5s69.334 29.5 116.001 29.5c62.667 0 111.334 -15.333 146.001 -46s52 -73.334 52 -128.001v-284h59v-70h-45zM229.998 56.001
c20 0 38.334 2.33203 55.001 6.99902s31 11.334 43 20.001s21.333 18.667 28 30s10 23.666 10 36.999v85h-106c-46 0 -79.5 -6.66699 -100.5 -20s-31.5 -32.666 -31.5 -57.999v-21c0 -25.333 9.16699 -45 27.5 -59s43.166 -21 74.499 -21zM325.999 612
c-17.333 0 -32.333 3 -45 9l-35 17c-16 8.66699 -29.5 14.834 -40.5 18.501s-20.833 5.5 -29.5 5.5c-11.333 0 -21.333 -2.33301 -30 -7s-18 -11.334 -28 -20.001l-33 40c9.33301 13.333 21.666 25.5 36.999 36.5s34.666 16.5 57.999 16.5c17.333 0 32.333 -3 45 -9l35 -17
c16 -8.66699 29.5 -14.834 40.5 -18.501s20.833 -5.5 29.5 -5.5c11.333 0 21.333 2.33301 30 7s18 11.334 28 20.001l33 -40c-9.33301 -13.333 -21.666 -25.5 -36.999 -36.5s-34.666 -16.5 -57.999 -16.5z" />
    <glyph glyph-name="adieresis" unicode="&#xe4;" horiz-adv-x="534" 
d="M460 0c-30 0 -51.502 8.00098 -64.502 24.001s-21.167 36 -24.5 60h-5c-11.333 -32 -30 -56 -56 -72s-57 -24 -93 -24c-54.667 0 -97.167 14 -127.5 42s-45.5 66 -45.5 114c0 48.667 17.833 86 53.5 112s91.167 39 166.5 39h102v51c0 36.667 -10 64.667 -30 84
s-50.667 29 -92 29c-31.333 0 -57.5 -7 -78.5 -21s-38.5 -32.667 -52.5 -56l-48 45c14 28 36.333 51.833 67 71.5s69.334 29.5 116.001 29.5c62.667 0 111.334 -15.333 146.001 -46s52 -73.334 52 -128.001v-284h59v-70h-45zM229.998 56.001
c20 0 38.334 2.33203 55.001 6.99902s31 11.334 43 20.001s21.333 18.667 28 30s10 23.666 10 36.999v85h-106c-46 0 -79.5 -6.66699 -100.5 -20s-31.5 -32.666 -31.5 -57.999v-21c0 -25.333 9.16699 -45 27.5 -59s43.166 -21 74.499 -21zM159.999 618
c-17.333 0 -29.833 4.16699 -37.5 12.5s-11.5 19.5 -11.5 33.5v11c0 14 3.83301 25.167 11.5 33.5s20.167 12.5 37.5 12.5s29.833 -4.16699 37.5 -12.5s11.5 -19.5 11.5 -33.5v-11c0 -14 -3.83301 -25.167 -11.5 -33.5s-20.167 -12.5 -37.5 -12.5zM345.999 618
c-17.333 0 -29.833 4.16699 -37.5 12.5s-11.5 19.5 -11.5 33.5v11c0 14 3.83301 25.167 11.5 33.5s20.167 12.5 37.5 12.5s29.833 -4.16699 37.5 -12.5s11.5 -19.5 11.5 -33.5v-11c0 -14 -3.83301 -25.167 -11.5 -33.5s-20.167 -12.5 -37.5 -12.5z" />
    <glyph glyph-name="aring" unicode="&#xe5;" horiz-adv-x="534" 
d="M460 0c-30 0 -51.502 8.00098 -64.502 24.001s-21.167 36 -24.5 60h-5c-11.333 -32 -30 -56 -56 -72s-57 -24 -93 -24c-54.667 0 -97.167 14 -127.5 42s-45.5 66 -45.5 114c0 48.667 17.833 86 53.5 112s91.167 39 166.5 39h102v51c0 36.667 -10 64.667 -30 84
s-50.667 29 -92 29c-31.333 0 -57.5 -7 -78.5 -21s-38.5 -32.667 -52.5 -56l-48 45c14 28 36.333 51.833 67 71.5s69.334 29.5 116.001 29.5c62.667 0 111.334 -15.333 146.001 -46s52 -73.334 52 -128.001v-284h59v-70h-45zM229.998 56.001
c20 0 38.334 2.33203 55.001 6.99902s31 11.334 43 20.001s21.333 18.667 28 30s10 23.666 10 36.999v85h-106c-46 0 -79.5 -6.66699 -100.5 -20s-31.5 -32.666 -31.5 -57.999v-21c0 -25.333 9.16699 -45 27.5 -59s43.166 -21 74.499 -21zM252.999 576
c-16 0 -31.167 2.83301 -45.5 8.5s-26.666 13.667 -36.999 24s-18.5 22.5 -24.5 36.5s-9 29.333 -9 46s3 32 9 46s14.167 26.167 24.5 36.5s22.666 18.333 36.999 24s29.5 8.5 45.5 8.5s31.167 -2.83301 45.5 -8.5s26.666 -13.667 36.999 -24s18.5 -22.5 24.5 -36.5
s9 -29.333 9 -46s-3 -32 -9 -46s-14.167 -26.167 -24.5 -36.5s-22.666 -18.333 -36.999 -24s-29.5 -8.5 -45.5 -8.5zM252.999 625c18 0 32.167 4.83301 42.5 14.5s15.5 23.167 15.5 40.5v22c0 17.333 -5.16699 30.833 -15.5 40.5s-24.5 14.5 -42.5 14.5
s-32.167 -4.83301 -42.5 -14.5s-15.5 -23.167 -15.5 -40.5v-22c0 -17.333 5.16699 -30.833 15.5 -40.5s24.5 -14.5 42.5 -14.5z" />
    <glyph glyph-name="ae" unicode="&#xe6;" horiz-adv-x="864" 
d="M260 238c-46 -1.33301 -79.499 -8.83301 -100.499 -22.5s-31.5 -33.167 -31.5 -58.5v-21c0 -25.333 9.16699 -45 27.5 -59s43.5 -21 75.5 -21c19.333 0 37.166 2.33301 53.499 7s30.5 11.334 42.5 20.001s21.5 18.667 28.5 30s10.5 23.666 10.5 36.999v88h-106z
M731.001 298v11c0 46 -12.5 82.833 -37.5 110.5s-58.167 41.5 -99.5 41.5c-22 0 -42 -3.83301 -60 -11.5s-33.5 -18.5 -46.5 -32.5s-23.167 -30.5 -30.5 -49.5s-11 -39.833 -11 -62.5v-7h285zM599.001 58c66 0 113.333 29.3311 142 87.998l57 -40
c-16.667 -36 -42.167 -64.667 -76.5 -86s-73.833 -32 -118.5 -32c-27.333 0 -52.166 3.83301 -74.499 11.5s-41.666 17.334 -57.999 29.001s-29.5 24.334 -39.5 38.001s-16.333 26.167 -19 37.5h-6c-2 -11.333 -7.83301 -23.666 -17.5 -36.999s-22.5 -25.833 -38.5 -37.5
s-35.333 -21.5 -58 -29.5s-48.334 -12 -77.001 -12c-52 0 -93.5 13.833 -124.5 41.5s-46.5 65.167 -46.5 112.5c0 50 18.333 88.5 55 115.5s91.667 40.5 165 40.5h102v48c0 36.667 -10 64.667 -30 84s-49.667 29 -89 29c-33.333 0 -60.333 -6.66699 -81 -20
s-38.334 -32 -53.001 -56l-48 44c13.333 27.333 35.5 51 66.5 71s70.167 30 117.5 30c29.333 0 53.833 -4.16699 73.5 -12.5s35.667 -18.333 48 -30s21.5 -24.167 27.5 -37.5s10.333 -25 13 -35h6c2.66699 11.333 9 23.666 19 36.999s23 25.833 39 37.5
s34.833 21.334 56.5 29.001s45.5 11.5 71.5 11.5c32.667 0 62.167 -6.33301 88.5 -19s48.833 -30.167 67.5 -52.5s33 -48.833 43 -79.5s15 -64.334 15 -101.001v-38h-371v-24c0 -22 3.5 -42.5 10.5 -61.5s17 -35.5 30 -49.5s29 -25 48 -33s40.5 -12 64.5 -12z" />
    <glyph glyph-name="ccedilla" unicode="&#xe7;" horiz-adv-x="503" 
d="M277 528c51.333 0 92.4951 -11.166 123.495 -33.499s54.167 -51.166 69.5 -86.499l-67 -35c-9.33301 26.667 -24.666 47.334 -45.999 62.001s-48 22 -80 22c-24 0 -45 -3.83301 -63 -11.5s-33 -18.334 -45 -32.001s-21 -30 -27 -49s-9 -39.833 -9 -62.5v-88
c0 -45.333 12.167 -82.5 36.5 -111.5s60.166 -43.5 107.499 -43.5c64.667 0 111.334 30 140.001 90l58 -39c-15.333 -34 -37.666 -61.833 -66.999 -83.5s-65.666 -34.167 -108.999 -37.5l-10 -50l3 -3c12.667 4 25.667 6 39 6c19.333 0 35.5 -5.66699 48.5 -17
s19.5 -27.666 19.5 -48.999c0 -14 -3 -26.333 -9 -37s-14.167 -19.334 -24.5 -26.001s-22.166 -11.667 -35.499 -15s-27.333 -5 -42 -5c-27.333 0 -48.833 4.5 -64.5 13.5s-27.167 18.167 -34.5 27.5l38 41c6 -7.33301 14 -13.833 24 -19.5s22.333 -8.5 37 -8.5
c12.667 0 23.167 2.5 31.5 7.5s12.5 12.833 12.5 23.5c0 9.33301 -4.33301 17.5 -13 24.5s-27 12.5 -55 16.5l-28 4l13 66c-64.667 6.66699 -114.5 34 -149.5 82s-52.5 110.333 -52.5 187c0 41.333 5.16699 78.666 15.5 111.999s25.333 61.666 45 84.999
s43.834 41.333 72.501 54s61 19 97 19z" />
    <glyph glyph-name="egrave" unicode="&#xe8;" horiz-adv-x="549" 
d="M279 -12c-35.333 0 -67.1631 6.33203 -95.4961 18.999s-52.666 30.834 -72.999 54.501s-36 52 -47 85s-16.5 70.167 -16.5 111.5c0 40.667 5.5 77.667 16.5 111s26.667 61.833 47 85.5s44.666 41.834 72.999 54.501s60.166 19 95.499 19c34.667 0 65.667 -6.33301 93 -19
s50.666 -30.167 69.999 -52.5s34.166 -48.833 44.499 -79.5s15.5 -64.334 15.5 -101.001v-38h-371v-24c0 -22 3.5 -42.5 10.5 -61.5s17 -35.5 30 -49.5s29 -25 48 -33s40.5 -12 64.5 -12c32.667 0 61.167 7.66699 85.5 23s43.166 37.333 56.499 66l57 -41
c-16.667 -35.333 -42.667 -63.833 -78 -85.5s-77.333 -32.5 -126 -32.5zM279.003 460.999c-22 0 -42 -3.83301 -60 -11.5s-33.5 -18.5 -46.5 -32.5s-23.167 -30.5 -30.5 -49.5s-11 -39.833 -11 -62.5v-7h285v11c0 46 -12.5 82.833 -37.5 110.5s-58.167 41.5 -99.5 41.5z
M167.003 743.999l73 35l85 -170l-52 -24z" />
    <glyph glyph-name="eacute" unicode="&#xe9;" horiz-adv-x="549" 
d="M279 -12c-35.333 0 -67.1631 6.33203 -95.4961 18.999s-52.666 30.834 -72.999 54.501s-36 52 -47 85s-16.5 70.167 -16.5 111.5c0 40.667 5.5 77.667 16.5 111s26.667 61.833 47 85.5s44.666 41.834 72.999 54.501s60.166 19 95.499 19c34.667 0 65.667 -6.33301 93 -19
s50.666 -30.167 69.999 -52.5s34.166 -48.833 44.499 -79.5s15.5 -64.334 15.5 -101.001v-38h-371v-24c0 -22 3.5 -42.5 10.5 -61.5s17 -35.5 30 -49.5s29 -25 48 -33s40.5 -12 64.5 -12c32.667 0 61.167 7.66699 85.5 23s43.166 37.333 56.499 66l57 -41
c-16.667 -35.333 -42.667 -63.833 -78 -85.5s-77.333 -32.5 -126 -32.5zM279.003 460.999c-22 0 -42 -3.83301 -60 -11.5s-33.5 -18.5 -46.5 -32.5s-23.167 -30.5 -30.5 -49.5s-11 -39.833 -11 -62.5v-7h285v11c0 46 -12.5 82.833 -37.5 110.5s-58.167 41.5 -99.5 41.5z
M287.003 584.999l-52 24l85 170l73 -35z" />
    <glyph glyph-name="ecircumflex" unicode="&#xea;" horiz-adv-x="549" 
d="M279 -12c-35.333 0 -67.1631 6.33203 -95.4961 18.999s-52.666 30.834 -72.999 54.501s-36 52 -47 85s-16.5 70.167 -16.5 111.5c0 40.667 5.5 77.667 16.5 111s26.667 61.833 47 85.5s44.666 41.834 72.999 54.501s60.166 19 95.499 19c34.667 0 65.667 -6.33301 93 -19
s50.666 -30.167 69.999 -52.5s34.166 -48.833 44.499 -79.5s15.5 -64.334 15.5 -101.001v-38h-371v-24c0 -22 3.5 -42.5 10.5 -61.5s17 -35.5 30 -49.5s29 -25 48 -33s40.5 -12 64.5 -12c32.667 0 61.167 7.66699 85.5 23s43.166 37.333 56.499 66l57 -41
c-16.667 -35.333 -42.667 -63.833 -78 -85.5s-77.333 -32.5 -126 -32.5zM279.003 460.999c-22 0 -42 -3.83301 -60 -11.5s-33.5 -18.5 -46.5 -32.5s-23.167 -30.5 -30.5 -49.5s-11 -39.833 -11 -62.5v-7h285v11c0 46 -12.5 82.833 -37.5 110.5s-58.167 41.5 -99.5 41.5z
M330.003 764.999l111 -143l-44 -31l-117 117l-117 -117l-44 31l111 143h100z" />
    <glyph glyph-name="edieresis" unicode="&#xeb;" horiz-adv-x="549" 
d="M279 -12c-35.333 0 -67.1631 6.33203 -95.4961 18.999s-52.666 30.834 -72.999 54.501s-36 52 -47 85s-16.5 70.167 -16.5 111.5c0 40.667 5.5 77.667 16.5 111s26.667 61.833 47 85.5s44.666 41.834 72.999 54.501s60.166 19 95.499 19c34.667 0 65.667 -6.33301 93 -19
s50.666 -30.167 69.999 -52.5s34.166 -48.833 44.499 -79.5s15.5 -64.334 15.5 -101.001v-38h-371v-24c0 -22 3.5 -42.5 10.5 -61.5s17 -35.5 30 -49.5s29 -25 48 -33s40.5 -12 64.5 -12c32.667 0 61.167 7.66699 85.5 23s43.166 37.333 56.499 66l57 -41
c-16.667 -35.333 -42.667 -63.833 -78 -85.5s-77.333 -32.5 -126 -32.5zM279.003 460.999c-22 0 -42 -3.83301 -60 -11.5s-33.5 -18.5 -46.5 -32.5s-23.167 -30.5 -30.5 -49.5s-11 -39.833 -11 -62.5v-7h285v11c0 46 -12.5 82.833 -37.5 110.5s-58.167 41.5 -99.5 41.5z
M187.003 617.999c-17.333 0 -29.833 4.16699 -37.5 12.5s-11.5 19.5 -11.5 33.5v11c0 14 3.83301 25.167 11.5 33.5s20.167 12.5 37.5 12.5s29.833 -4.16699 37.5 -12.5s11.5 -19.5 11.5 -33.5v-11c0 -14 -3.83301 -25.167 -11.5 -33.5s-20.167 -12.5 -37.5 -12.5z
M373.003 617.999c-17.333 0 -29.833 4.16699 -37.5 12.5s-11.5 19.5 -11.5 33.5v11c0 14 3.83301 25.167 11.5 33.5s20.167 12.5 37.5 12.5s29.833 -4.16699 37.5 -12.5s11.5 -19.5 11.5 -33.5v-11c0 -14 -3.83301 -25.167 -11.5 -33.5s-20.167 -12.5 -37.5 -12.5z" />
    <glyph glyph-name="igrave" unicode="&#xec;" horiz-adv-x="250" 
d="M85 0v516h80v-516h-80zM13 744l73 35l85 -170l-52 -24z" />
    <glyph glyph-name="iacute" unicode="&#xed;" horiz-adv-x="250" 
d="M85 0v516h80v-516h-80zM133 585l-52 24l85 170l73 -35z" />
    <glyph glyph-name="icircumflex" unicode="&#xee;" horiz-adv-x="250" 
d="M85 0v516h80v-516h-80zM176 765l111 -143l-44 -31l-117 117l-117 -117l-44 31l111 143h100z" />
    <glyph glyph-name="idieresis" unicode="&#xef;" horiz-adv-x="250" 
d="M85 0v516h80v-516h-80zM33 618c-17.333 0 -29.833 4.16699 -37.5 12.5s-11.5 19.5 -11.5 33.5v11c0 14 3.83301 25.167 11.5 33.5s20.167 12.5 37.5 12.5s29.833 -4.16699 37.5 -12.5s11.5 -19.5 11.5 -33.5v-11c0 -14 -3.83301 -25.167 -11.5 -33.5
s-20.167 -12.5 -37.5 -12.5zM219 618c-17.333 0 -29.833 4.16699 -37.5 12.5s-11.5 19.5 -11.5 33.5v11c0 14 3.83301 25.167 11.5 33.5s20.167 12.5 37.5 12.5s29.833 -4.16699 37.5 -12.5s11.5 -19.5 11.5 -33.5v-11c0 -14 -3.83301 -25.167 -11.5 -33.5
s-20.167 -12.5 -37.5 -12.5z" />
    <glyph glyph-name="eth" unicode="&#xf0;" horiz-adv-x="555" 
d="M418 712l-77.999 -56.0039c20.667 -20.667 41 -44 61 -70s37.667 -55 53 -87s27.666 -67 36.999 -105s14 -79 14 -123c0 -46.667 -5.66699 -87.667 -17 -123s-27.166 -64.833 -47.499 -88.5s-44.5 -41.5 -72.5 -53.5s-58.667 -18 -92 -18
c-35.333 0 -67.166 6.33301 -95.499 19s-52.333 30.334 -72 53.001s-34.834 49.834 -45.501 81.501s-16 66.5 -16 104.5s5.33301 72.833 16 104.5s25.834 58.834 45.501 81.501s43.667 40.334 72 53.001s60.166 19 95.499 19c32.667 0 60 -8.66699 82 -26s38 -41.333 48 -72
l4 2c-7.33301 38 -22.5 74.5 -45.5 109.5s-50.5 67.5 -82.5 97.5l-79 -56l-31 41l70 50c-21.333 17.333 -43 33.333 -65 48l-66 42h123c10 -6 20.667 -13 32 -21s22.666 -17 33.999 -27l85 61zM276.001 56.9961c43.333 0 78 14 104 42s39 66 39 114v66c0 48 -13 86 -39 114
s-60.667 42 -104 42s-78 -14 -104 -42s-39 -66 -39 -114v-66c0 -48 13 -86 39 -114s60.667 -42 104 -42z" />
    <glyph glyph-name="ntilde" unicode="&#xf1;" horiz-adv-x="568" 
d="M85 0v516.001h80v-84h4c12.667 29.333 30.5 52.666 53.5 69.999s53.833 26 92.5 26c53.333 0 95.5 -17.167 126.5 -51.5s46.5 -82.833 46.5 -145.5v-331h-80v317c0 92.667 -39 139 -117 139c-16 0 -31.5 -2 -46.5 -6s-28.5 -10 -40.5 -18s-21.5 -18.167 -28.5 -30.5
s-10.5 -26.833 -10.5 -43.5v-358h-80zM362 612.001c-17.333 0 -32.333 3 -45 9l-35 17c-16 8.66699 -29.5 14.834 -40.5 18.501s-20.833 5.5 -29.5 5.5c-11.333 0 -21.333 -2.33301 -30 -7s-18 -11.334 -28 -20.001l-33 40c9.33301 13.333 21.666 25.5 36.999 36.5
s34.666 16.5 57.999 16.5c17.333 0 32.333 -3 45 -9l35 -17c16 -8.66699 29.5 -14.834 40.5 -18.501s20.833 -5.5 29.5 -5.5c11.333 0 21.333 2.33301 30 7s18 11.334 28 20.001l33 -40c-9.33301 -13.333 -21.666 -25.5 -36.999 -36.5s-34.666 -16.5 -57.999 -16.5z" />
    <glyph glyph-name="ograve" unicode="&#xf2;" horiz-adv-x="560" 
d="M280 -12c-34.667 0 -66.334 6.33301 -95.001 19s-53.167 30.834 -73.5 54.501s-36.166 52 -47.499 85s-17 70.167 -17 111.5c0 40.667 5.66699 77.667 17 111s27.166 61.833 47.499 85.5s44.833 41.834 73.5 54.501s60.334 19 95.001 19s66.167 -6.33301 94.5 -19
s52.833 -30.834 73.5 -54.501s36.667 -52.167 48 -85.5s17 -70.333 17 -111c0 -41.333 -5.66699 -78.5 -17 -111.5s-27.333 -61.333 -48 -85s-45.167 -41.834 -73.5 -54.501s-59.833 -19 -94.5 -19zM280 59c43.333 0 78.666 13.333 105.999 40s41 67.334 41 122.001v74
c0 54.667 -13.667 95.334 -41 122.001s-62.666 40 -105.999 40s-78.666 -13.333 -105.999 -40s-41 -67.334 -41 -122.001v-74c0 -54.667 13.667 -95.334 41 -122.001s62.666 -40 105.999 -40zM168 744l73 35l85 -170l-52 -24z" />
    <glyph glyph-name="oacute" unicode="&#xf3;" horiz-adv-x="560" 
d="M280 -12c-34.667 0 -66.334 6.33301 -95.001 19s-53.167 30.834 -73.5 54.501s-36.166 52 -47.499 85s-17 70.167 -17 111.5c0 40.667 5.66699 77.667 17 111s27.166 61.833 47.499 85.5s44.833 41.834 73.5 54.501s60.334 19 95.001 19s66.167 -6.33301 94.5 -19
s52.833 -30.834 73.5 -54.501s36.667 -52.167 48 -85.5s17 -70.333 17 -111c0 -41.333 -5.66699 -78.5 -17 -111.5s-27.333 -61.333 -48 -85s-45.167 -41.834 -73.5 -54.501s-59.833 -19 -94.5 -19zM280 59c43.333 0 78.666 13.333 105.999 40s41 67.334 41 122.001v74
c0 54.667 -13.667 95.334 -41 122.001s-62.666 40 -105.999 40s-78.666 -13.333 -105.999 -40s-41 -67.334 -41 -122.001v-74c0 -54.667 13.667 -95.334 41 -122.001s62.666 -40 105.999 -40zM288 585l-52 24l85 170l73 -35z" />
    <glyph glyph-name="ocircumflex" unicode="&#xf4;" horiz-adv-x="560" 
d="M280 -12c-34.667 0 -66.334 6.33301 -95.001 19s-53.167 30.834 -73.5 54.501s-36.166 52 -47.499 85s-17 70.167 -17 111.5c0 40.667 5.66699 77.667 17 111s27.166 61.833 47.499 85.5s44.833 41.834 73.5 54.501s60.334 19 95.001 19s66.167 -6.33301 94.5 -19
s52.833 -30.834 73.5 -54.501s36.667 -52.167 48 -85.5s17 -70.333 17 -111c0 -41.333 -5.66699 -78.5 -17 -111.5s-27.333 -61.333 -48 -85s-45.167 -41.834 -73.5 -54.501s-59.833 -19 -94.5 -19zM280 59c43.333 0 78.666 13.333 105.999 40s41 67.334 41 122.001v74
c0 54.667 -13.667 95.334 -41 122.001s-62.666 40 -105.999 40s-78.666 -13.333 -105.999 -40s-41 -67.334 -41 -122.001v-74c0 -54.667 13.667 -95.334 41 -122.001s62.666 -40 105.999 -40zM331 765l111 -143l-44 -31l-117 117l-117 -117l-44 31l111 143h100z" />
    <glyph glyph-name="otilde" unicode="&#xf5;" horiz-adv-x="560" 
d="M280 -12c-34.667 0 -66.334 6.33301 -95.001 19s-53.167 30.834 -73.5 54.501s-36.166 52 -47.499 85s-17 70.167 -17 111.5c0 40.667 5.66699 77.667 17 111s27.166 61.833 47.499 85.5s44.833 41.834 73.5 54.501s60.334 19 95.001 19s66.167 -6.33301 94.5 -19
s52.833 -30.834 73.5 -54.501s36.667 -52.167 48 -85.5s17 -70.333 17 -111c0 -41.333 -5.66699 -78.5 -17 -111.5s-27.333 -61.333 -48 -85s-45.167 -41.834 -73.5 -54.501s-59.833 -19 -94.5 -19zM280 59c43.333 0 78.666 13.333 105.999 40s41 67.334 41 122.001v74
c0 54.667 -13.667 95.334 -41 122.001s-62.666 40 -105.999 40s-78.666 -13.333 -105.999 -40s-41 -67.334 -41 -122.001v-74c0 -54.667 13.667 -95.334 41 -122.001s62.666 -40 105.999 -40zM354 612c-17.333 0 -32.333 3 -45 9l-35 17
c-16 8.66699 -29.5 14.834 -40.5 18.501s-20.833 5.5 -29.5 5.5c-11.333 0 -21.333 -2.33301 -30 -7s-18 -11.334 -28 -20.001l-33 40c9.33301 13.333 21.666 25.5 36.999 36.5s34.666 16.5 57.999 16.5c17.333 0 32.333 -3 45 -9l35 -17
c16 -8.66699 29.5 -14.834 40.5 -18.501s20.833 -5.5 29.5 -5.5c11.333 0 21.333 2.33301 30 7s18 11.334 28 20.001l33 -40c-9.33301 -13.333 -21.666 -25.5 -36.999 -36.5s-34.666 -16.5 -57.999 -16.5z" />
    <glyph glyph-name="odieresis" unicode="&#xf6;" horiz-adv-x="560" 
d="M280 -12c-34.667 0 -66.334 6.33301 -95.001 19s-53.167 30.834 -73.5 54.501s-36.166 52 -47.499 85s-17 70.167 -17 111.5c0 40.667 5.66699 77.667 17 111s27.166 61.833 47.499 85.5s44.833 41.834 73.5 54.501s60.334 19 95.001 19s66.167 -6.33301 94.5 -19
s52.833 -30.834 73.5 -54.501s36.667 -52.167 48 -85.5s17 -70.333 17 -111c0 -41.333 -5.66699 -78.5 -17 -111.5s-27.333 -61.333 -48 -85s-45.167 -41.834 -73.5 -54.501s-59.833 -19 -94.5 -19zM280 59c43.333 0 78.666 13.333 105.999 40s41 67.334 41 122.001v74
c0 54.667 -13.667 95.334 -41 122.001s-62.666 40 -105.999 40s-78.666 -13.333 -105.999 -40s-41 -67.334 -41 -122.001v-74c0 -54.667 13.667 -95.334 41 -122.001s62.666 -40 105.999 -40zM188 618c-17.333 0 -29.833 4.16699 -37.5 12.5s-11.5 19.5 -11.5 33.5v11
c0 14 3.83301 25.167 11.5 33.5s20.167 12.5 37.5 12.5s29.833 -4.16699 37.5 -12.5s11.5 -19.5 11.5 -33.5v-11c0 -14 -3.83301 -25.167 -11.5 -33.5s-20.167 -12.5 -37.5 -12.5zM374 618c-17.333 0 -29.833 4.16699 -37.5 12.5s-11.5 19.5 -11.5 33.5v11
c0 14 3.83301 25.167 11.5 33.5s20.167 12.5 37.5 12.5s29.833 -4.16699 37.5 -12.5s11.5 -19.5 11.5 -33.5v-11c0 -14 -3.83301 -25.167 -11.5 -33.5s-20.167 -12.5 -37.5 -12.5z" />
    <glyph glyph-name="divide" unicode="&#xf7;" 
d="M67 271v68h466v-68h-466zM300 52c-23.333 0 -39.5 4.66699 -48.5 14s-13.5 20.666 -13.5 33.999v22c0 13.333 4.5 24.666 13.5 33.999s25.167 14 48.5 14s39.5 -4.66699 48.5 -14s13.5 -20.666 13.5 -33.999v-22c0 -13.333 -4.5 -24.666 -13.5 -33.999
s-25.167 -14 -48.5 -14zM300 440c-23.333 0 -39.5 4.66699 -48.5 14s-13.5 20.666 -13.5 33.999v22c0 13.333 4.5 24.666 13.5 33.999s25.167 14 48.5 14s39.5 -4.66699 48.5 -14s13.5 -20.666 13.5 -33.999v-22c0 -13.333 -4.5 -24.666 -13.5 -33.999
s-25.167 -14 -48.5 -14z" />
    <glyph glyph-name="oslash" unicode="&#xf8;" horiz-adv-x="568" 
d="M35 -6l66.999 84c-34 47.333 -51 107.333 -51 180c0 40.667 5.66699 77.667 17 111s27.166 61.833 47.499 85.5s44.833 41.834 73.5 54.501s60.334 19 95.001 19c28 0 53.833 -4.33301 77.5 -13s45.167 -20.667 64.5 -36l62 77l45 -34l-67 -85
c16 -22.667 28.5 -49.167 37.5 -79.5s13.5 -63.5 13.5 -99.5c0 -41.333 -5.66699 -78.5 -17 -111.5s-27.333 -61.333 -48 -85s-45.167 -41.834 -73.5 -54.501s-59.833 -19 -94.5 -19c-55.333 0 -102.666 16 -141.999 48l-62 -76zM283.999 59c43.333 0 78.667 13.333 106 40
s41 67.334 41 122.001v74c0 16 -1.33301 30.667 -4 44s-6.33398 25.666 -11.001 36.999l-230 -284c24.667 -22 57.334 -33 98.001 -33zM137 221c0 -32 4.99902 -59.332 14.999 -81.999l230 285c-26 22 -58.667 33 -98 33c-43.333 0 -78.666 -13.333 -105.999 -40
s-41 -67.334 -41 -122.001v-74z" />
    <glyph glyph-name="ugrave" unicode="&#xf9;" horiz-adv-x="568" 
d="M403 84l-4.00098 0.000976562c-5.33301 -12 -11.833 -23.833 -19.5 -35.5s-17.167 -22 -28.5 -31s-25 -16.167 -41 -21.5s-34.667 -8 -56 -8c-53.333 0 -95.666 17.167 -126.999 51.5s-47 82.833 -47 145.5v331h80v-317c0 -92.667 39.333 -139 118 -139
c16 0 31.5 2 46.5 6s28.333 10 40 18s21 18.167 28 30.5s10.5 27.166 10.5 44.499v357h80v-516h-80v84zM169.999 744.001l73 35l85 -170l-52 -24z" />
    <glyph glyph-name="uacute" unicode="&#xfa;" horiz-adv-x="568" 
d="M403 84l-4.00098 0.000976562c-5.33301 -12 -11.833 -23.833 -19.5 -35.5s-17.167 -22 -28.5 -31s-25 -16.167 -41 -21.5s-34.667 -8 -56 -8c-53.333 0 -95.666 17.167 -126.999 51.5s-47 82.833 -47 145.5v331h80v-317c0 -92.667 39.333 -139 118 -139
c16 0 31.5 2 46.5 6s28.333 10 40 18s21 18.167 28 30.5s10.5 27.166 10.5 44.499v357h80v-516h-80v84zM289.999 585.001l-52 24l85 170l73 -35z" />
    <glyph glyph-name="ucircumflex" unicode="&#xfb;" horiz-adv-x="568" 
d="M403 84l-4.00098 0.000976562c-5.33301 -12 -11.833 -23.833 -19.5 -35.5s-17.167 -22 -28.5 -31s-25 -16.167 -41 -21.5s-34.667 -8 -56 -8c-53.333 0 -95.666 17.167 -126.999 51.5s-47 82.833 -47 145.5v331h80v-317c0 -92.667 39.333 -139 118 -139
c16 0 31.5 2 46.5 6s28.333 10 40 18s21 18.167 28 30.5s10.5 27.166 10.5 44.499v357h80v-516h-80v84zM332.999 765.001l111 -143l-44 -31l-117 117l-117 -117l-44 31l111 143h100z" />
    <glyph glyph-name="udieresis" unicode="&#xfc;" horiz-adv-x="568" 
d="M403 84l-4.00098 0.000976562c-5.33301 -12 -11.833 -23.833 -19.5 -35.5s-17.167 -22 -28.5 -31s-25 -16.167 -41 -21.5s-34.667 -8 -56 -8c-53.333 0 -95.666 17.167 -126.999 51.5s-47 82.833 -47 145.5v331h80v-317c0 -92.667 39.333 -139 118 -139
c16 0 31.5 2 46.5 6s28.333 10 40 18s21 18.167 28 30.5s10.5 27.166 10.5 44.499v357h80v-516h-80v84zM189.999 618.001c-17.333 0 -29.833 4.16699 -37.5 12.5s-11.5 19.5 -11.5 33.5v11c0 14 3.83301 25.167 11.5 33.5s20.167 12.5 37.5 12.5s29.833 -4.16699 37.5 -12.5
s11.5 -19.5 11.5 -33.5v-11c0 -14 -3.83301 -25.167 -11.5 -33.5s-20.167 -12.5 -37.5 -12.5zM375.999 618.001c-17.333 0 -29.833 4.16699 -37.5 12.5s-11.5 19.5 -11.5 33.5v11c0 14 3.83301 25.167 11.5 33.5s20.167 12.5 37.5 12.5s29.833 -4.16699 37.5 -12.5
s11.5 -19.5 11.5 -33.5v-11c0 -14 -3.83301 -25.167 -11.5 -33.5s-20.167 -12.5 -37.5 -12.5z" />
    <glyph glyph-name="yacute" unicode="&#xfd;" horiz-adv-x="499" 
d="M403 516l79 -0.000976562l-231 -636c-6 -15.333 -12 -28.166 -18 -38.499s-13.333 -18.5 -22 -24.5s-19.5 -10.333 -32.5 -13s-28.833 -4 -47.5 -4h-41v70h81l39 110l-193 536h80l124 -351l24 -84h5l28 84zM258 584.999l-52 24l85 170l73 -35z" />
    <glyph glyph-name="thorn" unicode="&#xfe;" horiz-adv-x="580" 
d="M85 740l80 -0.00488281v-308h4c13.333 32.667 32.833 56.834 58.5 72.501s56.5 23.5 92.5 23.5c32 0 61 -6.33301 87 -19s48.167 -30.667 66.5 -54s32.333 -51.666 42 -84.999s14.5 -70.666 14.5 -111.999s-4.83301 -78.666 -14.5 -111.999s-23.667 -61.666 -42 -84.999
s-40.5 -41.333 -66.5 -54s-55 -19 -87 -19c-70 0 -120.333 32 -151 96h-4v-284h-80v940zM298 59.9951c45.333 0 81 14.167 107 42.5s39 65.5 39 111.5v88c0 46 -13 83.167 -39 111.5s-61.667 42.5 -107 42.5c-18 0 -35.167 -2.5 -51.5 -7.5s-30.5 -11.833 -42.5 -20.5
s-21.5 -19.167 -28.5 -31.5s-10.5 -25.5 -10.5 -39.5v-192c0 -16.667 3.5 -31.5 10.5 -44.5s16.5 -24 28.5 -33s26.167 -15.833 42.5 -20.5s33.5 -7 51.5 -7z" />
    <glyph glyph-name="ydieresis" unicode="&#xff;" horiz-adv-x="499" 
d="M403 516l79 -0.000976562l-231 -636c-6 -15.333 -12 -28.166 -18 -38.499s-13.333 -18.5 -22 -24.5s-19.5 -10.333 -32.5 -13s-28.833 -4 -47.5 -4h-41v70h81l39 110l-193 536h80l124 -351l24 -84h5l28 84zM158 617.999c-17.333 0 -29.833 4.16699 -37.5 12.5
s-11.5 19.5 -11.5 33.5v11c0 14 3.83301 25.167 11.5 33.5s20.167 12.5 37.5 12.5s29.833 -4.16699 37.5 -12.5s11.5 -19.5 11.5 -33.5v-11c0 -14 -3.83301 -25.167 -11.5 -33.5s-20.167 -12.5 -37.5 -12.5zM344 617.999c-17.333 0 -29.833 4.16699 -37.5 12.5
s-11.5 19.5 -11.5 33.5v11c0 14 3.83301 25.167 11.5 33.5s20.167 12.5 37.5 12.5s29.833 -4.16699 37.5 -12.5s11.5 -19.5 11.5 -33.5v-11c0 -14 -3.83301 -25.167 -11.5 -33.5s-20.167 -12.5 -37.5 -12.5z" />
    <glyph glyph-name="Dcroat" unicode="&#x110;" horiz-adv-x="674" 
d="M96 337h-79v64h79v297h234c43.333 0 82.666 -7.33301 117.999 -22s65.5 -36.5 90.5 -65.5s44.167 -65.333 57.5 -109s20 -94.5 20 -152.5s-6.66699 -108.833 -20 -152.5s-32.5 -80 -57.5 -109s-55.167 -50.833 -90.5 -65.5s-74.666 -22 -117.999 -22h-234v337zM330 74
c28.667 0 55 4.83105 79 14.498s44.667 23.834 62 42.501s30.833 41.5 40.5 68.5s14.5 57.833 14.5 92.5v114c0 34.667 -4.83301 65.5 -14.5 92.5s-23.167 49.833 -40.5 68.5s-38 32.834 -62 42.501s-50.333 14.5 -79 14.5h-150v-223h137v-64h-137v-263h150z" />
    <glyph glyph-name="dotlessi" unicode="&#x131;" horiz-adv-x="250" 
d="M85 0v516h80v-516h-80z" />
    <glyph glyph-name="IJ" unicode="&#x132;" horiz-adv-x="645" 
d="M557 698v-473c0 -74 -20.833 -132 -62.5 -174s-99.834 -63 -174.501 -63c-33.333 0 -63 4.16699 -89 12.5s-48.333 20 -67 35s-34 32.5 -46 52.5s-20.333 42 -25 66l76 18c4 -15.333 9.83301 -29.666 17.5 -42.999s17.667 -24.833 30 -34.5s27.333 -17.334 45 -23.001
s38.167 -8.5 61.5 -8.5c46.667 0 83.334 11.667 110.001 35s40 60 40 110v415h-152v75h236zM88 698h84v-408h-84v408z" />
    <glyph glyph-name="ij" unicode="&#x133;" horiz-adv-x="496" 
d="M125 637c-17.333 0 -29.833 4.16699 -37.5 12.5s-11.5 19.166 -11.5 32.499v13c0 13.333 3.83301 24.166 11.5 32.499s20.167 12.5 37.5 12.5s29.833 -4.16699 37.5 -12.5s11.5 -19.166 11.5 -32.499v-13c0 -13.333 -3.83301 -24.166 -11.5 -32.499
s-20.167 -12.5 -37.5 -12.5zM85 516h80v-516h-80v516zM331 516h80v-596c0 -36 -9 -65 -27 -87s-46.333 -33 -85 -33h-52v70h84v646zM371 637c-17.333 0 -29.833 4.16699 -37.5 12.5s-11.5 19.166 -11.5 32.499v13c0 13.333 3.83301 24.166 11.5 32.499
s20.167 12.5 37.5 12.5s29.833 -4.16699 37.5 -12.5s11.5 -19.166 11.5 -32.499v-13c0 -13.333 -3.83301 -24.166 -11.5 -32.499s-20.167 -12.5 -37.5 -12.5z" />
    <glyph glyph-name="jcircumflex" unicode="&#x135;" horiz-adv-x="250" 
d="M1 -130h84v646h80v-596c0 -36 -9 -65 -27 -87s-46.333 -33 -85 -33h-52v70zM176 765l111 -143l-44 -31l-117 117l-117 -117l-44 31l111 143h100z" />
    <glyph glyph-name="ldot" unicode="&#x140;" horiz-adv-x="358" 
d="M170 0c-28 0 -49.167 7.83301 -63.5 23.5s-21.5 35.5 -21.5 59.5v657h80v-670h76v-70h-71zM304 254c-17.333 0 -30.166 4.16699 -38.499 12.5s-12.5 19.5 -12.5 33.5v11c0 14 4.16699 25.167 12.5 33.5s21.166 12.5 38.499 12.5s30.166 -4.16699 38.499 -12.5
s12.5 -19.5 12.5 -33.5v-11c0 -14 -4.16699 -25.167 -12.5 -33.5s-21.166 -12.5 -38.499 -12.5z" />
    <glyph glyph-name="Lslash" unicode="&#x141;" horiz-adv-x="508" 
d="M477 0h-381v271l-103 -34v67l103 35v359h84v-331l181 61v-71l-181 -59v-223h297v-75z" />
    <glyph glyph-name="lslash" unicode="&#x142;" horiz-adv-x="278" 
d="M244 0h-71c-28 -0 -49.167 7.83301 -63.5 23.5s-21.5 35.5 -21.5 59.5v242l-70 -23v68l70 23v347h80v-320l103 34v-68l-103 -34v-282h76v-70z" />
    <glyph glyph-name="OE" unicode="&#x152;" horiz-adv-x="985" 
d="M495 0c-18.667 -3.33301 -39.834 -6.16797 -63.501 -8.50098s-45.167 -3.5 -64.5 -3.5c-48 0 -91.167 7.83301 -129.5 23.5s-70.833 38.667 -97.5 69s-47 68 -61 113s-21 96.833 -21 155.5s7 110.5 21 155.5s34.333 82.667 61 113s59.167 53.333 97.5 69
s81.5 23.5 129.5 23.5c19.333 0 40.833 -1.16699 64.5 -3.5s44.834 -5.16602 63.501 -8.49902h426v-74h-343v-234h323v-74h-323v-242h343v-74h-426zM377 62.998c18.667 0 38.334 1.5 59.001 4.5s40 7.5 58 13.5v536c-18 6 -37.333 10.5 -58 13.5s-40.334 4.5 -59.001 4.5
c-39.333 0 -73.333 -5.33301 -102 -16s-52.334 -26 -71.001 -46s-32.667 -44 -42 -72s-14 -59.333 -14 -94v-116c0 -34.667 4.66699 -66 14 -94s23.333 -52 42 -72s42.334 -35.333 71.001 -46s62.667 -16 102 -16z" />
    <glyph glyph-name="oe" unicode="&#x153;" horiz-adv-x="931" 
d="M280 59c43.333 0 78.666 13.333 105.999 40s41 67.334 41 122.001v74c0 54.667 -13.667 95.334 -41 122.001s-62.666 40 -105.999 40s-78.666 -13.333 -105.999 -40s-41 -67.334 -41 -122.001v-74c0 -54.667 13.667 -95.334 41 -122.001s62.666 -40 105.999 -40zM798 298
v11c0 46 -12.5 82.833 -37.5 110.5s-58.167 41.5 -99.5 41.5c-22 0 -42 -3.83301 -60 -11.5s-33.5 -18.5 -46.5 -32.5s-23.167 -30.5 -30.5 -49.5s-11 -39.833 -11 -62.5v-7h285zM667 -12c-25.333 0 -48.168 2.99707 -68.501 8.99707s-38.5 14.333 -54.5 25s-30 23 -42 37
s-21.667 28.667 -29 44h-5c-15.333 -33.333 -39.666 -60.833 -72.999 -82.5s-71.666 -32.5 -114.999 -32.5c-34.667 0 -66.334 6.33301 -95.001 19s-53.167 30.834 -73.5 54.501s-36.166 52 -47.499 85s-17 70.167 -17 111.5c0 40.667 5.66699 77.667 17 111
s27.166 61.833 47.499 85.5s44.833 41.834 73.5 54.501s60.334 19 95.001 19c44 0 82.333 -9.83301 115 -29.5s57 -48.167 73 -85.5h6c14.667 35.333 38 63.333 70 84s71 31 117 31c34 0 64.667 -6.16699 92 -18.5s50.833 -29.666 70.5 -51.999s34.667 -49 45 -80
s15.5 -64.833 15.5 -101.5v-38h-371v-24c0 -22 3.5 -42.5 10.5 -61.5s17 -35.5 30 -49.5s29 -25 48 -33s40.5 -12 64.5 -12c33.333 0 62 7.66699 86 23s43 37.333 57 66l56 -41c-16.667 -35.333 -41.834 -63.833 -75.501 -85.5s-74.5 -32.5 -122.5 -32.5z" />
    <glyph glyph-name="Scaron" unicode="&#x160;" horiz-adv-x="581" 
d="M289 -12c-56.667 0 -104.999 10.8301 -144.999 32.4971s-74 51.5 -102 89.5l62 52c24.667 -32.667 52 -57.5 82 -74.5s65.333 -25.5 106 -25.5c50 0 88.167 12 114.5 36s39.5 56 39.5 96c0 33.333 -10 59 -30 77s-53 32.333 -99 43l-57 13
c-64 14.667 -112.833 36.834 -146.5 66.501s-50.5 71.5 -50.5 125.5c0 30.667 5.66699 58 17 82s27.166 44 47.499 60s44.666 28.167 72.999 36.5s59.5 12.5 93.5 12.5c52.667 0 97.834 -9.66699 135.501 -29s69.5 -47.666 95.5 -84.999l-63 -46
c-19.333 26.667 -42.666 47.667 -69.999 63s-61.333 23 -102 23c-44.667 0 -79.834 -9.5 -105.501 -28.5s-38.5 -47.5 -38.5 -85.5c0 -33.333 10.833 -58.5 32.5 -75.5s54.5 -30.5 98.5 -40.5l57 -13c68.667 -15.333 118.334 -38.666 149.001 -69.999s46 -73 46 -125
c0 -32 -5.5 -61 -16.5 -87s-26.833 -48 -47.5 -66s-45.834 -32 -75.501 -42s-63.167 -15 -100.5 -15zM239.001 768.997l-111 143l44 31l117 -117l117 117l44 -31l-111 -143h-100z" />
    <glyph glyph-name="scaron" unicode="&#x161;" horiz-adv-x="487" 
d="M240 -12c-48 0 -88.167 9.16406 -120.5 27.4971s-60.166 42.833 -83.499 73.5l57 46c20 -25.333 42.333 -44.833 67 -58.5s53.334 -20.5 86.001 -20.5c34 0 60.5 7.33301 79.5 22s28.5 35.334 28.5 62.001c0 20 -6.5 37.167 -19.5 51.5s-36.5 24.166 -70.5 29.499l-41 6
c-24 3.33301 -46 8.5 -66 15.5s-37.5 16.333 -52.5 28s-26.667 26.167 -35 43.5s-12.5 38 -12.5 62c0 25.333 4.66699 47.5 14 66.5s22.166 34.833 38.499 47.5s35.833 22.167 58.5 28.5s47 9.5 73 9.5c42 0 77.167 -7.33301 105.5 -22s53.166 -35 74.499 -61l-53 -48
c-11.333 16 -28 30.5 -50 43.5s-49.667 19.5 -83 19.5s-58.5 -7.16699 -75.5 -21.5s-25.5 -33.833 -25.5 -58.5c0 -25.333 8.5 -43.666 25.5 -54.999s41.5 -19.666 73.5 -24.999l40 -6c57.333 -8.66699 98 -25.167 122 -49.5s36 -56.166 36 -95.499
c0 -50 -17 -89.333 -51 -118s-80.667 -43 -140 -43zM189 598.997l-111 143l44 31l117 -117l117 117l44 -31l-111 -143h-100z" />
    <glyph glyph-name="Ydieresis" unicode="&#x178;" horiz-adv-x="593" 
d="M253 0v276l-240 422h96l186 -336h3l186 336h96l-243 -419v-279h-84zM205 788c-17.333 0 -30 4.33301 -38 13s-12 20 -12 34v12c0 14 4 25.333 12 34s20.667 13 38 13s30 -4.33301 38 -13s12 -20 12 -34v-12c0 -14 -4 -25.333 -12 -34s-20.667 -13 -38 -13zM391 788
c-17.333 0 -30 4.33301 -38 13s-12 20 -12 34v12c0 14 4 25.333 12 34s20.667 13 38 13s30 -4.33301 38 -13s12 -20 12 -34v-12c0 -14 -4 -25.333 -12 -34s-20.667 -13 -38 -13z" />
    <glyph glyph-name="Zcaron" unicode="&#x17d;" horiz-adv-x="580" 
d="M544 0h-508v76l403 548h-382v74h473v-76l-404 -548h418v-74zM248 769l-111 143l44 31l117 -117l117 117l44 -31l-111 -143h-100z" />
    <glyph glyph-name="zcaron" unicode="&#x17e;" horiz-adv-x="464" 
d="M33 0v67l293 379h-284v70h381v-60l-299 -386h307v-70h-398zM183 599l-111 143l44 31l117 -117l117 117l44 -31l-111 -143h-100z" />
    <glyph glyph-name="florin" unicode="&#x192;" horiz-adv-x="485" 
d="M4 -64h145l37 365h-143l8 73h142l21 206c3.33301 35.333 15.5 63.833 36.5 85.5s50.833 32.5 89.5 32.5h121l-8 -70h-153l-26 -254h169l-7 -73h-169l-32 -317c-3.33301 -34.667 -15.333 -63 -36 -85s-50.667 -33 -90 -33h-112z" />
    <glyph glyph-name="uni0237" unicode="&#x237;" horiz-adv-x="250" 
d="M1 -130h84v646h80v-596c0 -36 -9 -65 -27 -87s-46.333 -33 -85 -33h-52v70z" />
    <glyph glyph-name="uni02BB" unicode="&#x2bb;" 
d="M301 595c-16.667 0 -29.332 4.16699 -37.999 12.5s-13 19.833 -13 34.5v11c0 23.333 6 45.5 18 66.5s26 39.167 42 54.5h58c-13.333 -14 -24 -26.667 -32 -38s-14.333 -24.666 -19 -39.999c11.333 -2.66699 20 -7.83398 26 -15.501s9 -17.167 9 -28.5v-10
c0 -14.667 -4.33301 -26.167 -13 -34.5s-21.334 -12.5 -38.001 -12.5z" />
    <glyph glyph-name="uni02BC" unicode="&#x2bc;" 
d="M275 740h91l-49 -188h-54z" />
    <glyph glyph-name="circumflex" unicode="&#x2c6;" 
d="M350 765l111 -143l-44 -31l-117 117l-117 -117l-44 31l111 143h100z" />
    <glyph glyph-name="caron" unicode="&#x2c7;" 
d="M250 599l-111 143l44 31l117 -117l117 117l44 -31l-111 -143h-100z" />
    <glyph glyph-name="uni02D7" unicode="&#x2d7;" horiz-adv-x="300" 
d="M20 308h260v-83h-260v83z" />
    <glyph glyph-name="breve" unicode="&#x2d8;" 
d="M300 596c-26.667 0 -48.834 4.00293 -66.501 12.0029s-32 18 -43 30s-19.667 25.333 -26 40s-11.833 29 -16.5 43l45 22l21 -33c8.66699 -14.667 18.834 -26.834 30.501 -36.501s30.167 -14.5 55.5 -14.5c12.667 0 23.5 1.33301 32.5 4s16.667 6.16699 23 10.5
s11.833 9.66602 16.5 15.999s9.33398 13.166 14.001 20.499l21 33l45 -22c-4.66699 -14 -10.167 -28.333 -16.5 -43s-15 -28 -26 -40s-25.333 -22 -43 -30s-39.834 -12 -66.501 -12z" />
    <glyph glyph-name="dotaccent" unicode="&#x2d9;" 
d="M300 616c-17.333 0 -30.166 4.16699 -38.499 12.5s-12.5 19.5 -12.5 33.5v11c0 14 4.16699 25.167 12.5 33.5s21.166 12.5 38.499 12.5s30.166 -4.16699 38.499 -12.5s12.5 -19.5 12.5 -33.5v-11c0 -14 -4.16699 -25.167 -12.5 -33.5s-21.166 -12.5 -38.499 -12.5z" />
    <glyph glyph-name="ring" unicode="&#x2da;" 
d="M300 576c-16 0 -31.167 2.83301 -45.5 8.5s-26.666 13.667 -36.999 24s-18.5 22.5 -24.5 36.5s-9 29.333 -9 46s3 32 9 46s14.167 26.167 24.5 36.5s22.666 18.333 36.999 24s29.5 8.5 45.5 8.5s31.167 -2.83301 45.5 -8.5s26.666 -13.667 36.999 -24
s18.5 -22.5 24.5 -36.5s9 -29.333 9 -46s-3 -32 -9 -46s-14.167 -26.167 -24.5 -36.5s-22.666 -18.333 -36.999 -24s-29.5 -8.5 -45.5 -8.5zM300 625c18 0 32.167 4.83301 42.5 14.5s15.5 23.167 15.5 40.5v22c0 17.333 -5.16699 30.833 -15.5 40.5s-24.5 14.5 -42.5 14.5
s-32.167 -4.83301 -42.5 -14.5s-15.5 -23.167 -15.5 -40.5v-22c0 -17.333 5.16699 -30.833 15.5 -40.5s24.5 -14.5 42.5 -14.5z" />
    <glyph glyph-name="ogonek" unicode="&#x2db;" 
d="M261 -207c-26 0 -48.332 5.99805 -66.999 17.998s-28 31.333 -28 58s9.66699 50.167 29 70.5s44.666 41.833 75.999 64.5l-5 18h54l8 -22c-21.333 -19.333 -38.333 -35.666 -51 -48.999s-22.5 -24.5 -29.5 -33.5s-11.667 -16.667 -14 -23s-3.5 -12.166 -3.5 -17.499
c0 -11.333 2.83301 -19.166 8.5 -23.499s13.167 -6.5 22.5 -6.5c19.333 0 35.333 8 48 24l40 -39c-6 -10.667 -16.333 -19.834 -31 -27.501s-33.667 -11.5 -57 -11.5z" />
    <glyph glyph-name="tilde" unicode="&#x2dc;" 
d="M373 612c-17.333 0 -32.333 3 -45 9l-35 17c-16 8.66699 -29.5 14.834 -40.5 18.501s-20.833 5.5 -29.5 5.5c-11.333 0 -21.333 -2.33301 -30 -7s-18 -11.334 -28 -20.001l-33 40c9.33301 13.333 21.666 25.5 36.999 36.5s34.666 16.5 57.999 16.5
c17.333 0 32.333 -3 45 -9l35 -17c16 -8.66699 29.5 -14.834 40.5 -18.501s20.833 -5.5 29.5 -5.5c11.333 0 21.333 2.33301 30 7s18 11.334 28 20.001l33 -40c-9.33301 -13.333 -21.666 -25.5 -36.999 -36.5s-34.666 -16.5 -57.999 -16.5z" />
    <glyph glyph-name="hungarumlaut" unicode="&#x2dd;" 
d="M227 586l-48 22l85 170l69 -33zM387 586l-48 22l85 170l69 -33z" />
    <glyph glyph-name="uni0303" unicode="&#x303;" horiz-adv-x="0" 
d="M73 630c-17.333 0 -32.333 3 -45 9l-35 17c-16 8.66699 -29.5 14.834 -40.5 18.501s-20.833 5.5 -29.5 5.5c-11.333 0 -21.333 -2.33301 -30 -7s-18 -11.334 -28 -20.001l-33 40c9.33301 13.333 21.666 25.5 36.999 36.5s34.666 16.5 57.999 16.5
c17.333 0 32.333 -3 45 -9l35 -17c16 -8.66699 29.5 -14.834 40.5 -18.501s20.833 -5.5 29.5 -5.5c11.333 0 21.333 2.33301 30 7s18 11.334 28 20.001l33 -40c-9.33301 -13.333 -21.666 -25.5 -36.999 -36.5s-34.666 -16.5 -57.999 -16.5z" />
    <glyph glyph-name="uni0331" unicode="&#x331;" horiz-adv-x="0" 
d="M-323 -113h279v-64h-279v64z" />
    <glyph glyph-name="uni034F" unicode="&#x34f;" horiz-adv-x="0" 
 />
    <glyph glyph-name="pi" unicode="&#x3c0;" horiz-adv-x="622" 
d="M487 70h64v-70h-59c-28 -0 -49.167 7.83301 -63.5 23.5s-21.5 35.167 -21.5 58.5v364h-208v-446h-80v446h-95v70h566v-70h-103v-376z" />
    <glyph glyph-name="uni0E01" unicode="&#xe01;" horiz-adv-x="611" 
d="M134 312l-84.9961 35.9971c2 30.667 9.5 58.834 22.5 84.501s30.167 47.834 51.5 66.501s46.166 33.167 74.499 43.5s59.166 15.5 92.499 15.5c78 0 137.667 -19.5 179 -58.5s62 -91.833 62 -158.5v-341h-80v331c0 52 -14.5 91.333 -43.5 118s-67.167 40 -114.5 40
c-20.667 0 -40.167 -2.5 -58.5 -7.5s-34.833 -12 -49.5 -21s-27.334 -20 -38.001 -33s-18.334 -27.5 -23.001 -43.5l50 -20c14 -5.33301 24.167 -12.166 30.5 -20.499s9.5 -19.833 9.5 -34.5v-309h-80v312z" />
    <glyph glyph-name="uni0E02" unicode="&#xe02;" horiz-adv-x="561" 
d="M281 -12c-30.667 0 -58.6689 4 -84.002 12s-47.166 20 -65.499 36s-32.5 36.167 -42.5 60.5s-15 52.833 -15 85.5c0 19.333 1.5 36.5 4.5 51.5s7 28.667 12 41s10.833 23.833 17.5 34.5s14 21 22 31c14 18.667 25.667 36.667 35 54s14 35.666 14 54.999v27h-114v70h117
c24.667 0 43.5 -6.5 56.5 -19.5s19.5 -30.167 19.5 -51.5v-9c0 -24 -4.5 -46.167 -13.5 -66.5s-22.167 -44.166 -39.5 -71.499c-15.333 -23.333 -26.666 -44.5 -33.999 -63.5s-11 -39.833 -11 -62.5v-31c0 -39.333 10.833 -68.166 32.5 -86.499s50.5 -27.5 86.5 -27.5
c38.667 0 68.667 12 90 36s32 58 32 102v351h80v-360c0 -60.667 -17 -108.834 -51 -144.501s-83.667 -53.5 -149 -53.5z" />
    <glyph glyph-name="uni0E03" unicode="&#xe03;" horiz-adv-x="589" 
d="M309 -12c-30.667 0 -58.667 3.99707 -84 11.9971s-47.166 20 -65.499 36s-32.5 36.167 -42.5 60.5s-15 52.833 -15 85.5c0 37.333 5.33301 67.833 16 91.5s23.667 45.5 39 65.5c14.667 19.333 27.167 37.333 37.5 54s15.5 34.667 15.5 54
c0 18 -4.83301 31.167 -14.5 39.5s-21.834 12.5 -36.501 12.5c-20 0 -35.167 -7 -45.5 -21s-16.833 -34.667 -19.5 -62h-59v139h67v-69h5c7.33301 22.667 18.5 40.334 33.5 53.001s33.833 19 56.5 19c26.667 0 48 -9 64 -27s24 -41 24 -69
c0 -23.333 -4.66699 -45.166 -14 -65.499s-22.333 -43.5 -39 -69.5c-12.667 -20 -23.167 -39.5 -31.5 -58.5s-12.5 -41.167 -12.5 -66.5v-31c0 -39.333 10.833 -68.166 32.5 -86.499s50.5 -27.5 86.5 -27.5c38 0 67.833 11.833 89.5 35.5s32.5 57.834 32.5 102.501v351h80
v-360c0 -60.667 -17 -108.834 -51 -144.501s-83.667 -53.5 -149 -53.5z" />
    <glyph glyph-name="uni0E04" unicode="&#xe04;" horiz-adv-x="636" 
d="M80 342c0 32.667 5.50098 62.333 16.501 89s26.833 49.5 47.5 68.5s45.667 33.5 75 43.5s62.333 15 99 15c36 0 68.667 -5 98 -15s54.333 -24.5 75 -43.5s36.667 -41.833 48 -68.5s17 -56.334 17 -89.001v-342h-80v334c0 50 -13.833 88.333 -41.5 115s-66.5 40 -116.5 40
s-88.833 -13.333 -116.5 -40s-41.5 -65 -41.5 -115v-130h5c4.66699 12.667 11 24.834 19 36.501s18 22 30 31s26.167 16.167 42.5 21.5s35.166 8 56.499 8h33v-80h-46c-42.667 0 -76.667 -8.33301 -102 -25s-38 -39.667 -38 -69v-127h-80v342z" />
    <glyph glyph-name="uni0E05" unicode="&#xe05;" horiz-adv-x="651" 
d="M80 414c0 45.333 11.1738 80.666 33.5068 105.999s54.5 38 96.5 38c27.333 0 51.166 -7.33301 71.499 -22s34.166 -36 41.499 -64h5c7.33301 28 21.166 49.333 41.499 64s44.166 22 71.499 22c42 0 74.167 -12.667 96.5 -38s33.5 -60.666 33.5 -105.999v-414h-80v413
c0 26 -5.83301 45.167 -17.5 57.5s-28.167 18.5 -49.5 18.5c-12.667 0 -23.334 -2.33301 -32.001 -7s-15.667 -10.834 -21 -18.501s-9.5 -16.167 -12.5 -25.5s-5.16699 -19 -6.5 -29h-53c-1.33301 10 -3.5 19.667 -6.5 29s-7.16699 17.833 -12.5 25.5
s-12.333 13.834 -21 18.501s-19.334 7 -32.001 7c-21.333 0 -37.833 -6.16699 -49.5 -18.5s-17.5 -31.5 -17.5 -57.5v-216h5c4.66699 12.667 11 24.667 19 36s18 21.5 30 30.5s26.167 16.167 42.5 21.5s35.166 8 56.499 8h33v-80h-46c-42.667 0 -76.667 -8.33301 -102 -25
s-38 -39.667 -38 -69v-119h-80v414z" />
    <glyph glyph-name="uni0E06" unicode="&#xe06;" horiz-adv-x="626" 
d="M358 -12c-23.333 0 -43.502 2.83008 -60.502 8.49707s-31.833 13.167 -44.5 22.5s-23.167 20 -31.5 32s-15.166 24.667 -20.499 38h-5v-89h-80v184c0 36.667 4.5 66.667 13.5 90s21.167 45 36.5 65c14.667 19.333 27 37.333 37 54s15 34.667 15 54
c0 18 -4.83301 31.167 -14.5 39.5s-21.5 12.5 -35.5 12.5c-20 0 -35.167 -7 -45.5 -21s-16.833 -34.667 -19.5 -62h-59v139h67v-69h5c7.33301 22.667 18.5 40.334 33.5 53.001s33.833 19 56.5 19c26.667 0 48 -9 64 -27s24 -41 24 -69
c0 -23.333 -4.66699 -45.166 -14 -65.499s-22.333 -43.5 -39 -69.5c-13.333 -20 -24.166 -39.5 -32.499 -58.5s-12.5 -40.167 -12.5 -63.5v-37c0 -18.667 4 -35 12 -49s18.5 -25.5 31.5 -34.5s27.667 -15.667 44 -20s32.833 -6.5 49.5 -6.5c88.667 0 133 50 133 150v338h80
v-348c0 -67.333 -16.833 -119.166 -50.5 -155.499s-79.5 -54.5 -137.5 -54.5z" />
    <glyph glyph-name="uni0E07" unicode="&#xe07;" horiz-adv-x="544" 
d="M32 395h86.001l145 -328h3c42 0 74.5 14.5 97.5 43.5s34.5 69.5 34.5 121.5v82c0 51.333 -11.5 91.333 -34.5 120s-55.5 43 -97.5 43h-32v69h33c68.667 0 122 -24 160 -72s57 -115 57 -201s-18.833 -153 -56.5 -201s-90.834 -72 -159.501 -72h-62z" />
    <glyph glyph-name="uni0E08" unicode="&#xe08;" horiz-adv-x="574" 
d="M142 232h-60.999v69h82c10 0 19.5 -2.16699 28.5 -6.5s15.167 -11.833 18.5 -22.5l72 -205h38c32.667 0 59 15 79 45s30 71.667 30 125v82c0 54 -14.5 95.833 -43.5 125.5s-68.5 44.5 -118.5 44.5c-47.333 0 -86.333 -9.5 -117 -28.5s-54.667 -43.5 -72 -73.5l-52 46
c8.66699 16.667 20.167 32.667 34.5 48s31.666 28.666 51.999 39.999s43.666 20.333 69.999 27s55.5 10 87.5 10c78 0 138.167 -24.667 180.5 -74s63.5 -118 63.5 -206c0 -43.333 -4.83301 -82.166 -14.5 -116.499s-23.167 -63.5 -40.5 -87.5s-38.666 -42.333 -63.999 -55
s-53.333 -19 -84 -19h-88z" />
    <glyph glyph-name="uni0E09" unicode="&#xe09;" horiz-adv-x="592" 
d="M265 -12c-56.667 0 -100.834 16.001 -132.501 48.001s-47.5 77.667 -47.5 137v78h80v-62c0 -44.667 10.5 -77.667 31.5 -99s51.167 -32 90.5 -32c16 0 31.833 2.16699 47.5 6.5s29.667 11 42 20s22.5 20.5 30.5 34.5s12 30.333 12 49v172c0 99.333 -49.333 149 -148 149
c-42 0 -77.333 -9 -106 -27s-51.667 -42.667 -69 -74l-52 46c9.33301 17.333 20.833 33.666 34.5 48.999s30 28.5 49 39.5s40.833 19.667 65.5 26s52.334 9.5 83.001 9.5c70.667 0 125.5 -18.167 164.5 -54.5s58.5 -87.833 58.5 -154.5v-279h64v-70h-59
c-26.667 0 -46.167 8 -58.5 24s-19.5 36.333 -21.5 61h-4c-10.667 -30.667 -30.167 -54.5 -58.5 -71.5s-60.5 -25.5 -96.5 -25.5z" />
    <glyph glyph-name="uni0E0A" unicode="&#xe0a;" horiz-adv-x="556" 
d="M283 -12c-62.667 0 -113.169 15.998 -151.502 47.998s-57.5 80.667 -57.5 146c0 19.333 1.5 36.5 4.5 51.5s7 28.667 12 41s10.833 23.833 17.5 34.5s14 21 22 31c14 18.667 25.667 36.667 35 54s14 35.666 14 54.999v27h-114v70h117c24.667 0 43.5 -6.5 56.5 -19.5
s19.5 -30.167 19.5 -51.5v-9c0 -24 -4.5 -46.167 -13.5 -66.5s-22.167 -44.166 -39.5 -71.499c-15.333 -23.333 -26.666 -44.5 -33.999 -63.5s-11 -39.833 -11 -62.5v-31c0 -39.333 11 -68.166 33 -86.499s51.333 -27.5 88 -27.5c38 0 67.333 9.16699 88 27.5
s31 44.5 31 78.5v87c0 34 -6.66699 60.167 -20 78.5s-31.666 27.5 -54.999 27.5h-28v64h30c23.333 0 41.833 6.83301 55.5 20.5s20.5 35.834 20.5 66.501v55h80v-52c0 -16.667 -3 -31.5 -9 -44.5s-13.667 -24.167 -23 -33.5s-20.166 -16.833 -32.499 -22.5
s-24.833 -9.5 -37.5 -11.5v-5c35.333 -10 61.666 -31.667 78.999 -65s26 -73 26 -119c0 -68.667 -17.667 -122.667 -53 -162s-85.333 -59 -150 -59z" />
    <glyph glyph-name="uni0E0B" unicode="&#xe0b;" horiz-adv-x="584" 
d="M311 -12c-62.667 0 -113.169 15.999 -151.502 47.999s-57.5 80.667 -57.5 146c0 19.333 1.5 36.5 4.5 51.5s7 28.667 12 41s10.833 23.833 17.5 34.5s14 21 22 31c14.667 19.333 27 37.166 37 53.499s15 34.166 15 53.499c0 18 -4.83301 31.167 -14.5 39.5
s-21.5 12.5 -35.5 12.5c-20 0 -35.167 -7 -45.5 -21s-16.833 -34.667 -19.5 -62h-60v139h67v-69h6c6.66699 22.667 17.5 40.334 32.5 53.001s33.833 19 56.5 19c27.333 0 49 -9 65 -27s24 -41 24 -69c0 -23.333 -4.66699 -45 -14 -65s-22.333 -43 -39 -69
c-15.333 -23.333 -26.666 -44.5 -33.999 -63.5s-11 -39.833 -11 -62.5v-31c0 -39.333 11 -68.166 33 -86.499s51.333 -27.5 88 -27.5c38 0 67.333 9.16699 88 27.5s31 44.5 31 78.5v87c0 34 -6.66699 60.167 -20 78.5s-31.666 27.5 -54.999 27.5h-28v64h30
c23.333 0 41.833 6.83301 55.5 20.5s20.5 35.834 20.5 66.501v55h80v-52c0 -16.667 -3 -31.5 -9 -44.5s-13.667 -24.167 -23 -33.5s-20.166 -16.833 -32.499 -22.5s-24.833 -9.5 -37.5 -11.5v-5c35.333 -10 61.666 -31.667 78.999 -65s26 -73 26 -119
c0 -68.667 -17.667 -122.667 -53 -162s-85.333 -59 -150 -59z" />
    <glyph glyph-name="uni0E0C" unicode="&#xe0c;" horiz-adv-x="937" 
d="M684 -12c-21.333 0 -40.1621 2.83105 -56.4951 8.49805s-30.5 13.167 -42.5 22.5s-22 20 -30 32s-14.333 24.667 -19 38h-5v-89h-80v331c0 52 -14.5 91.333 -43.5 118s-67.167 40 -114.5 40c-20.667 0 -40.167 -2.5 -58.5 -7.5s-34.833 -12 -49.5 -21
s-27.334 -20 -38.001 -33s-18.334 -27.5 -23.001 -43.5l49 -20c14.667 -6 25.167 -13 31.5 -21s9.5 -19.333 9.5 -34v-239h64v-70h-59c-28.667 0 -50 7.66699 -64 23s-21 35.666 -21 60.999v228l-85 36c2 30.667 9.5 58.834 22.5 84.501s30.167 47.834 51.5 66.501
s46.166 33.167 74.499 43.5s59.166 15.5 92.499 15.5c77.333 0 136.833 -19.5 178.5 -58.5s62.5 -91.833 62.5 -158.5v-173c0 -18.667 3.66699 -35 11 -49s17 -25.667 29 -35s25.667 -16.333 41 -21s30.666 -7 45.999 -7c79.333 0 119 50.667 119 152v338h80v-348
c0 -67.333 -15.333 -119.166 -46 -155.499s-73 -54.5 -127 -54.5z" />
    <glyph glyph-name="uni0E0D" unicode="&#xe0d;" horiz-adv-x="916" 
d="M634 -12c-30.667 0 -58.3301 4.5 -82.9971 13.5s-45.834 22 -63.501 39s-31.167 37.167 -40.5 60.5s-14 49.666 -14 78.999v150c0 52 -13.333 91.5 -40 118.5s-62.334 40.5 -107.001 40.5c-39.333 0 -73.833 -9.33301 -103.5 -28s-49.167 -44.334 -58.5 -77.001l49 -20
c14.667 -6 25.167 -13 31.5 -21s9.5 -19.333 9.5 -34v-239h64v-70h-58c-28.667 0 -50.167 7.66699 -64.5 23s-21.5 35.666 -21.5 60.999v228l-85 36c2 30.667 9.33301 58.834 22 84.501s29.5 47.834 50.5 66.501s45.333 33.167 73 43.5s57.834 15.5 90.501 15.5
c74 0 130.5 -19.5 169.5 -58.5s58.5 -92.167 58.5 -159.5v-161c0 -39.333 11.167 -69.333 33.5 -90s51.5 -31 87.5 -31c36.667 0 66 10.333 88 31s33 50.667 33 90v367h80v-366c0 -29.333 -4.66699 -55.666 -14 -78.999s-22.833 -43.5 -40.5 -60.5s-38.834 -30 -63.501 -39
s-52.334 -13.5 -83.001 -13.5zM521.004 -232c-30 0 -52 7.16699 -66 21.5s-21 33.5 -21 57.5v63h80v-74h321v-68h-314z" />
    <glyph glyph-name="uni0E0E" unicode="&#xe0e;" horiz-adv-x="609" 
d="M122 -188c21.333 30 46.6689 54.3311 76.002 72.998s66.333 28 111 28c30.667 0 58.167 -6.5 82.5 -19.5s41.833 -31.167 52.5 -54.5h5v492c0 52 -14.167 91.333 -42.5 118s-65.5 40 -111.5 40c-40.667 0 -76.334 -9.33301 -107.001 -28s-50.667 -44.334 -60 -77.001
l50 -20c14.667 -6 25.167 -13 31.5 -21s9.5 -19.333 9.5 -34v-225c0 -25.333 -7.16699 -45.666 -21.5 -60.999s-35.5 -23 -63.5 -23h-59v70h64v242l-86 36c2 30.667 9.5 58.834 22.5 84.501s30 47.834 51 66.501s45.667 33.167 74 43.5s59.166 15.5 92.499 15.5
c76.667 0 135.167 -19.5 175.5 -58.5s60.5 -91.833 60.5 -158.5v-573h-63c-11.333 23.333 -28.5 43.833 -51.5 61.5s-52.5 26.5 -88.5 26.5c-34.667 0 -64.5 -8.66699 -89.5 -26s-44.5 -38 -58.5 -62z" />
    <glyph glyph-name="uni0E0F" unicode="&#xe0f;" horiz-adv-x="609" 
d="M140 -166l52.002 0.000976562c14.667 0 26.5 2.33301 35.5 7s16.333 10.5 22 17.5s9.66699 15 12 24s3.83301 17.833 4.5 26.5h60c0.666992 -8.66699 2.5 -17.5 5.5 -26.5s7.16699 -17 12.5 -24s11.833 -12.833 19.5 -17.5s17.167 -7 28.5 -7
c17.333 0 31.166 5.5 41.499 16.5s15.5 27.833 15.5 50.5v430c0 52 -14.167 91.333 -42.5 118s-65.5 40 -111.5 40c-40.667 0 -76.334 -9.33301 -107.001 -28s-50.667 -44.334 -60 -77.001l50 -20c14.667 -6 25.167 -13 31.5 -21s9.5 -19.333 9.5 -34v-225
c0 -25.333 -7.16699 -45.666 -21.5 -60.999s-35.5 -23 -63.5 -23h-59v70h64v242l-86 36c2 30.667 9.5 58.834 22.5 84.501s30 47.834 51 66.501s45.667 33.167 74 43.5s59.166 15.5 92.499 15.5c76.667 0 135.167 -19.5 175.5 -58.5s60.5 -91.833 60.5 -158.5v-439
c0 -42 -10.833 -74.833 -32.5 -98.5s-51.5 -35.5 -89.5 -35.5c-11.333 0 -22.5 1.33301 -33.5 4s-21.5 7.16699 -31.5 13.5s-18.833 14.666 -26.5 24.999s-13.167 23.166 -16.5 38.499h-5c-6.66699 -30.667 -19.667 -51.834 -39 -63.501s-41.666 -17.5 -66.999 -17.5h-48v66
z" />
    <glyph glyph-name="uni0E10" unicode="&#xe10;" horiz-adv-x="619" 
d="M142 232h-60.9971v69h82c10 0 19.5 -2.16699 28.5 -6.5s15.167 -11.833 18.5 -22.5l72 -205h38c32.667 0 59 15 79 45s30 71.667 30 125v82c0 54 -14.5 95.833 -43.5 125.5s-68.5 44.5 -118.5 44.5c-47.333 0 -86.333 -9.5 -117 -28.5s-54.667 -43.5 -72 -73.5l-52 46
c8.66699 16.667 20.167 32.667 34.5 48s31.666 28.666 51.999 39.999s43.666 20.333 69.999 27s55.5 10 87.5 10c53.333 0 99 -12.333 137 -37c1.33301 18 6.16602 31.333 14.499 40s22.166 13 41.499 13h147v-74h-175v-1c25.333 -24 44.833 -54.5 58.5 -91.5
s20.5 -80.167 20.5 -129.5c0 -43.333 -4.83301 -82.166 -14.5 -116.499s-23.167 -63.5 -40.5 -87.5s-38.666 -42.333 -63.999 -55s-53.333 -19 -84 -19h-88zM94.0029 -166l52 -0.000976562c14.667 0 26.5 2.33301 35.5 7s16.333 10.5 22 17.5s9.66699 15 12 24
s3.83301 17.833 4.5 26.5h60c0.666992 -8.66699 2.5 -17.5 5.5 -26.5s7.16699 -17 12.5 -24s11.833 -12.833 19.5 -17.5s17.167 -7 28.5 -7c17.333 0 31.166 5.66699 41.499 17s15.5 28.333 15.5 51v41h80v-41c0 -42 -10.833 -74.833 -32.5 -98.5s-51.5 -35.5 -89.5 -35.5
c-11.333 0 -22.5 1.33301 -33.5 4s-21.5 7.33398 -31.5 14.001s-18.833 15 -26.5 25s-13.167 22.667 -16.5 38h-5c-6.66699 -30 -19.667 -51 -39 -63s-41.666 -18 -66.999 -18h-48v66z" />
    <glyph glyph-name="uni0E11" unicode="&#xe11;" horiz-adv-x="640" 
d="M116 184c0 36.667 4.5 66.666 13.5 89.999s21.167 45 36.5 65c14.667 19.333 27 37.333 37 54s15 34.667 15 54c0 18 -4.83301 31.167 -14.5 39.5s-21.5 12.5 -35.5 12.5c-20 0 -35.167 -7 -45.5 -21s-16.833 -34.667 -19.5 -62h-59v139h67v-69h5
c7.33301 22.667 18.5 40.334 33.5 53.001s33.833 19 56.5 19c20.667 0 37.334 -6.16699 50.001 -18.5s19 -28.166 19 -47.499c0 -10.667 -2.66699 -23.334 -8 -38.001l5 -2l35.5 45c11 13.333 22.333 24.5 34 33.5s24 15.833 37 20.5s27.833 7 44.5 7
c42.667 0 76.167 -14.5 100.5 -43.5s36.5 -70.833 36.5 -125.5v-389h-80v362c0 36.667 -5 66.834 -15 90.501s-28.667 35.5 -56 35.5c-16.667 0 -33.334 -6 -50.001 -18s-32.334 -26.333 -47.001 -43s-28.167 -34.334 -40.5 -53.001l-30.5 -47
c-13.333 -20 -24.166 -39.5 -32.499 -58.5s-12.5 -40.167 -12.5 -63.5v-205h-80v184z" />
    <glyph glyph-name="uni0E12" unicode="&#xe12;" horiz-adv-x="958" 
d="M278 -12c-70.667 0 -124.668 25.166 -162.001 75.499s-56 120.833 -56 211.5c0 89.333 13 158.833 39 208.5s65.667 74.5 119 74.5c24 0 45.333 -6.66699 64 -20s31.334 -33 38.001 -59h5c6.66699 26 19.834 45.667 39.501 59s42.167 20 67.5 20
c38 0 67.333 -12.667 88 -38s31 -60.666 31 -105.999v-246c0 -18.667 3.66699 -35 11 -49s17 -25.5 29 -34.5s25.667 -15.667 41 -20s31 -6.5 47 -6.5c79.333 0 119 50 119 150v338h80v-348c0 -67.333 -15.333 -119.166 -46 -155.499s-73.334 -54.5 -128.001 -54.5
c-21.333 0 -40.166 2.83301 -56.499 8.5s-30.5 13.167 -42.5 22.5s-22 20 -30 32s-14.333 24.667 -19 38h-5v-89h-79v413c0 26 -5.16699 45.167 -15.5 57.5s-24.833 18.5 -43.5 18.5c-22.667 0 -38.834 -8.16699 -48.501 -24.5s-16.167 -34.833 -19.5 -55.5h-52
c-1.33301 10 -3.16602 19.833 -5.49902 29.5s-6 18.334 -11 26.001s-11.333 13.667 -19 18s-17.167 6.5 -28.5 6.5c-15.333 0 -28.333 -4.33301 -39 -13s-19.167 -20.667 -25.5 -36s-11 -33.5 -14 -54.5s-4.5 -43.833 -4.5 -68.5v-80c0 -56.667 11.667 -100.834 35 -132.501
s60.666 -47.5 111.999 -47.5c7.33301 0 15.166 0.333008 23.499 1s16.5 1.66699 24.5 3l10 -67c-12.667 -2.66699 -25.167 -4.33398 -37.5 -5.00098s-24.166 -1 -35.499 -1z" />
    <glyph glyph-name="uni0E13" unicode="&#xe13;" horiz-adv-x="935" 
d="M605 -12c-54 0 -96.167 18.1689 -126.5 54.502s-45.5 88.166 -45.5 155.499v132c0 52 -13.333 91.5 -40 118.5s-62.334 40.5 -107.001 40.5c-39.333 0 -73.833 -9.33301 -103.5 -28s-49.167 -44.334 -58.5 -77.001l49 -20c14.667 -6 25.167 -13 31.5 -21
s9.5 -19.333 9.5 -34v-239h64v-70h-58c-28.667 0 -50.167 7.66699 -64.5 23s-21.5 35.666 -21.5 60.999v228l-85 36c2 30.667 9.33301 58.834 22 84.501s29.5 47.834 50.5 66.501s45.333 33.167 73 43.5s57.834 15.5 90.501 15.5c74 0 130.5 -19.5 169.5 -58.5
s58.5 -92.167 58.5 -159.5v-132c0 -101.333 39 -152 117 -152c15.333 0 30.5 2.33301 45.5 7s28.5 11.667 40.5 21s21.667 21 29 35s11 30.333 11 49v378h80v-476h64v-70h-59c-26.667 0 -46.167 8 -58.5 24s-19.5 36.333 -21.5 61h-4
c-5.33301 -12.667 -12 -24.834 -20 -36.501s-18.167 -22 -30.5 -31s-26.833 -16.167 -43.5 -21.5s-36 -8 -58 -8z" />
    <glyph glyph-name="uni0E14" unicode="&#xe14;" horiz-adv-x="639" 
d="M294 -12c-37.333 0 -70.499 6.66895 -99.499 20.002s-53.5 32.166 -73.5 56.499s-35.167 54.166 -45.5 89.499s-15.5 75 -15.5 119c0 42.667 6 81.667 18 117s29.167 65.333 51.5 90s49.5 43.834 81.5 57.501s68 20.5 108 20.5c36 0 68.833 -5.33301 98.5 -16
s55 -25.834 76 -45.501s37.167 -43.334 48.5 -71.001s17 -58.5 17 -92.5v-333h-80v322c0 52.667 -14.5 93.667 -43.5 123s-68.833 44 -119.5 44c-53.333 0 -95 -16.167 -125 -48.5s-45 -76.166 -45 -131.499v-72c0 -58.667 13.333 -103.334 40 -134.001s67.667 -46 123 -46
c7.33301 0 14.833 0.166992 22.5 0.5s15.5 1.5 23.5 3.5l10 -67c-11.333 -3.33301 -23.333 -5.16602 -36 -5.49902s-24.334 -0.5 -35.001 -0.5z" />
    <glyph glyph-name="uni0E15" unicode="&#xe15;" horiz-adv-x="654" 
d="M293 -12c-76 0 -133.833 25.166 -173.5 75.499s-59.5 120.833 -59.5 211.5c0 89.333 13.333 158.833 40 208.5s68.334 74.5 125.001 74.5c25.333 0 48.166 -6.66699 68.499 -20s33.833 -33 40.5 -59h4c7.33301 26 21.166 45.667 41.499 59s43.5 20 69.5 20
c40 0 70.833 -12.667 92.5 -38s32.5 -60.666 32.5 -105.999v-414h-80v413c0 26 -5.5 45.167 -16.5 57.5s-26.5 18.5 -46.5 18.5c-12 0 -22.333 -2.16699 -31 -6.5s-15.667 -10.333 -21 -18s-9.66602 -16.334 -12.999 -26.001s-5.66602 -19.5 -6.99902 -29.5h-52
c-1.33301 10 -3.33301 19.667 -6 29s-6.66699 17.833 -12 25.5s-12.333 13.834 -21 18.501s-19.334 7 -32.001 7c-17.333 0 -31.666 -4.33301 -42.999 -13s-20.5 -20.667 -27.5 -36s-12 -33.5 -15 -54.5s-4.5 -43.833 -4.5 -68.5v-80
c0 -55.333 12.833 -99.166 38.5 -131.499s66.5 -48.5 122.5 -48.5c7.33301 0 15.166 0.333008 23.499 1s16.5 1.66699 24.5 3l10 -67c-12.667 -2.66699 -25.167 -4.33398 -37.5 -5.00098s-23.833 -1 -34.5 -1z" />
    <glyph glyph-name="uni0E16" unicode="&#xe16;" horiz-adv-x="614" 
d="M220 0c-28.667 0 -50.167 7.66602 -64.5 22.999s-21.5 35.666 -21.5 60.999v228l-85 36c2 30.667 9.5 58.834 22.5 84.501s30.167 47.834 51.5 66.501s46.333 33.167 75 43.5s59.667 15.5 93 15.5c78.667 0 138.834 -19.5 180.501 -58.5s62.5 -91.833 62.5 -158.5v-341
h-80v331c0 52 -14.667 91.333 -44 118s-68 40 -116 40c-20.667 0 -40.167 -2.5 -58.5 -7.5s-35 -12 -50 -21s-27.833 -20 -38.5 -33s-18.334 -27.5 -23.001 -43.5l49 -20c14.667 -6 25.167 -13 31.5 -21s9.5 -19.333 9.5 -34v-239h64v-70h-58z" />
    <glyph glyph-name="uni0E17" unicode="&#xe17;" horiz-adv-x="596" 
d="M85 546h80.001v-89h5c5.33301 12.667 12.166 25.167 20.499 37.5s19 23.166 32 32.499s28.333 16.833 46 22.5s38.167 8.5 61.5 8.5c58 0 103.5 -18.167 136.5 -54.5s49.5 -88.166 49.5 -155.499v-348h-80v338c0 101.333 -44 152 -132 152
c-17.333 0 -34.333 -2.33301 -51 -7s-31.5 -11.667 -44.5 -21s-23.5 -21 -31.5 -35s-12 -30.333 -12 -49v-378h-80v546z" />
    <glyph glyph-name="uni0E18" unicode="&#xe18;" horiz-adv-x="548" 
d="M70 199l74.0049 -0.00195312v-132h271v111c0 16.667 -1.33301 31.334 -4 44.001s-8.33398 23.5 -17.001 32.5s-21.334 16.333 -38.001 22s-39 9.83398 -67 12.501l-229 20v59c0 60 19.667 106.667 59 140s94.666 50 165.999 50c50 0 91.167 -7.83301 123.5 -23.5
s59.166 -36.167 80.499 -61.5l-51 -48c-14 17.333 -33.333 32.666 -58 45.999s-57.334 20 -98.001 20c-44.667 0 -79.5 -9.5 -104.5 -28.5s-37.5 -47.5 -37.5 -85.5v-12l164 -15c30.667 -2.66699 57.834 -7.16699 81.501 -13.5s43.667 -15.5 60 -27.5
s28.666 -27.333 36.999 -46s12.5 -41.667 12.5 -69v-110c0 -25.333 -7.16699 -45.666 -21.5 -60.999s-35.5 -23 -63.5 -23h-340v199z" />
    <glyph glyph-name="uni0E19" unicode="&#xe19;" horiz-adv-x="606" 
d="M265 -12c-58 0 -103.335 18.332 -136.002 54.999s-49 88.334 -49 155.001v348h80v-338c0 -101.333 43.333 -152 130 -152c16.667 0 33.334 2.33301 50.001 7s31.334 11.667 44.001 21s23 21 31 35s12 30.333 12 49v378h80v-476h64v-70h-59c-26.667 0 -46.167 8 -58.5 24
s-19.5 36.333 -21.5 61h-4c-10.667 -30.667 -30.5 -54.5 -59.5 -71.5s-63.5 -25.5 -103.5 -25.5z" />
    <glyph glyph-name="uni0E1A" unicode="&#xe1a;" horiz-adv-x="616" 
d="M308 -12c-70.667 0 -126.332 19.167 -166.999 57.5s-61 90.833 -61 157.5v343h80v-335c0 -50 13.167 -88.167 39.5 -114.5s62.5 -39.5 108.5 -39.5s82.167 13.167 108.5 39.5s39.5 64.5 39.5 114.5v335h80v-343c0 -66.667 -20.333 -119.167 -61 -157.5
s-96.334 -57.5 -167.001 -57.5z" />
    <glyph glyph-name="uni0E1B" unicode="&#xe1b;" horiz-adv-x="616" 
d="M308 -12c-70.667 0 -126.332 19.167 -166.999 57.5s-61 90.833 -61 157.5v343h80v-335c0 -50 13.167 -88.167 39.5 -114.5s62.5 -39.5 108.5 -39.5s82.167 13.167 108.5 39.5s39.5 64.5 39.5 114.5v511h80v-519c0 -66.667 -20.333 -119.167 -61 -157.5
s-96.334 -57.5 -167.001 -57.5z" />
    <glyph glyph-name="uni0E1C" unicode="&#xe1c;" horiz-adv-x="687" 
d="M220 -12c-57.333 0 -97.667 24.498 -121 73.498s-35 118.833 -35 209.5s17.333 159.167 52 205.5s83 69.5 145 69.5h26v-69h-22c-37.333 0 -66 -12.667 -86 -38s-30 -66.666 -30 -123.999v-94c0 -24.667 1 -47.167 3 -67.5s6 -37.666 12 -51.999s14.333 -25.333 25 -33
s24.667 -11.5 42 -11.5c22 0 40 8.33301 54 25s21 43 21 79v94h79v-94c0 -36 6.5 -62.333 19.5 -79s30.833 -25 53.5 -25c21.333 0 38.166 7.16699 50.499 21.5s18.5 35.5 18.5 63.5v404h80v-412c0 -44.667 -11.667 -80.167 -35 -106.5s-55.333 -39.5 -96 -39.5
c-38 0 -68 10.833 -90 32.5s-34.667 48.5 -38 80.5h-5c-3.33301 -32 -15.666 -58.833 -36.999 -80.5s-50 -32.5 -86 -32.5z" />
    <glyph glyph-name="uni0E1D" unicode="&#xe1d;" horiz-adv-x="687" 
d="M220 -12c-57.333 0 -97.667 24.498 -121 73.498s-35 118.833 -35 209.5s17.333 159.167 52 205.5s83 69.5 145 69.5h26v-69h-22c-37.333 0 -66 -12.667 -86 -38s-30 -66.666 -30 -123.999v-94c0 -24.667 1 -47.167 3 -67.5s6 -37.666 12 -51.999s14.333 -25.333 25 -33
s24.667 -11.5 42 -11.5c22 0 40 8.33301 54 25s21 43 21 79v94h79v-94c0 -36 6.5 -62.333 19.5 -79s30.833 -25 53.5 -25c21.333 0 38.166 7.16699 50.499 21.5s18.5 35.5 18.5 63.5v580h80v-588c0 -44.667 -11.667 -80.167 -35 -106.5s-55.333 -39.5 -96 -39.5
c-38 0 -68 10.833 -90 32.5s-34.667 48.5 -38 80.5h-5c-3.33301 -32 -15.666 -58.833 -36.999 -80.5s-50 -32.5 -86 -32.5z" />
    <glyph glyph-name="uni0E1E" unicode="&#xe1e;" horiz-adv-x="721" 
d="M62 546h79l36 -258l18 -201h4l51 201l74 258h72l75 -258l50 -201h5l18 201l35 258h80l-80 -546h-91l-88 303l-39 153h-3l-39 -153l-88 -303h-89z" />
    <glyph glyph-name="uni0E1F" unicode="&#xe1f;" horiz-adv-x="721" 
d="M62 546h79l36 -258l18 -201h4l51 201l74 258h72l75 -258l50 -201h5l18 201l59 434h79l-103 -722h-91l-88 303l-39 153h-3l-39 -153l-88 -303h-89z" />
    <glyph glyph-name="uni0E20" unicode="&#xe20;" horiz-adv-x="609" 
d="M74 70l64.002 -0.00195312v242l-85 36c2 30.667 9.5 58.834 22.5 84.501s30 47.834 51 66.501s45.667 33.167 74 43.5s59.166 15.5 92.499 15.5c76.667 0 135.167 -19.5 175.5 -58.5s60.5 -91.833 60.5 -158.5v-341h-80v331c0 52 -14.167 91.333 -42.5 118
s-65.5 40 -111.5 40c-40.667 0 -76.334 -9.33301 -107.001 -28s-50.667 -44.334 -60 -77.001l49 -20c14.667 -6 25.167 -13 31.5 -21s9.5 -19.333 9.5 -34v-225c0 -25.333 -7 -45.666 -21 -60.999s-35 -23 -63 -23h-60v70z" />
    <glyph glyph-name="uni0E21" unicode="&#xe21;" horiz-adv-x="596" 
d="M328 -12c-23.333 0 -43.667 2.83203 -61 8.49902s-32.333 13.167 -45 22.5s-23.167 20 -31.5 32s-15.166 24.667 -20.499 38h-5v-89h-80v546h80v-378c0 -18.667 4 -35 12 -49s18.5 -25.667 31.5 -35s27.667 -16.333 44 -21s33.166 -7 50.499 -7
c44 0 77.167 12.833 99.5 38.5s33.5 63.5 33.5 113.5v338h80v-348c0 -67.333 -16.667 -119.166 -50 -155.499s-79.333 -54.5 -138 -54.5z" />
    <glyph glyph-name="uni0E22" unicode="&#xe22;" 
d="M284 -12c-66.667 0 -118.499 14.334 -155.499 43.001s-55.5 69 -55.5 121c0 33.333 9.66699 60.833 29 82.5s43.666 36.5 72.999 44.5v5c-32.667 7.33301 -58.5 22.5 -77.5 45.5s-28.5 51.833 -28.5 86.5c0 42.667 13.167 77 39.5 103s62.833 39 109.5 39
c14 0 28.5 -1.16699 43.5 -3.5s28.833 -6.83301 41.5 -13.5l-17 -61c-18.667 7.33301 -36.334 11 -53.001 11c-29.333 0 -51.5 -7.83301 -66.5 -23.5s-22.5 -35.834 -22.5 -60.501c0 -10.667 1.33301 -21.334 4 -32.001s7.66699 -20.167 15 -28.5s17.5 -15.166 30.5 -20.499
s30.167 -8 51.5 -8h58v-57h-58c-25.333 0 -46.5 -7.33301 -63.5 -22s-25.5 -36 -25.5 -64v-25c0 -30 11 -53.167 33 -69.5s53.667 -24.5 95 -24.5c48.667 0 86.834 12.5 114.501 37.5s41.5 61.167 41.5 108.5v344h80v-356c0 -30.667 -5.5 -58.5 -16.5 -83.5
s-26.833 -46.167 -47.5 -63.5s-45.5 -30.833 -74.5 -40.5s-61.5 -14.5 -97.5 -14.5z" />
    <glyph glyph-name="uni0E23" unicode="&#xe23;" horiz-adv-x="532" 
d="M272 -12c-50 0 -92.668 9.00098 -128.001 27.001s-65 43.333 -89 76l57 46c20.667 -28 44.5 -48.5 71.5 -61.5s58.5 -19.5 94.5 -19.5c40 0 70.5 7.66699 91.5 23s31.5 38 31.5 68c0 25.333 -8.16699 45.166 -24.5 59.499s-42.5 24.166 -78.5 29.499l-47 7
c-21.333 3.33301 -42.333 8 -63 14s-39.5 14.667 -56.5 26s-30.667 26.333 -41 45s-15.5 42 -15.5 70c0 26 4.83301 49 14.5 69s23.334 36.667 41.001 50s38.5 23.5 62.5 30.5s50 10.5 78 10.5c47.333 0 86.833 -7.83301 118.5 -23.5s58.167 -36.167 79.5 -61.5l-51 -48
c-14.667 17.333 -34.334 32.5 -59.001 45.5s-54.667 19.5 -90 19.5c-37.333 0 -66 -7.66699 -86 -23s-30 -36.666 -30 -63.999c0 -29.333 9.66699 -50 29 -62s46 -20.667 80 -26l47 -7c24.667 -4 47.334 -9.33301 68.001 -16s38.5 -16 53.5 -28s26.833 -26.833 35.5 -44.5
s13 -39.167 13 -64.5c0 -52 -18.5 -92.833 -55.5 -122.5s-87.5 -44.5 -151.5 -44.5z" />
    <glyph glyph-name="uni0E24" unicode="&#xe24;" horiz-adv-x="611" 
d="M451 331c0 52 -14.4961 91.332 -43.4961 117.999s-67.167 40 -114.5 40c-20.667 0 -40.167 -2.5 -58.5 -7.5s-34.833 -12 -49.5 -21s-27.334 -20 -38.001 -33s-18.334 -27.5 -23.001 -43.5l49 -20c14.667 -6 25.167 -13 31.5 -21s9.5 -19.333 9.5 -34v-239h64v-70h-58
c-28.667 0 -50.167 7.66699 -64.5 23s-21.5 35.666 -21.5 60.999v228l-85 36c2 30.667 9.5 58.834 22.5 84.501s30.167 47.834 51.5 66.501s46.166 33.167 74.499 43.5s59.166 15.5 92.499 15.5c78 0 137.667 -19.5 179 -58.5s62 -91.833 62 -158.5v-521h-80v511z" />
    <glyph glyph-name="uni0E25" unicode="&#xe25;" horiz-adv-x="579" 
d="M245 -10c-55.333 0 -99.3311 13.666 -131.998 40.999s-49 67 -49 119c0 50.667 16.167 89.667 48.5 117s76.5 41 132.5 41h174v52c0 86 -47 129 -141 129c-40 0 -73.5 -8.16699 -100.5 -24.5s-48.833 -38.833 -65.5 -67.5l-51 45c17.333 32.667 44 60.167 80 82.5
s83 33.5 141 33.5c69.333 0 122.833 -17.167 160.5 -51.5s56.5 -81.833 56.5 -142.5v-364h-80v251h-156c-36 0 -64 -7.66699 -84 -23s-30 -37 -30 -65v-23c0 -30 9.16699 -52.833 27.5 -68.5s43.166 -23.5 74.499 -23.5c9.33301 0 17.166 0.333008 23.499 1
s11.5 1.33398 15.5 2.00098l7 -55c-4 -2 -11.5 -3.5 -22.5 -4.5s-20.833 -1.5 -29.5 -1.5z" />
    <glyph glyph-name="uni0E26" unicode="&#xe26;" horiz-adv-x="606" 
d="M446 331c0 52 -13.832 91.3301 -41.499 117.997s-64.5 40 -110.5 40c-20 0 -39 -2.5 -57 -7.5s-34.333 -12 -49 -21s-27.167 -20 -37.5 -33s-17.833 -27.5 -22.5 -43.5l49 -20c14.667 -6 25.167 -13 31.5 -21s9.5 -19.333 9.5 -34v-225c0 -25.333 -7 -45.666 -21 -60.999
s-35 -23 -63 -23h-60v70h64v242l-85 36c2 30.667 9.5 58.834 22.5 84.501s30 47.834 51 66.501s45.667 33.167 74 43.5s58.833 15.5 91.5 15.5c75.333 0 133.166 -19.5 173.499 -58.5s60.5 -91.833 60.5 -158.5v-521h-80v511z" />
    <glyph glyph-name="uni0E27" unicode="&#xe27;" horiz-adv-x="536" 
d="M247 -12c-26 0 -51.001 3.16602 -75.001 9.49902s-44.667 15.166 -62 26.499l30 59c28.667 -17.333 63.667 -26 105 -26c46 0 81.667 15.5 107 46.5s38 73.833 38 128.5v82c0 54 -12.167 96.667 -36.5 128s-60.5 47 -108.5 47c-36 0 -65.667 -7.5 -89 -22.5
s-41.333 -35.833 -54 -62.5l-65 33c16.667 36 42.334 65.167 77.001 87.5s79 33.5 133 33.5c74.667 0 131.5 -25.167 170.5 -75.5s58.5 -120.166 58.5 -209.499s-20 -159.166 -60 -209.499s-96.333 -75.5 -169 -75.5z" />
    <glyph glyph-name="uni0E28" unicode="&#xe28;" horiz-adv-x="670" 
d="M80 342c0 32.667 5.50293 62.3311 16.5029 88.998s26.833 49.5 47.5 68.5s45.667 33.5 75 43.5s62.333 15 99 15c29.333 0 56.333 -3.33301 81 -10s46.667 -16 66 -28c1.33301 18.667 6.16602 32.334 14.499 41.001s22.166 13 41.499 13h147v-74h-176v-1
c20.667 -19.333 36.5 -42 47.5 -68s16.5 -55.667 16.5 -89v-342h-80v334c0 50 -13.833 88.333 -41.5 115s-66.5 40 -116.5 40s-88.833 -13.333 -116.5 -40s-41.5 -65 -41.5 -115v-130h5c4.66699 12.667 11 24.834 19 36.501s18 22 30 31s26.167 16.167 42.5 21.5
s35.166 8 56.499 8h33v-80h-46c-42.667 0 -76.667 -8.33301 -102 -25s-38 -39.667 -38 -69v-127h-80v342z" />
    <glyph glyph-name="uni0E29" unicode="&#xe29;" horiz-adv-x="647" 
d="M314 -12c-36 0 -68.501 5 -97.501 15s-53.667 24.167 -74 42.5s-35.833 40.666 -46.5 66.999s-16 55.833 -16 88.5v345h80v-335c0 -48 13.5 -85.667 40.5 -113s64.833 -41 113.5 -41c49.333 0 87.333 13.667 114 41s40 65 40 113v42h-108c-30 0 -51.833 6.5 -65.5 19.5
s-20.5 31.167 -20.5 54.5v48h80v-58h114v229h80v-229h73v-64h-73v-52c0 -65.333 -20.667 -117.166 -62 -155.499s-98.666 -57.5 -171.999 -57.5z" />
    <glyph glyph-name="uni0E2A" unicode="&#xe2a;" horiz-adv-x="613" 
d="M245 -10c-55.333 0 -99.3311 13.665 -131.998 40.998s-49 67 -49 119c0 50.667 16.167 89.667 48.5 117s76.5 41 132.5 41h174v52c0 86 -47 129 -141 129c-40 0 -73.5 -8.16699 -100.5 -24.5s-48.833 -38.833 -65.5 -67.5l-51 45c17.333 32.667 44 60.167 80 82.5
s83 33.5 141 33.5c57.333 0 103.666 -12 138.999 -36c2.66699 34.667 21.334 52 56.001 52h133v-74h-161c33.333 -33.333 50 -78.666 50 -135.999v-364h-80v251h-156c-36 0 -64 -7.66699 -84 -23s-30 -37 -30 -65v-23c0 -30 9.16699 -52.833 27.5 -68.5
s43.166 -23.5 74.499 -23.5c9.33301 0 17.166 0.333008 23.499 1s11.5 1.33398 15.5 2.00098l7 -55c-4 -2 -11.5 -3.5 -22.5 -4.5s-20.833 -1.5 -29.5 -1.5z" />
    <glyph glyph-name="uni0E2B" unicode="&#xe2b;" horiz-adv-x="590" 
d="M85 546h79.999v-175l149 22c29.333 4.66699 53.333 12.834 72 24.501s29.667 32.167 33 61.5l8 67h84l-8 -69c-3.33301 -31.333 -15 -56.333 -35 -75s-45.667 -30.334 -77 -35.001v-5c66 -18 103 -69 111 -153l20 -209h-84l-19 214c-2 16.667 -5.66699 32.334 -11 47.001
s-13.333 27.167 -24 37.5s-24.167 17.666 -40.5 21.999s-36.166 4.83301 -59.499 1.5l-119 -17v-305h-80v546z" />
    <glyph glyph-name="uni0E2C" unicode="&#xe2c;" horiz-adv-x="648" 
d="M85 546l80 -0.000976562v-273l-4 -175h4l140 165h38l139 -165h4l-4 175v147c0 21.333 -5 37.333 -15 48s-26.667 16 -50 16h-47v62h58c20 0 35.833 4.33301 47.5 13s17.5 25.334 17.5 50.001v69h80v-60c0 -52 -28 -83 -84 -93v-5c25.333 -7.33301 43.833 -20 55.5 -38
s17.5 -41 17.5 -69v-413h-78l-160 190l-161 -190h-78v546z" />
    <glyph glyph-name="uni0E2D" unicode="&#xe2d;" horiz-adv-x="604" 
d="M295 -12c-32 0 -62 4.66406 -90 13.9971s-52.333 22.833 -73 40.5s-37 38.667 -49 63s-18 51.5 -18 81.5v51c0 20 4 35.5 12 46.5s25 16.5 51 16.5h106v-69h-88v-41c0 -23.333 3.83301 -43.666 11.5 -60.999s18.167 -31.5 31.5 -42.5s29.5 -19.167 48.5 -24.5
s39.5 -8 61.5 -8c50 0 89 15.333 117 46s42 73.667 42 129v82c0 56 -15.167 99.5 -45.5 130.5s-72.5 46.5 -126.5 46.5c-41.333 0 -77 -8.33301 -107 -25s-53.667 -39 -71 -67l-52 46c18.667 32.667 47.167 60 85.5 82s87.833 33 148.5 33
c80.667 0 143.167 -25.167 187.5 -75.5s66.5 -120.166 66.5 -209.499c0 -43.333 -5.33301 -82.666 -16 -117.999s-26.5 -65.333 -47.5 -90s-47 -43.667 -78 -57s-66.833 -20 -107.5 -20z" />
    <glyph glyph-name="uni0E2E" unicode="&#xe2e;" horiz-adv-x="634" 
d="M295 -12c-32 0 -61.998 4.66504 -89.998 13.998s-52.333 22.833 -73 40.5s-37 38.667 -49 63s-18 51.5 -18 81.5v51c0 20 4 35.5 12 46.5s25 16.5 51 16.5h106v-69h-88v-41c0 -23.333 3.83301 -43.666 11.5 -60.999s18.167 -31.5 31.5 -42.5s29.5 -19.167 48.5 -24.5
s39.5 -8 61.5 -8c50 0 89 15.333 117 46s42 73.667 42 129v82c0 56 -15.167 99.5 -45.5 130.5s-72.5 46.5 -126.5 46.5c-41.333 0 -77 -8.33301 -107 -25s-53.667 -39 -71 -67l-52 46c18.667 32.667 47.167 60 85.5 82s87.833 33 148.5 33
c55.333 0 102.666 -12.333 141.999 -37c2 35.333 20.667 53 56 53h151v-74h-179c27.333 -24.667 48.166 -56.167 62.499 -94.5s21.5 -82.5 21.5 -132.5c0 -43.333 -5.33301 -82.666 -16 -117.999s-26.5 -65.333 -47.5 -90s-47 -43.667 -78 -57s-66.833 -20 -107.5 -20z" />
    <glyph glyph-name="uni0E2F" unicode="&#xe2f;" horiz-adv-x="519" 
d="M354 423h-3.99805c-4.66699 -12 -10.834 -23.333 -18.501 -34s-17.667 -20.334 -30 -29.001s-27.166 -15.5 -44.499 -20.5s-38 -7.5 -62 -7.5c-22 0 -42.5 3.16699 -61.5 9.5s-35.333 16 -49 29s-24.334 29.333 -32.001 49s-11.5 42.834 -11.5 69.501v57h80v-47
c0 -36 9.16699 -61.667 27.5 -77s42.166 -23 71.499 -23h19c35.333 0 63.333 9 84 27s31 43 31 75v45h80v-546h-80v423z" />
    <glyph glyph-name="uni0E30" unicode="&#xe30;" horiz-adv-x="417" 
d="M171 100c-30 0 -52 7.33301 -66 22s-21 34 -21 58v43h80v-54h173v-69h-166zM171 357c-30 0 -52 7.33301 -66 22s-21 34 -21 58v43h80v-54h173v-69h-166z" />
    <glyph glyph-name="uni0E31" unicode="&#xe31;" horiz-adv-x="0" 
d="M-84 653c-30 0 -52 7.33301 -66 22s-21 34 -21 58v62h80v-73h255v-69h-248z" />
    <glyph glyph-name="uni0E32" unicode="&#xe32;" horiz-adv-x="483" 
d="M323 375c0 76.667 -39.667 115.001 -119 115.001c-32 0 -58.167 -7 -78.5 -21s-37.5 -32.667 -51.5 -56l-49 43c15.333 29.333 37.833 53.666 67.5 72.999s68.5 29 116.5 29c62.667 0 110.667 -15.333 144 -46s50 -74 50 -130v-382h-80v375z" />
    <glyph glyph-name="uni0E33" unicode="&#xe33;" horiz-adv-x="483" 
d="M323 375c0 76.667 -39.667 115.001 -119 115.001c-32 0 -58.167 -7 -78.5 -21s-37.5 -32.667 -51.5 -56l-49 43c15.333 29.333 37.833 53.666 67.5 72.999s68.5 29 116.5 29c62.667 0 110.667 -15.333 144 -46s50 -74 50 -130v-382h-80v375zM-139 670.001
c15.333 0 27.333 4 36 12s13 18.667 13 32v20c0 13.333 -4.33301 24 -13 32s-20.667 12 -36 12s-27.333 -4 -36 -12s-13 -18.667 -13 -32v-20c0 -13.333 4.33301 -24 13 -32s20.667 -12 36 -12zM-139 617.001c-34 0 -61 9.66699 -81 29s-30 45.333 -30 78s10 58.667 30 78
s47 29 81 29s61 -9.66699 81 -29s30 -45.333 30 -78s-10 -58.667 -30 -78s-47 -29 -81 -29z" />
    <glyph glyph-name="uni0E34" unicode="&#xe34;" horiz-adv-x="0" 
d="M-408 722h408v-69h-408v69z" />
    <glyph glyph-name="uni0E35" unicode="&#xe35;" horiz-adv-x="0" 
d="M-408 722h330v73h78v-142h-408v69z" />
    <glyph glyph-name="uni0E36" unicode="&#xe36;" horiz-adv-x="0" 
d="M-407 722h269c-2 8 -3 16.333 -3 25c0 28 9 50.333 27 67s42.333 25 73 25c30 0 54.167 -8.33301 72.5 -25s27.5 -39 27.5 -67c0 -28.667 -9.16699 -51.5 -27.5 -68.5s-42.5 -25.5 -72.5 -25.5h-366v69zM-41 701c30.667 0 46 13.667 46 41v10c0 27.333 -15.333 41 -46 41
s-46 -13.667 -46 -41v-10c0 -27.333 15.333 -41 46 -41z" />
    <glyph glyph-name="uni0E37" unicode="&#xe37;" horiz-adv-x="0" 
d="M-408 722h190v73h71v-77h72v77h75v-142h-408v69z" />
    <glyph glyph-name="uni0E38" unicode="&#xe38;" horiz-adv-x="0" 
d="M-76 -177h-66v64h85c20 0 34.5 -5.33301 43.5 -16s13.5 -25 13.5 -43v-172h-76v167z" />
    <glyph glyph-name="uni0E39" unicode="&#xe39;" horiz-adv-x="0" 
d="M-137 -350c-43.333 0 -76.334 11.332 -99.001 33.999s-34 51 -34 85v54h-66v64h82c20 0 34.5 -4.66699 43.5 -14s13.5 -21.666 13.5 -36.999v-50c0 -22.667 4.33301 -40.667 13 -54s24.334 -20 47.001 -20c23.333 0 39.333 6.66699 48 20s13 31.333 13 54v101h76v-113
c0 -35.333 -11.5 -64.833 -34.5 -88.5s-57.167 -35.5 -102.5 -35.5z" />
    <glyph glyph-name="uni0E3A" unicode="&#xe3a;" horiz-adv-x="0" 
d="M-42 -206c-18 0 -31.167 4.33301 -39.5 13s-12.5 19.667 -12.5 33v12c0 13.333 4.16699 24.333 12.5 33s21.5 13 39.5 13s31.167 -4.33301 39.5 -13s12.5 -19.667 12.5 -33v-12c0 -13.333 -4.16699 -24.333 -12.5 -33s-21.5 -13 -39.5 -13z" />
    <glyph glyph-name="uni0E3F" unicode="&#xe3f;" horiz-adv-x="641" 
d="M282 21h-189v656h189v103h67v-103h27c56.667 0 100.667 -15.167 132 -45.5s47 -71.166 47 -122.499c0 -22 -2.83301 -41 -8.5 -57s-13.667 -29.667 -24 -41s-22.5 -20.5 -36.5 -27.5s-29.333 -12.167 -46 -15.5v-5c18 -2.66699 35.333 -7.16699 52 -13.5
s31.667 -15.5 45 -27.5s24 -27.333 32 -46s12 -41.334 12 -68.001s-4.33301 -51.5 -13 -74.5s-21 -42.833 -37 -59.5s-34.833 -29.667 -56.5 -39s-45.5 -14 -71.5 -14h-54v-105h-67v105zM383 89c38 0 67.333 8.83203 88 26.499s31 42.5 31 74.5v37
c0 32.667 -10.333 57.834 -31 75.501s-50 26.5 -88 26.5h-36v-240h36zM375 387.999c34 0 59.167 8.16699 75.5 24.5s24.5 39.5 24.5 69.5v34c0 30 -8.16699 53 -24.5 69s-41.5 24 -75.5 24h-28v-221h28zM284 88.999v240h-115v-240h115zM284 387.999v221h-115v-221h115z" />
    <glyph glyph-name="uni0E40" unicode="&#xe40;" horiz-adv-x="316" 
d="M201 0c-28 0 -49.167 7.66797 -63.5 23.001s-21.5 35.666 -21.5 60.999v462h80v-476h84v-70h-79z" />
    <glyph glyph-name="uni0E41" unicode="&#xe41;" horiz-adv-x="576" 
d="M201 0c-28 0 -49.167 7.66797 -63.5 23.001s-21.5 35.666 -21.5 60.999v462h80v-476h84v-70h-79zM461 0.000976562c-28 0 -49.167 7.66797 -63.5 23.001s-21.5 35.666 -21.5 60.999v462h80v-476h84v-70h-79z" />
    <glyph glyph-name="uni0E42" unicode="&#xe42;" horiz-adv-x="316" 
d="M202 0c-28.667 0 -50.1641 7.66699 -64.4971 23s-21.5 35.666 -21.5 60.999v548l-124 54v14c0 26.667 4.5 50.667 13.5 72s21.5 39.5 37.5 54.5s35.167 26.5 57.5 34.5s47.166 12 74.499 12c39.333 0 71.666 -6 96.999 -18s46.666 -28 63.999 -48l-51 -48
c-10.667 12.667 -24.5 23.667 -41.5 33s-38.167 14 -63.5 14c-30 0 -56.167 -6.66699 -78.5 -20s-34.833 -34.666 -37.5 -63.999l92 -38c14.667 -6 25 -13.5 31 -22.5s9 -22.5 9 -40.5v-551h84v-70h-78z" />
    <glyph glyph-name="uni0E43" unicode="&#xe43;" horiz-adv-x="316" 
d="M202 0c-28.667 0 -50.1709 7.66992 -64.5039 23.0029s-21.5 35.666 -21.5 60.999v435c0 16 2.33301 30.333 7 43s10.5 24 17.5 34s14.833 19.333 23.5 28l25 25c11.333 11.333 21.333 23.5 30 36.5s13 28.5 13 46.5c0 24.667 -7.33301 43.167 -22 55.5
s-33.667 18.5 -57 18.5c-52 0 -85.667 -27.667 -101 -83l-62 36c13.333 36 33.833 64 61.5 84s63.834 30 108.501 30c24.667 0 46.334 -3.33301 65.001 -10s34.334 -16 47.001 -28s22.334 -26.167 29.001 -42.5s10 -33.833 10 -52.5
c0 -14.667 -1.83301 -27.834 -5.5 -39.501s-8.5 -22.5 -14.5 -32.5s-12.667 -19 -20 -27l-22 -24c-13.333 -13.333 -25.5 -27.333 -36.5 -42s-16.5 -32.334 -16.5 -53.001v-452h84v-70h-78z" />
    <glyph glyph-name="uni0E44" unicode="&#xe44;" horiz-adv-x="316" 
d="M202 0c-28.667 0 -50.167 7.66699 -64.5 23s-21.5 35.666 -21.5 60.999v567c0 21.333 2.66699 40 8 56s12.333 29.667 21 41s18.667 20.833 30 28.5s23.333 13.834 36 18.501v4h-218v66h311v-66h-10c-32 0 -56.333 -9 -73 -27s-25 -43.333 -25 -76v-626h84v-70h-78z" />
    <glyph glyph-name="uni0E45" unicode="&#xe45;" horiz-adv-x="483" 
d="M323 375c0 76.667 -39.667 115.001 -119 115.001c-32 0 -58.167 -7 -78.5 -21s-37.5 -32.667 -51.5 -56l-49 43c15.333 29.333 37.833 53.666 67.5 72.999s68.5 29 116.5 29c62.667 0 110.667 -15.333 144 -46s50 -74 50 -130v-562h-80v555z" />
    <glyph glyph-name="uni0E46" unicode="&#xe46;" horiz-adv-x="569" 
d="M403 411c0 22.667 -3.66504 41.334 -10.998 56.001s-22 22 -44 22c-9.33301 0 -17.333 -2.33301 -24 -7s-12.167 -11 -16.5 -19s-7.83301 -17 -10.5 -27s-4.33398 -20 -5.00098 -30h-52c-1.33301 10 -3 20 -5 30s-5 19 -9 27s-9.16699 14.333 -15.5 19
s-14.166 7 -23.499 7c-20.667 0 -34.667 -7 -42 -21s-11 -31.667 -11 -53v-43c0 -22.667 5.16699 -41.667 15.5 -57s28.166 -23 53.499 -23c5.33301 0 10 0.166992 14 0.5s9.66699 1.16602 17 2.49902l8 -61c-9.33301 -2 -18.5 -3.33301 -27.5 -4s-16.167 -1 -21.5 -1
c-46 0 -81 15 -105 45s-36 71.333 -36 124c0 51.333 8.83301 90.833 26.5 118.5s47.5 41.5 89.5 41.5c24.667 0 45.667 -6.66699 63 -20s28.666 -33.666 33.999 -60.999h5c6 27.333 17.5 47.666 34.5 60.999s38.167 20 63.5 20c37.333 0 65.833 -12.833 85.5 -38.5
s29.5 -58.5 29.5 -98.5v-601h-80v591z" />
    <glyph glyph-name="uni0E47" unicode="&#xe47;" horiz-adv-x="0" 
d="M-291 646c-30.667 0 -55.668 10.5 -75.001 31.5s-29 49.167 -29 84.5c0 38 11.5 68.667 34.5 92s55.167 35 96.5 35h264v-60h-267c-19.333 0 -34.166 -5.66699 -44.499 -17s-15.5 -27 -15.5 -47c0 -40 17.333 -60 52 -60c9.33301 0 17.166 2.16699 23.499 6.5
s11.333 9.66602 15 15.999s6.5 13.333 8.5 21s3.33301 14.834 4 21.501h54c0.666992 -7.33301 2.16699 -14.666 4.5 -21.999s5.5 -14.333 9.5 -21s9.33301 -12 16 -16s14.667 -6 24 -6c13.333 0 24.833 4.66699 34.5 14s14.5 23.666 14.5 42.999v23h67v-31
c0 -34 -9.16699 -60.5 -27.5 -79.5s-43.833 -28.5 -76.5 -28.5c-19.333 0 -37.666 5.5 -54.999 16.5s-29.333 28.167 -36 51.5h-4c-6 -23.333 -17.167 -40.5 -33.5 -51.5s-35.833 -16.5 -58.5 -16.5z" />
    <glyph glyph-name="uni0E48" unicode="&#xe48;" horiz-adv-x="0" 
d="M-78 838h78v-185h-78v185z" />
    <glyph glyph-name="uni0E49" unicode="&#xe49;" horiz-adv-x="0" 
d="M-157 722h76v37c0 17.333 -3.83301 29.5 -11.5 36.5s-20.5 10.5 -38.5 10.5h-26v60h56c30 0 52.833 -6.66699 68.5 -20s23.5 -31 23.5 -53c0 -12 -3 -24.667 -9 -38s-15.333 -23 -28 -29v-4h175v-60h-286v60z" />
    <glyph glyph-name="uni0E4A" unicode="&#xe4a;" horiz-adv-x="0" 
d="M-336 748c0 28 7.16797 49.833 21.501 65.5s35.166 23.5 62.499 23.5c19.333 0 36.333 -5.5 51 -16.5s23.667 -26.167 27 -45.5h6c3.33301 19.333 12.333 34.5 27 45.5s31.667 16.5 51 16.5c27.333 0 48.166 -7.83301 62.499 -23.5s21.5 -37.5 21.5 -65.5v-26h79v-60
h-147v78c0 12 -3 21.5 -9 28.5s-14.667 10.5 -26 10.5s-20 -3.33301 -26 -10s-9 -18 -9 -34v-19h-53v19c0 16 -3.16699 27.333 -9.5 34s-15.166 10 -26.499 10s-20 -3.5 -26 -10.5s-9 -16.5 -9 -28.5v-78h-68v86z" />
    <glyph glyph-name="uni0E4B" unicode="&#xe4b;" horiz-adv-x="0" 
d="M-66 734h-81v61h81v81h66v-81h81v-61h-81v-81h-66v81z" />
    <glyph glyph-name="uni0E4C" unicode="&#xe4c;" horiz-adv-x="0" 
d="M-160 716c0 24 7 43.167 21 57.5s36 21.5 66 21.5h198v-68h-205v-74h-80v63z" />
    <glyph glyph-name="uni0E4D" unicode="&#xe4d;" horiz-adv-x="0" 
d="M-40 670c15.333 0 27.333 4 36 12s13 18.667 13 32v20c0 13.333 -4.33301 24 -13 32s-20.667 12 -36 12s-27.333 -4 -36 -12s-13 -18.667 -13 -32v-20c0 -13.333 4.33301 -24 13 -32s20.667 -12 36 -12zM-40 617c-34 0 -61 9.66699 -81 29s-30 45.333 -30 78
s10 58.667 30 78s47 29 81 29s61 -9.66699 81 -29s30 -45.333 30 -78s-10 -58.667 -30 -78s-47 -29 -81 -29z" />
    <glyph glyph-name="uni0E4E" unicode="&#xe4e;" horiz-adv-x="0" 
d="M-47 643c-30.667 0 -54.1689 6.66797 -70.502 20.001s-24.5 32.333 -24.5 57c0 18.667 7 35.334 21 50.001s37 23 69 25v3c-21.333 5.33301 -36.5 13.666 -45.5 24.999s-13.5 24.333 -13.5 39c0 21.333 8.33301 39.166 25 53.499s40.667 21.5 72 21.5
c15.333 0 28.833 -1.5 40.5 -4.5s21.834 -7.16699 30.501 -12.5l-18 -49c-6 4 -13.333 7.16699 -22 9.5s-16.667 3.5 -24 3.5c-14 0 -24.833 -3 -32.5 -9s-11.5 -13.667 -11.5 -23c0 -12 4.33301 -21 13 -27s20.334 -9 35.001 -9h21v-49h-45c-18 0 -31.333 -3.5 -40 -10.5
s-13 -16.5 -13 -28.5c0 -22 17.333 -33 52 -33h28v-52h-47z" />
    <glyph glyph-name="uni0E4F" unicode="&#xe4f;" horiz-adv-x="640" 
d="M320 204c-23.333 0 -40.166 5.5 -50.499 16.5s-15.5 25.167 -15.5 42.5v18c0 17.333 5.16699 31.5 15.5 42.5s27.166 16.5 50.499 16.5s40.166 -5.5 50.499 -16.5s15.5 -25.167 15.5 -42.5v-18c0 -17.333 -5.16699 -31.5 -15.5 -42.5s-27.166 -16.5 -50.499 -16.5z
M320 59c53.333 0 95.833 14.5 127.5 43.5s47.5 71.5 47.5 127.5v86c0 56 -15.833 98.5 -47.5 127.5s-74.167 43.5 -127.5 43.5s-95.833 -14.5 -127.5 -43.5s-47.5 -71.5 -47.5 -127.5v-86c0 -56 15.833 -98.5 47.5 -127.5s74.167 -43.5 127.5 -43.5zM320 -12
c-39.333 0 -75 6.66699 -107 20s-59.5 32.166 -82.5 56.499s-40.667 54.166 -53 89.499s-18.5 75 -18.5 119s6.16699 83.667 18.5 119s30 65.166 53 89.499s50.5 43.166 82.5 56.499s67.667 20 107 20s75 -6.66699 107 -20s59.5 -32.166 82.5 -56.499
s40.667 -54.166 53 -89.499s18.5 -75 18.5 -119s-6.16699 -83.667 -18.5 -119s-30 -65.166 -53 -89.499s-50.5 -43.166 -82.5 -56.499s-67.667 -20 -107 -20z" />
    <glyph glyph-name="uni0E50" unicode="&#xe50;" horiz-adv-x="592" 
d="M296 59c46 0 83.167 12.833 111.5 38.5s42.5 63.5 42.5 113.5v74c0 50 -14 87.833 -42 113.5s-65.333 38.5 -112 38.5c-46 0 -83.167 -12.833 -111.5 -38.5s-42.5 -63.5 -42.5 -113.5v-74c0 -50 14 -87.833 42 -113.5s65.333 -38.5 112 -38.5zM296 -12
c-36 0 -68.833 6 -98.5 18s-55 29.167 -76 51.5s-37.167 49.666 -48.5 81.999s-17 68.5 -17 108.5s5.66699 76.167 17 108.5s27.5 59.666 48.5 81.999s46.333 39.5 76 51.5s62.5 18 98.5 18s68.833 -6 98.5 -18s55 -29.167 76 -51.5s37.167 -49.666 48.5 -81.999
s17 -68.5 17 -108.5s-5.66699 -76.167 -17 -108.5s-27.5 -59.666 -48.5 -81.999s-46.333 -39.5 -76 -51.5s-62.5 -18 -98.5 -18z" />
    <glyph glyph-name="uni0E51" unicode="&#xe51;" horiz-adv-x="562" 
d="M174 29c36 0.666992 69 4.83398 99 12.501s56 19.667 78 36s39 37.833 51 64.5s18 59.334 18 98.001v28c0 56 -14 98.5 -42 127.5s-65 43.5 -111 43.5c-42 0 -74.833 -10.5 -98.5 -31.5s-35.5 -45.833 -35.5 -74.5v-14c0 -27.333 7.33301 -49.666 22 -66.999
s38.667 -26 72 -26c16.667 0 30.667 1.33301 42 4l8 -66c-9.33301 -3.33301 -19.5 -5.33301 -30.5 -6s-20.833 -1 -29.5 -1c-53.333 0 -94.833 14.167 -124.5 42.5s-44.5 68.5 -44.5 120.5c0 28.667 5.33301 54.667 16 78s25.667 43.166 45 59.499
s42.166 28.833 68.499 37.5s55.5 13 87.5 13c36.667 0 69.834 -5.5 99.501 -16.5s55 -27.333 76 -49s37.167 -48.334 48.5 -80.001s17 -67.834 17 -108.501c0 -49.333 -8 -92.333 -24 -129s-38.333 -67 -67 -91s-63 -42.167 -103 -54.5s-84 -18.5 -132 -18.5z" />
    <glyph glyph-name="uni0E52" unicode="&#xe52;" horiz-adv-x="758" 
d="M382 -12c-67.333 0 -120.999 6.66797 -160.999 20.001s-70.5 30.333 -91.5 51s-34.5 43.667 -40.5 69s-9 49.666 -9 72.999v392h80v-387c0 -48.667 13 -85 39 -109c13.333 -12.667 31.5 -22.334 54.5 -29.001s54.5 -10 94.5 -10h67c40 0 71.5 3.33301 94.5 10
s41.167 16.334 54.5 29.001c26 24 39 60.333 39 109v160c0 18.667 -2.83301 35.5 -8.5 50.5s-18.167 22.5 -37.5 22.5c-10.667 0 -19.5 -2.5 -26.5 -7.5s-12.833 -11.5 -17.5 -19.5s-8 -17 -10 -27s-3.33301 -19.667 -4 -29h-53c-1.33301 10 -3 20 -5 30s-5 19 -9 27
s-9.33301 14.333 -16 19s-15 7 -25 7c-17.333 0 -29.666 -7 -36.999 -21s-11 -31.333 -11 -52v-43c0 -21.333 4.83301 -39 14.5 -53s27.167 -21 52.5 -21h13.5c4.33301 0 9.83301 0.666992 16.5 2l8 -58c-10 -1.33301 -19.5 -2.5 -28.5 -3.5s-17.5 -1.5 -25.5 -1.5
c-46 0 -79.5 14.5 -100.5 43.5s-31.5 68.5 -31.5 118.5c0 46.667 9 84.667 27 114s46.333 44 85 44c24.667 0 45.667 -6.66699 63 -20s28.666 -33.666 33.999 -60.999h6c6 27.333 17.333 47.666 34 60.999s37.667 20 63 20c37.333 0 64.833 -12.833 82.5 -38.5
s26.5 -58.167 26.5 -97.5v-171c0 -23.333 -3 -47.5 -9 -72.5s-19.333 -48 -40 -69s-50.834 -38.167 -90.501 -51.5s-93.5 -20 -161.5 -20z" />
    <glyph glyph-name="uni0E53" unicode="&#xe53;" horiz-adv-x="723" 
d="M278 -12c-35.333 0 -66.5 6.33301 -93.5 19s-49.833 30.667 -68.5 54s-32.667 51.5 -42 84.5s-14 69.833 -14 110.5c0 82.667 14.333 145.334 43 188.001s71.334 64 128.001 64c18 0 34.167 -2.5 48.5 -7.5s26.5 -11.333 36.5 -19s18 -16.334 24 -26.001
s10.333 -19.167 13 -28.5h6c2.66699 9.33301 7.16699 18.833 13.5 28.5s14.833 18.334 25.5 26.001s23.834 14 39.501 19s34.167 7.5 55.5 7.5c50 0 87.5 -15 112.5 -45s37.5 -70 37.5 -120v-343h-80v334c0 31.333 -6.33301 56.666 -19 75.999s-34.334 29 -65.001 29
c-29.333 0 -51 -9.66699 -65 -29s-21 -41 -21 -65v-173h-77v173c0 12 -1.33301 23.667 -4 35s-7 21.333 -13 30s-14 15.667 -24 21s-22 8 -36 8c-62 0 -93 -52.333 -93 -157v-48c0 -55.333 11.667 -98.666 35 -129.999s60.666 -47 111.999 -47
c7.33301 0 15.166 0.333008 23.499 1s16.5 1.66699 24.5 3l10 -67c-12.667 -2.66699 -25.167 -4.33398 -37.5 -5.00098s-24.166 -1 -35.499 -1z" />
    <glyph glyph-name="uni0E54" unicode="&#xe54;" horiz-adv-x="556" 
d="M301 0c-76.667 0 -136.667 20.499 -180 61.499s-65 100.5 -65 178.5c0 38 5.66699 70 17 96s26 47.333 44 64s37.833 29.834 59.5 39.501s42.834 17.167 63.501 22.5l115 30c15.333 4 26.5 8.16699 33.5 12.5s11.5 12.833 13.5 25.5l9 63h80l-11 -73
c-2 -12 -5 -22.5 -9 -31.5s-10.167 -16.833 -18.5 -23.5s-19.333 -12.667 -33 -18s-31.167 -10.666 -52.5 -15.999l-103 -27c-41.333 -11.333 -72 -27.833 -92 -49.5s-30 -53.167 -30 -94.5v-48c0 -47.333 13.833 -83 41.5 -107s66.834 -36 117.501 -36h129v5
c-14 4 -27.333 9.66699 -40 17s-23.834 16.5 -33.501 27.5s-17.334 24.333 -23.001 40s-8.5 34.167 -8.5 55.5v15c0 21.333 7.16699 38 21.5 50s35.5 18 63.5 18h84v-69h-89v-35c0 -16 2.5 -31.5 7.5 -46.5s12 -28.333 21 -40s20 -20.834 33 -27.501s27.833 -10 44.5 -10
v-69h-210z" />
    <glyph glyph-name="uni0E55" unicode="&#xe55;" horiz-adv-x="556" 
d="M301 0c-76.667 0 -136.666 20.499 -179.999 61.499s-65 100.5 -65 178.5c0 29.333 3.5 55 10.5 77s16.5 41 28.5 57s25.833 29.333 41.5 40s32.5 19.667 50.5 27c-26.667 14.667 -40 38 -40 70c0 28.667 9 51.334 27 68.001s42.333 25 73 25c30 0 54 -8 72 -24
s27 -36.667 27 -62c0 -10 -2.33301 -20.667 -7 -32l16 4c15.333 4 26.5 8.33301 33.5 13s11.5 13.667 13.5 27l9 63h80l-11 -73c-2 -12 -5 -22.5 -9 -31.5s-10.167 -16.833 -18.5 -23.5s-19.333 -12.667 -33 -18s-31.167 -10.666 -52.5 -15.999l-103 -27
c-41.333 -11.333 -72 -27.833 -92 -49.5s-30 -53.167 -30 -94.5v-48c0 -47.333 13.833 -83 41.5 -107s66.834 -36 117.501 -36h129v5c-14 4 -27.333 9.66699 -40 17s-23.834 16.5 -33.501 27.5s-17.334 24.333 -23.001 40s-8.5 34.167 -8.5 55.5v15
c0 21.333 7.16699 38 21.5 50s35.5 18 63.5 18h84v-69h-89v-35c0 -16 2.5 -31.5 7.5 -46.5s12 -28.333 21 -40s20 -20.834 33 -27.501s27.833 -10 44.5 -10v-69h-210zM247.001 462.999c13.333 0 24.166 3.50098 32.499 10.501s12.5 17.167 12.5 30.5v11
c0 13.333 -4.16699 23.666 -12.5 30.999s-19.166 11 -32.499 11c-30.667 0 -46 -14 -46 -42v-11c0 -27.333 15.333 -41 46 -41z" />
    <glyph glyph-name="uni0E56" unicode="&#xe56;" horiz-adv-x="572" 
d="M276 -12c-50.667 0 -92.668 11.1689 -126.001 33.502s-58.666 52.5 -75.999 90.5l59 37c14.667 -29.333 33.5 -52 56.5 -68s51.833 -24 86.5 -24c46.667 0 84 13.333 112 40s42 66 42 118v73c0 49.333 -12.833 86.833 -38.5 112.5s-59.834 38.5 -102.501 38.5
c-44 0 -77.333 -10.5 -100 -31.5s-39.667 -48.167 -51 -81.5l-69 7l-45 260h81l28 -196h5c12.667 36 33.834 63.5 63.501 82.5s64.5 28.5 104.5 28.5c31.333 0 60 -5.83301 86 -17.5s48.167 -28.667 66.5 -51s32.5 -49.333 42.5 -81s15 -67.5 15 -107.5
c0 -40.667 -5.83301 -77.334 -17.5 -110.001s-28 -60.334 -49 -83.001s-46.167 -40 -75.5 -52s-62 -18 -98 -18z" />
    <glyph glyph-name="uni0E57" unicode="&#xe57;" horiz-adv-x="841" 
d="M264 -12c-33.333 0 -62.667 6.33008 -88 18.9971s-46.5 30.667 -63.5 54s-30 51.5 -39 84.5s-13.5 69.833 -13.5 110.5c0 82.667 11.833 145.334 35.5 188.001s59.5 64 107.5 64c26 0 47.833 -6.66699 65.5 -20s29.167 -33.666 34.5 -60.999h5c12 54 48.667 81 110 81
c40.667 0 71.334 -13.333 92.001 -40s31 -64 31 -112v-296h37c32.667 0 58 12.333 76 37s27 59.334 27 104.001v392h80v-403c0 -58.667 -15.833 -105 -47.5 -139s-76.834 -51 -135.501 -51h-117v355c0 24 -4.66699 44 -14 60s-25.333 24 -48 24
c-12.667 0 -23.167 -2.33301 -31.5 -7s-15.166 -11 -20.499 -19s-9.33301 -17 -12 -27s-4.33398 -20 -5.00098 -30h-53c-0.666992 10 -2.16699 20 -4.5 30s-5.66602 19 -9.99902 27s-10.333 14.333 -18 19s-17.5 7 -29.5 7c-26 0 -44 -13.167 -54 -39.5
s-15 -65.5 -15 -117.5v-48c0 -55.333 10.667 -98.666 32 -129.999s55 -47 101 -47c7.33301 0 15.166 0.333008 23.499 1s16.5 1.66699 24.5 3l10 -67c-13.333 -2.66699 -26 -4.33398 -38 -5.00098s-23.667 -1 -35 -1z" />
    <glyph glyph-name="uni0E58" unicode="&#xe58;" horiz-adv-x="602" 
d="M198 -12c-21.333 0 -40.832 3.6709 -58.499 11.0039s-32.834 19.666 -45.501 36.999s-22.5 40.5 -29.5 69.5s-10.5 65.167 -10.5 108.5c0 42 4.83301 77.833 14.5 107.5s22.834 54.167 39.501 73.5s36.167 34.166 58.5 44.499s46.166 17.833 71.499 22.5l176 30
c15.333 3.33301 26.833 7.16602 34.5 11.499s12.167 13.166 13.5 26.499l9 63h81l-12 -73c-2 -12.667 -5.16699 -23.834 -9.5 -33.501s-10.666 -18 -18.999 -25s-19.333 -13 -33 -18s-30.834 -9.16699 -51.501 -12.5l-165 -27c-38 -6 -67.833 -21.833 -89.5 -47.5
s-32.5 -65.167 -32.5 -118.5v-56c0 -26 1.66699 -47 5 -63s8.16602 -28.5 14.499 -37.5s14 -15.167 23 -18.5s18.833 -5 29.5 -5c22 0 37.333 9.33301 46 28s13 43.667 13 75v24h66v-24c0 -31.333 5.66699 -56.5 17 -75.5s29.666 -28.5 54.999 -28.5
c23.333 0 40.5 6.5 51.5 19.5s16.5 31.5 16.5 55.5v43c0 22 -5 37.833 -15 47.5s-22.667 14.5 -38 14.5c-3.33301 0 -7 -0.166992 -11 -0.5s-10 -1.16602 -18 -2.49902l-8 61c18.667 4 34.667 6 48 6c35.333 0 64.833 -11.833 88.5 -35.5s35.5 -60.5 35.5 -110.5
c0 -57.333 -13 -99.5 -39 -126.5s-59.667 -40.5 -101 -40.5c-32 0 -58 7 -78 21s-32.333 35 -37 63h-5c-5.33301 -28 -15.666 -49 -30.999 -63s-38.666 -21 -69.999 -21z" />
    <glyph glyph-name="uni0E59" unicode="&#xe59;" horiz-adv-x="655" 
d="M236 -10c-58 0 -101.836 22.6621 -131.503 67.9951s-44.5 113.333 -44.5 204c0 80 14.167 141 42.5 183s68.5 63 120.5 63c20.667 0 39.334 -3.33301 56.001 -10s31.334 -15.667 44.001 -27s23.334 -24.666 32.001 -39.999s15.667 -31.666 21 -48.999l5 1
c-1.33301 5.33301 -2 10 -2 14v13c0 32 8.66699 56.333 26 73s38.333 25 63 25c33.333 0 57.333 -10.667 72 -32s22.667 -47.666 24 -78.999h3l27 196h80l-42 -256l-69 -7c0 34.667 -8.33301 61.5 -25 80.5s-37.667 28.5 -63 28.5c-17.333 0 -32.833 -6.5 -46.5 -19.5
s-20.5 -33.5 -20.5 -61.5c0 -18 3.33301 -38 10 -60l90 -298h-89l-100 337c-9.33301 30.667 -20.833 55.334 -34.5 74.001s-33.167 28 -58.5 28c-26 0 -45.833 -11.167 -59.5 -33.5s-20.5 -53.833 -20.5 -94.5v-97c0 -22.667 2 -43.5 6 -62.5s10.167 -35.5 18.5 -49.5
s18.833 -25 31.5 -33s27.667 -12 45 -12h13c4.66699 0 10.667 0.666992 18 2l6 -66c-6.66699 -1.33301 -14.167 -2.16602 -22.5 -2.49902s-16.833 -0.5 -25.5 -0.5z" />
    <glyph glyph-name="uni0E5A" unicode="&#xe5a;" horiz-adv-x="723" 
d="M354 423h-3.99805c-4.66699 -12 -10.834 -23.333 -18.501 -34s-17.667 -20.334 -30 -29.001s-27.166 -15.5 -44.499 -20.5s-38 -7.5 -62 -7.5c-22 0 -42.5 3.16699 -61.5 9.5s-35.333 16 -49 29s-24.334 29.333 -32.001 49s-11.5 42.834 -11.5 69.501v57h80v-47
c0 -36 9.16699 -61.667 27.5 -77s42.166 -23 71.499 -23h19c35.333 0 63.333 9 84 27s31 43 31 75v45h80v-546h-80v423zM558.002 546h80v-546h-80v546z" />
    <glyph glyph-name="uni0E5B" unicode="&#xe5b;" horiz-adv-x="1410" 
d="M314 -12c-80 0 -142.503 23.833 -187.503 71.5s-67.5 118.834 -67.5 213.501c0 46.667 5.66699 87.834 17 123.501s27.5 65.5 48.5 89.5s46.333 42 76 54s62.834 18 99.501 18c42 0 77.333 -6 106 -18s51 -27.667 67 -47l-44 -54c-14 14 -30.833 25.833 -50.5 35.5
s-44.5 14.5 -74.5 14.5c-46 0 -84 -15 -114 -45s-45 -74 -45 -132v-77c0 -58.667 15.333 -103 46 -133s72.667 -45 126 -45c38 0 72 7.66699 102 23s56.333 40.166 79 74.499s41.334 79 56.001 134s26 122.167 34 201.5h84l99 -310h2l85 270h67l75 -238h2l68 213h66
c6 -24.667 12.667 -46.334 20 -65.001s16.833 -34.5 28.5 -47.5s25.5 -22.833 41.5 -29.5s35.667 -10 59 -10h66v-69h-68c-45.333 0 -81.333 9.83301 -108 29.5s-49.334 53.167 -68.001 100.5h-2l-72 -227h-66l-76 237h-2l-85 -269h-67l-97 309h-2
c-10 -70.667 -24.833 -131 -44.5 -181s-43.167 -91 -70.5 -123s-58.666 -55.333 -93.999 -70s-73.666 -22 -114.999 -22z" />
    <glyph glyph-name="uni1E9E" unicode="&#x1e9e;" horiz-adv-x="700" 
d="M648 196c0 -66 -19.834 -117.168 -59.501 -153.501s-93.167 -54.5 -160.5 -54.5c-44.667 0 -83.167 7.5 -115.5 22.5s-60.166 38.5 -83.499 70.5l58 49c36 -47.333 83 -71 141 -71c42 0 74.167 11 96.5 33s33.5 51.667 33.5 89v30c0 37.333 -11.167 66.833 -33.5 88.5
s-54.5 32.5 -96.5 32.5h-94v77l185 215h-342v-624h-84v698h511v-82l-181 -211v-4c70 -1.33301 125 -19.666 165 -54.999s60 -85.333 60 -150z" />
    <glyph glyph-name="uni200B" unicode="&#x200b;" horiz-adv-x="0" 
 />
    <glyph glyph-name="uni200C" unicode="&#x200c;" horiz-adv-x="0" 
 />
    <glyph glyph-name="uni200D" unicode="&#x200d;" horiz-adv-x="0" 
 />
    <glyph glyph-name="endash" unicode="&#x2013;" horiz-adv-x="588" 
d="M36 266v76h516v-76h-516z" />
    <glyph glyph-name="emdash" unicode="&#x2014;" horiz-adv-x="780" 
d="M36 266v76h708v-76h-708z" />
    <glyph glyph-name="quoteleft" unicode="&#x2018;" horiz-adv-x="273" 
d="M132 490c-21.333 0 -36.833 5.49805 -46.5 16.498s-14.5 25.167 -14.5 42.5v14c0 27.333 8 57.5 24 90.5s38.333 61.833 67 86.5h67c-20 -21.333 -36.167 -41.5 -48.5 -60.5s-21.166 -40.167 -26.499 -63.5c13.333 -3.33301 23.166 -9.66602 29.499 -18.999
s9.5 -20.666 9.5 -33.999v-14c0 -17.333 -4.83301 -31.5 -14.5 -42.5s-25.167 -16.5 -46.5 -16.5z" />
    <glyph glyph-name="quoteright" unicode="&#x2019;" horiz-adv-x="273" 
d="M141 750c21.333 0 36.833 -5.49805 46.5 -16.498s14.5 -25.167 14.5 -42.5v-14c0 -27.333 -8 -57.5 -24 -90.5s-38.333 -61.833 -67 -86.5h-67c20 21.333 36.167 41.5 48.5 60.5s21.166 40.167 26.499 63.5c-13.333 3.33301 -23.166 9.66602 -29.499 18.999
s-9.5 20.666 -9.5 33.999v14c0 17.333 4.83301 31.5 14.5 42.5s25.167 16.5 46.5 16.5z" />
    <glyph glyph-name="quotesinglbase" unicode="&#x201a;" horiz-adv-x="274" 
d="M132 134c21.333 0 36.833 -5.49805 46.5 -16.498s14.5 -25.167 14.5 -42.5v-14c0 -27.333 -8 -57.5 -24 -90.5s-38.333 -61.833 -67 -86.5h-67c20 21.333 36.167 41.5 48.5 60.5s21.166 40.167 26.499 63.5c-13.333 3.33301 -23.166 9.66602 -29.499 18.999
s-9.5 20.666 -9.5 33.999v14c0 17.333 4.83301 31.5 14.5 42.5s25.167 16.5 46.5 16.5z" />
    <glyph glyph-name="quotedblleft" unicode="&#x201c;" horiz-adv-x="475" 
d="M132 490c-21.333 0 -36.833 5.49805 -46.5 16.498s-14.5 25.167 -14.5 42.5v14c0 27.333 8 57.5 24 90.5s38.333 61.833 67 86.5h67c-20 -21.333 -36.167 -41.5 -48.5 -60.5s-21.166 -40.167 -26.499 -63.5c13.333 -3.33301 23.166 -9.66602 29.499 -18.999
s9.5 -20.666 9.5 -33.999v-14c0 -17.333 -4.83301 -31.5 -14.5 -42.5s-25.167 -16.5 -46.5 -16.5zM334 489.998c-21.333 0 -36.833 5.49805 -46.5 16.498s-14.5 25.167 -14.5 42.5v14c0 27.333 8 57.5 24 90.5s38.333 61.833 67 86.5h67
c-20 -21.333 -36.167 -41.5 -48.5 -60.5s-21.166 -40.167 -26.499 -63.5c13.333 -3.33301 23.166 -9.66602 29.499 -18.999s9.5 -20.666 9.5 -33.999v-14c0 -17.333 -4.83301 -31.5 -14.5 -42.5s-25.167 -16.5 -46.5 -16.5z" />
    <glyph glyph-name="quotedblright" unicode="&#x201d;" horiz-adv-x="474" 
d="M141 750c21.333 0 36.833 -5.49805 46.5 -16.498s14.5 -25.167 14.5 -42.5v-14c0 -27.333 -8 -57.5 -24 -90.5s-38.333 -61.833 -67 -86.5h-67c20 21.333 36.167 41.5 48.5 60.5s21.166 40.167 26.499 63.5c-13.333 3.33301 -23.166 9.66602 -29.499 18.999
s-9.5 20.666 -9.5 33.999v14c0 17.333 4.83301 31.5 14.5 42.5s25.167 16.5 46.5 16.5zM342 750.002c21.333 0 36.833 -5.49805 46.5 -16.498s14.5 -25.167 14.5 -42.5v-14c0 -27.333 -8 -57.5 -24 -90.5s-38.333 -61.833 -67 -86.5h-67c20 21.333 36.167 41.5 48.5 60.5
s21.166 40.167 26.499 63.5c-13.333 3.33301 -23.166 9.66602 -29.499 18.999s-9.5 20.666 -9.5 33.999v14c0 17.333 4.83301 31.5 14.5 42.5s25.167 16.5 46.5 16.5z" />
    <glyph glyph-name="quotedblbase" unicode="&#x201e;" horiz-adv-x="475" 
d="M132 134c21.333 0 36.833 -5.49805 46.5 -16.498s14.5 -25.167 14.5 -42.5v-14c0 -27.333 -8 -57.5 -24 -90.5s-38.333 -61.833 -67 -86.5h-67c20 21.333 36.167 41.5 48.5 60.5s21.166 40.167 26.499 63.5c-13.333 3.33301 -23.166 9.66602 -29.499 18.999
s-9.5 20.666 -9.5 33.999v14c0 17.333 4.83301 31.5 14.5 42.5s25.167 16.5 46.5 16.5zM333 134.002c21.333 0 36.833 -5.49805 46.5 -16.498s14.5 -25.167 14.5 -42.5v-14c0 -27.333 -8 -57.5 -24 -90.5s-38.333 -61.833 -67 -86.5h-67c20 21.333 36.167 41.5 48.5 60.5
s21.166 40.167 26.499 63.5c-13.333 3.33301 -23.166 9.66602 -29.499 18.999s-9.5 20.666 -9.5 33.999v14c0 17.333 4.83301 31.5 14.5 42.5s25.167 16.5 46.5 16.5z" />
    <glyph glyph-name="dagger" unicode="&#x2020;" horiz-adv-x="552" 
d="M241 -200v652h-191v64h191v224h70v-224h191v-64h-191v-652h-70z" />
    <glyph glyph-name="daggerdbl" unicode="&#x2021;" horiz-adv-x="552" 
d="M241 -200v224h-191v64h191v364h-191v64h191v224h70v-224h191v-64h-191v-364h191v-64h-191v-224h-70z" />
    <glyph glyph-name="bullet" unicode="&#x2022;" horiz-adv-x="396" 
d="M198 186c-44.667 0 -76.167 10 -94.5 30s-27.5 44.667 -27.5 74v28c0 29.333 9.16699 54 27.5 74s49.833 30 94.5 30s76.167 -10 94.5 -30s27.5 -44.667 27.5 -74v-28c0 -29.333 -9.16699 -54 -27.5 -74s-49.833 -30 -94.5 -30z" />
    <glyph glyph-name="ellipsis" unicode="&#x2026;" horiz-adv-x="803" 
d="M136 -12c-21.333 0 -36.833 5.33301 -46.5 16s-14.5 24.667 -14.5 42v13c0 17.333 4.83301 31.333 14.5 42s25.167 16 46.5 16s36.833 -5.33301 46.5 -16s14.5 -24.667 14.5 -42v-13c0 -17.333 -4.83301 -31.333 -14.5 -42s-25.167 -16 -46.5 -16zM401 -12
c-21.333 0 -36.833 5.33301 -46.5 16s-14.5 24.667 -14.5 42v13c0 17.333 4.83301 31.333 14.5 42s25.167 16 46.5 16s36.833 -5.33301 46.5 -16s14.5 -24.667 14.5 -42v-13c0 -17.333 -4.83301 -31.333 -14.5 -42s-25.167 -16 -46.5 -16zM667 -12
c-21.333 0 -36.833 5.33301 -46.5 16s-14.5 24.667 -14.5 42v13c0 17.333 4.83301 31.333 14.5 42s25.167 16 46.5 16s36.833 -5.33301 46.5 -16s14.5 -24.667 14.5 -42v-13c0 -17.333 -4.83301 -31.333 -14.5 -42s-25.167 -16 -46.5 -16z" />
    <glyph glyph-name="perthousand" unicode="&#x2030;" horiz-adv-x="1306" 
d="M183 0l484 698h77l-484 -698h-77zM223 314c-50.667 0 -89.667 16.833 -117 50.5s-41 82.834 -41 147.501s13.667 113.834 41 147.501s66.333 50.5 117 50.5s89.667 -16.833 117 -50.5s41 -82.834 41 -147.501s-13.667 -113.834 -41 -147.501s-66.333 -50.5 -117 -50.5z
M223 366c57.333 0 86 38.667 86 116v60c0 77.333 -28.667 116 -86 116s-86 -38.667 -86 -116v-60c0 -77.333 28.667 -116 86 -116zM704 -12c-50.667 0 -89.667 16.833 -117 50.5s-41 82.834 -41 147.501s13.667 113.834 41 147.501s66.333 50.5 117 50.5
s89.667 -16.833 117 -50.5s41 -82.834 41 -147.501s-13.667 -113.834 -41 -147.501s-66.333 -50.5 -117 -50.5zM704 40c57.333 0 86 38.667 86 116v60c0 77.333 -28.667 116 -86 116s-86 -38.667 -86 -116v-60c0 -77.333 28.667 -116 86 -116zM1083 -12
c-50.667 0 -89.667 16.833 -117 50.5s-41 82.834 -41 147.501s13.667 113.834 41 147.501s66.333 50.5 117 50.5s89.667 -16.833 117 -50.5s41 -82.834 41 -147.501s-13.667 -113.834 -41 -147.501s-66.333 -50.5 -117 -50.5zM1083 40c57.333 0 86 38.667 86 116v60
c0 77.333 -28.667 116 -86 116s-86 -38.667 -86 -116v-60c0 -77.333 28.667 -116 86 -116z" />
    <glyph glyph-name="guilsinglleft" unicode="&#x2039;" horiz-adv-x="304" 
d="M228 80l-192 166v76l192 166l24 -54l-137 -150l137 -150z" />
    <glyph glyph-name="guilsinglright" unicode="&#x203a;" horiz-adv-x="304" 
d="M52 134l137 150l-137 150l24 54l192 -166v-76l-192 -166z" />
    <glyph glyph-name="fraction" unicode="&#x2044;" horiz-adv-x="147" 
d="M-203 0l486 698h67l-486 -698h-67z" />
    <glyph glyph-name="uni2060" unicode="&#x2060;" horiz-adv-x="0" 
 />
    <glyph glyph-name="uni2070" unicode="&#x2070;" horiz-adv-x="378" 
d="M189 323c-50 0 -86.667 16.5 -110 49.5s-35 79.833 -35 140.5c0 61.333 11.667 108.5 35 141.5s60 49.5 110 49.5s86.667 -16.5 110 -49.5s35 -79.833 35 -140.5c0 -61.333 -11.667 -108.5 -35 -141.5s-60 -49.5 -110 -49.5zM189 374c28.667 0 48.834 9.66699 60.501 29
s17.5 45.333 17.5 78v65c0 32.667 -5.83301 58.667 -17.5 78s-31.834 29 -60.501 29s-48.834 -9.66699 -60.501 -29s-17.5 -45.333 -17.5 -78v-65c0 -32.667 5.83301 -58.667 17.5 -78s31.834 -29 60.501 -29z" />
    <glyph glyph-name="uni2074" unicode="&#x2074;" horiz-adv-x="346" 
d="M209 329v72h-189v52l164 245h85v-249h56v-48h-56v-72h-60zM209 641h-4l-130 -192h134v192z" />
    <glyph glyph-name="uni2075" unicode="&#x2075;" horiz-adv-x="348" 
d="M291 648h-179.003l-11 -133h4c9.33301 14.667 20 26.5 32 35.5s29.333 13.5 52 13.5c34.667 0 63.667 -10.167 87 -30.5s35 -48.5 35 -84.5c0 -37.333 -12.5 -67.666 -37.5 -90.999s-60.167 -35 -105.5 -35c-35.333 0 -63.166 6.66699 -83.499 20
s-36.5 28.666 -48.5 45.999l45 34c10 -14.667 21.333 -26.667 34 -36s30.667 -14 54 -14c25.333 0 44.333 6 57 18s19 28.667 19 50v5c0 21.333 -6.33301 38 -19 50s-31.667 18 -57 18c-17.333 0 -31.166 -3 -41.499 -9s-19.166 -12.667 -26.499 -20l-52 7l14 206h228v-50z
" />
    <glyph glyph-name="uni2076" unicode="&#x2076;" horiz-adv-x="359" 
d="M181 323c-44.667 0 -79.3311 12.8301 -103.998 38.4971s-37 60.834 -37 105.501c0 26.667 4.33301 51.667 13 75s20 44.833 34 64.5s29.5 37.334 46.5 53.001s33.833 28.5 50.5 38.5h84c-23.333 -15.333 -44 -30 -62 -44s-33.667 -28.333 -47 -43
s-24.5 -30.167 -33.5 -46.5s-15.833 -34.5 -20.5 -54.5l4 -1c8.66699 14 20.167 26.333 34.5 37s34.166 16 59.499 16c34 0 62.333 -10.167 85 -30.5s34 -48.166 34 -83.499c0 -37.333 -12.833 -67.5 -38.5 -90.5s-59.834 -34.5 -102.501 -34.5zM181.003 370.997
c23.333 0 41.833 5.66699 55.5 17s20.5 28.666 20.5 51.999v5c0 23.333 -6.83301 40.666 -20.5 51.999s-32.167 17 -55.5 17s-41.833 -5.66699 -55.5 -17s-20.5 -28.666 -20.5 -51.999v-5c0 -23.333 6.83301 -40.666 20.5 -51.999s32.167 -17 55.5 -17z" />
    <glyph glyph-name="uni2077" unicode="&#x2077;" horiz-adv-x="335" 
d="M92 329l148 319h-155v-68h-54v118h272v-52l-144 -317h-67z" />
    <glyph glyph-name="uni2078" unicode="&#x2078;" horiz-adv-x="376" 
d="M188 323c-46.667 0 -82.332 10.167 -106.999 30.5s-37 45.833 -37 76.5c0 24 7.5 43.5 22.5 58.5s34.167 25.5 57.5 31.5v4c-20 6.66699 -36.167 17.167 -48.5 31.5s-18.5 32.166 -18.5 53.499c0 28.667 11.333 51.667 34 69s55 26 97 26s74.333 -8.66699 97 -26
s34 -40.333 34 -69c0 -21.333 -6.16699 -39.166 -18.5 -53.499s-28.5 -24.833 -48.5 -31.5v-4c24 -6 43.333 -16.5 58 -31.5s22 -34.5 22 -58.5c0 -30.667 -12.333 -56.167 -37 -76.5s-60.334 -30.5 -107.001 -30.5zM188.002 543c46 0 69 17.333 69 52v9
c0 34.667 -23 52 -69 52s-69 -17.333 -69 -52v-9c0 -34.667 23 -52 69 -52zM188.002 371c25.333 0 44.5 5 57.5 15s19.5 24 19.5 42v12c0 18 -6.5 32 -19.5 42s-32.167 15 -57.5 15s-44.5 -5 -57.5 -15s-19.5 -24 -19.5 -42v-12c0 -18 6.5 -32 19.5 -42s32.167 -15 57.5 -15
z" />
    <glyph glyph-name="uni2079" unicode="&#x2079;" horiz-adv-x="359" 
d="M318 560c0 -26.667 -4.33203 -51.6641 -12.999 -74.9971s-19.834 -44.833 -33.501 -64.5s-29 -37.334 -46 -53.001s-33.833 -28.5 -50.5 -38.5h-84c22.667 15.333 43 30 61 44s33.667 28.333 47 43s24.5 30.167 33.5 46.5s15.833 34.5 20.5 54.5l-4 1
c-8 -14.667 -19.167 -27.334 -33.5 -38.001s-34.166 -16 -59.499 -16c-34.667 0 -63.167 10.333 -85.5 31s-33.5 48.667 -33.5 84c0 37.333 12.667 67.5 38 90.5s59.666 34.5 102.999 34.5c44 0 78.333 -12.833 103 -38.5s37 -60.834 37 -105.501zM177.001 512.003
c23.333 0 41.833 5.66699 55.5 17s20.5 28.666 20.5 51.999v6c0 23.333 -6.83301 40.666 -20.5 51.999s-32.167 17 -55.5 17s-41.833 -5.66699 -55.5 -17s-20.5 -28.666 -20.5 -51.999v-6c0 -23.333 6.83301 -40.666 20.5 -51.999s32.167 -17 55.5 -17z" />
    <glyph glyph-name="uni2080" unicode="&#x2080;" horiz-adv-x="378" 
d="M189 -6c-50 0 -86.667 16.5 -110 49.5s-35 79.833 -35 140.5c0 61.333 11.667 108.5 35 141.5s60 49.5 110 49.5s86.667 -16.5 110 -49.5s35 -79.833 35 -140.5c0 -61.333 -11.667 -108.5 -35 -141.5s-60 -49.5 -110 -49.5zM189 45c28.667 0 48.834 9.66699 60.501 29
s17.5 45.333 17.5 78v65c0 32.667 -5.83301 58.667 -17.5 78s-31.834 29 -60.501 29s-48.834 -9.66699 -60.501 -29s-17.5 -45.333 -17.5 -78v-65c0 -32.667 5.83301 -58.667 17.5 -78s31.834 -29 60.501 -29z" />
    <glyph glyph-name="uni2081" unicode="&#x2081;" horiz-adv-x="359" 
d="M55 0v50h109v268h-6l-90 -89l-36 37l102 103h93v-319h98v-50h-270z" />
    <glyph glyph-name="uni2082" unicode="&#x2082;" horiz-adv-x="346" 
d="M311 0l-272 0.000976562v57l130 105c19.333 16 34.5 32 45.5 48s16.5 32.667 16.5 50v6c0 17.333 -5.5 31.166 -16.5 41.499s-27.167 15.5 -48.5 15.5c-23.333 0 -40.833 -5.66699 -52.5 -17s-20.167 -25 -25.5 -41l-54 20c4 12 9.5 23.333 16.5 34s16 20.167 27 28.5
s24.167 15 39.5 20s33 7.5 53 7.5c41.333 0 73 -10.167 95 -30.5s33 -46.5 33 -78.5c0 -29.333 -8.83301 -54.833 -26.5 -76.5s-40.5 -43.167 -68.5 -64.5l-97 -75h205v-50z" />
    <glyph glyph-name="uni2083" unicode="&#x2083;" horiz-adv-x="346" 
d="M155 217c25.333 0 44.1689 4.83594 56.502 14.5029s18.5 22.167 18.5 37.5v4c0 16.667 -5.83301 29.5 -17.5 38.5s-27.5 13.5 -47.5 13.5c-19.333 0 -35.666 -4 -48.999 -12s-24.666 -19 -33.999 -33l-43 34c11.333 16.667 27.166 31 47.499 43s47.166 18 80.499 18
c38 0 69.167 -8.33301 93.5 -25s36.5 -40 36.5 -70c0 -24 -7.66699 -43 -23 -57s-33.666 -23.333 -54.999 -28v-3c22.667 -4 42.334 -13.333 59.001 -28s25 -35.334 25 -62.001c0 -32.667 -12.833 -58.834 -38.5 -78.501s-60.5 -29.5 -104.5 -29.5
c-36.667 0 -65.334 6.66699 -86.001 20s-37.334 28.666 -50.001 45.999l47 34c9.33301 -14.667 20.666 -26.667 33.999 -36s31.666 -14 54.999 -14c25.333 0 44.5 5.33301 57.5 16s19.5 25.667 19.5 45v6c0 36.667 -25.667 55 -77 55h-45v51h40z" />
    <glyph glyph-name="uni2084" unicode="&#x2084;" horiz-adv-x="346" 
d="M209 0v72h-189v52l164 245h85v-249h56v-48h-56v-72h-60zM209 312h-4l-130 -192h134v192z" />
    <glyph glyph-name="uni2085" unicode="&#x2085;" horiz-adv-x="348" 
d="M112 319l-11.0029 -133h4c9.33301 14.667 20 26.5 32 35.5s29.333 13.5 52 13.5c34.667 0 63.667 -10.167 87 -30.5s35 -48.5 35 -84.5c0 -37.333 -12.5 -67.666 -37.5 -90.999s-60.167 -35 -105.5 -35c-35.333 0 -63.166 6.66699 -83.499 20s-36.5 28.666 -48.5 45.999
l45 34c10 -14.667 21.333 -26.667 34 -36s30.667 -14 54 -14c25.333 0 44.333 6 57 18s19 28.667 19 50v5c0 21.333 -6.33301 38 -19 50s-31.667 18 -57 18c-17.333 0 -31.166 -3 -41.499 -9s-19.166 -12.667 -26.499 -20l-52 7l14 206h228v-50h-179z" />
    <glyph glyph-name="uni2086" unicode="&#x2086;" horiz-adv-x="359" 
d="M181 -6c-44.667 0 -79.3311 12.8301 -103.998 38.4971s-37 60.834 -37 105.501c0 26.667 4.33301 51.667 13 75s20 44.833 34 64.5s29.5 37.334 46.5 53.001s33.833 28.5 50.5 38.5h84c-23.333 -15.333 -44 -30 -62 -44s-33.667 -28.333 -47 -43
s-24.5 -30.167 -33.5 -46.5s-15.833 -34.5 -20.5 -54.5l4 -1c8.66699 14 20.167 26.333 34.5 37s34.166 16 59.499 16c34 0 62.333 -10.167 85 -30.5s34 -48.166 34 -83.499c0 -37.333 -12.833 -67.5 -38.5 -90.5s-59.834 -34.5 -102.501 -34.5zM181.003 41.9971
c23.333 0 41.833 5.66699 55.5 17s20.5 28.666 20.5 51.999v5c0 23.333 -6.83301 40.666 -20.5 51.999s-32.167 17 -55.5 17s-41.833 -5.66699 -55.5 -17s-20.5 -28.666 -20.5 -51.999v-5c0 -23.333 6.83301 -40.666 20.5 -51.999s32.167 -17 55.5 -17z" />
    <glyph glyph-name="uni2087" unicode="&#x2087;" horiz-adv-x="335" 
d="M92 0l148 319h-155v-67h-54v117h272v-52l-144 -317h-67z" />
    <glyph glyph-name="uni2088" unicode="&#x2088;" horiz-adv-x="376" 
d="M188 -6c-46.667 0 -82.332 10.167 -106.999 30.5s-37 45.833 -37 76.5c0 24 7.5 43.5 22.5 58.5s34.167 25.5 57.5 31.5v4c-20 6.66699 -36.167 17.167 -48.5 31.5s-18.5 32.166 -18.5 53.499c0 28.667 11.333 51.667 34 69s55 26 97 26s74.333 -8.66699 97 -26
s34 -40.333 34 -69c0 -21.333 -6.16699 -39.166 -18.5 -53.499s-28.5 -24.833 -48.5 -31.5v-4c24 -6 43.333 -16.5 58 -31.5s22 -34.5 22 -58.5c0 -30.667 -12.333 -56.167 -37 -76.5s-60.334 -30.5 -107.001 -30.5zM188.002 42c25.333 0 44.5 5 57.5 15s19.5 24 19.5 42v12
c0 18 -6.5 32 -19.5 42s-32.167 15 -57.5 15s-44.5 -5 -57.5 -15s-19.5 -24 -19.5 -42v-12c0 -18 6.5 -32 19.5 -42s32.167 -15 57.5 -15zM188.002 214c46 0 69 17.333 69 52v9c0 34.667 -23 52 -69 52s-69 -17.333 -69 -52v-9c0 -34.667 23 -52 69 -52z" />
    <glyph glyph-name="uni2089" unicode="&#x2089;" horiz-adv-x="359" 
d="M318 231c0 -26.667 -4.33203 -51.6641 -12.999 -74.9971s-19.834 -44.833 -33.501 -64.5s-29 -37.334 -46 -53.001s-33.833 -28.5 -50.5 -38.5h-84c22.667 15.333 43 30 61 44s33.667 28.333 47 43s24.5 30.167 33.5 46.5s15.833 34.5 20.5 54.5l-4 1
c-8 -14.667 -19.167 -27.334 -33.5 -38.001s-34.166 -16 -59.499 -16c-34.667 0 -63.167 10.333 -85.5 31s-33.5 48.667 -33.5 84c0 37.333 12.667 67.5 38 90.5s59.666 34.5 102.999 34.5c44 0 78.333 -12.833 103 -38.5s37 -60.834 37 -105.501zM177.001 183.003
c23.333 0 41.833 5.66699 55.5 17s20.5 28.666 20.5 51.999v6c0 23.333 -6.83301 40.666 -20.5 51.999s-32.167 17 -55.5 17s-41.833 -5.66699 -55.5 -17s-20.5 -28.666 -20.5 -51.999v-6c0 -23.333 6.83301 -40.666 20.5 -51.999s32.167 -17 55.5 -17z" />
    <glyph glyph-name="uni20A1" unicode="&#x20a1;" horiz-adv-x="628" 
d="M316 -1c-9.33301 0.666992 -18.3359 1.50098 -27.0029 2.50098s-16.667 2.5 -24 4.5l-10 -88h-68l12 110c-45.333 23.333 -80.166 61.666 -104.499 114.999s-36.5 121.333 -36.5 204c0 102 18.333 182 55 240s88.334 93.667 155.001 107l9 86h68l-9 -80h3
c8.66699 0 17.167 -0.333008 25.5 -1s16.166 -1.66699 23.499 -3l9 84h68l-10 -102c28 -11.333 52.167 -28.333 72.5 -51s37.5 -49.334 51.5 -80.001l-67 -41c-8 19.333 -17.5 36.833 -28.5 52.5s-24.167 28.5 -39.5 38.5l-54 -519c32 7.33301 58.333 21.833 79 43.5
s36.667 47.834 48 78.501l67 -44c-19.333 -40.667 -44.666 -75 -75.999 -103s-72.666 -45.333 -123.999 -52l-9 -83h-68zM326.997 625.001l-55.999 -540c16 -7.33301 34 -11.333 54 -12l57 547c-14.667 3.33301 -28.334 5 -41.001 5h-14zM147.998 293.001
c0 -38 5.16797 -72.167 15.501 -102.5s26.166 -54.833 47.499 -73.5l50 495c-36.667 -14 -64.667 -39 -84 -75s-29 -79.667 -29 -131v-113z" />
    <glyph glyph-name="uni20A4" unicode="&#x20a4;" horiz-adv-x="595" 
d="M525 0l-443.001 -0.000976562v100c28 12 47 30.833 57 56.5s15 52.834 15 81.501h-94v67h86c-3.33301 15.333 -7.5 30.166 -12.5 44.499l-14.5 43.5h-59v67h43c-2 12 -3 25 -3 39c0 30.667 5.16699 59 15.5 85s25.333 48.333 45 67s43.834 33.167 72.501 43.5
s61 15.5 97 15.5c51.333 0 94.166 -10 128.499 -30s62.833 -48 85.5 -84l-63 -46c-17.333 26.667 -38.166 47.667 -62.499 63s-54.833 23 -91.5 23c-43.333 0 -77.5 -12 -102.5 -36s-37.5 -60.333 -37.5 -109c0 -5.33301 0.166992 -10.5 0.5 -15.5
s0.833008 -10.167 1.5 -15.5h242v-67h-228l14 -43.5c4.66699 -14.333 8.66699 -29.166 12 -44.499h202v-67h-195c-1.33301 -36 -9.33301 -68 -24 -96s-31.667 -48.667 -51 -62v-5h364v-75z" />
    <glyph glyph-name="uni20A6" unicode="&#x20a6;" horiz-adv-x="696" 
d="M362 237h-185v-237h-82v234h-80v67h80v96h-80v67h80v234h95l139 -237h190v237h82v-234h80v-67h-80v-96h80v-67h-80v-234h-99zM332 298l-152 269h-3v-269h155zM516 120h3v280h-160z" />
    <glyph glyph-name="uni20A8" unicode="&#x20a8;" horiz-adv-x="713" 
d="M93 0l0.000976562 697.996h173c60 0 104.833 -16.167 134.5 -48.5s44.5 -78.5 44.5 -138.5c0 -46 -8.83301 -83.833 -26.5 -113.5s-44.834 -50.167 -81.501 -61.5l97 -204c12.667 -26 26 -45.333 40 -58s33.333 -19 58 -19c24 0 42.667 5.5 56 16.5s20 27.167 20 48.5
c0 7.33301 -0.666992 13.833 -2 19.5s-4 11.334 -8 17.001s-9.5 12.334 -16.5 20.001s-16.167 17.167 -27.5 28.5l-19 19c-28 28 -47.167 52.167 -57.5 72.5s-15.5 41.833 -15.5 64.5c0 33.333 10.5 61 31.5 83s50.833 33 89.5 33c17.333 0 34.5 -2 51.5 -6
s33.167 -11.667 48.5 -23l-32 -57c-18.667 14.667 -40 22 -64 22c-16 0 -28.333 -4.5 -37 -13.5s-13 -21.5 -13 -37.5c0 -15.333 3.83301 -29 11.5 -41s21.5 -28 41.5 -48l15 -15c15.333 -15.333 28 -28.666 38 -39.999s18 -22 24 -32s10.167 -20.167 12.5 -30.5
s3.5 -22.166 3.5 -35.499c0 -40 -12.833 -72 -38.5 -96s-65.5 -36 -119.5 -36c-38 0 -70.333 7.83301 -97 23.5s-48.667 43.167 -66 82.5l-102 228h-87v-322h-80zM258.001 391.996c33.333 0 59.166 8 77.499 24s27.5 39.333 27.5 70v46c0 30.667 -9.16699 54 -27.5 70
s-44.166 24 -77.499 24h-85v-234h85z" />
    <glyph glyph-name="uni20A9" unicode="&#x20a9;" horiz-adv-x="952" 
d="M567 238h-191l-63 -238h-91l-56 235h-129v67h113l-22 95h-91v67h75l-56 234h83l53 -237h173l62 237h96l60 -237h177l55 237h84l-60 -234h76v-67h-93l-24 -95h117v-67h-134l-61 -235h-91zM339 362l9 38h-142l8 -38l58 -261h2zM676 102l60 260l9 38h-146l9 -38l65 -260h3z
M393 299h158l-13 49l-64 263h-2l-66 -263z" />
    <glyph glyph-name="uni20AA" unicode="&#x20aa;" horiz-adv-x="770" 
d="M261 540l79.999 0.00195312v-470h150c13.333 0 26.333 1.83301 39 5.5s24 9.66699 34 18s18 19.666 24 33.999s9 32.5 9 54.5v516h80v-500c0 -33.333 -4.66699 -62.333 -14 -87s-22.166 -45.334 -38.499 -62.001s-36 -29 -59 -37s-47.833 -12 -74.5 -12h-230v540z
M92.999 0.00195312l0.00195312 698.002h232c54 0 98.167 -16.333 132.5 -49s51.5 -82.334 51.5 -149.001v-342h-80v358c0 22 -2.83301 40.167 -8.5 54.5s-13.334 25.666 -23.001 33.999s-20.834 14.333 -33.501 18s-26 5.5 -40 5.5h-151v-628h-80z" />
    <glyph glyph-name="uni20AB" unicode="&#x20ab;" horiz-adv-x="580" 
d="M392 209l-4 -0.000976562c-14 -25.333 -32.667 -44.666 -56 -57.999s-51.666 -20 -84.999 -20c-54 0 -96.833 18.5 -128.5 55.5s-47.5 90.167 -47.5 159.5s15.833 122.5 47.5 159.5s74.5 55.5 128.5 55.5c33.333 0 61.666 -6.83301 84.999 -20.5s42 -33.167 56 -58.5h4
v137h-149v61h149v60h76v-60h68v-61h-68v-479h-76v69zM275 194.999c34 0 62 8.49805 84 25.498s33 39.5 33 67.5v116c0 28 -11 50.5 -33 67.5s-50 25.5 -84 25.5c-37.333 0 -67.166 -10.667 -89.499 -32s-33.5 -49.666 -33.5 -84.999v-68
c0 -35.333 11.167 -63.666 33.5 -84.999s52.166 -32 89.499 -32zM71 -0.00292969v67h427v-67h-427z" />
    <glyph glyph-name="Euro" unicode="&#x20ac;" horiz-adv-x="625" 
d="M338 -12c-88 0 -156.664 31 -205.997 93s-74 151.333 -74 268s24.667 206 74 268s118 93 206 93c58.667 0 107.5 -13.5 146.5 -40.5s69.5 -64.5 91.5 -112.5l-65 -40c-14 36 -35.667 64.833 -65 86.5s-65.333 32.5 -108 32.5c-52.667 0 -95.334 -15.667 -128.001 -47
s-53 -73 -61 -125h257v-67h-261v-96h261v-67h-257c8.66699 -52 29.167 -93.667 61.5 -125s74.833 -47 127.5 -47c44 0 81 11.667 111 35s52.333 54 67 92l65 -43c-10.667 -22.667 -23.334 -43.667 -38.001 -63s-31.834 -36 -51.501 -50s-42.167 -25 -67.5 -33
s-54 -12 -86 -12z" />
    <glyph glyph-name="uni20AD" unicode="&#x20ad;" horiz-adv-x="617" 
d="M177 0h-82v327h-85v69h85v302h82v-302h80l224 302h93l-230 -302h214v-69h-208l240 -327h-100l-231 327h-82v-327z" />
    <glyph glyph-name="uni20AE" unicode="&#x20ae;" horiz-adv-x="608" 
d="M346 217v-217h-84v176l-133 -64v69l133 64v91l-133 -64v69l133 64v219h-222v74h528v-74h-222v-178l134 65v-69l-134 -65v-91l134 65v-69z" />
    <glyph glyph-name="uni20B1" unicode="&#x20b1;" horiz-adv-x="628" 
d="M193 0l-83 -0.000976562v332h-80v67h80v96h-80v67h80v136h231c48 0 86.5 -12 115.5 -36s49.833 -57.333 62.5 -100h91v-67h-79c0.666992 -8 1.16699 -16.167 1.5 -24.5s0.5 -16.5 0.5 -24.5s-0.166992 -16 -0.5 -24s-0.833008 -15.667 -1.5 -23h79v-67h-91
c-12 -43.333 -32.5 -77.166 -61.5 -101.499s-67.833 -36.5 -116.5 -36.5h-148v-194zM193 558.999h248.998c-7.33301 20 -19.666 36.167 -36.999 48.5s-38.666 18.5 -63.999 18.5h-148v-67zM449.998 395.999v102h-257v-102h257zM340.998 265.999
c25.333 0 47 6.16797 65 18.501s30.667 29.166 38 50.499h-251v-69h148z" />
    <glyph glyph-name="uni20B2" unicode="&#x20b2;" horiz-adv-x="676" 
d="M223 -82l17.001 94.002c-58 20 -102.833 58.167 -134.5 114.5s-47.5 131.5 -47.5 225.5c0 116 24.833 203 74.5 261s119.167 87 208.5 87c2.66699 0 8.66699 -0.333008 18 -1l14 81h65l-16 -90c77.333 -20.667 133 -68.334 167 -143.001l-68 -41
c-10.667 27.333 -25.167 50.333 -43.5 69s-41.5 32.667 -69.5 42l-45 -258h241v-99c0 -52 -8.66699 -94.833 -26 -128.5s-39.333 -60.334 -66 -80.001s-55.667 -33.5 -87 -41.5s-61.333 -12 -90 -12c-5.33301 0 -10.333 0.166992 -15 0.5s-10.334 0.833008 -17.001 1.5
l-15 -82h-65zM148.001 293.002c0 -49.333 9 -91 27 -125s44.333 -59.333 79 -76l94 534h-6c-62 0 -109.833 -19.333 -143.5 -58s-50.5 -92.667 -50.5 -162v-113zM350.001 283.002l-35.999 -209c7.33301 -0.666992 13.5 -1.16699 18.5 -1.5s10.167 -0.5 15.5 -0.5
c55.333 0 98.166 15 128.499 45s45.5 71 45.5 123v43h-172z" />
    <glyph glyph-name="uni20B4" unicode="&#x20b4;" horiz-adv-x="628" 
d="M316 -12c-32 0 -60.8301 4.66699 -86.4971 14s-47.5 22.166 -65.5 38.499s-32 36 -42 59s-15 48.5 -15 76.5c0 14.667 1.33301 27.834 4 39.501s5.66699 22.5 9 32.5h-74v67h125l166 96h-291v67h375c6 14.667 9 31.667 9 51c0 36 -10.833 62.833 -32.5 80.5
s-51.834 26.5 -90.501 26.5c-26 0 -50.667 -5 -74 -15s-45 -26.667 -65 -50l-53 53c28 30.667 59 52.667 93 66s69.333 20 106 20c29.333 0 56.166 -4 80.499 -12s45.333 -19.5 63 -34.5s31.334 -33.333 41.001 -55s14.5 -45.834 14.5 -72.501c0 -22.667 -3 -42 -9 -58h78
v-67h-126l-166 -96h292v-67h-376c-5.33301 -9.33301 -9.33301 -19.333 -12 -30s-4 -22.667 -4 -36c0 -40 11.833 -70 35.5 -90s55.5 -30 95.5 -30c28 0 54.5 5.83301 79.5 17.5s51.167 31.834 78.5 60.501l51 -55c-26.667 -32 -58.334 -56.167 -95.001 -72.5
s-76.334 -24.5 -119.001 -24.5z" />
    <glyph glyph-name="uni20B5" unicode="&#x20b5;" horiz-adv-x="628" 
d="M223 -82l17.0029 93.9971c-58.667 20 -103.667 58.667 -135 116s-47 131 -47 221c0 114 24.5 201 73.5 261s117.5 90 205.5 90c5.33301 0 12.666 -0.333008 21.999 -1l14 81h65l-16 -91c38 -11.333 69.667 -28.666 95 -51.999s46 -52.666 62 -87.999l-68 -41
c-9.33301 24 -22.333 45.167 -39 63.5s-38 32.5 -64 42.5l-94 -540c5.33301 -0.666992 9.66602 -1 12.999 -1h10c46 0 84 11.5 114 34.5s52 53.5 66 91.5l67 -42c-10.667 -22.667 -23.5 -43.667 -38.5 -63s-32.5 -36.166 -52.5 -50.499s-42.833 -25.5 -68.5 -33.5
s-54.834 -12 -87.501 -12c-5.33301 0 -10.5 0.166992 -15.5 0.5s-11.167 0.833008 -18.5 1.5l-15 -82h-65zM148.003 292.997c0 -48.667 8.83105 -90.333 26.498 -125s44.167 -60.667 79.5 -78l94 536h-11c-30 0 -56.667 -5.33301 -80 -16s-43.166 -25.5 -59.499 -44.5
s-28.666 -42.167 -36.999 -69.5s-12.5 -57.333 -12.5 -90v-113z" />
    <glyph glyph-name="uni20B8" unicode="&#x20b8;" horiz-adv-x="608" 
d="M40 628v70h528v-70h-528zM346 468v-468h-84v468h-222v70h528v-70h-222z" />
    <glyph glyph-name="uni20B9" unicode="&#x20b9;" horiz-adv-x="605" 
d="M394 0l-219.001 298h-122v70h222c34 0 62 8 84 24s33 40 33 72h-339v70h339c-1.33301 30.667 -12.666 54 -33.999 70s-49 24 -83 24h-222v70h518v-70h-166v-4c4 -0.666992 9.33301 -2 16 -4s13.5 -6.16699 20.5 -12.5s13.333 -15.333 19 -27s9.5 -27.167 11.5 -46.5h99
v-70h-99c-6 -52 -26 -92.667 -60 -122s-80.333 -44 -139 -44l223 -298h-102z" />
    <glyph glyph-name="uni20BA" unicode="&#x20ba;" horiz-adv-x="606" 
d="M110 248l-96.999 -46.999v69l97 47v91l-97 -47v69l97 47v221h84v-181l216 104v-69l-216 -104v-91l216 104v-69l-216 -104v-215h108c55.333 0 98.666 20.833 129.999 62.5s47 98.167 47 169.5h82c0 -42.667 -5.33301 -82.5 -16 -119.5s-26.667 -69.333 -48 -97
s-47.833 -49.334 -79.5 -65.001s-68.5 -23.5 -110.5 -23.5h-197v248z" />
    <glyph glyph-name="uni20BD" unicode="&#x20bd;" horiz-adv-x="623" 
d="M194 132v-132h-84v132h-80v70h80v97h-80v70h80v329h278c62.667 0 110.834 -18 144.501 -54s50.5 -84.667 50.5 -146s-16.833 -109.833 -50.5 -145.5s-81.834 -53.5 -144.501 -53.5h-194v-97h275v-70h-275zM194 369h194c33.333 0 59.166 8.66699 77.499 26
s27.5 42 27.5 74v55c0 32 -9.16699 56.667 -27.5 74s-44.166 26 -77.499 26h-194v-255z" />
    <glyph glyph-name="uni20BF" unicode="&#x20bf;" horiz-adv-x="643" 
d="M332 21l-60.001 -0.000976562v-103h-70v103h-110v656h110v103h70v-103h60v103h70v-104c48 -5.33301 85.5 -23 112.5 -53s40.5 -68.333 40.5 -115c0 -22 -3.16699 -41.167 -9.5 -57.5s-14.833 -30.166 -25.5 -41.499s-23 -20.333 -37 -27s-29 -11.334 -45 -14.001v-6
c16 -2.66699 32.5 -6.83398 49.5 -12.501s32.333 -14.167 46 -25.5s24.834 -26.166 33.501 -44.499s13 -41.166 13 -68.499s-4.5 -52.5 -13.5 -75.5s-21.5 -43 -37.5 -60s-34.833 -30.333 -56.5 -40s-45.167 -14.5 -70.5 -14.5v-103h-70v103zM174.999 394.999h197
c33.333 0 57.666 7.5 72.999 22.5s23 37.5 23 67.5v28c0 30 -7.66699 52.5 -23 67.5s-39.666 22.5 -72.999 22.5h-197v-208zM174.999 94.999h201c36 0 64.5 8.33301 85.5 25s31.5 41 31.5 73v32c0 32 -10.5 56.333 -31.5 73s-49.5 25 -85.5 25h-201v-228z" />
    <glyph glyph-name="uni2113" unicode="&#x2113;" horiz-adv-x="488" 
d="M272 -12c-49.333 0 -86.667 15.8311 -112 47.498s-38 72.834 -38 123.501v10c-9.33301 -7.33301 -18.5 -14 -27.5 -20l-27.5 -18l-33 54l43.5 28.5c15 9.66699 29.167 19.834 42.5 30.501v317c0 36 3.5 66.167 10.5 90.5s16.667 44 29 59s27.166 25.667 44.499 32
s36 9.5 56 9.5c46 0 80.833 -14.333 104.5 -43s35.5 -70.334 35.5 -125.001c0 -66 -17.5 -127.833 -52.5 -185.5s-85.167 -116.5 -150.5 -176.5v-44c0 -44 7.16699 -75 21.5 -93s34.5 -27 60.5 -27c30 0 54.5 9.83301 73.5 29.5s35.5 44.834 49.5 75.501l57 -35
c-8.66699 -19.333 -18.834 -37.5 -30.501 -54.5s-25.167 -31.833 -40.5 -44.5s-32.666 -22.667 -51.999 -30s-40.666 -11 -63.999 -11zM262.999 684.998c-19.333 0 -35.168 -8.16797 -47.501 -24.501s-18.5 -47.166 -18.5 -92.499v-260c42 44 74 88.167 96 132.5
s33 88.833 33 133.5v17c0 34 -5.66699 58.167 -17 72.5s-26.666 21.5 -45.999 21.5z" />
    <glyph glyph-name="uni2116" unicode="&#x2116;" horiz-adv-x="1027" 
d="M823 364c-22.667 0 -43.667 3.83301 -63 11.5s-36.166 18.834 -50.499 33.501s-25.666 32.834 -33.999 54.501s-12.5 46.167 -12.5 73.5s4.16699 51.833 12.5 73.5s19.666 39.834 33.999 54.501s31.166 25.834 50.499 33.501s40.333 11.5 63 11.5
s43.667 -3.83301 63 -11.5s36.166 -18.834 50.499 -33.501s25.666 -32.834 33.999 -54.501s12.5 -46.167 12.5 -73.5s-4.16699 -51.833 -12.5 -73.5s-19.666 -39.834 -33.999 -54.501s-31.166 -25.834 -50.499 -33.501s-40.333 -11.5 -63 -11.5zM93 0v698h92l224 -405
l97 -177h3v582h78v-698h-94l-236 419l-83 155h-3v-574h-78zM823 417c28 0 50 9 66 27s24 39.667 24 65v56c0 25.333 -8 47 -24 65s-38 27 -66 27s-50 -9 -66 -27s-24 -39.667 -24 -65v-56c0 -25.333 8 -47 24 -65s38 -27 66 -27zM686 243v66h274v-66h-274z" />
    <glyph glyph-name="trademark" unicode="&#x2122;" horiz-adv-x="658" 
d="M122 419v234h-90v45h229v-45h-89v-234h-50zM313 419v279h63l69 -133h3l68 133h60v-279h-46v126l1 83h-4l-82 -155l-83 155h-4l2 -83v-126h-47z" />
    <glyph glyph-name="Omega" unicode="&#x2126;" horiz-adv-x="716" 
d="M58 74h159.002v10c-20.667 11.333 -40.334 26 -59.001 44s-35.167 39.333 -49.5 64s-25.666 52.5 -33.999 83.5s-12.5 65.167 -12.5 102.5c0 40.667 5.83301 81 17.5 121s29.5 75.5 53.5 106.5s54.667 56.167 92 75.5s81.666 29 132.999 29s95.666 -9.66699 132.999 -29
s68 -44.5 92 -75.5s41.833 -66.5 53.5 -106.5s17.5 -80.333 17.5 -121c0 -37.333 -4.16699 -71.5 -12.5 -102.5s-19.666 -58.833 -33.999 -83.5s-30.833 -46 -49.5 -64s-38.334 -32.667 -59.001 -44v-10h159v-74h-230v111c16 6 32 16.5 48 31.5s30.5 32.833 43.5 53.5
s23.667 43.5 32 68.5s12.5 50.5 12.5 76.5v90c0 24 -4.66699 48.167 -14 72.5s-22.833 46.333 -40.5 66s-39.167 35.5 -64.5 47.5s-54.333 18 -87 18s-61.667 -6 -87 -18s-46.833 -27.833 -64.5 -47.5s-31.167 -41.667 -40.5 -66s-14 -48.5 -14 -72.5v-90
c0 -26 4 -51.5 12 -76.5s18.5 -47.833 31.5 -68.5s27.667 -38.5 44 -53.5s32.5 -25.5 48.5 -31.5v-111h-230v74z" />
    <glyph glyph-name="uni212E" unicode="&#x212e;" horiz-adv-x="726" 
d="M180 109c21.333 -20 47.168 -36.665 77.501 -49.998s65.5 -20 105.5 -20c60 0 109.667 13.667 149 41s71 63.333 95 108l46 -25c-13.333 -25.333 -29.333 -48.666 -48 -69.999s-40 -39.833 -64 -55.5s-50.833 -27.834 -80.5 -36.501s-62.167 -13 -97.5 -13
c-47.333 0 -90.833 8.5 -130.5 25.5s-74.167 41.167 -103.5 72.5s-52.166 69.166 -68.499 113.499s-24.5 94.166 -24.5 149.499c0 54.667 8.16699 104.334 24.5 149.001s39.166 82.667 68.499 114s63.833 55.5 103.5 72.5s83.167 25.5 130.5 25.5
c46.667 0 90 -8.5 130 -25.5s74.667 -41.167 104 -72.5s52.166 -69.333 68.499 -114s24.5 -94.334 24.5 -149.001h-510v-240zM546.002 397.002l-0.00195312 195c-21.333 20 -47.166 36.667 -77.499 50s-65.5 20 -105.5 20s-75.167 -6.66699 -105.5 -20
s-56.166 -30 -77.499 -50v-195h366z" />
    <glyph glyph-name="uni2150" unicode="&#x2150;" horiz-adv-x="861" 
d="M55 329v50h109v268h-6l-90 -89l-36 37l102 103h93v-319h98v-50h-270zM171 0l486 698h67l-486 -698h-67zM618 0l148 319h-155v-67h-54v117h272v-52l-144 -317h-67z" />
    <glyph glyph-name="uni2151" unicode="&#x2151;" horiz-adv-x="880" 
d="M55 329v50h109v268h-6l-90 -89l-36 37l102 103h93v-319h98v-50h-270zM171 0l486 698h67l-486 -698h-67zM839 231c0 -26.667 -4.33203 -51.6641 -12.999 -74.9971s-19.834 -44.833 -33.501 -64.5s-29 -37.334 -46 -53.001s-33.833 -28.5 -50.5 -38.5h-84
c22.667 15.333 43 30 61 44s33.667 28.333 47 43s24.5 30.167 33.5 46.5s15.833 34.5 20.5 54.5l-4 1c-8 -14.667 -19.167 -27.334 -33.5 -38.001s-34.166 -16 -59.499 -16c-34.667 0 -63.167 10.333 -85.5 31s-33.5 48.667 -33.5 84c0 37.333 12.667 67.5 38 90.5
s59.666 34.5 102.999 34.5c44 0 78.333 -12.833 103 -38.5s37 -60.834 37 -105.501zM698.001 183.003c23.333 0 41.833 5.66699 55.5 17s20.5 28.666 20.5 51.999v6c0 23.333 -6.83301 40.666 -20.5 51.999s-32.167 17 -55.5 17s-41.833 -5.66699 -55.5 -17
s-20.5 -28.666 -20.5 -51.999v-6c0 -23.333 6.83301 -40.666 20.5 -51.999s32.167 -17 55.5 -17z" />
    <glyph glyph-name="uni2153" unicode="&#x2153;" horiz-adv-x="872" 
d="M55 329v50h109v268h-6l-90 -89l-36 37l102 103h93v-319h98v-50h-270zM171 0l486 698h67l-486 -698h-67zM681 217c25.333 0 44.1689 4.83594 56.502 14.5029s18.5 22.167 18.5 37.5v4c0 16.667 -5.83301 29.5 -17.5 38.5s-27.5 13.5 -47.5 13.5
c-19.333 0 -35.666 -4 -48.999 -12s-24.666 -19 -33.999 -33l-43 34c11.333 16.667 27.166 31 47.499 43s47.166 18 80.499 18c38 0 69.167 -8.33301 93.5 -25s36.5 -40 36.5 -70c0 -24 -7.66699 -43 -23 -57s-33.666 -23.333 -54.999 -28v-3
c22.667 -4 42.334 -13.333 59.001 -28s25 -35.334 25 -62.001c0 -32.667 -12.833 -58.834 -38.5 -78.501s-60.5 -29.5 -104.5 -29.5c-36.667 0 -65.334 6.66699 -86.001 20s-37.334 28.666 -50.001 45.999l47 34c9.33301 -14.667 20.666 -26.667 33.999 -36
s31.666 -14 54.999 -14c25.333 0 44.5 5.33301 57.5 16s19.5 25.667 19.5 45v6c0 36.667 -25.667 55 -77 55h-45v51h40z" />
    <glyph glyph-name="uni2154" unicode="&#x2154;" horiz-adv-x="859" 
d="M311 329l-272 0.000976562v57l130 105c19.333 16 34.5 31.833 45.5 47.5s16.5 32.5 16.5 50.5v6c0 17.333 -5.5 31.166 -16.5 41.499s-27.167 15.5 -48.5 15.5c-23.333 0 -40.833 -5.66699 -52.5 -17s-20.167 -25 -25.5 -41l-54 20c4 12 9.5 23.333 16.5 34
s16 20.167 27 28.5s24.167 15 39.5 20s33 7.5 53 7.5c41.333 0 73 -10.167 95 -30.5s33 -46.5 33 -78.5c0 -29.333 -8.83301 -54.833 -26.5 -76.5s-40.5 -43.167 -68.5 -64.5l-97 -75h205v-50zM158 0.000976562l486 698h67l-486 -698h-67zM668 217.001
c25.333 0 44.1689 4.83594 56.502 14.5029s18.5 22.167 18.5 37.5v4c0 16.667 -5.83301 29.5 -17.5 38.5s-27.5 13.5 -47.5 13.5c-19.333 0 -35.666 -4 -48.999 -12s-24.666 -19 -33.999 -33l-43 34c11.333 16.667 27.166 31 47.499 43s47.166 18 80.499 18
c38 0 69.167 -8.33301 93.5 -25s36.5 -40 36.5 -70c0 -24 -7.66699 -43 -23 -57s-33.666 -23.333 -54.999 -28v-3c22.667 -4 42.334 -13.333 59.001 -28s25 -35.334 25 -62.001c0 -32.667 -12.833 -58.834 -38.5 -78.501s-60.5 -29.5 -104.5 -29.5
c-36.667 0 -65.334 6.66699 -86.001 20s-37.334 28.666 -50.001 45.999l47 34c9.33301 -14.667 20.666 -26.667 33.999 -36s31.666 -14 54.999 -14c25.333 0 44.5 5.33301 57.5 16s19.5 25.667 19.5 45v6c0 36.667 -25.667 55 -77 55h-45v51h40z" />
    <glyph glyph-name="uni2155" unicode="&#x2155;" horiz-adv-x="869" 
d="M55 329v50h109v268h-6l-90 -89l-36 37l102 103h93v-319h98v-50h-270zM171 0l486 698h67l-486 -698h-67zM633 319l-11.0029 -133h4c9.33301 14.667 20 26.5 32 35.5s29.333 13.5 52 13.5c34.667 0 63.667 -10.167 87 -30.5s35 -48.5 35 -84.5
c0 -37.333 -12.5 -67.666 -37.5 -90.999s-60.167 -35 -105.5 -35c-35.333 0 -63.166 6.66699 -83.499 20s-36.5 28.666 -48.5 45.999l45 34c10 -14.667 21.333 -26.667 34 -36s30.667 -14 54 -14c25.333 0 44.333 6 57 18s19 28.667 19 50v5c0 21.333 -6.33301 38 -19 50
s-31.667 18 -57 18c-17.333 0 -31.166 -3 -41.499 -9s-19.166 -12.667 -26.499 -20l-52 7l14 206h228v-50h-179z" />
    </font>
</defs>
</svg>
